%TF.GenerationSoftware,KiCad,Pcbnew,9.0.1*%
%TF.CreationDate,2025-04-29T11:50:23+07:00*%
%TF.ProjectId,siplex-som-s16,7369706c-6578-42d7-936f-6d2d7331362e,rev?*%
%TF.SameCoordinates,Original*%
%TF.FileFunction,Copper,L3,Inr*%
%TF.FilePolarity,Positive*%
%FSLAX45Y45*%
G04 Gerber Fmt 4.5, Leading zero omitted, Abs format (unit mm)*
G04 Created by KiCad (PCBNEW 9.0.1) date 2025-04-29 11:50:23*
%MOMM*%
%LPD*%
G01*
G04 APERTURE LIST*
%TA.AperFunction,ComponentPad*%
%ADD10O,1.500000X1.000000*%
%TD*%
%TA.AperFunction,ComponentPad*%
%ADD11O,1.000000X1.500000*%
%TD*%
%TA.AperFunction,ViaPad*%
%ADD12C,0.300000*%
%TD*%
%TA.AperFunction,ViaPad*%
%ADD13C,0.600000*%
%TD*%
%TA.AperFunction,Conductor*%
%ADD14C,0.100000*%
%TD*%
G04 APERTURE END LIST*
D10*
%TO.N,PB7*%
%TO.C,J8*%
X12531080Y-8473680D03*
%TO.N,PB8*%
X12531080Y-8600680D03*
%TO.N,PB9*%
X12531080Y-8727680D03*
%TO.N,PH4*%
X12531080Y-8854680D03*
%TO.N,GND*%
X12531080Y-8981680D03*
%TO.N,PC0*%
X12531080Y-9108680D03*
%TO.N,PC1*%
X12531080Y-9235680D03*
%TO.N,PC4*%
X12531080Y-9362680D03*
%TO.N,PA0*%
X12531080Y-9489680D03*
%TO.N,PA1*%
X12531080Y-9616680D03*
%TO.N,PA4*%
X12531080Y-9743680D03*
%TO.N,PA3*%
X12531080Y-9870680D03*
%TO.N,PA7*%
X12531080Y-9997680D03*
%TO.N,PA6*%
X12531080Y-10124680D03*
%TO.N,PA5*%
X12531080Y-10251680D03*
%TO.N,PB0*%
X12531080Y-10378680D03*
%TO.N,PB1*%
X12531080Y-10505680D03*
%TO.N,PC5*%
X12531080Y-10632680D03*
%TO.N,PB12*%
X12531080Y-10759680D03*
%TO.N,PB10*%
X12531080Y-10886680D03*
%TO.N,PB13*%
X12531080Y-11013680D03*
%TO.N,PB11*%
X12531080Y-11140680D03*
%TD*%
%TO.N,/Castellated_holes/SWDIO*%
%TO.C,J5*%
X15531080Y-11140680D03*
%TO.N,/Castellated_holes/SWCLK*%
X15531080Y-11013680D03*
%TO.N,GND*%
X15531080Y-10886680D03*
%TO.N,/Castellated_holes/USB_DN*%
X15531080Y-10759680D03*
%TO.N,/Castellated_holes/USB_DP*%
X15531080Y-10632680D03*
%TO.N,GND*%
X15531080Y-10505680D03*
%TO.N,/Castellated_holes/USB_VBUS_DET*%
X15531080Y-10378680D03*
%TO.N,/Castellated_holes/SWO*%
X15531080Y-10251680D03*
%TO.N,GND*%
X15531080Y-10124680D03*
%TO.N,/Castellated_holes/LTDC_R0*%
X15531080Y-9997680D03*
%TO.N,/Castellated_holes/LTDC_R1*%
X15531080Y-9870680D03*
%TO.N,/Castellated_holes/LTDC_R2*%
X15531080Y-9743680D03*
%TO.N,/Castellated_holes/LTDC_R3*%
X15531080Y-9616680D03*
%TO.N,/Castellated_holes/LTDC_R4*%
X15531080Y-9489680D03*
%TO.N,/Castellated_holes/LTDC_R5*%
X15531080Y-9362680D03*
%TO.N,/Castellated_holes/LTDC_R6*%
X15531080Y-9235680D03*
%TO.N,/Castellated_holes/LTDC_R7*%
X15531080Y-9108680D03*
%TO.N,/Castellated_holes/LTDC_G0*%
X15531080Y-8981680D03*
%TO.N,/Castellated_holes/LTDC_G1*%
X15531080Y-8854680D03*
%TO.N,/Castellated_holes/LTDC_G2*%
X15531080Y-8727680D03*
%TO.N,/Castellated_holes/LTDC_G3*%
X15531080Y-8600680D03*
%TO.N,/Castellated_holes/LTDC_G4*%
X15531080Y-8473680D03*
%TD*%
D11*
%TO.N,PB14*%
%TO.C,J9*%
X12697580Y-11307180D03*
%TO.N,PB15*%
X12824580Y-11307180D03*
%TO.N,PH7*%
X12951580Y-11307180D03*
%TO.N,PD13*%
X13078580Y-11307180D03*
%TO.N,PC6*%
X13205580Y-11307180D03*
%TO.N,PC7*%
X13332580Y-11307180D03*
%TO.N,PC8*%
X13459580Y-11307180D03*
%TO.N,PH14*%
X13586580Y-11307180D03*
%TO.N,PD2*%
X13713580Y-11307180D03*
%TO.N,PD3*%
X13840580Y-11307180D03*
%TO.N,PD5*%
X13967580Y-11307180D03*
%TO.N,PD6*%
X14094580Y-11307180D03*
%TO.N,PD7*%
X14221580Y-11307180D03*
%TO.N,PI3*%
X14348580Y-11307180D03*
%TO.N,PA15*%
X14475580Y-11307180D03*
%TO.N,PC12*%
X14602580Y-11307180D03*
%TO.N,PG11*%
X14729580Y-11307180D03*
%TO.N,PB4*%
X14856580Y-11307180D03*
%TO.N,VIN*%
X14983580Y-11307180D03*
%TO.N,+3V3*%
X15110580Y-11307180D03*
%TO.N,GND*%
X15237580Y-11307180D03*
X15364580Y-11307180D03*
%TD*%
%TO.N,PB5*%
%TO.C,J7*%
X12697580Y-8307180D03*
%TO.N,GND*%
X12824580Y-8307180D03*
%TO.N,VRTC*%
X12951580Y-8307180D03*
%TO.N,/Castellated_holes/NRST*%
X13078580Y-8307180D03*
%TO.N,/MCU/BOOT0*%
X13205580Y-8307180D03*
%TO.N,/Castellated_holes/LTDC_DE*%
X13332580Y-8307180D03*
%TO.N,/Castellated_holes/LTDC_VSYNC*%
X13459580Y-8307180D03*
%TO.N,/Castellated_holes/LTDC_HSYNC*%
X13586580Y-8307180D03*
%TO.N,GND*%
X13713580Y-8307180D03*
%TO.N,/Castellated_holes/LTDC_CLK*%
X13840580Y-8307180D03*
%TO.N,GND*%
X13967580Y-8307180D03*
%TO.N,/Castellated_holes/LTDC_B7*%
X14094580Y-8307180D03*
%TO.N,/Castellated_holes/LTDC_B6*%
X14221580Y-8307180D03*
%TO.N,/Castellated_holes/LTDC_B5*%
X14348580Y-8307180D03*
%TO.N,/Castellated_holes/LTDC_B4*%
X14475580Y-8307180D03*
%TO.N,/Castellated_holes/LTDC_B3*%
X14602580Y-8307180D03*
%TO.N,/Castellated_holes/LTDC_B2*%
X14729580Y-8307180D03*
%TO.N,/Castellated_holes/LTDC_B1*%
X14856580Y-8307180D03*
%TO.N,/Castellated_holes/LTDC_B0*%
X14983580Y-8307180D03*
%TO.N,/Castellated_holes/LTDC_G7*%
X15110580Y-8307180D03*
%TO.N,/Castellated_holes/LTDC_G6*%
X15237580Y-8307180D03*
%TO.N,/Castellated_holes/LTDC_G5*%
X15364580Y-8307180D03*
%TD*%
D12*
%TO.N,Net-(C1-Pad1)*%
X14704060Y-10178040D03*
X13936720Y-9718040D03*
%TO.N,GND*%
X14642060Y-9599120D03*
X12899400Y-8830060D03*
X14284960Y-11239500D03*
D13*
X12913360Y-10226040D03*
X12885420Y-8696960D03*
D12*
X14512060Y-9599120D03*
X15212060Y-9695620D03*
D13*
X14570680Y-10958670D03*
D12*
X14447060Y-9534120D03*
X14512060Y-9404120D03*
X14787880Y-8823920D03*
X13871040Y-9566620D03*
X15463520Y-8917940D03*
X14577060Y-9469120D03*
X14317060Y-9079120D03*
D13*
X13952220Y-10680460D03*
D12*
X14642060Y-9794120D03*
X14538960Y-11239500D03*
X14707060Y-9664120D03*
X13014960Y-8376920D03*
X15463520Y-10187940D03*
X14642060Y-9664120D03*
X14642060Y-9534120D03*
X14792960Y-8376920D03*
X14622780Y-10237720D03*
D13*
X14052220Y-10580460D03*
D12*
X12600940Y-9806940D03*
X15463520Y-10060940D03*
X14707060Y-9144120D03*
X14837060Y-9469120D03*
D13*
X14107160Y-8707120D03*
D12*
X14577060Y-9534120D03*
X14317060Y-9599120D03*
X12600940Y-10441940D03*
X15463520Y-9044940D03*
X14447060Y-9599120D03*
X13014960Y-11239500D03*
X13776960Y-8376920D03*
X14551660Y-10237720D03*
X12600940Y-9171940D03*
X15463520Y-8790940D03*
X12979400Y-8830060D03*
X14317060Y-9534120D03*
D13*
X13852220Y-10480460D03*
X13202920Y-10680460D03*
D12*
X12979440Y-9754120D03*
X15463520Y-11076940D03*
D13*
X13102920Y-10680460D03*
D12*
X14157960Y-11239500D03*
D13*
X13202920Y-10480460D03*
D12*
X14919960Y-11239500D03*
X12600940Y-9298940D03*
D13*
X13233400Y-10843260D03*
D12*
X14711160Y-8887920D03*
X15463520Y-9171940D03*
D13*
X14680180Y-10792460D03*
X12834620Y-10993120D03*
D12*
X15463520Y-9552940D03*
X13903960Y-8376920D03*
X14447060Y-9469120D03*
X13871040Y-9636760D03*
X14023340Y-8791200D03*
X12979440Y-9594120D03*
X12887960Y-8376920D03*
X15463520Y-8536940D03*
D13*
X13302920Y-10580460D03*
D12*
X13871040Y-9494520D03*
X14707060Y-9469120D03*
X14447060Y-9404120D03*
X12600940Y-9933940D03*
D13*
X15025180Y-10958670D03*
D12*
X15460980Y-8374380D03*
D13*
X13202920Y-10580460D03*
D12*
X13299440Y-9594120D03*
X12600940Y-9044940D03*
X13395960Y-11239500D03*
X14707060Y-9404120D03*
X15212060Y-9063740D03*
X12600940Y-11076940D03*
X14030960Y-8376920D03*
X12760960Y-8376920D03*
X14861540Y-8887340D03*
X14512060Y-9664120D03*
D13*
X15125700Y-8740140D03*
D12*
X13141960Y-11239500D03*
D13*
X13205460Y-8864600D03*
D12*
X14157960Y-8376920D03*
X14538960Y-8376920D03*
X15173960Y-8376920D03*
X15212060Y-9490460D03*
X14577060Y-9794120D03*
X13903960Y-11239500D03*
X14252060Y-9079120D03*
X13776960Y-11239500D03*
X15463520Y-10822940D03*
X14577060Y-9664120D03*
X15463520Y-10949940D03*
X12887960Y-11239500D03*
D13*
X14958060Y-8636000D03*
X13852220Y-10580460D03*
D12*
X12598400Y-11239500D03*
X13013313Y-10204827D03*
X14837060Y-9599120D03*
X12600940Y-10187940D03*
D13*
X13102920Y-10480460D03*
D12*
X12600940Y-8663940D03*
X14030960Y-11239500D03*
X12600940Y-8917940D03*
X14642060Y-9469120D03*
X14665960Y-8376920D03*
X12600940Y-10060940D03*
X14292580Y-8827520D03*
X14837060Y-9534120D03*
X15300960Y-8376920D03*
X14919960Y-8376920D03*
X12760960Y-11239500D03*
X12600940Y-10949940D03*
X13268960Y-8376920D03*
X12600940Y-9552940D03*
X13874500Y-9079120D03*
D13*
X14052220Y-10480460D03*
D12*
X14382060Y-9274120D03*
X14704060Y-10274040D03*
X15460980Y-11239500D03*
X14447060Y-9664120D03*
X13411200Y-8830060D03*
X13840720Y-9718040D03*
D13*
X12738100Y-10154920D03*
D12*
X14577060Y-9404120D03*
X15212060Y-9205980D03*
X13141960Y-8376920D03*
X14512060Y-9534120D03*
X12631420Y-8407400D03*
D13*
X15148560Y-10726420D03*
D12*
X12600940Y-10314940D03*
D13*
X13302920Y-10480460D03*
D12*
X13563140Y-10891460D03*
X14312440Y-10891460D03*
X15046960Y-8376920D03*
X12600940Y-9425940D03*
X13339440Y-8830060D03*
D13*
X15095220Y-10269220D03*
X12832080Y-9771380D03*
D12*
X14792960Y-11239500D03*
X15463520Y-10314940D03*
D13*
X13952220Y-10480460D03*
D12*
X14409420Y-10237720D03*
X12600940Y-8536940D03*
X15463520Y-9806940D03*
X15463520Y-9679940D03*
X15463520Y-9933940D03*
X15463520Y-8663940D03*
X14211300Y-8889740D03*
D13*
X15196820Y-10952480D03*
D12*
X15090140Y-10604700D03*
X13219440Y-9274120D03*
X14512060Y-9469120D03*
X14707060Y-9599120D03*
X14665960Y-11239500D03*
X14577060Y-9599120D03*
X13874500Y-9006840D03*
X13619440Y-9754120D03*
X12600940Y-10822940D03*
X13019440Y-10037060D03*
D13*
X14434820Y-8666480D03*
D12*
X14479560Y-10237720D03*
X12600940Y-10695940D03*
X12600940Y-8790940D03*
X13649960Y-11239500D03*
X14411960Y-8376920D03*
X13059400Y-8830060D03*
X15463520Y-10441940D03*
X15463520Y-9425940D03*
X14642060Y-9404120D03*
X13139440Y-9594120D03*
X14837060Y-9339120D03*
X14507160Y-8887920D03*
X13179440Y-10037060D03*
X15065540Y-8887340D03*
X13268960Y-11239500D03*
X15463520Y-9298940D03*
X15212060Y-9348220D03*
X15463520Y-10568940D03*
X14284960Y-8376920D03*
D13*
X14052220Y-10680460D03*
D12*
X13395960Y-8376920D03*
X15463520Y-10695940D03*
X13649960Y-8376920D03*
X12600940Y-9679940D03*
X14642060Y-9144120D03*
X15140940Y-8820960D03*
X13761720Y-10205460D03*
X12600940Y-10568940D03*
D13*
X13102920Y-10580460D03*
D12*
X14707060Y-9534120D03*
D13*
X13852220Y-10680460D03*
X13302920Y-10680460D03*
D12*
X14433900Y-8827980D03*
D13*
X12804140Y-9352280D03*
X13952220Y-10580460D03*
X14770100Y-8717280D03*
D12*
X14411960Y-11239500D03*
X13522960Y-11239500D03*
X14707060Y-9794120D03*
X13522960Y-8376920D03*
X13059440Y-9274120D03*
%TO.N,/MCU/RSTn*%
X14433900Y-8892540D03*
%TO.N,+3V3*%
X14787880Y-8887920D03*
X14363700Y-8827980D03*
X13339440Y-8894060D03*
X15212060Y-9127740D03*
X14622780Y-10173720D03*
X14117320Y-8790700D03*
X13411200Y-8894060D03*
X13711940Y-8681950D03*
X15212060Y-9269980D03*
X12899400Y-8894060D03*
X13179440Y-9973060D03*
X13019440Y-9973060D03*
X13935040Y-9636760D03*
X13563140Y-10269460D03*
X14292580Y-8891520D03*
X15212060Y-9412220D03*
X14312440Y-10955460D03*
X14211300Y-8793740D03*
X13059400Y-8894060D03*
X13935040Y-9566620D03*
X15212060Y-9554460D03*
X15212060Y-8820960D03*
X14479560Y-10173720D03*
X15212060Y-9631620D03*
X14551660Y-10173720D03*
X14993620Y-10502700D03*
X12979400Y-8894060D03*
D13*
X14589760Y-10490200D03*
X14523720Y-10490200D03*
D12*
X14409420Y-10173720D03*
D13*
X14622780Y-10401300D03*
D12*
X14312440Y-10269460D03*
X13935040Y-9494520D03*
D13*
X14691360Y-10401300D03*
D12*
X13563140Y-10955460D03*
%TO.N,Net-(U1-PDR_ON)*%
X14902060Y-9404120D03*
X15212060Y-8884960D03*
%TO.N,/MCU/BOOT0*%
X15140940Y-8884960D03*
X14837060Y-9404120D03*
%TO.N,/Castellated_holes/LTDC_G5*%
X14772060Y-9924120D03*
X15219680Y-9985220D03*
%TO.N,/Castellated_holes/LTDC_G7*%
X15219680Y-9924120D03*
X14902060Y-9924120D03*
%TO.N,/Castellated_holes/LTDC_B1*%
X15143480Y-9502140D03*
X14967060Y-9534120D03*
%TO.N,/Castellated_holes/LTDC_R4*%
X14382060Y-9859120D03*
%TO.N,unconnected-(U1-PH6-PadM11)*%
X14317060Y-9729120D03*
%TO.N,/Castellated_holes/LTDC_R0*%
X15032060Y-9534120D03*
%TO.N,/Castellated_holes/LTDC_B4*%
X14837060Y-9274120D03*
%TO.N,/Castellated_holes/LTDC_G1*%
X14967060Y-9209120D03*
%TO.N,/Castellated_holes/LTDC_R3*%
X14317060Y-9859120D03*
%TO.N,/Castellated_holes/LTDC_G0*%
X14967060Y-9144120D03*
%TO.N,unconnected-(U1-PA10-PadD15)*%
X14837060Y-9989120D03*
%TO.N,/Castellated_holes/LTDC_R2*%
X14967060Y-9924120D03*
%TO.N,/Castellated_holes/LTDC_CLK*%
X14512060Y-9924120D03*
%TO.N,/Castellated_holes/LTDC_VSYNC*%
X14837060Y-9209120D03*
%TO.N,/Castellated_holes/LTDC_B2*%
X15219680Y-9884120D03*
X14707060Y-9924120D03*
%TO.N,/Castellated_holes/LTDC_G4*%
X14837060Y-9859120D03*
%TO.N,/Castellated_holes/LTDC_R1*%
X14187060Y-9144120D03*
%TO.N,/Castellated_holes/LTDC_R5*%
X14382060Y-9794120D03*
%TO.N,/Castellated_holes/LTDC_G2*%
X14772060Y-9794120D03*
%TO.N,/Castellated_holes/LTDC_R7*%
X14512060Y-9989120D03*
%TO.N,unconnected-(U1-PH8-PadM12)*%
X14317060Y-9794120D03*
%TO.N,/Castellated_holes/LTDC_B6*%
X14902060Y-9209120D03*
X15055783Y-9035363D03*
%TO.N,VBAT*%
X14902060Y-9079120D03*
X13616940Y-8732520D03*
%TO.N,/Castellated_holes/LTDC_G6*%
X14837060Y-9924120D03*
%TO.N,/Castellated_holes/LTDC_R6*%
X14447060Y-9794120D03*
%TO.N,/Castellated_holes/LTDC_B7*%
X14902060Y-9144120D03*
%TO.N,/Castellated_holes/LTDC_HSYNC*%
X14772060Y-9209120D03*
X15013940Y-8991600D03*
%TO.N,unconnected-(U1-PG3-PadK15)*%
X14447060Y-9989120D03*
%TO.N,/Castellated_holes/LTDC_B3*%
X15219680Y-9844119D03*
X14707060Y-9989120D03*
%TO.N,/Castellated_holes/LTDC_B0*%
X14967060Y-9079120D03*
%TO.N,/Castellated_holes/LTDC_DE*%
X14382060Y-9079120D03*
%TO.N,/Castellated_holes/LTDC_G3*%
X14967060Y-9664120D03*
X15158610Y-9016131D03*
%TO.N,/Castellated_holes/LTDC_B5*%
X14902060Y-9274120D03*
%TO.N,/MCU/SDRAM_A12*%
X14382060Y-9989120D03*
X13459440Y-9754120D03*
%TO.N,/MCU/SDRAM_A8*%
X13539440Y-9754120D03*
X14122060Y-9469120D03*
%TO.N,/MCU/SDRAM_DQ13*%
X14187060Y-9989120D03*
X13059440Y-9674120D03*
%TO.N,/MCU/SDRAM_CKE*%
X14317060Y-9339120D03*
X13379440Y-9594120D03*
%TO.N,/MCU/SDRAM_DQ6*%
X14187060Y-9599120D03*
X13219440Y-9194120D03*
%TO.N,/MCU/SDRAM_A5*%
X14447060Y-9209120D03*
X13619440Y-9674120D03*
%TO.N,/MCU/SDRAM_DQ0*%
X12979440Y-9194120D03*
X14317060Y-9924120D03*
%TO.N,/MCU/SDRAM_DQMH*%
X15032060Y-9209120D03*
X13379440Y-9754120D03*
%TO.N,/MCU/SDRAM_DQ14*%
X13059440Y-9754120D03*
X14187060Y-9924120D03*
%TO.N,/MCU/SDRAM_A7*%
X14252060Y-9404120D03*
X13539440Y-9674120D03*
%TO.N,/MCU/SDRAM_A2*%
X13619440Y-9194120D03*
X14577060Y-9144120D03*
%TO.N,/MCU/SDRAM_DQ12*%
X13139440Y-9754120D03*
X14122060Y-9729120D03*
%TO.N,/MCU/SDRAM_A6*%
X13539440Y-9594120D03*
X14187060Y-9404120D03*
%TO.N,/MCU/SDRAM_A9*%
X14187060Y-9469120D03*
X13459440Y-9594120D03*
%TO.N,/MCU/~{SDRAM_RAS}*%
X14122060Y-9404120D03*
X13379440Y-9194120D03*
%TO.N,/MCU/SDRAM_DQ7*%
X13299440Y-9114120D03*
X14122060Y-9599120D03*
%TO.N,/MCU/SDRAM_A1*%
X14577060Y-9209120D03*
X13539440Y-9194120D03*
%TO.N,/MCU/SDRAM_DQ3*%
X14902060Y-9794120D03*
X13139440Y-9114120D03*
%TO.N,/MCU/~{SDRAM_CAS}*%
X14967060Y-9469120D03*
X13379440Y-9274120D03*
%TO.N,/MCU/SDRAM_DQ15*%
X12979440Y-9674120D03*
X14252060Y-9989120D03*
%TO.N,/MCU/SDRAM_A11*%
X14317060Y-9469120D03*
X13459440Y-9674120D03*
%TO.N,/MCU/SDRAM_DQ5*%
X14187060Y-9534120D03*
X13219440Y-9114120D03*
%TO.N,/MCU/SDRAM_A10*%
X14252060Y-9469120D03*
X13539440Y-9114120D03*
%TO.N,/MCU/SDRAM_A0*%
X13539440Y-9274120D03*
X14772060Y-9144120D03*
%TO.N,/MCU/~{SDRAM_WE}*%
X14512060Y-9274120D03*
X13379440Y-9114120D03*
%TO.N,/MCU/SDRAM_DQML*%
X13299440Y-9194120D03*
X15032060Y-9274120D03*
%TO.N,/MCU/SDRAM_DQ4*%
X14122060Y-9534120D03*
X13139440Y-9194120D03*
%TO.N,/MCU/SDRAM_DQ9*%
X14122060Y-9664120D03*
X13219440Y-9674120D03*
%TO.N,/MCU/SDRAM_DQ8*%
X13299440Y-9754120D03*
X14187060Y-9664120D03*
%TO.N,/MCU/SDRAM_DQ10*%
X14252060Y-9729120D03*
X13219440Y-9754120D03*
%TO.N,/MCU/SDRAM_BA1*%
X14447060Y-9859120D03*
X13459440Y-9194120D03*
%TO.N,/MCU/SDRAM_A4*%
X14512060Y-9209120D03*
X13619440Y-9594120D03*
%TO.N,/MCU/SDRAM_DQ1*%
X14382060Y-9924120D03*
X13059440Y-9114120D03*
%TO.N,/MCU/SDRAM_CLK*%
X14577060Y-9924120D03*
X13379440Y-9674120D03*
%TO.N,/MCU/SDRAM_A3*%
X14512060Y-9144120D03*
X13619440Y-9274120D03*
%TO.N,/MCU/SDRAM_DQ2*%
X13059440Y-9194120D03*
X14967060Y-9794120D03*
%TO.N,/MCU/SDRAM_BA0*%
X13459440Y-9274120D03*
X14447060Y-9924120D03*
%TO.N,/MCU/~{SDRAM_CS}*%
X13459440Y-9114120D03*
X14317060Y-9274120D03*
%TO.N,unconnected-(U2-NC-PadE2)*%
X13299440Y-9674120D03*
%TO.N,/MCU/SDRAM_DQ11*%
X13139440Y-9674120D03*
X14187060Y-9729120D03*
%TO.N,/Castellated_holes/USB_DN*%
X14902060Y-9989120D03*
%TO.N,/Castellated_holes/USB_DP*%
X14967060Y-9989120D03*
%TO.N,/MCU/~{FLASH_BK1_CS}*%
X14967060Y-9404120D03*
X13393420Y-10205460D03*
%TO.N,/MCU/~{FLASH_BK2_CS}*%
X14967060Y-9859120D03*
X14142720Y-10205460D03*
%TO.N,/MCU/FLASH_BK1_IO1*%
X14382060Y-9144120D03*
X13266420Y-10205460D03*
%TO.N,/MCU/FLASH_BK1_IO0*%
X14382060Y-9209120D03*
X13012420Y-10955460D03*
%TO.N,/MCU/FLASH_BK2_IO1*%
X14642060Y-9274120D03*
X14015720Y-10205460D03*
%TO.N,/MCU/FLASH_BK1_IO2*%
X14447060Y-9079120D03*
X13139420Y-10205460D03*
%TO.N,/MCU/FLASH_CLK*%
X14317060Y-9404120D03*
X13139420Y-10955460D03*
X13888720Y-10955460D03*
%TO.N,/MCU/FLASH_BK1_IO3*%
X14447060Y-9144120D03*
X13266420Y-10955460D03*
%TO.N,/MCU/FLASH_BK2_IO3*%
X14015720Y-10955460D03*
X15032060Y-9469120D03*
%TO.N,/MCU/FLASH_BK2_IO2*%
X14902060Y-9664120D03*
X13888720Y-10205460D03*
%TO.N,/MCU/FLASH_BK2_IO0*%
X14707060Y-9274120D03*
X13761720Y-10955460D03*
%TO.N,PB7*%
X14967060Y-9339120D03*
%TO.N,PB5*%
X15032060Y-9404120D03*
%TO.N,PB8*%
X15032060Y-9339120D03*
%TO.N,PB9*%
X14967060Y-9274120D03*
%TO.N,/Castellated_holes/SWCLK*%
X15032060Y-9924120D03*
%TO.N,/Castellated_holes/SWO*%
X15032060Y-9664120D03*
%TO.N,/Castellated_holes/SWDIO*%
X15032060Y-9989120D03*
%TO.N,/Castellated_holes/USB_VBUS_DET*%
X14772060Y-9989120D03*
%TO.N,PH4*%
X14287580Y-8676640D03*
X14577060Y-9274120D03*
%TO.N,PC1*%
X14317060Y-9209120D03*
X13936980Y-8581680D03*
%TO.N,PC0*%
X14317060Y-9144120D03*
X13975080Y-8600440D03*
%TO.N,PC4*%
X14252060Y-9339120D03*
X13794283Y-8537400D03*
%TO.N,PC5*%
X14187060Y-9339120D03*
X12819380Y-9569464D03*
%TO.N,PA1*%
X14252060Y-9144120D03*
X13896980Y-8581680D03*
%TO.N,PA4*%
X13831405Y-8642939D03*
X14252060Y-9274120D03*
%TO.N,PA0*%
X13856999Y-8582939D03*
X14252060Y-9209120D03*
%TO.N,PA7*%
X14122060Y-9209120D03*
%TO.N,PA3*%
X14122060Y-9144120D03*
%TO.N,PA6*%
X12743180Y-9448800D03*
X14187060Y-9209120D03*
%TO.N,PA5*%
X12717780Y-9509760D03*
X14187060Y-9274120D03*
%TO.N,PB0*%
X12743180Y-9552940D03*
X14122060Y-9339120D03*
%TO.N,PB1*%
X12796520Y-9478800D03*
X14122060Y-9274120D03*
%TO.N,PB11*%
X14122060Y-9859120D03*
%TO.N,PB10*%
X14122060Y-9794120D03*
X12857480Y-10099040D03*
%TO.N,PB13*%
X14187060Y-9859120D03*
%TO.N,PB12*%
X14187060Y-9794120D03*
X12857480Y-10059040D03*
%TO.N,PB14*%
X12706820Y-10659900D03*
X14122060Y-9924120D03*
%TO.N,PB15*%
X14122060Y-9989120D03*
X12731590Y-10691308D03*
%TO.N,PD13*%
X14317060Y-9989120D03*
X12784267Y-10751836D03*
%TO.N,PH7*%
X12758420Y-10721308D03*
X14252060Y-9794120D03*
%TO.N,PC7*%
X14642060Y-9989120D03*
%TO.N,PC6*%
X14577060Y-9989120D03*
%TO.N,PC8*%
X14642060Y-9924120D03*
%TO.N,PH14*%
X14772060Y-9859120D03*
%TO.N,PC12*%
X14929279Y-10232855D03*
X15032060Y-9794120D03*
%TO.N,PI3*%
X14902060Y-9859120D03*
X14840030Y-10095700D03*
%TO.N,PD6*%
X14856297Y-10164917D03*
X14967060Y-9729120D03*
%TO.N,PD7*%
X14824170Y-10239470D03*
X15032060Y-9729120D03*
%TO.N,PD5*%
X14813280Y-10165080D03*
X14902060Y-9729120D03*
%TO.N,PA15*%
X15032060Y-9859120D03*
X14884400Y-10226040D03*
%TO.N,PB4*%
X15013940Y-10335260D03*
X15032060Y-9599120D03*
%TO.N,PD2*%
X14837060Y-9794120D03*
X14772859Y-10078720D03*
%TO.N,PG11*%
X14935440Y-10294860D03*
X14967060Y-9599120D03*
%TO.N,PD3*%
X14803205Y-10111318D03*
X14837060Y-9729120D03*
%TD*%
D14*
%TO.N,/Castellated_holes/LTDC_G5*%
X15219680Y-9985220D02*
X15292516Y-9985220D01*
X15400340Y-8707440D02*
X15364460Y-8671560D01*
X15400340Y-9877396D02*
X15400340Y-8707440D01*
X15364580Y-8671440D02*
X15364580Y-8307180D01*
X15292516Y-9985220D02*
X15400340Y-9877396D01*
X15364460Y-8671560D02*
X15364580Y-8671440D01*
%TO.N,/Castellated_holes/LTDC_G7*%
X15360340Y-9860827D02*
X15360340Y-8724009D01*
X15297047Y-9924120D02*
X15360340Y-9860827D01*
X15219680Y-9924120D02*
X15297047Y-9924120D01*
X15360340Y-8724009D02*
X15115196Y-8478864D01*
X15110580Y-8474249D02*
X15110580Y-8307180D01*
X15115196Y-8478864D02*
X15110580Y-8474249D01*
%TO.N,/Castellated_holes/LTDC_B1*%
X15143480Y-9502140D02*
X15191740Y-9453880D01*
X15340340Y-8732293D02*
X15078307Y-8470260D01*
X15321280Y-9453880D02*
X15340340Y-9434820D01*
X14856580Y-8419580D02*
X14856580Y-8307180D01*
X15191740Y-9453880D02*
X15321280Y-9453880D01*
X15340340Y-9434820D02*
X15340340Y-8732293D01*
X15078307Y-8470260D02*
X14907260Y-8470260D01*
X14907260Y-8470260D02*
X14856580Y-8419580D01*
%TO.N,/Castellated_holes/LTDC_B4*%
X14937060Y-9281840D02*
X14937060Y-9195480D01*
X14475580Y-8448160D02*
X14475580Y-8307180D01*
X15280340Y-8931284D02*
X15280340Y-8757145D01*
X15072360Y-9177020D02*
X15115540Y-9133840D01*
X14955520Y-9177020D02*
X15072360Y-9177020D01*
X14937060Y-9195480D02*
X14955520Y-9177020D01*
X15115540Y-9133840D02*
X15115540Y-9009380D01*
X15115540Y-9009380D02*
X15143480Y-8981440D01*
X14867060Y-9304120D02*
X14914780Y-9304120D01*
X15053455Y-8530260D02*
X14557680Y-8530260D01*
X15143480Y-8981440D02*
X15230184Y-8981440D01*
X14914780Y-9304120D02*
X14937060Y-9281840D01*
X15230184Y-8981440D02*
X15280340Y-8931284D01*
X14557680Y-8530260D02*
X14475580Y-8448160D01*
X14837060Y-9274120D02*
X14867060Y-9304120D01*
X15280340Y-8757145D02*
X15053455Y-8530260D01*
%TO.N,/Castellated_holes/LTDC_B2*%
X14802160Y-8490260D02*
X14729580Y-8417680D01*
X15113000Y-9550400D02*
X15113000Y-9425940D01*
X15070023Y-8490260D02*
X14802160Y-8490260D01*
X15308763Y-9884120D02*
X15340340Y-9852543D01*
X15285320Y-9382220D02*
X15320340Y-9347200D01*
X15320340Y-8740577D02*
X15070023Y-8490260D01*
X15340340Y-9630420D02*
X15295880Y-9585960D01*
X15320340Y-9347200D02*
X15320340Y-8740577D01*
X15295880Y-9585960D02*
X15148560Y-9585960D01*
X14729580Y-8417680D02*
X14729580Y-8307180D01*
X15113000Y-9425940D02*
X15156720Y-9382220D01*
X15156720Y-9382220D02*
X15285320Y-9382220D01*
X15340340Y-9852543D02*
X15340340Y-9630420D01*
X15148560Y-9585960D02*
X15113000Y-9550400D01*
X15219680Y-9884120D02*
X15308763Y-9884120D01*
%TO.N,/Castellated_holes/LTDC_G4*%
X15420340Y-8699156D02*
X15420340Y-9885680D01*
X15420340Y-8699156D02*
X15420340Y-8493760D01*
X15440420Y-8473680D02*
X15531080Y-8473680D01*
X15420340Y-8493760D02*
X15440420Y-8473680D01*
X14807060Y-10011540D02*
X14807060Y-9889120D01*
X14807060Y-9889120D02*
X14837060Y-9859120D01*
X15420340Y-9885680D02*
X15260320Y-10045700D01*
X14841220Y-10045700D02*
X14807060Y-10011540D01*
X15260320Y-10045700D02*
X14841220Y-10045700D01*
%TO.N,/Castellated_holes/LTDC_B6*%
X15173960Y-8707334D02*
X15036886Y-8570260D01*
X14325900Y-8570260D02*
X14221580Y-8465940D01*
X15156020Y-8941440D02*
X15173960Y-8923500D01*
X14221580Y-8465940D02*
X14221580Y-8307180D01*
X15173960Y-8923500D02*
X15173960Y-8707334D01*
X15104740Y-8941440D02*
X15156020Y-8941440D01*
X15055783Y-9035363D02*
X15055783Y-8990397D01*
X15036886Y-8570260D02*
X14401800Y-8570260D01*
X14401800Y-8570260D02*
X14325900Y-8570260D01*
X15055783Y-8990397D02*
X15104740Y-8941440D01*
%TO.N,/Castellated_holes/LTDC_G6*%
X15295332Y-9954120D02*
X15380340Y-9869112D01*
X15237580Y-8572964D02*
X15237580Y-8307180D01*
X15249988Y-8585372D02*
X15237580Y-8572964D01*
X14867060Y-9954120D02*
X15295332Y-9954120D01*
X15380340Y-9869112D02*
X15380340Y-8715724D01*
X14837060Y-9924120D02*
X14867060Y-9954120D01*
X15380340Y-8715724D02*
X15249988Y-8585372D01*
%TO.N,/Castellated_holes/LTDC_B3*%
X15093000Y-9680260D02*
X15093000Y-9417656D01*
X15153640Y-9740900D02*
X15093000Y-9680260D01*
X15219680Y-9844119D02*
X15255240Y-9808559D01*
X15242540Y-9740900D02*
X15153640Y-9740900D01*
X15093000Y-9417656D02*
X15199016Y-9311640D01*
X14676120Y-8510260D02*
X14602580Y-8436720D01*
X14602580Y-8436720D02*
X14602580Y-8307180D01*
X15061739Y-8510260D02*
X14676120Y-8510260D01*
X15255240Y-9753600D02*
X15242540Y-9740900D01*
X15199016Y-9311640D02*
X15278100Y-9311640D01*
X15300340Y-9289400D02*
X15300340Y-8748861D01*
X15300340Y-8748861D02*
X15061739Y-8510260D01*
X15278100Y-9311640D02*
X15300340Y-9289400D01*
X15255240Y-9808559D02*
X15255240Y-9753600D01*
%TO.N,/Castellated_holes/LTDC_G3*%
X15044420Y-9436100D02*
X15022653Y-9436100D01*
X15002060Y-9456694D02*
X15002060Y-9629120D01*
X15022653Y-9436100D02*
X15002060Y-9456694D01*
X15138400Y-9036341D02*
X15138400Y-9199880D01*
X15082520Y-9398000D02*
X15044420Y-9436100D01*
X15158610Y-9016131D02*
X15138400Y-9036341D01*
X15138400Y-9199880D02*
X15082520Y-9255760D01*
X15082520Y-9255760D02*
X15082520Y-9398000D01*
X15002060Y-9629120D02*
X14967060Y-9664120D01*
%TO.N,/Castellated_holes/LTDC_B5*%
X14937060Y-9156547D02*
X14937060Y-9131694D01*
X14902060Y-9274120D02*
X14872060Y-9244120D01*
X15260340Y-8923000D02*
X15260340Y-8765430D01*
X15064740Y-9110980D02*
X15092680Y-9083040D01*
X15092680Y-9083040D02*
X15092680Y-8999220D01*
X15130460Y-8961440D02*
X15221900Y-8961440D01*
X15092680Y-8999220D02*
X15130460Y-8961440D01*
X15221900Y-8961440D02*
X15260340Y-8923000D01*
X14937060Y-9131694D02*
X14957773Y-9110980D01*
X14872060Y-9196694D02*
X14894633Y-9174120D01*
X14894633Y-9174120D02*
X14919486Y-9174120D01*
X15045170Y-8550260D02*
X14445600Y-8550260D01*
X14919486Y-9174120D02*
X14937060Y-9156547D01*
X14872060Y-9244120D02*
X14872060Y-9196694D01*
X14348580Y-8453240D02*
X14348580Y-8307180D01*
X14957773Y-9110980D02*
X15064740Y-9110980D01*
X14445600Y-8550260D02*
X14348580Y-8453240D01*
X15260340Y-8765430D02*
X15045170Y-8550260D01*
%TO.N,/MCU/SDRAM_DQ13*%
X13954952Y-10105250D02*
X13948952Y-10105250D01*
X13624952Y-10155460D02*
X13618952Y-10155460D01*
X13714952Y-10105247D02*
X13708952Y-10105247D01*
X13696952Y-10117247D02*
X13696952Y-10143460D01*
X13804952Y-10155460D02*
X13798952Y-10155460D01*
X13744952Y-10155460D02*
X13738952Y-10155460D01*
X13017162Y-10096482D02*
X12963840Y-10043160D01*
X13029440Y-9754360D02*
X13029440Y-9704120D01*
X13585618Y-10155460D02*
X13569220Y-10155460D01*
X14116952Y-10112248D02*
X14116952Y-10143460D01*
X13924952Y-10155460D02*
X13918952Y-10155460D01*
X12963840Y-10043160D02*
X12963840Y-9819960D01*
X14104952Y-10155460D02*
X14098952Y-10155460D01*
X13636952Y-10117250D02*
X13636952Y-10143460D01*
X14187060Y-10050780D02*
X14218920Y-10082640D01*
X13618952Y-10155460D02*
X13585618Y-10155460D01*
X13569220Y-10155460D02*
X13510242Y-10096482D01*
X12963840Y-9819960D02*
X13029440Y-9754360D01*
X14134952Y-10100248D02*
X14128952Y-10100248D01*
X14086952Y-10143460D02*
X14086952Y-10117250D01*
X13996952Y-10117250D02*
X13996952Y-10143460D01*
X14074952Y-10105250D02*
X14068952Y-10105250D01*
X13984952Y-10155460D02*
X13978952Y-10155460D01*
X13510242Y-10096482D02*
X13017162Y-10096482D01*
X13864952Y-10155460D02*
X13858952Y-10155460D01*
X14056952Y-10117250D02*
X14056952Y-10143460D01*
X13756952Y-10117247D02*
X13756952Y-10143460D01*
X13786952Y-10143460D02*
X13786952Y-10117247D01*
X13029440Y-9704120D02*
X13059440Y-9674120D01*
X13846952Y-10143460D02*
X13846952Y-10117250D01*
X14026952Y-10143460D02*
X14026952Y-10117250D01*
X13726952Y-10143460D02*
X13726952Y-10117247D01*
X13654952Y-10105250D02*
X13648952Y-10105250D01*
X13936952Y-10117250D02*
X13936952Y-10143460D01*
X14218920Y-10082640D02*
X14218920Y-10134600D01*
X13906952Y-10143460D02*
X13906952Y-10117250D01*
X13966952Y-10143460D02*
X13966952Y-10117250D01*
X14218920Y-10134600D02*
X14198060Y-10155460D01*
X13834952Y-10105250D02*
X13828952Y-10105250D01*
X14187060Y-9989120D02*
X14187060Y-10050780D01*
X14198060Y-10155460D02*
X14158952Y-10155460D01*
X14044952Y-10155460D02*
X14038952Y-10155460D01*
X13666952Y-10143460D02*
X13666952Y-10117250D01*
X14014952Y-10105250D02*
X14008952Y-10105250D01*
X13684952Y-10155460D02*
X13678952Y-10155460D01*
X13894952Y-10105250D02*
X13888952Y-10105250D01*
X13876952Y-10117250D02*
X13876952Y-10143460D01*
X14146952Y-10143460D02*
X14146952Y-10112248D01*
X13816952Y-10117250D02*
X13816952Y-10143460D01*
X13774952Y-10105247D02*
X13768952Y-10105247D01*
X13636952Y-10143460D02*
G75*
G02*
X13624952Y-10155462I-12002J0D01*
G01*
X14128952Y-10100248D02*
G75*
G03*
X14116948Y-10112248I-2J-12002D01*
G01*
X13948952Y-10105250D02*
G75*
G03*
X13936949Y-10117250I-2J-12001D01*
G01*
X13738952Y-10155460D02*
G75*
G02*
X13726950Y-10143460I-2J12000D01*
G01*
X13708952Y-10105247D02*
G75*
G03*
X13696947Y-10117247I-2J-12003D01*
G01*
X13978952Y-10155460D02*
G75*
G02*
X13966950Y-10143460I-2J12000D01*
G01*
X13696952Y-10143460D02*
G75*
G02*
X13684952Y-10155462I-12002J0D01*
G01*
X13966952Y-10117250D02*
G75*
G03*
X13954952Y-10105248I-12002J-1D01*
G01*
X13798952Y-10155460D02*
G75*
G02*
X13786950Y-10143460I-2J12000D01*
G01*
X13756952Y-10143460D02*
G75*
G02*
X13744952Y-10155462I-12002J0D01*
G01*
X13936952Y-10143460D02*
G75*
G02*
X13924952Y-10155462I-12002J0D01*
G01*
X13648952Y-10105250D02*
G75*
G03*
X13636949Y-10117250I-2J-12001D01*
G01*
X13786952Y-10117247D02*
G75*
G03*
X13774952Y-10105248I-12002J-3D01*
G01*
X13828952Y-10105250D02*
G75*
G03*
X13816949Y-10117250I-2J-12001D01*
G01*
X14026952Y-10117250D02*
G75*
G03*
X14014952Y-10105248I-12002J-1D01*
G01*
X14116952Y-10143460D02*
G75*
G02*
X14104952Y-10155462I-12002J0D01*
G01*
X14098952Y-10155460D02*
G75*
G02*
X14086950Y-10143460I-2J12000D01*
G01*
X13816952Y-10143460D02*
G75*
G02*
X13804952Y-10155462I-12002J0D01*
G01*
X14086952Y-10117250D02*
G75*
G03*
X14074952Y-10105248I-12002J-1D01*
G01*
X13726952Y-10117247D02*
G75*
G03*
X13714952Y-10105248I-12002J-3D01*
G01*
X13666952Y-10117250D02*
G75*
G03*
X13654952Y-10105248I-12002J-1D01*
G01*
X14038952Y-10155460D02*
G75*
G02*
X14026950Y-10143460I-2J12000D01*
G01*
X13906952Y-10117250D02*
G75*
G03*
X13894952Y-10105248I-12002J-1D01*
G01*
X14158952Y-10155460D02*
G75*
G02*
X14146950Y-10143460I-2J12000D01*
G01*
X14068952Y-10105250D02*
G75*
G03*
X14056949Y-10117250I-2J-12001D01*
G01*
X13888952Y-10105250D02*
G75*
G03*
X13876949Y-10117250I-2J-12001D01*
G01*
X13678952Y-10155460D02*
G75*
G02*
X13666950Y-10143460I-2J12000D01*
G01*
X13846952Y-10117250D02*
G75*
G03*
X13834952Y-10105248I-12002J-1D01*
G01*
X14146952Y-10112248D02*
G75*
G03*
X14134952Y-10100248I-12002J-2D01*
G01*
X13768952Y-10105247D02*
G75*
G03*
X13756947Y-10117247I-2J-12003D01*
G01*
X13858952Y-10155460D02*
G75*
G02*
X13846950Y-10143460I-2J12000D01*
G01*
X13876952Y-10143460D02*
G75*
G02*
X13864952Y-10155462I-12002J0D01*
G01*
X13918952Y-10155460D02*
G75*
G02*
X13906950Y-10143460I-2J12000D01*
G01*
X14008952Y-10105250D02*
G75*
G03*
X13996949Y-10117250I-2J-12001D01*
G01*
X14056952Y-10143460D02*
G75*
G02*
X14044952Y-10155462I-12002J0D01*
G01*
X13996952Y-10143460D02*
G75*
G02*
X13984952Y-10155462I-12002J0D01*
G01*
%TO.N,/MCU/SDRAM_DQ6*%
X12969280Y-9356852D02*
X12916280Y-9356852D01*
X12997280Y-9384852D02*
X12997280Y-9388852D01*
X13219440Y-9194120D02*
X13269440Y-9144120D01*
X12929280Y-9316852D02*
X12916280Y-9316852D01*
X14087436Y-9569120D02*
X14157060Y-9569120D01*
X12908280Y-9440836D02*
X12944184Y-9476740D01*
X12908280Y-9364852D02*
X12908280Y-9368852D01*
X13947416Y-9429100D02*
X14087436Y-9569120D01*
X12989280Y-9396852D02*
X12916280Y-9396852D01*
X12908280Y-9420524D02*
X12908280Y-9440836D01*
X13416624Y-9476740D02*
X13446932Y-9507048D01*
X13449964Y-9510080D02*
X13796960Y-9510080D01*
X13269440Y-9144120D02*
X13269440Y-9078440D01*
X12908280Y-9408852D02*
X12908280Y-9420524D01*
X13796960Y-9510080D02*
X13877940Y-9429100D01*
X12977280Y-9344852D02*
X12977280Y-9348852D01*
X13877940Y-9429100D02*
X13947416Y-9429100D01*
X12944184Y-9476740D02*
X13416624Y-9476740D01*
X13446932Y-9507048D02*
X13449964Y-9510080D01*
X13025120Y-9037320D02*
X12908280Y-9154160D01*
X12908280Y-9324852D02*
X12908280Y-9328852D01*
X12908280Y-9404852D02*
X12908280Y-9408852D01*
X12916280Y-9376852D02*
X12989280Y-9376852D01*
X13269440Y-9078440D02*
X13228320Y-9037320D01*
X13228320Y-9037320D02*
X13025120Y-9037320D01*
X12937280Y-9304852D02*
X12937280Y-9308852D01*
X12916280Y-9336852D02*
X12969280Y-9336852D01*
X12916280Y-9296852D02*
X12929280Y-9296852D01*
X12908280Y-9154160D02*
X12908280Y-9288852D01*
X14157060Y-9569120D02*
X14187060Y-9599120D01*
X12937280Y-9308852D02*
G75*
G02*
X12929280Y-9316850I-8000J2D01*
G01*
X12916280Y-9316852D02*
G75*
G03*
X12908282Y-9324852I0J-7998D01*
G01*
X12929280Y-9296852D02*
G75*
G02*
X12937278Y-9304852I0J-7998D01*
G01*
X12916280Y-9396852D02*
G75*
G03*
X12908282Y-9404852I0J-7998D01*
G01*
X12977280Y-9348852D02*
G75*
G02*
X12969280Y-9356850I-8000J2D01*
G01*
X12916280Y-9356852D02*
G75*
G03*
X12908282Y-9364852I0J-7998D01*
G01*
X12908280Y-9368852D02*
G75*
G03*
X12916280Y-9376850I8000J2D01*
G01*
X12908280Y-9288852D02*
G75*
G03*
X12916280Y-9296850I8000J2D01*
G01*
X12908280Y-9328852D02*
G75*
G03*
X12916280Y-9336850I8000J2D01*
G01*
X12969280Y-9336852D02*
G75*
G02*
X12977278Y-9344852I0J-7998D01*
G01*
X12989280Y-9376852D02*
G75*
G02*
X12997278Y-9384852I0J-7998D01*
G01*
X12997280Y-9388852D02*
G75*
G02*
X12989280Y-9396850I-8000J2D01*
G01*
%TO.N,/MCU/SDRAM_DQ0*%
X13885700Y-9346529D02*
X13885700Y-9355900D01*
X13806500Y-9369100D02*
X13799900Y-9369100D01*
X14170660Y-9436100D02*
X14152880Y-9418320D01*
X14314300Y-9699120D02*
X14302740Y-9687560D01*
X14384020Y-9629140D02*
X14384020Y-9596120D01*
X13740500Y-9369100D02*
X13733900Y-9369100D01*
X14066220Y-9329120D02*
X14028720Y-9329120D01*
X14312900Y-9636760D02*
X14376400Y-9636760D01*
X14384020Y-9596120D02*
X14356080Y-9568180D01*
X14295120Y-9568180D02*
X14218920Y-9491980D01*
X14152880Y-9418320D02*
X14152880Y-9392514D01*
X14462760Y-9758680D02*
X14470380Y-9751060D01*
X14347060Y-9894120D02*
X14347060Y-9843900D01*
X14218920Y-9491980D02*
X14218920Y-9458554D01*
X14132966Y-9372600D02*
X14091920Y-9372600D01*
X13030300Y-9304120D02*
X12979440Y-9253260D01*
X13852700Y-9355900D02*
X13852700Y-9346529D01*
X13126720Y-9354820D02*
X13126720Y-9324340D01*
X14406880Y-9827260D02*
X14417060Y-9817080D01*
X14317060Y-9924120D02*
X14347060Y-9894120D01*
X13839500Y-9333329D02*
X13832900Y-9333329D01*
X14363700Y-9827260D02*
X14406880Y-9827260D01*
X14347060Y-9843900D02*
X14363700Y-9827260D01*
X14028720Y-9329120D02*
X13988740Y-9369100D01*
X14196466Y-9436100D02*
X14170660Y-9436100D01*
X14470380Y-9751060D02*
X14470380Y-9712960D01*
X13753700Y-9346529D02*
X13753700Y-9355900D01*
X13707500Y-9333326D02*
X13700900Y-9333326D01*
X14417060Y-9817080D02*
X14417060Y-9771360D01*
X13918700Y-9355900D02*
X13918700Y-9346529D01*
X14417060Y-9771360D02*
X14429740Y-9758680D01*
X14076680Y-9339580D02*
X14066220Y-9329120D01*
X13687700Y-9346526D02*
X13687700Y-9355900D01*
X13872500Y-9369100D02*
X13865900Y-9369100D01*
X13621700Y-9346529D02*
X13621700Y-9355900D01*
X13905500Y-9333329D02*
X13898900Y-9333329D01*
X13106500Y-9304120D02*
X13030300Y-9304120D01*
X14076680Y-9357360D02*
X14076680Y-9339580D01*
X13988740Y-9369100D02*
X13931900Y-9369100D01*
X13601700Y-9369100D02*
X13141000Y-9369100D01*
X14376400Y-9636760D02*
X14384020Y-9629140D01*
X13819700Y-9346529D02*
X13819700Y-9355900D01*
X13641500Y-9333329D02*
X13634900Y-9333329D01*
X12979440Y-9253260D02*
X12979440Y-9194120D01*
X14302740Y-9646920D02*
X14312900Y-9636760D01*
X14152880Y-9392514D02*
X14132966Y-9372600D01*
X14356080Y-9568180D02*
X14295120Y-9568180D01*
X13126720Y-9324340D02*
X13106500Y-9304120D01*
X14218920Y-9458554D02*
X14196466Y-9436100D01*
X13773500Y-9333329D02*
X13766900Y-9333329D01*
X13674500Y-9369100D02*
X13667900Y-9369100D01*
X13141000Y-9369100D02*
X13126720Y-9354820D01*
X13654700Y-9355900D02*
X13654700Y-9346529D01*
X13720700Y-9355900D02*
X13720700Y-9346526D01*
X14456540Y-9699120D02*
X14314300Y-9699120D01*
X14302740Y-9687560D02*
X14302740Y-9646920D01*
X13786700Y-9355900D02*
X13786700Y-9346529D01*
X14091920Y-9372600D02*
X14076680Y-9357360D01*
X14470380Y-9712960D02*
X14456540Y-9699120D01*
X13608500Y-9369100D02*
X13601900Y-9369100D01*
X14429740Y-9758680D02*
X14462760Y-9758680D01*
X13601900Y-9369100D02*
X13601700Y-9369100D01*
X13753700Y-9355900D02*
G75*
G02*
X13740500Y-9369100I-13200J0D01*
G01*
X13832900Y-9333329D02*
G75*
G03*
X13819699Y-9346529I0J-13201D01*
G01*
X13766900Y-9333329D02*
G75*
G03*
X13753699Y-9346529I0J-13201D01*
G01*
X13918700Y-9346529D02*
G75*
G03*
X13905500Y-9333330I-13200J-1D01*
G01*
X13733900Y-9369100D02*
G75*
G02*
X13720700Y-9355900I0J13200D01*
G01*
X13634900Y-9333329D02*
G75*
G03*
X13621699Y-9346529I0J-13201D01*
G01*
X13654700Y-9346529D02*
G75*
G03*
X13641500Y-9333330I-13200J-1D01*
G01*
X13700900Y-9333326D02*
G75*
G03*
X13687696Y-9346526I0J-13204D01*
G01*
X13852700Y-9346529D02*
G75*
G03*
X13839500Y-9333330I-13200J-1D01*
G01*
X13621700Y-9355900D02*
G75*
G02*
X13608500Y-9369100I-13200J0D01*
G01*
X13885700Y-9355900D02*
G75*
G02*
X13872500Y-9369100I-13200J0D01*
G01*
X13667900Y-9369100D02*
G75*
G02*
X13654700Y-9355900I0J13200D01*
G01*
X13720700Y-9346526D02*
G75*
G03*
X13707500Y-9333330I-13200J-4D01*
G01*
X13819700Y-9355900D02*
G75*
G02*
X13806500Y-9369100I-13200J0D01*
G01*
X13799900Y-9369100D02*
G75*
G02*
X13786700Y-9355900I0J13200D01*
G01*
X13687700Y-9355900D02*
G75*
G02*
X13674500Y-9369100I-13200J0D01*
G01*
X13865900Y-9369100D02*
G75*
G02*
X13852700Y-9355900I0J13200D01*
G01*
X13931900Y-9369100D02*
G75*
G02*
X13918700Y-9355900I0J13200D01*
G01*
X13898900Y-9333329D02*
G75*
G03*
X13885699Y-9346529I0J-13201D01*
G01*
X13786700Y-9346529D02*
G75*
G03*
X13773500Y-9333330I-13200J-1D01*
G01*
%TO.N,/MCU/SDRAM_DQMH*%
X14805660Y-9350147D02*
X14805660Y-9129440D01*
X13409440Y-9620740D02*
X13386060Y-9644120D01*
X14824633Y-9369120D02*
X14805660Y-9350147D01*
X15002060Y-9239120D02*
X15002060Y-9346547D01*
X13794420Y-8946200D02*
X13026860Y-8946200D01*
X14576055Y-9109120D02*
X14326455Y-8859520D01*
X13370560Y-9525000D02*
X13409440Y-9563880D01*
X13409440Y-9563880D02*
X13409440Y-9620740D01*
X12862880Y-9110180D02*
X12862880Y-9454200D01*
X13358120Y-9644120D02*
X13344062Y-9658178D01*
X12862880Y-9454200D02*
X12933680Y-9525000D01*
X13881100Y-8859520D02*
X13794420Y-8946200D01*
X13026860Y-8946200D02*
X12862880Y-9110180D01*
X14326455Y-8859520D02*
X13881100Y-8859520D01*
X13344062Y-9658178D02*
X13344062Y-9718742D01*
X13344062Y-9718742D02*
X13379440Y-9754120D01*
X14785340Y-9109120D02*
X14576055Y-9109120D01*
X14805660Y-9129440D02*
X14785340Y-9109120D01*
X13386060Y-9644120D02*
X13358120Y-9644120D01*
X15002060Y-9346547D02*
X14979486Y-9369120D01*
X14979486Y-9369120D02*
X14824633Y-9369120D01*
X15032060Y-9209120D02*
X15002060Y-9239120D01*
X12933680Y-9525000D02*
X13370560Y-9525000D01*
%TO.N,/MCU/SDRAM_DQ14*%
X13088063Y-10023605D02*
X13077871Y-10033797D01*
X12989440Y-9824120D02*
X12989440Y-9829800D01*
X14114098Y-10076862D02*
X14157060Y-10033900D01*
X13092013Y-10059253D02*
X13094841Y-10062082D01*
X13098646Y-10065886D02*
X13109242Y-10076482D01*
X12989440Y-9949800D02*
X12989440Y-9957884D01*
X13070507Y-10069445D02*
X13080699Y-10059253D01*
X12989440Y-9989700D02*
X13006800Y-10007060D01*
X12997440Y-9877800D02*
X13139440Y-9877800D01*
X13059440Y-9754120D02*
X12989440Y-9824120D01*
X12989440Y-9905800D02*
X12989440Y-9909800D01*
X14050208Y-10076482D02*
X14067462Y-10076862D01*
X13056365Y-10066617D02*
X13059193Y-10069445D01*
X12997440Y-9917800D02*
X13134440Y-9917800D01*
X13109242Y-10076482D02*
X14050208Y-10076482D01*
X13142440Y-9925800D02*
X13142440Y-9929800D01*
X13147440Y-9845800D02*
X13147440Y-9849800D01*
X12989440Y-9957884D02*
X12989440Y-9989700D01*
X13063729Y-10019655D02*
X13073921Y-10009463D01*
X13147440Y-9885800D02*
X13147440Y-9889800D01*
X14157060Y-9954120D02*
X14187060Y-9924120D01*
X13139440Y-9897800D02*
X12997440Y-9897800D01*
X13006800Y-10007060D02*
X13039820Y-10007060D01*
X13139440Y-9857800D02*
X12997440Y-9857800D01*
X14157060Y-10033900D02*
X14157060Y-9954120D01*
X12997440Y-9837800D02*
X13139440Y-9837800D01*
X13077871Y-10033797D02*
X13072214Y-10039454D01*
X13072214Y-10039454D02*
X13072214Y-10039454D01*
X13085235Y-10009463D02*
X13088063Y-10012291D01*
X14067462Y-10076862D02*
X14114098Y-10076862D01*
X12989440Y-9945800D02*
X12989440Y-9949800D01*
X13039820Y-10007060D02*
X13052415Y-10019655D01*
X13094841Y-10062082D02*
X13098646Y-10065886D01*
X13134440Y-9937800D02*
X12997440Y-9937800D01*
X13072214Y-10039454D02*
X13066557Y-10045111D01*
X12989440Y-9865800D02*
X12989440Y-9869800D01*
X13066557Y-10045111D02*
X13056365Y-10055303D01*
X13139440Y-9837800D02*
G75*
G02*
X13147440Y-9845800I0J-8000D01*
G01*
X13052415Y-10019655D02*
G75*
G03*
X13063727Y-10019653I5655J5655D01*
G01*
X12989440Y-9869800D02*
G75*
G03*
X12997440Y-9877800I8000J0D01*
G01*
X12989440Y-9909800D02*
G75*
G03*
X12997440Y-9917800I8000J0D01*
G01*
X13088063Y-10012291D02*
G75*
G02*
X13088065Y-10023607I-5653J-5659D01*
G01*
X12989440Y-9829800D02*
G75*
G03*
X12997440Y-9837800I8000J0D01*
G01*
X12997440Y-9857800D02*
G75*
G03*
X12989440Y-9865800I0J-8000D01*
G01*
X12997440Y-9897800D02*
G75*
G03*
X12989440Y-9905800I0J-8000D01*
G01*
X13147440Y-9849800D02*
G75*
G02*
X13139440Y-9857800I-8000J0D01*
G01*
X13080699Y-10059253D02*
G75*
G02*
X13092013Y-10059253I5657J-5657D01*
G01*
X13139440Y-9877800D02*
G75*
G02*
X13147440Y-9885800I0J-8000D01*
G01*
X13134440Y-9917800D02*
G75*
G02*
X13142440Y-9925800I0J-8000D01*
G01*
X12997440Y-9937800D02*
G75*
G03*
X12989440Y-9945800I0J-8000D01*
G01*
X13059193Y-10069445D02*
G75*
G03*
X13070507Y-10069445I5657J5657D01*
G01*
X13142440Y-9929800D02*
G75*
G02*
X13134440Y-9937800I-8000J0D01*
G01*
X13073921Y-10009463D02*
G75*
G02*
X13085237Y-10009461I5659J-5657D01*
G01*
X13147440Y-9889800D02*
G75*
G02*
X13139440Y-9897800I-8000J0D01*
G01*
X13056365Y-10055303D02*
G75*
G03*
X13056365Y-10066617I5655J-5657D01*
G01*
%TO.N,/MCU/SDRAM_DQ12*%
X13404160Y-9985478D02*
X13404160Y-9877100D01*
X13450160Y-9985476D02*
X13450160Y-9877100D01*
X13904648Y-9867900D02*
X13923960Y-9848589D01*
X14000480Y-9794240D02*
X14012254Y-9782466D01*
X13229996Y-9712960D02*
X13256260Y-9739224D01*
X13505360Y-9867900D02*
X13509960Y-9867900D01*
X13321360Y-9867900D02*
X13325960Y-9867900D01*
X13256260Y-9857740D02*
X13266420Y-9867900D01*
X13482360Y-9994676D02*
X13486960Y-9994676D01*
X13358160Y-9985478D02*
X13358160Y-9877100D01*
X13344360Y-9994678D02*
X13348960Y-9994678D01*
X13312160Y-9960476D02*
X13312160Y-9877100D01*
X13519160Y-9877100D02*
X13519160Y-9985478D01*
X14012254Y-9782466D02*
X14012254Y-9760294D01*
X13298360Y-9969676D02*
X13302960Y-9969676D01*
X13473160Y-9877100D02*
X13473160Y-9985476D01*
X13542160Y-9985478D02*
X13542160Y-9877100D01*
X13381160Y-9877100D02*
X13381160Y-9985478D01*
X13266420Y-9867900D02*
X13279960Y-9867900D01*
X13459360Y-9867900D02*
X13463960Y-9867900D01*
X13289160Y-9877100D02*
X13289160Y-9960476D01*
X13180600Y-9712960D02*
X13229996Y-9712960D01*
X13496160Y-9985476D02*
X13496160Y-9877100D01*
X13413360Y-9867900D02*
X13417960Y-9867900D01*
X13335160Y-9877100D02*
X13335160Y-9985478D01*
X13436360Y-9994676D02*
X13440960Y-9994676D01*
X13528360Y-9994678D02*
X13532960Y-9994678D01*
X13367360Y-9867900D02*
X13371960Y-9867900D01*
X13139440Y-9754120D02*
X13180600Y-9712960D01*
X13256260Y-9739224D02*
X13256260Y-9857740D01*
X13578141Y-9867900D02*
X13904648Y-9867900D01*
X13427160Y-9877100D02*
X13427160Y-9985476D01*
X13551360Y-9867900D02*
X13555960Y-9867900D01*
X13923960Y-9804720D02*
X13934440Y-9794240D01*
X14012254Y-9760294D02*
X14043428Y-9729120D01*
X14043428Y-9729120D02*
X14122060Y-9729120D01*
X13555960Y-9867900D02*
X13578141Y-9867900D01*
X13934440Y-9794240D02*
X14000480Y-9794240D01*
X13923960Y-9848589D02*
X13923960Y-9804720D01*
X13390360Y-9994678D02*
X13394960Y-9994678D01*
X13440960Y-9994676D02*
G75*
G03*
X13450156Y-9985476I0J9196D01*
G01*
X13417960Y-9867900D02*
G75*
G02*
X13427160Y-9877100I0J-9200D01*
G01*
X13496160Y-9877100D02*
G75*
G02*
X13505360Y-9867900I9200J0D01*
G01*
X13279960Y-9867900D02*
G75*
G02*
X13289160Y-9877100I0J-9200D01*
G01*
X13289160Y-9960476D02*
G75*
G03*
X13298360Y-9969680I9200J-4D01*
G01*
X13473160Y-9985476D02*
G75*
G03*
X13482360Y-9994680I9200J-4D01*
G01*
X13335160Y-9985478D02*
G75*
G03*
X13344360Y-9994680I9200J-2D01*
G01*
X13358160Y-9877100D02*
G75*
G02*
X13367360Y-9867900I9200J0D01*
G01*
X13542160Y-9877100D02*
G75*
G02*
X13551360Y-9867900I9200J0D01*
G01*
X13450160Y-9877100D02*
G75*
G02*
X13459360Y-9867900I9200J0D01*
G01*
X13325960Y-9867900D02*
G75*
G02*
X13335160Y-9877100I0J-9200D01*
G01*
X13302960Y-9969676D02*
G75*
G03*
X13312156Y-9960476I0J9196D01*
G01*
X13532960Y-9994678D02*
G75*
G03*
X13542158Y-9985478I0J9198D01*
G01*
X13404160Y-9877100D02*
G75*
G02*
X13413360Y-9867900I9200J0D01*
G01*
X13312160Y-9877100D02*
G75*
G02*
X13321360Y-9867900I9200J0D01*
G01*
X13394960Y-9994678D02*
G75*
G03*
X13404158Y-9985478I0J9198D01*
G01*
X13381160Y-9985478D02*
G75*
G03*
X13390360Y-9994680I9200J-2D01*
G01*
X13371960Y-9867900D02*
G75*
G02*
X13381160Y-9877100I0J-9200D01*
G01*
X13486960Y-9994676D02*
G75*
G03*
X13496156Y-9985476I0J9196D01*
G01*
X13519160Y-9985478D02*
G75*
G03*
X13528360Y-9994680I9200J-2D01*
G01*
X13427160Y-9985476D02*
G75*
G03*
X13436360Y-9994680I9200J-4D01*
G01*
X13463960Y-9867900D02*
G75*
G02*
X13473160Y-9877100I0J-9200D01*
G01*
X13509960Y-9867900D02*
G75*
G02*
X13519160Y-9877100I0J-9200D01*
G01*
X13348960Y-9994678D02*
G75*
G03*
X13358158Y-9985478I0J9198D01*
G01*
%TO.N,/MCU/SDRAM_DQ7*%
X13092320Y-8970125D02*
X13088320Y-8970125D01*
X13180320Y-9006460D02*
X13180320Y-8978125D01*
X13014960Y-9014460D02*
X12882880Y-9146540D01*
X13905040Y-9458180D02*
X13914120Y-9449100D01*
X13080320Y-8978125D02*
X13080320Y-9006460D01*
X13914120Y-9449100D02*
X13934280Y-9449100D01*
X13112320Y-9014460D02*
X13108320Y-9014460D01*
X13028320Y-9014460D02*
X13020040Y-9014460D01*
X13192320Y-9014460D02*
X13188320Y-9014460D01*
X13140320Y-9006460D02*
X13140320Y-8978125D01*
X13441680Y-9530080D02*
X13881100Y-9530080D01*
X13905040Y-9506140D02*
X13905040Y-9458180D01*
X13200320Y-8978125D02*
X13200320Y-9006460D01*
X13172320Y-8970125D02*
X13168320Y-8970125D01*
X13020040Y-9014460D02*
X13014960Y-9014460D01*
X13052320Y-8970125D02*
X13048320Y-8970125D01*
X13060320Y-9006460D02*
X13060320Y-8978125D01*
X14084300Y-9599120D02*
X14122060Y-9599120D01*
X13411200Y-9499600D02*
X13441680Y-9530080D01*
X13238824Y-9014460D02*
X13228320Y-9014460D01*
X13212320Y-8970125D02*
X13208320Y-8970125D01*
X13160320Y-8978125D02*
X13160320Y-9006460D01*
X13299440Y-9114120D02*
X13299440Y-9075076D01*
X12938760Y-9499600D02*
X13411200Y-9499600D01*
X13072320Y-9014460D02*
X13068320Y-9014460D01*
X13299440Y-9075076D02*
X13238824Y-9014460D01*
X13934280Y-9449100D02*
X14084300Y-9599120D01*
X13152320Y-9014460D02*
X13148320Y-9014460D01*
X13032320Y-9014460D02*
X13028320Y-9014460D01*
X13881100Y-9530080D02*
X13905040Y-9506140D01*
X13220320Y-9006460D02*
X13220320Y-8978125D01*
X13100320Y-9006460D02*
X13100320Y-8978125D01*
X12882880Y-9146540D02*
X12882880Y-9443720D01*
X13120320Y-8978125D02*
X13120320Y-9006460D01*
X12882880Y-9443720D02*
X12938760Y-9499600D01*
X13040320Y-8978125D02*
X13040320Y-9006460D01*
X13132320Y-8970125D02*
X13128320Y-8970125D01*
X13160320Y-9006460D02*
G75*
G02*
X13152320Y-9014460I-8000J0D01*
G01*
X13220320Y-8978125D02*
G75*
G03*
X13212320Y-8970130I-8000J-5D01*
G01*
X13068320Y-9014460D02*
G75*
G02*
X13060320Y-9006460I0J8000D01*
G01*
X13100320Y-8978125D02*
G75*
G03*
X13092320Y-8970120I-8000J5D01*
G01*
X13168320Y-8970125D02*
G75*
G03*
X13160315Y-8978125I0J-8005D01*
G01*
X13188320Y-9014460D02*
G75*
G02*
X13180320Y-9006460I0J8000D01*
G01*
X13120320Y-9006460D02*
G75*
G02*
X13112320Y-9014460I-8000J0D01*
G01*
X13040320Y-9006460D02*
G75*
G02*
X13032320Y-9014460I-8000J0D01*
G01*
X13180320Y-8978125D02*
G75*
G03*
X13172320Y-8970130I-8000J-5D01*
G01*
X13060320Y-8978125D02*
G75*
G03*
X13052320Y-8970130I-8000J-5D01*
G01*
X13048320Y-8970125D02*
G75*
G03*
X13040315Y-8978125I0J-8005D01*
G01*
X13228320Y-9014460D02*
G75*
G02*
X13220320Y-9006460I0J8000D01*
G01*
X13140320Y-8978125D02*
G75*
G03*
X13132320Y-8970130I-8000J-5D01*
G01*
X13208320Y-8970125D02*
G75*
G03*
X13200315Y-8978125I0J-8005D01*
G01*
X13080320Y-9006460D02*
G75*
G02*
X13072320Y-9014460I-8000J0D01*
G01*
X13200320Y-9006460D02*
G75*
G02*
X13192320Y-9014460I-8000J0D01*
G01*
X13128320Y-8970125D02*
G75*
G03*
X13120315Y-8978125I0J-8005D01*
G01*
X13088320Y-8970125D02*
G75*
G03*
X13080325Y-8978125I0J-7995D01*
G01*
X13148320Y-9014460D02*
G75*
G02*
X13140320Y-9006460I0J8000D01*
G01*
X13108320Y-9014460D02*
G75*
G02*
X13100320Y-9006460I0J8000D01*
G01*
%TO.N,/MCU/SDRAM_DQ3*%
X13644880Y-9113520D02*
X13576300Y-9182100D01*
X13576300Y-9182100D02*
X13576300Y-9222740D01*
X13971705Y-9147060D02*
X13966105Y-9147060D01*
X14696800Y-9764120D02*
X14607060Y-9674380D01*
X14282060Y-9326694D02*
X14264466Y-9309100D01*
X13883399Y-9113520D02*
X13644880Y-9113520D01*
X13999705Y-9113520D02*
X13994105Y-9113520D01*
X14566800Y-9634120D02*
X14542060Y-9609380D01*
X13109440Y-9215836D02*
X13109440Y-9144120D01*
X14902060Y-9794120D02*
X14872060Y-9764120D01*
X13943705Y-9113520D02*
X13938105Y-9113520D01*
X14347060Y-9391694D02*
X14329486Y-9374120D01*
X14589486Y-9634120D02*
X14566800Y-9634120D01*
X14282060Y-9349380D02*
X14282060Y-9326694D01*
X13109440Y-9144120D02*
X13139440Y-9114120D01*
X13576300Y-9222740D02*
X13555980Y-9243060D01*
X14607060Y-9674380D02*
X14607060Y-9651694D01*
X14264466Y-9309100D02*
X14231620Y-9309100D01*
X14329486Y-9374120D02*
X14306800Y-9374120D01*
X13500100Y-9258300D02*
X13500100Y-9286240D01*
X14306800Y-9374120D02*
X14282060Y-9349380D01*
X14217060Y-9294540D02*
X14217060Y-9131694D01*
X14010905Y-9135858D02*
X14010905Y-9124720D01*
X13477240Y-9309100D02*
X13202704Y-9309100D01*
X14607060Y-9651694D02*
X14589486Y-9634120D01*
X14542060Y-9586694D02*
X14524486Y-9569120D01*
X14347060Y-9414380D02*
X14347060Y-9391694D01*
X14524486Y-9569120D02*
X14501800Y-9569120D01*
X14501800Y-9569120D02*
X14477060Y-9544380D01*
X13500100Y-9286240D02*
X13477240Y-9309100D01*
X13515340Y-9243060D02*
X13500100Y-9258300D01*
X14477060Y-9521694D02*
X14459486Y-9504120D01*
X13938105Y-9113520D02*
X13883399Y-9113520D01*
X13555980Y-9243060D02*
X13515340Y-9243060D01*
X14198886Y-9113520D02*
X14050105Y-9113520D01*
X14217060Y-9131694D02*
X14198886Y-9113520D01*
X14231620Y-9309100D02*
X14217060Y-9294540D01*
X14038905Y-9124720D02*
X14038905Y-9135858D01*
X14477060Y-9544380D02*
X14477060Y-9521694D01*
X13954905Y-9135860D02*
X13954905Y-9124720D01*
X14542060Y-9609380D02*
X14542060Y-9586694D01*
X13202704Y-9309100D02*
X13109440Y-9215836D01*
X14872060Y-9764120D02*
X14696800Y-9764120D01*
X14027705Y-9147058D02*
X14022105Y-9147058D01*
X14459486Y-9504120D02*
X14436800Y-9504120D01*
X14436800Y-9504120D02*
X14347060Y-9414380D01*
X13982905Y-9124720D02*
X13982905Y-9135860D01*
X14038905Y-9135858D02*
G75*
G02*
X14027705Y-9147055I-11195J-3D01*
G01*
X13954905Y-9124720D02*
G75*
G03*
X13943705Y-9113525I-11195J0D01*
G01*
X13966105Y-9147060D02*
G75*
G02*
X13954910Y-9135860I5J11200D01*
G01*
X13994105Y-9113520D02*
G75*
G03*
X13982910Y-9124720I5J-11200D01*
G01*
X13982905Y-9135860D02*
G75*
G02*
X13971705Y-9147055I-11195J0D01*
G01*
X14050105Y-9113520D02*
G75*
G03*
X14038910Y-9124720I5J-11200D01*
G01*
X14010905Y-9124720D02*
G75*
G03*
X13999705Y-9113525I-11195J0D01*
G01*
X14022105Y-9147058D02*
G75*
G02*
X14010912Y-9135858I5J11198D01*
G01*
%TO.N,/MCU/~{SDRAM_CAS}*%
X14099202Y-9080286D02*
X14099202Y-9048260D01*
X14389486Y-9304120D02*
X14300200Y-9304120D01*
X14162202Y-9048260D02*
X14162202Y-9080286D01*
X14069802Y-9088686D02*
X14065602Y-9088686D01*
X13931202Y-9080286D02*
X13931202Y-9048260D01*
X14048802Y-9039860D02*
X14044602Y-9039860D01*
X14477060Y-9476547D02*
X14477060Y-9391694D01*
X13518080Y-9164120D02*
X13495020Y-9187180D01*
X14300200Y-9304120D02*
X14284960Y-9288880D01*
X13911026Y-9039860D02*
X13682980Y-9039860D01*
X13495020Y-9187180D02*
X13495020Y-9217660D01*
X13943802Y-9088686D02*
X13939602Y-9088686D01*
X14057202Y-9080286D02*
X14057202Y-9048260D01*
X14006802Y-9039860D02*
X14002602Y-9039860D01*
X13985802Y-9088686D02*
X13981602Y-9088686D01*
X14284960Y-9288880D02*
X14284960Y-9069594D01*
X13474700Y-9237980D02*
X13449300Y-9237980D01*
X14255226Y-9039860D02*
X14212602Y-9039860D01*
X14477060Y-9391694D02*
X14389486Y-9304120D01*
X14499633Y-9499120D02*
X14477060Y-9476547D01*
X14937060Y-9499120D02*
X14499633Y-9499120D01*
X14015202Y-9080288D02*
X14015202Y-9048260D01*
X13952202Y-9048260D02*
X13952202Y-9080286D01*
X14967060Y-9469120D02*
X14937060Y-9499120D01*
X13449300Y-9237980D02*
X13413160Y-9274120D01*
X14111802Y-9088686D02*
X14107602Y-9088686D01*
X13994202Y-9048260D02*
X13994202Y-9080286D01*
X14090802Y-9039860D02*
X14086602Y-9039860D01*
X13682980Y-9039860D02*
X13558720Y-9164120D01*
X14153802Y-9088686D02*
X14149602Y-9088686D01*
X13558720Y-9164120D02*
X13518080Y-9164120D01*
X14204202Y-9048260D02*
X14204202Y-9080286D01*
X14284960Y-9069594D02*
X14255226Y-9039860D01*
X14183202Y-9080286D02*
X14183202Y-9048260D01*
X14027802Y-9088688D02*
X14023602Y-9088688D01*
X14120202Y-9048260D02*
X14120202Y-9080286D01*
X14132802Y-9039860D02*
X14128602Y-9039860D01*
X13964802Y-9039860D02*
X13960602Y-9039860D01*
X13922802Y-9039860D02*
X13918602Y-9039860D01*
X13413160Y-9274120D02*
X13379440Y-9274120D01*
X14174802Y-9039860D02*
X14170602Y-9039860D01*
X13495020Y-9217660D02*
X13474700Y-9237980D01*
X14036202Y-9048260D02*
X14036202Y-9080288D01*
X14078202Y-9048260D02*
X14078202Y-9080286D01*
X14141202Y-9080286D02*
X14141202Y-9048260D01*
X13918602Y-9039860D02*
X13911026Y-9039860D01*
X13973202Y-9080286D02*
X13973202Y-9048260D01*
X14195802Y-9088686D02*
X14191602Y-9088686D01*
X14078202Y-9080286D02*
G75*
G02*
X14069802Y-9088692I-8402J-4D01*
G01*
X13939602Y-9088686D02*
G75*
G02*
X13931204Y-9080286I-2J8396D01*
G01*
X14204202Y-9080286D02*
G75*
G02*
X14195802Y-9088692I-8402J-4D01*
G01*
X14002602Y-9039860D02*
G75*
G03*
X13994200Y-9048260I-2J-8400D01*
G01*
X14099202Y-9048260D02*
G75*
G03*
X14090802Y-9039858I-8402J0D01*
G01*
X13973202Y-9048260D02*
G75*
G03*
X13964802Y-9039858I-8402J0D01*
G01*
X13981602Y-9088686D02*
G75*
G02*
X13973204Y-9080286I-2J8396D01*
G01*
X14065602Y-9088686D02*
G75*
G02*
X14057204Y-9080286I-2J8396D01*
G01*
X14057202Y-9048260D02*
G75*
G03*
X14048802Y-9039858I-8402J0D01*
G01*
X14120202Y-9080286D02*
G75*
G02*
X14111802Y-9088692I-8402J-4D01*
G01*
X13931202Y-9048260D02*
G75*
G03*
X13922802Y-9039858I-8402J0D01*
G01*
X14170602Y-9039860D02*
G75*
G03*
X14162200Y-9048260I-2J-8400D01*
G01*
X13952202Y-9080286D02*
G75*
G02*
X13943802Y-9088692I-8402J-4D01*
G01*
X14015202Y-9048260D02*
G75*
G03*
X14006802Y-9039858I-8402J0D01*
G01*
X13960602Y-9039860D02*
G75*
G03*
X13952200Y-9048260I-2J-8400D01*
G01*
X14183202Y-9048260D02*
G75*
G03*
X14174802Y-9039858I-8402J0D01*
G01*
X14107602Y-9088686D02*
G75*
G02*
X14099204Y-9080286I-2J8396D01*
G01*
X14149602Y-9088686D02*
G75*
G02*
X14141204Y-9080286I-2J8396D01*
G01*
X14036202Y-9080288D02*
G75*
G02*
X14027802Y-9088692I-8402J-2D01*
G01*
X14191602Y-9088686D02*
G75*
G02*
X14183204Y-9080286I-2J8396D01*
G01*
X13994202Y-9080286D02*
G75*
G02*
X13985802Y-9088692I-8402J-4D01*
G01*
X14128602Y-9039860D02*
G75*
G03*
X14120200Y-9048260I-2J-8400D01*
G01*
X14023602Y-9088688D02*
G75*
G02*
X14015202Y-9080288I-2J8398D01*
G01*
X14086602Y-9039860D02*
G75*
G03*
X14078200Y-9048260I-2J-8400D01*
G01*
X14044602Y-9039860D02*
G75*
G03*
X14036200Y-9048260I-2J-8400D01*
G01*
X14162202Y-9080286D02*
G75*
G02*
X14153802Y-9088692I-8402J-4D01*
G01*
X14212602Y-9039860D02*
G75*
G03*
X14204200Y-9048260I-2J-8400D01*
G01*
X14141202Y-9048260D02*
G75*
G03*
X14132802Y-9039858I-8402J0D01*
G01*
%TO.N,/MCU/SDRAM_DQ15*%
X13772837Y-10261755D02*
X13766837Y-10261755D01*
X13700416Y-10314940D02*
X13501957Y-10116482D01*
X14165236Y-10314940D02*
X14096837Y-10314940D01*
X12943840Y-10063480D02*
X12943840Y-9709720D01*
X13982837Y-10314940D02*
X13976837Y-10314940D01*
X14252060Y-9989120D02*
X14252060Y-10228116D01*
X12943840Y-9709720D02*
X12979440Y-9674120D01*
X13784837Y-10302940D02*
X13784837Y-10273755D01*
X14042837Y-10314940D02*
X14036837Y-10314940D01*
X14012837Y-10261755D02*
X14006837Y-10261755D01*
X13892837Y-10261755D02*
X13886837Y-10261755D01*
X13814837Y-10273755D02*
X13814837Y-10302940D01*
X13994837Y-10273755D02*
X13994837Y-10302940D01*
X13742837Y-10314940D02*
X13736837Y-10314940D01*
X14252060Y-10228116D02*
X14165236Y-10314940D01*
X13736837Y-10314940D02*
X13719830Y-10314940D01*
X13832837Y-10261755D02*
X13826837Y-10261755D01*
X13862837Y-10314940D02*
X13856837Y-10314940D01*
X14024837Y-10302940D02*
X14024837Y-10273755D01*
X13952837Y-10261755D02*
X13946837Y-10261755D01*
X13754837Y-10273755D02*
X13754837Y-10302940D01*
X13922837Y-10314940D02*
X13916837Y-10314940D01*
X14084837Y-10302940D02*
X14084837Y-10273755D01*
X13904837Y-10302940D02*
X13904837Y-10273755D01*
X13802837Y-10314940D02*
X13796837Y-10314940D01*
X13719830Y-10314940D02*
X13700416Y-10314940D01*
X14072837Y-10261755D02*
X14066837Y-10261755D01*
X13874837Y-10273755D02*
X13874837Y-10302940D01*
X12996842Y-10116482D02*
X12943840Y-10063480D01*
X13501957Y-10116482D02*
X12996842Y-10116482D01*
X13844837Y-10302940D02*
X13844837Y-10273755D01*
X14054837Y-10273755D02*
X14054837Y-10302940D01*
X13934837Y-10273755D02*
X13934837Y-10302940D01*
X13964837Y-10302940D02*
X13964837Y-10273755D01*
X14054837Y-10302940D02*
G75*
G02*
X14042837Y-10314937I-11997J0D01*
G01*
X13844837Y-10273755D02*
G75*
G03*
X13832837Y-10261763I-11997J-5D01*
G01*
X13826837Y-10261755D02*
G75*
G03*
X13814835Y-10273755I3J-12005D01*
G01*
X13766837Y-10261755D02*
G75*
G03*
X13754845Y-10273755I3J-11995D01*
G01*
X14036837Y-10314940D02*
G75*
G02*
X14024840Y-10302940I3J12000D01*
G01*
X13796837Y-10314940D02*
G75*
G02*
X13784840Y-10302940I3J12000D01*
G01*
X13784837Y-10273755D02*
G75*
G03*
X13772837Y-10261753I-11997J5D01*
G01*
X13856837Y-10314940D02*
G75*
G02*
X13844840Y-10302940I3J12000D01*
G01*
X13886837Y-10261755D02*
G75*
G03*
X13874845Y-10273755I3J-11995D01*
G01*
X14084837Y-10273755D02*
G75*
G03*
X14072837Y-10261763I-11997J-5D01*
G01*
X13994837Y-10302940D02*
G75*
G02*
X13982837Y-10314937I-11997J0D01*
G01*
X13976837Y-10314940D02*
G75*
G02*
X13964840Y-10302940I3J12000D01*
G01*
X13934837Y-10302940D02*
G75*
G02*
X13922837Y-10314937I-11997J0D01*
G01*
X14066837Y-10261755D02*
G75*
G03*
X14054835Y-10273755I3J-12005D01*
G01*
X14024837Y-10273755D02*
G75*
G03*
X14012837Y-10261753I-11997J5D01*
G01*
X13916837Y-10314940D02*
G75*
G02*
X13904840Y-10302940I3J12000D01*
G01*
X13874837Y-10302940D02*
G75*
G02*
X13862837Y-10314937I-11997J0D01*
G01*
X14096837Y-10314940D02*
G75*
G02*
X14084840Y-10302940I3J12000D01*
G01*
X13964837Y-10273755D02*
G75*
G03*
X13952837Y-10261763I-11997J-5D01*
G01*
X14006837Y-10261755D02*
G75*
G03*
X13994845Y-10273755I3J-11995D01*
G01*
X13904837Y-10273755D02*
G75*
G03*
X13892837Y-10261753I-11997J5D01*
G01*
X13754837Y-10302940D02*
G75*
G02*
X13742837Y-10314937I-11997J0D01*
G01*
X13814837Y-10302940D02*
G75*
G02*
X13802837Y-10314937I-11997J0D01*
G01*
X13946837Y-10261755D02*
G75*
G03*
X13934835Y-10273755I3J-12005D01*
G01*
%TO.N,/MCU/SDRAM_DQ5*%
X12949440Y-9251544D02*
X12949440Y-9171420D01*
X13563606Y-9401100D02*
X13563606Y-9454209D01*
X13653606Y-9454209D02*
X13653606Y-9401100D01*
X14061440Y-9375140D02*
X14038580Y-9375140D01*
X13086996Y-9389100D02*
X12971156Y-9273260D01*
X13521606Y-9389100D02*
X13515606Y-9389100D01*
X13551606Y-9466209D02*
X13545606Y-9466209D01*
X13623606Y-9401100D02*
X13623606Y-9454207D01*
X13473606Y-9454209D02*
X13473606Y-9401100D01*
X13773606Y-9424207D02*
X13773606Y-9401100D01*
X13761606Y-9389100D02*
X13755606Y-9389100D01*
X14157060Y-9460600D02*
X14135100Y-9438640D01*
X13731606Y-9466207D02*
X13725606Y-9466207D01*
X14030960Y-9410700D02*
X14020800Y-9420860D01*
X14069060Y-9431020D02*
X14069060Y-9382760D01*
X13641606Y-9389100D02*
X13635606Y-9389100D01*
X13671606Y-9466209D02*
X13665606Y-9466209D01*
X13743606Y-9401100D02*
X13743606Y-9454207D01*
X13683606Y-9401100D02*
X13683606Y-9454209D01*
X13040360Y-9080500D02*
X13185820Y-9080500D01*
X13455606Y-9389100D02*
X13125656Y-9389100D01*
X12949440Y-9171420D02*
X13040360Y-9080500D01*
X13461606Y-9389100D02*
X13455606Y-9389100D01*
X14030960Y-9382760D02*
X14030960Y-9410700D01*
X14069060Y-9382760D02*
X14061440Y-9375140D01*
X13995744Y-9420860D02*
X13963984Y-9389100D01*
X13791606Y-9436207D02*
X13785606Y-9436207D01*
X14076680Y-9438640D02*
X14069060Y-9431020D01*
X13581606Y-9389100D02*
X13575606Y-9389100D01*
X13125656Y-9389100D02*
X13086996Y-9389100D01*
X13611606Y-9466207D02*
X13605606Y-9466207D01*
X13185820Y-9080500D02*
X13219440Y-9114120D01*
X13701606Y-9389100D02*
X13695606Y-9389100D01*
X13503606Y-9401100D02*
X13503606Y-9454209D01*
X14157060Y-9504120D02*
X14157060Y-9460600D01*
X14020800Y-9420860D02*
X13995744Y-9420860D01*
X12971156Y-9273260D02*
X12949440Y-9251544D01*
X14038580Y-9375140D02*
X14030960Y-9382760D01*
X13593606Y-9454207D02*
X13593606Y-9401100D01*
X13803606Y-9401100D02*
X13803606Y-9424207D01*
X13963984Y-9389100D02*
X13815606Y-9389100D01*
X13533606Y-9454209D02*
X13533606Y-9401100D01*
X14187060Y-9534120D02*
X14157060Y-9504120D01*
X13491606Y-9466209D02*
X13485606Y-9466209D01*
X13713606Y-9454207D02*
X13713606Y-9401100D01*
X14135100Y-9438640D02*
X14076680Y-9438640D01*
X13803606Y-9424207D02*
G75*
G02*
X13791606Y-9436206I-11996J-3D01*
G01*
X13785606Y-9436207D02*
G75*
G02*
X13773613Y-9424207I4J11997D01*
G01*
X13515606Y-9389100D02*
G75*
G03*
X13503610Y-9401100I4J-12000D01*
G01*
X13773606Y-9401100D02*
G75*
G03*
X13761606Y-9389104I-11996J0D01*
G01*
X13575606Y-9389100D02*
G75*
G03*
X13563610Y-9401100I4J-12000D01*
G01*
X13815606Y-9389100D02*
G75*
G03*
X13803610Y-9401100I4J-12000D01*
G01*
X13725606Y-9466207D02*
G75*
G02*
X13713613Y-9454207I4J11997D01*
G01*
X13743606Y-9454207D02*
G75*
G02*
X13731606Y-9466206I-11996J-3D01*
G01*
X13665606Y-9466209D02*
G75*
G02*
X13653611Y-9454209I4J11999D01*
G01*
X13635606Y-9389100D02*
G75*
G03*
X13623610Y-9401100I4J-12000D01*
G01*
X13695606Y-9389100D02*
G75*
G03*
X13683610Y-9401100I4J-12000D01*
G01*
X13533606Y-9401100D02*
G75*
G03*
X13521606Y-9389104I-11996J0D01*
G01*
X13593606Y-9401100D02*
G75*
G03*
X13581606Y-9389104I-11996J0D01*
G01*
X13683606Y-9454209D02*
G75*
G02*
X13671606Y-9466206I-11996J-1D01*
G01*
X13563606Y-9454209D02*
G75*
G02*
X13551606Y-9466206I-11996J-1D01*
G01*
X13653606Y-9401100D02*
G75*
G03*
X13641606Y-9389104I-11996J0D01*
G01*
X13755606Y-9389100D02*
G75*
G03*
X13743610Y-9401100I4J-12000D01*
G01*
X13503606Y-9454209D02*
G75*
G02*
X13491606Y-9466206I-11996J-1D01*
G01*
X13623606Y-9454207D02*
G75*
G02*
X13611606Y-9466206I-11996J-3D01*
G01*
X13605606Y-9466207D02*
G75*
G02*
X13593613Y-9454207I4J11997D01*
G01*
X13713606Y-9401100D02*
G75*
G03*
X13701606Y-9389104I-11996J0D01*
G01*
X13473606Y-9401100D02*
G75*
G03*
X13461606Y-9389104I-11996J0D01*
G01*
X13545606Y-9466209D02*
G75*
G02*
X13533611Y-9454209I4J11999D01*
G01*
X13485606Y-9466209D02*
G75*
G02*
X13473611Y-9454209I4J11999D01*
G01*
%TO.N,/MCU/~{SDRAM_WE}*%
X14361326Y-8950960D02*
X14482060Y-9071694D01*
X13506430Y-8987130D02*
X13816646Y-8987130D01*
X13379440Y-9114120D02*
X13506430Y-8987130D01*
X13852816Y-8950960D02*
X14361326Y-8950960D01*
X13816646Y-8987130D02*
X13852816Y-8950960D01*
X14482060Y-9244120D02*
X14512060Y-9274120D01*
X14482060Y-9071694D02*
X14482060Y-9244120D01*
%TO.N,/MCU/SDRAM_DQML*%
X14737060Y-9385280D02*
X14787880Y-9436100D01*
X15002060Y-9411547D02*
X15002060Y-9391694D01*
X14737060Y-9191880D02*
X14737060Y-9385280D01*
X14977506Y-9436100D02*
X15002060Y-9411547D01*
X13342620Y-9150940D02*
X13342620Y-9108514D01*
X14787880Y-9436100D02*
X14977506Y-9436100D01*
X14719300Y-9174120D02*
X14737060Y-9191880D01*
X15062200Y-9351407D02*
X15062200Y-9304260D01*
X14564633Y-9174120D02*
X14719300Y-9174120D01*
X13299440Y-9194120D02*
X13342620Y-9150940D01*
X13342620Y-9108514D02*
X13484933Y-8966200D01*
X14542060Y-9103409D02*
X14542060Y-9151547D01*
X15024633Y-9369120D02*
X15044486Y-9369120D01*
X13842680Y-8930960D02*
X14369611Y-8930960D01*
X13807440Y-8966200D02*
X13842680Y-8930960D01*
X15002060Y-9391694D02*
X15024633Y-9369120D01*
X13484933Y-8966200D02*
X13807440Y-8966200D01*
X14369611Y-8930960D02*
X14542060Y-9103409D01*
X15044486Y-9369120D02*
X15062200Y-9351407D01*
X15062200Y-9304260D02*
X15032060Y-9274120D01*
X14542060Y-9151547D02*
X14564633Y-9174120D01*
%TO.N,/MCU/SDRAM_DQ4*%
X13249440Y-9126547D02*
X13211666Y-9164320D01*
X13247580Y-9456420D02*
X13243580Y-9456420D01*
X13080988Y-9456420D02*
X13070840Y-9456420D01*
X13395580Y-9448420D02*
X13395580Y-9422757D01*
X13335580Y-9422757D02*
X13335580Y-9448420D01*
X13858240Y-9409100D02*
X13777260Y-9490080D01*
X13458249Y-9490080D02*
X13424589Y-9456420D01*
X13087580Y-9456420D02*
X13083580Y-9456420D01*
X13227580Y-9414757D02*
X13223580Y-9414757D01*
X14122060Y-9534120D02*
X14080720Y-9534120D01*
X12929440Y-9261680D02*
X12929440Y-9163136D01*
X13307580Y-9414757D02*
X13303580Y-9414757D01*
X13355580Y-9448420D02*
X13355580Y-9422757D01*
X13215940Y-9060500D02*
X13249440Y-9094000D01*
X13295580Y-9422757D02*
X13295580Y-9448420D01*
X13167580Y-9456420D02*
X13163580Y-9456420D01*
X13135580Y-9422756D02*
X13135580Y-9448420D01*
X13327580Y-9456420D02*
X13323580Y-9456420D01*
X14080720Y-9534120D02*
X13955700Y-9409100D01*
X13175580Y-9422757D02*
X13175580Y-9448420D01*
X13215580Y-9422757D02*
X13215580Y-9448420D01*
X13367580Y-9456420D02*
X13363580Y-9456420D01*
X13235580Y-9448420D02*
X13235580Y-9422757D01*
X13035280Y-9367520D02*
X12929440Y-9261680D01*
X13207580Y-9456420D02*
X13203580Y-9456420D01*
X13347580Y-9414757D02*
X13343580Y-9414757D01*
X13287580Y-9456420D02*
X13283580Y-9456420D01*
X13777260Y-9490080D02*
X13458249Y-9490080D01*
X13147580Y-9414756D02*
X13143580Y-9414756D01*
X13083580Y-9456420D02*
X13080988Y-9456420D01*
X13387580Y-9414757D02*
X13383580Y-9414757D01*
X13424589Y-9456420D02*
X13403580Y-9456420D01*
X13070840Y-9456420D02*
X13035280Y-9420860D01*
X13127580Y-9456420D02*
X13123580Y-9456420D01*
X13115580Y-9448420D02*
X13115580Y-9422755D01*
X13195580Y-9448420D02*
X13195580Y-9422757D01*
X13155580Y-9448420D02*
X13155580Y-9422756D01*
X13375580Y-9422757D02*
X13375580Y-9448420D01*
X13187580Y-9414757D02*
X13183580Y-9414757D01*
X13211666Y-9164320D02*
X13169240Y-9164320D01*
X13035280Y-9420860D02*
X13035280Y-9367520D01*
X13032076Y-9060500D02*
X13215940Y-9060500D01*
X12929440Y-9163136D02*
X13032076Y-9060500D01*
X13255580Y-9422757D02*
X13255580Y-9448420D01*
X13315580Y-9448420D02*
X13315580Y-9422757D01*
X13275580Y-9448420D02*
X13275580Y-9422757D01*
X13169240Y-9164320D02*
X13139440Y-9194120D01*
X13107580Y-9414755D02*
X13103580Y-9414755D01*
X13095580Y-9422755D02*
X13095580Y-9448420D01*
X13249440Y-9094000D02*
X13249440Y-9126547D01*
X13267580Y-9414757D02*
X13263580Y-9414757D01*
X13955700Y-9409100D02*
X13858240Y-9409100D01*
X13275580Y-9422757D02*
G75*
G03*
X13267580Y-9414760I-8000J-4D01*
G01*
X13375580Y-9448420D02*
G75*
G02*
X13367580Y-9456420I-8000J0D01*
G01*
X13163580Y-9456420D02*
G75*
G02*
X13155580Y-9448420I0J8000D01*
G01*
X13203580Y-9456420D02*
G75*
G02*
X13195580Y-9448420I0J8000D01*
G01*
X13335580Y-9448420D02*
G75*
G02*
X13327580Y-9456420I-8000J0D01*
G01*
X13303580Y-9414757D02*
G75*
G03*
X13295576Y-9422757I0J-8004D01*
G01*
X13223580Y-9414757D02*
G75*
G03*
X13215576Y-9422757I0J-8004D01*
G01*
X13263580Y-9414757D02*
G75*
G03*
X13255576Y-9422757I0J-8004D01*
G01*
X13403580Y-9456420D02*
G75*
G02*
X13395580Y-9448420I0J8000D01*
G01*
X13215580Y-9448420D02*
G75*
G02*
X13207580Y-9456420I-8000J0D01*
G01*
X13283580Y-9456420D02*
G75*
G02*
X13275580Y-9448420I0J8000D01*
G01*
X13383580Y-9414757D02*
G75*
G03*
X13375576Y-9422757I0J-8004D01*
G01*
X13095580Y-9448420D02*
G75*
G02*
X13087580Y-9456420I-8000J0D01*
G01*
X13243580Y-9456420D02*
G75*
G02*
X13235580Y-9448420I0J8000D01*
G01*
X13395580Y-9422757D02*
G75*
G03*
X13387580Y-9414760I-8000J-4D01*
G01*
X13235580Y-9422757D02*
G75*
G03*
X13227580Y-9414760I-8000J-4D01*
G01*
X13123580Y-9456420D02*
G75*
G02*
X13115580Y-9448420I0J8000D01*
G01*
X13115580Y-9422755D02*
G75*
G03*
X13107580Y-9414760I-8000J-5D01*
G01*
X13195580Y-9422757D02*
G75*
G03*
X13187580Y-9414760I-8000J-4D01*
G01*
X13323580Y-9456420D02*
G75*
G02*
X13315580Y-9448420I0J8000D01*
G01*
X13103580Y-9414755D02*
G75*
G03*
X13095575Y-9422755I0J-8005D01*
G01*
X13143580Y-9414756D02*
G75*
G03*
X13135576Y-9422756I0J-8004D01*
G01*
X13315580Y-9422757D02*
G75*
G03*
X13307580Y-9414760I-8000J-4D01*
G01*
X13135580Y-9448420D02*
G75*
G02*
X13127580Y-9456420I-8000J0D01*
G01*
X13363580Y-9456420D02*
G75*
G02*
X13355580Y-9448420I0J8000D01*
G01*
X13155580Y-9422756D02*
G75*
G03*
X13147580Y-9414760I-8000J-4D01*
G01*
X13295580Y-9448420D02*
G75*
G02*
X13287580Y-9456420I-8000J0D01*
G01*
X13183580Y-9414757D02*
G75*
G03*
X13175576Y-9422757I0J-8004D01*
G01*
X13175580Y-9448420D02*
G75*
G02*
X13167580Y-9456420I-8000J0D01*
G01*
X13255580Y-9448420D02*
G75*
G02*
X13247580Y-9456420I-8000J0D01*
G01*
X13343580Y-9414757D02*
G75*
G03*
X13335576Y-9422757I0J-8004D01*
G01*
X13355580Y-9422757D02*
G75*
G03*
X13347580Y-9414760I-8000J-4D01*
G01*
%TO.N,/MCU/SDRAM_DQ9*%
X13917930Y-9749790D02*
X13966190Y-9749790D01*
X13649440Y-9810000D02*
X13649440Y-9722600D01*
X13586460Y-9824720D02*
X13634720Y-9824720D01*
X13332460Y-9550400D02*
X13345160Y-9563100D01*
X12959080Y-9631680D02*
X12949440Y-9622040D01*
X13345160Y-9603740D02*
X13324780Y-9624120D01*
X12949440Y-9565120D02*
X12964160Y-9550400D01*
X13219440Y-9674120D02*
X13177000Y-9631680D01*
X13342620Y-9769016D02*
X13360224Y-9786620D01*
X13502640Y-9734550D02*
X13519150Y-9718040D01*
X13573760Y-9735820D02*
X13573760Y-9812020D01*
X13634720Y-9707880D02*
X13603697Y-9707880D01*
X13276520Y-9624120D02*
X13258800Y-9641840D01*
X12964160Y-9550400D02*
X13332460Y-9550400D01*
X13807440Y-9639300D02*
X13917930Y-9749790D01*
X13555980Y-9718040D02*
X13573760Y-9735820D01*
X13312140Y-9715500D02*
X13342620Y-9745980D01*
X13278600Y-9715500D02*
X13312140Y-9715500D01*
X13599160Y-9639300D02*
X13807440Y-9639300D01*
X13634720Y-9824720D02*
X13649440Y-9810000D01*
X14051860Y-9664120D02*
X14122060Y-9664120D01*
X13581380Y-9685563D02*
X13581380Y-9657080D01*
X13649440Y-9722600D02*
X13634720Y-9707880D01*
X13406120Y-9786620D02*
X13444220Y-9824720D01*
X13258800Y-9695700D02*
X13278600Y-9715500D01*
X13489940Y-9824720D02*
X13502640Y-9812020D01*
X13573760Y-9812020D02*
X13586460Y-9824720D01*
X13177000Y-9631680D02*
X12959080Y-9631680D01*
X13966190Y-9749790D02*
X14051860Y-9664120D01*
X13444220Y-9824720D02*
X13489940Y-9824720D01*
X13324780Y-9624120D02*
X13276520Y-9624120D01*
X13345160Y-9563100D02*
X13345160Y-9603740D01*
X13581380Y-9657080D02*
X13599160Y-9639300D01*
X13360224Y-9786620D02*
X13406120Y-9786620D01*
X12949440Y-9622040D02*
X12949440Y-9565120D01*
X13519150Y-9718040D02*
X13555980Y-9718040D01*
X13342620Y-9745980D02*
X13342620Y-9769016D01*
X13502640Y-9812020D02*
X13502640Y-9734550D01*
X13258800Y-9641840D02*
X13258800Y-9695700D01*
X13603697Y-9707880D02*
X13581380Y-9685563D01*
%TO.N,/MCU/SDRAM_DQ8*%
X13921420Y-9774240D02*
X13903960Y-9791700D01*
X14135180Y-9694120D02*
X14050144Y-9694120D01*
X13865312Y-9839260D02*
X13865312Y-9759260D01*
X13697312Y-9666260D02*
X13693312Y-9666260D01*
X13765312Y-9674260D02*
X13765312Y-9839260D01*
X13677312Y-9847260D02*
X13673312Y-9847260D01*
X13660747Y-9847260D02*
X13291500Y-9847260D01*
X13817312Y-9741260D02*
X13813312Y-9741260D01*
X13903960Y-9791700D02*
X13903960Y-9840304D01*
X13805312Y-9749260D02*
X13805312Y-9839260D01*
X13897004Y-9847260D02*
X13873312Y-9847260D01*
X13825312Y-9839260D02*
X13825312Y-9749260D01*
X13970024Y-9774240D02*
X13921420Y-9774240D01*
X13757312Y-9847260D02*
X13753312Y-9847260D01*
X13857312Y-9751260D02*
X13853312Y-9751260D01*
X13286740Y-9806940D02*
X13322300Y-9806940D01*
X13291500Y-9847260D02*
X13279120Y-9834880D01*
X13837312Y-9847260D02*
X13833312Y-9847260D01*
X13322300Y-9806940D02*
X13330930Y-9798310D01*
X13685312Y-9674260D02*
X13685312Y-9839260D01*
X13845312Y-9759260D02*
X13845312Y-9839260D01*
X13797312Y-9847260D02*
X13793312Y-9847260D01*
X13279120Y-9834880D02*
X13279120Y-9814560D01*
X13717312Y-9847260D02*
X13713312Y-9847260D01*
X13330930Y-9798310D02*
X13330930Y-9785610D01*
X13777312Y-9666260D02*
X13773312Y-9666260D01*
X14187060Y-9664120D02*
X14165180Y-9664120D01*
X13745312Y-9839260D02*
X13745312Y-9674260D01*
X13705312Y-9839260D02*
X13705312Y-9674260D01*
X13903960Y-9840304D02*
X13897004Y-9847260D01*
X13279120Y-9814560D02*
X13286740Y-9806940D01*
X13673312Y-9847260D02*
X13660747Y-9847260D01*
X13785312Y-9839260D02*
X13785312Y-9674260D01*
X14050144Y-9694120D02*
X13970024Y-9774240D01*
X13330930Y-9785610D02*
X13299440Y-9754120D01*
X13737312Y-9666260D02*
X13733312Y-9666260D01*
X13725312Y-9674260D02*
X13725312Y-9839260D01*
X14165180Y-9664120D02*
X14135180Y-9694120D01*
X13773312Y-9666260D02*
G75*
G03*
X13765310Y-9674260I-2J-8000D01*
G01*
X13765312Y-9839260D02*
G75*
G02*
X13757312Y-9847262I-8002J0D01*
G01*
X13805312Y-9839260D02*
G75*
G02*
X13797312Y-9847262I-8002J0D01*
G01*
X13693312Y-9666260D02*
G75*
G03*
X13685310Y-9674260I-2J-8000D01*
G01*
X13873312Y-9847260D02*
G75*
G02*
X13865310Y-9839260I-2J8000D01*
G01*
X13833312Y-9847260D02*
G75*
G02*
X13825310Y-9839260I-2J8000D01*
G01*
X13685312Y-9839260D02*
G75*
G02*
X13677312Y-9847262I-8002J0D01*
G01*
X13813312Y-9741260D02*
G75*
G03*
X13805310Y-9749260I-2J-8000D01*
G01*
X13745312Y-9674260D02*
G75*
G03*
X13737312Y-9666258I-8002J0D01*
G01*
X13753312Y-9847260D02*
G75*
G02*
X13745310Y-9839260I-2J8000D01*
G01*
X13713312Y-9847260D02*
G75*
G02*
X13705310Y-9839260I-2J8000D01*
G01*
X13705312Y-9674260D02*
G75*
G03*
X13697312Y-9666258I-8002J0D01*
G01*
X13845312Y-9839260D02*
G75*
G02*
X13837312Y-9847262I-8002J0D01*
G01*
X13785312Y-9674260D02*
G75*
G03*
X13777312Y-9666258I-8002J0D01*
G01*
X13733312Y-9666260D02*
G75*
G03*
X13725310Y-9674260I-2J-8000D01*
G01*
X13725312Y-9839260D02*
G75*
G02*
X13717312Y-9847262I-8002J0D01*
G01*
X13793312Y-9847260D02*
G75*
G02*
X13785310Y-9839260I-2J8000D01*
G01*
X13865312Y-9759260D02*
G75*
G03*
X13857312Y-9751258I-8002J0D01*
G01*
X13853312Y-9751260D02*
G75*
G03*
X13845310Y-9759260I-2J-8000D01*
G01*
X13825312Y-9749260D02*
G75*
G03*
X13817312Y-9741258I-8002J0D01*
G01*
%TO.N,/MCU/SDRAM_DQ10*%
X13785320Y-10025380D02*
X13785320Y-9926964D01*
X13837920Y-10036180D02*
X13843000Y-10031100D01*
X13634120Y-9916165D02*
X13639520Y-9916165D01*
X13607120Y-10036180D02*
X13612520Y-10036180D01*
X13843000Y-9908540D02*
X13863640Y-9887900D01*
X13219440Y-9945380D02*
X13309920Y-10035860D01*
X14176058Y-9697402D02*
X14220342Y-9697402D01*
X13828520Y-10036180D02*
X13832840Y-10036180D01*
X13912933Y-9887900D02*
X13958333Y-9842500D01*
X13832840Y-10036180D02*
X13837920Y-10036180D01*
X13742120Y-9916165D02*
X13747520Y-9916165D01*
X14071160Y-9759120D02*
X14134486Y-9759120D01*
X13580120Y-9916164D02*
X13585520Y-9916164D01*
X14220342Y-9697402D02*
X14252060Y-9729120D01*
X13219440Y-9754120D02*
X13219440Y-9945380D01*
X14134486Y-9759120D02*
X14152060Y-9741547D01*
X13958333Y-9842500D02*
X13987780Y-9842500D01*
X13812320Y-9926964D02*
X13812320Y-10025380D01*
X13661120Y-10036180D02*
X13666520Y-10036180D01*
X14152060Y-9741547D02*
X14152060Y-9721400D01*
X13650320Y-9926965D02*
X13650320Y-10025380D01*
X13688120Y-9916165D02*
X13693520Y-9916165D01*
X13715120Y-10036180D02*
X13720520Y-10036180D01*
X13987780Y-9842500D02*
X14071160Y-9759120D01*
X13315344Y-10035860D02*
X13315664Y-10036180D01*
X13315664Y-10036180D02*
X13558520Y-10036180D01*
X14152060Y-9721400D02*
X14176058Y-9697402D01*
X13863640Y-9887900D02*
X13912933Y-9887900D01*
X13623320Y-10025380D02*
X13623320Y-9926965D01*
X13309920Y-10035860D02*
X13315344Y-10035860D01*
X13843000Y-10031100D02*
X13843000Y-9908540D01*
X13796120Y-9916164D02*
X13801520Y-9916164D01*
X13596320Y-9926964D02*
X13596320Y-10025380D01*
X13677320Y-10025380D02*
X13677320Y-9926965D01*
X13569320Y-10025380D02*
X13569320Y-9926964D01*
X13769120Y-10036180D02*
X13774520Y-10036180D01*
X13758320Y-9926965D02*
X13758320Y-10025380D01*
X13704320Y-9926965D02*
X13704320Y-10025380D01*
X13731320Y-10025380D02*
X13731320Y-9926965D01*
X13823120Y-10036180D02*
X13828520Y-10036180D01*
X13569320Y-9926964D02*
G75*
G02*
X13580120Y-9916160I10800J4D01*
G01*
X13623320Y-9926965D02*
G75*
G02*
X13634120Y-9916160I10800J5D01*
G01*
X13774520Y-10036180D02*
G75*
G03*
X13785320Y-10025380I0J10800D01*
G01*
X13585520Y-9916164D02*
G75*
G02*
X13596316Y-9926964I0J-10796D01*
G01*
X13747520Y-9916165D02*
G75*
G02*
X13758325Y-9926965I0J-10805D01*
G01*
X13596320Y-10025380D02*
G75*
G03*
X13607120Y-10036180I10800J0D01*
G01*
X13677320Y-9926965D02*
G75*
G02*
X13688120Y-9916160I10800J5D01*
G01*
X13801520Y-9916164D02*
G75*
G02*
X13812316Y-9926964I0J-10796D01*
G01*
X13558520Y-10036180D02*
G75*
G03*
X13569320Y-10025380I0J10800D01*
G01*
X13666520Y-10036180D02*
G75*
G03*
X13677320Y-10025380I0J10800D01*
G01*
X13812320Y-10025380D02*
G75*
G03*
X13823120Y-10036180I10800J0D01*
G01*
X13785320Y-9926964D02*
G75*
G02*
X13796120Y-9916160I10800J4D01*
G01*
X13720520Y-10036180D02*
G75*
G03*
X13731320Y-10025380I0J10800D01*
G01*
X13639520Y-9916165D02*
G75*
G02*
X13650315Y-9926965I0J-10795D01*
G01*
X13704320Y-10025380D02*
G75*
G03*
X13715120Y-10036180I10800J0D01*
G01*
X13650320Y-10025380D02*
G75*
G03*
X13661120Y-10036180I10800J0D01*
G01*
X13731320Y-9926965D02*
G75*
G02*
X13742120Y-9916170I10800J-5D01*
G01*
X13612520Y-10036180D02*
G75*
G03*
X13623320Y-10025380I0J10800D01*
G01*
X13758320Y-10025380D02*
G75*
G03*
X13769120Y-10036180I10800J0D01*
G01*
X13693520Y-9916165D02*
G75*
G02*
X13704315Y-9926965I0J-10795D01*
G01*
%TO.N,/MCU/SDRAM_DQ1*%
X14521180Y-9730740D02*
X14480540Y-9690100D01*
X14541500Y-9771380D02*
X14541500Y-9883140D01*
X14419480Y-9634120D02*
X14411960Y-9626600D01*
X13184500Y-9349100D02*
X13079520Y-9244120D01*
X14480540Y-9655174D02*
X14459486Y-9634120D01*
X14284960Y-9479447D02*
X14284960Y-9456980D01*
X14170487Y-9369974D02*
X14155420Y-9354907D01*
X14217060Y-9422100D02*
X14217060Y-9391694D01*
X14480540Y-9880600D02*
X14480540Y-9776460D01*
X14589760Y-9893300D02*
X14607060Y-9876000D01*
X14135120Y-9309120D02*
X13596600Y-9309120D01*
X13043960Y-9244120D02*
X13014960Y-9215120D01*
X14480540Y-9776460D02*
X14495780Y-9761220D01*
X13014960Y-9215120D02*
X13014960Y-9158600D01*
X14155420Y-9329420D02*
X14135120Y-9309120D01*
X14411960Y-9894220D02*
X14466920Y-9894220D01*
X14531340Y-9761220D02*
X14541500Y-9771380D01*
X14551660Y-9893300D02*
X14589760Y-9893300D01*
X14582140Y-9730740D02*
X14521180Y-9730740D01*
X14217060Y-9391694D02*
X14195340Y-9369974D01*
X14411960Y-9626600D02*
X14411960Y-9583420D01*
X14382060Y-9924120D02*
X14411960Y-9894220D01*
X14495780Y-9761220D02*
X14531340Y-9761220D01*
X14480540Y-9690100D02*
X14480540Y-9655174D01*
X13014960Y-9158600D02*
X13059440Y-9114120D01*
X14284960Y-9456980D02*
X14262100Y-9434120D01*
X14607060Y-9755660D02*
X14582140Y-9730740D01*
X14195340Y-9369974D02*
X14170487Y-9369974D01*
X13596600Y-9309120D02*
X13556620Y-9349100D01*
X14304633Y-9499120D02*
X14284960Y-9479447D01*
X13556620Y-9349100D02*
X13184500Y-9349100D01*
X14411960Y-9583420D02*
X14327660Y-9499120D01*
X14327660Y-9499120D02*
X14304633Y-9499120D01*
X14466920Y-9894220D02*
X14480540Y-9880600D01*
X14229080Y-9434120D02*
X14217060Y-9422100D01*
X14459486Y-9634120D02*
X14419480Y-9634120D01*
X14541500Y-9883140D02*
X14551660Y-9893300D01*
X14155420Y-9354907D02*
X14155420Y-9329420D01*
X13079520Y-9244120D02*
X13043960Y-9244120D01*
X14262100Y-9434120D02*
X14229080Y-9434120D01*
X14607060Y-9876000D02*
X14607060Y-9755660D01*
%TO.N,/MCU/SDRAM_CLK*%
X14673580Y-10030460D02*
X14673580Y-9974580D01*
X13482320Y-9707880D02*
X13502640Y-9687560D01*
X14351000Y-9964420D02*
X14361300Y-9954120D01*
X14417040Y-10033000D02*
X14429740Y-10045700D01*
X13672820Y-9598660D02*
X13893800Y-9598660D01*
X14239633Y-9889120D02*
X14263000Y-9889120D01*
X14269620Y-9634120D02*
X14282420Y-9646920D01*
X14546580Y-9969500D02*
X14546580Y-10030460D01*
X13970000Y-9611360D02*
X13992760Y-9634120D01*
X13502640Y-9646920D02*
X13522960Y-9626600D01*
X14658340Y-10045700D02*
X14673580Y-10030460D01*
X13578840Y-9579360D02*
X13594080Y-9564120D01*
X13561060Y-9626600D02*
X13578840Y-9608820D01*
X14334400Y-10047060D02*
X14351000Y-10030460D01*
X14673580Y-9974580D02*
X14655800Y-9956800D01*
X13905040Y-9554194D02*
X13922613Y-9536620D01*
X13638280Y-9564120D02*
X13672820Y-9598660D01*
X13992760Y-9634120D02*
X14269620Y-9634120D01*
X14282420Y-9809480D02*
X14267780Y-9824120D01*
X14222060Y-9871547D02*
X14239633Y-9889120D01*
X13379440Y-9674120D02*
X13413200Y-9707880D01*
X13893800Y-9598660D02*
X13905040Y-9587420D01*
X14478000Y-10035540D02*
X14478000Y-9969500D01*
X13948600Y-9536620D02*
X13970000Y-9558020D01*
X13413200Y-9707880D02*
X13482320Y-9707880D01*
X14222060Y-9839360D02*
X14222060Y-9871547D01*
X13594080Y-9564120D02*
X13638280Y-9564120D01*
X14267780Y-9824120D02*
X14237300Y-9824120D01*
X14417040Y-9964420D02*
X14417040Y-10033000D01*
X14561820Y-10045700D02*
X14658340Y-10045700D01*
X14282420Y-10033000D02*
X14296480Y-10047060D01*
X13502640Y-9687560D02*
X13502640Y-9646920D01*
X14263000Y-9889120D02*
X14282420Y-9908540D01*
X14361300Y-9954120D02*
X14406740Y-9954120D01*
X14467840Y-10045700D02*
X14478000Y-10035540D01*
X13970000Y-9558020D02*
X13970000Y-9611360D01*
X14546580Y-10030460D02*
X14561820Y-10045700D01*
X14655800Y-9956800D02*
X14609740Y-9956800D01*
X14296480Y-10047060D02*
X14334400Y-10047060D01*
X13905040Y-9587420D02*
X13905040Y-9554194D01*
X14609740Y-9956800D02*
X14577060Y-9924120D01*
X13922613Y-9536620D02*
X13948600Y-9536620D01*
X14282420Y-9646920D02*
X14282420Y-9809480D01*
X14351000Y-10030460D02*
X14351000Y-9964420D01*
X13578840Y-9608820D02*
X13578840Y-9579360D01*
X14478000Y-9969500D02*
X14490700Y-9956800D01*
X14533880Y-9956800D02*
X14546580Y-9969500D01*
X14490700Y-9956800D02*
X14533880Y-9956800D01*
X13522960Y-9626600D02*
X13561060Y-9626600D01*
X14237300Y-9824120D02*
X14222060Y-9839360D01*
X14406740Y-9954120D02*
X14417040Y-9964420D01*
X14282420Y-9908540D02*
X14282420Y-10033000D01*
X14429740Y-10045700D02*
X14467840Y-10045700D01*
%TO.N,/MCU/SDRAM_DQ2*%
X13788368Y-9174480D02*
X13703300Y-9174480D01*
X13578840Y-9258300D02*
X13578840Y-9291320D01*
X14199486Y-9309120D02*
X14175740Y-9309120D01*
X13882668Y-9264407D02*
X13870668Y-9264407D01*
X14547060Y-9676547D02*
X14547060Y-9652480D01*
X14477060Y-9586694D02*
X14458546Y-9568180D01*
X14677060Y-9806547D02*
X14677060Y-9782480D01*
X14331240Y-9434120D02*
X14304633Y-9434120D01*
X14499633Y-9629120D02*
X14477060Y-9606547D01*
X14217060Y-9357868D02*
X14217060Y-9326694D01*
X14547060Y-9652480D02*
X14523700Y-9629120D01*
X14523700Y-9629120D02*
X14499633Y-9629120D01*
X13541060Y-9329100D02*
X13194420Y-9329100D01*
X14157060Y-9198980D02*
X14132560Y-9174480D01*
X14438693Y-9568180D02*
X14411960Y-9541447D01*
X14588700Y-9694120D02*
X14564633Y-9694120D01*
X14477060Y-9606547D02*
X14477060Y-9586694D01*
X14132560Y-9174480D02*
X13930668Y-9174480D01*
X14175740Y-9309120D02*
X14157060Y-9290440D01*
X13703300Y-9174480D02*
X13644880Y-9232900D01*
X13822668Y-9174480D02*
X13810668Y-9174480D01*
X13810668Y-9174480D02*
X13788368Y-9174480D01*
X14304633Y-9434120D02*
X14282060Y-9411547D01*
X13194420Y-9329100D02*
X13059440Y-9194120D01*
X14564633Y-9694120D02*
X14547060Y-9676547D01*
X14217060Y-9326694D02*
X14199486Y-9309120D01*
X14411960Y-9514840D02*
X14331240Y-9434120D01*
X13604240Y-9232900D02*
X13578840Y-9258300D01*
X14262868Y-9372428D02*
X14231620Y-9372428D01*
X14411960Y-9541447D02*
X14411960Y-9514840D01*
X13846668Y-9240407D02*
X13846668Y-9198480D01*
X14937060Y-9824120D02*
X14694633Y-9824120D01*
X13906668Y-9198480D02*
X13906668Y-9240407D01*
X13644880Y-9232900D02*
X13604240Y-9232900D01*
X14231620Y-9372428D02*
X14217060Y-9357868D01*
X14677060Y-9782480D02*
X14588700Y-9694120D01*
X14157060Y-9290440D02*
X14157060Y-9198980D01*
X14282060Y-9411547D02*
X14282060Y-9391620D01*
X14458546Y-9568180D02*
X14438693Y-9568180D01*
X13578840Y-9291320D02*
X13541060Y-9329100D01*
X14694633Y-9824120D02*
X14677060Y-9806547D01*
X14967060Y-9794120D02*
X14937060Y-9824120D01*
X14282060Y-9391620D02*
X14262868Y-9372428D01*
X13930668Y-9174480D02*
G75*
G03*
X13906670Y-9198480I2J-24000D01*
G01*
X13906668Y-9240407D02*
G75*
G02*
X13882668Y-9264408I-23998J-3D01*
G01*
X13870668Y-9264407D02*
G75*
G02*
X13846673Y-9240407I2J23997D01*
G01*
X13846668Y-9198480D02*
G75*
G03*
X13822668Y-9174482I-23998J0D01*
G01*
%TO.N,/MCU/~{SDRAM_CS}*%
X13566430Y-9007130D02*
X13824930Y-9007130D01*
X14414500Y-9032418D02*
X14414500Y-9222740D01*
X14352060Y-9239120D02*
X14317060Y-9274120D01*
X14414500Y-9222740D02*
X14398120Y-9239120D01*
X14398120Y-9239120D02*
X14352060Y-9239120D01*
X14353042Y-8970960D02*
X14414500Y-9032418D01*
X13459440Y-9114120D02*
X13566430Y-9007130D01*
X13861100Y-8970960D02*
X14353042Y-8970960D01*
X13824930Y-9007130D02*
X13861100Y-8970960D01*
%TO.N,/MCU/SDRAM_DQ11*%
X14033025Y-9901414D02*
X14026425Y-9901414D01*
X13868025Y-10056180D02*
X13861425Y-10056180D01*
X14046225Y-10042980D02*
X14046225Y-9914614D01*
X14013225Y-9914614D02*
X14013225Y-10042980D01*
X14199960Y-9824720D02*
X14173200Y-9824720D01*
X13881225Y-9939615D02*
X13881225Y-10042980D01*
X13162820Y-10003060D02*
X13149440Y-9989680D01*
X13109440Y-9766547D02*
X13109440Y-9704120D01*
X14173200Y-9824720D02*
X14157060Y-9840860D01*
X13149440Y-9959480D02*
X13192760Y-9916160D01*
X13192760Y-9849867D02*
X13109440Y-9766547D01*
X13279120Y-10055860D02*
X13226320Y-10003060D01*
X14092060Y-10048100D02*
X14083980Y-10056180D01*
X13226320Y-10003060D02*
X13162820Y-10003060D01*
X14109633Y-9894120D02*
X14092060Y-9911694D01*
X13861242Y-10056180D02*
X13307380Y-10056180D01*
X14157060Y-9840860D02*
X14157060Y-9867900D01*
X13980225Y-10042980D02*
X13980225Y-9914615D01*
X14130840Y-9894120D02*
X14109633Y-9894120D01*
X13947225Y-9914615D02*
X13947225Y-10042980D01*
X14000025Y-10056180D02*
X13993425Y-10056180D01*
X13307060Y-10055860D02*
X13279120Y-10055860D01*
X13901025Y-9926415D02*
X13894425Y-9926415D01*
X14092060Y-9911694D02*
X14092060Y-10048100D01*
X14217060Y-9807620D02*
X14199960Y-9824720D01*
X13109440Y-9704120D02*
X13139440Y-9674120D01*
X14157060Y-9867900D02*
X14130840Y-9894120D01*
X13934025Y-10056180D02*
X13927425Y-10056180D01*
X13914225Y-10042980D02*
X13914225Y-9939615D01*
X14217060Y-9759120D02*
X14217060Y-9807620D01*
X13149440Y-9989680D02*
X13149440Y-9959480D01*
X13307380Y-10056180D02*
X13307060Y-10055860D01*
X13192760Y-9916160D02*
X13192760Y-9849867D01*
X14083980Y-10056180D02*
X14059425Y-10056180D01*
X13861425Y-10056180D02*
X13861242Y-10056180D01*
X13967025Y-9901415D02*
X13960425Y-9901415D01*
X14187060Y-9729120D02*
X14217060Y-9759120D01*
X13927425Y-10056180D02*
G75*
G02*
X13914220Y-10042980I-5J13200D01*
G01*
X13914225Y-9939615D02*
G75*
G03*
X13901025Y-9926415I-13205J-5D01*
G01*
X13993425Y-10056180D02*
G75*
G02*
X13980220Y-10042980I-5J13200D01*
G01*
X14013225Y-10042980D02*
G75*
G02*
X14000025Y-10056185I-13205J0D01*
G01*
X13881225Y-10042980D02*
G75*
G02*
X13868025Y-10056185I-13205J0D01*
G01*
X14026425Y-9901414D02*
G75*
G03*
X14013224Y-9914614I-5J-13196D01*
G01*
X13980225Y-9914615D02*
G75*
G03*
X13967025Y-9901405I-13205J5D01*
G01*
X13894425Y-9926415D02*
G75*
G03*
X13881215Y-9939615I-5J-13205D01*
G01*
X13960425Y-9901415D02*
G75*
G03*
X13947225Y-9914615I-5J-13195D01*
G01*
X13947225Y-10042980D02*
G75*
G02*
X13934025Y-10056185I-13205J0D01*
G01*
X14059425Y-10056180D02*
G75*
G02*
X14046220Y-10042980I-5J13200D01*
G01*
X14046225Y-9914614D02*
G75*
G03*
X14033025Y-9901405I-13205J4D01*
G01*
%TO.N,/Castellated_holes/USB_VBUS_DET*%
X15072040Y-10065700D02*
X15385020Y-10378680D01*
X14772060Y-10022260D02*
X14815500Y-10065700D01*
X14772060Y-9989120D02*
X14772060Y-10022260D01*
X15385020Y-10378680D02*
X15531080Y-10378680D01*
X14815500Y-10065700D02*
X15072040Y-10065700D01*
%TO.N,PH4*%
X12600700Y-8854680D02*
X12531080Y-8854680D01*
X14287580Y-8676640D02*
X14261200Y-8650260D01*
X12633960Y-8821420D02*
X12600700Y-8854680D01*
X13899427Y-8467400D02*
X12731914Y-8467400D01*
X12731914Y-8467400D02*
X12633960Y-8565354D01*
X12633960Y-8565354D02*
X12633960Y-8821420D01*
X14082287Y-8650260D02*
X13899427Y-8467400D01*
X14261200Y-8650260D02*
X14082287Y-8650260D01*
%TO.N,PC1*%
X12673960Y-9141347D02*
X12579626Y-9235680D01*
X12579626Y-9235680D02*
X12531080Y-9235680D01*
X13936980Y-8562340D02*
X13882040Y-8507400D01*
X12673960Y-8581923D02*
X12673960Y-9141347D01*
X13936980Y-8581680D02*
X13936980Y-8562340D01*
X13882040Y-8507400D02*
X12748483Y-8507400D01*
X12748483Y-8507400D02*
X12673960Y-8581923D01*
%TO.N,PC0*%
X13975080Y-8600440D02*
X13975080Y-8571337D01*
X12740199Y-8487400D02*
X12653960Y-8573639D01*
X12653960Y-8573639D02*
X12653960Y-9034347D01*
X12579626Y-9108680D02*
X12531080Y-9108680D01*
X12653960Y-9034347D02*
X12579626Y-9108680D01*
X13891143Y-8487400D02*
X12740199Y-8487400D01*
X13975080Y-8571337D02*
X13891143Y-8487400D01*
%TO.N,PC4*%
X12693960Y-9266880D02*
X12598160Y-9362680D01*
X12746767Y-8537400D02*
X12693960Y-8590207D01*
X13794283Y-8537400D02*
X12746767Y-8537400D01*
X12693960Y-8590207D02*
X12693960Y-9266880D01*
X12598160Y-9362680D02*
X12531080Y-9362680D01*
%TO.N,PC5*%
X12819380Y-9569464D02*
X12756500Y-9632344D01*
X12641340Y-10632680D02*
X12531080Y-10632680D01*
X12756500Y-10043092D02*
X12839700Y-10126292D01*
X12839700Y-10126292D02*
X12839700Y-10434320D01*
X12756500Y-9632344D02*
X12756500Y-10043092D01*
X12839700Y-10434320D02*
X12641340Y-10632680D01*
%TO.N,PA1*%
X13896980Y-8585385D02*
X13869426Y-8612939D01*
X13896980Y-8581680D02*
X13896980Y-8585385D01*
X13869426Y-8612939D02*
X13776759Y-8612939D01*
X12600700Y-9616680D02*
X12531080Y-9616680D01*
X12636500Y-9466924D02*
X12636500Y-9580880D01*
X12763336Y-8577400D02*
X12733960Y-8606776D01*
X12636500Y-9580880D02*
X12600700Y-9616680D01*
X13776759Y-8612939D02*
X13741220Y-8577400D01*
X13741220Y-8577400D02*
X12763336Y-8577400D01*
X12733960Y-9369464D02*
X12636500Y-9466924D01*
X12733960Y-8606776D02*
X12733960Y-9369464D01*
%TO.N,PA4*%
X13720580Y-8597400D02*
X12771620Y-8597400D01*
X12753960Y-9377749D02*
X12656500Y-9475209D01*
X12656500Y-9475209D02*
X12656500Y-9687880D01*
X13766119Y-8642939D02*
X13720580Y-8597400D01*
X12656500Y-9687880D02*
X12600700Y-9743680D01*
X13831405Y-8642939D02*
X13766119Y-8642939D01*
X12753960Y-8615060D02*
X12753960Y-9377749D01*
X12600700Y-9743680D02*
X12531080Y-9743680D01*
X12771620Y-8597400D02*
X12753960Y-8615060D01*
%TO.N,PA0*%
X13751560Y-8557400D02*
X12755051Y-8557400D01*
X12755051Y-8557400D02*
X12713960Y-8598491D01*
X12713960Y-8598491D02*
X12713960Y-9361180D01*
X12585460Y-9489680D02*
X12531080Y-9489680D01*
X12713960Y-9361180D02*
X12585460Y-9489680D01*
X13856999Y-8582939D02*
X13777099Y-8582939D01*
X13777099Y-8582939D02*
X13751560Y-8557400D01*
%TO.N,PA6*%
X12711193Y-9448800D02*
X12676500Y-9483493D01*
X12676500Y-9483493D02*
X12676500Y-10048880D01*
X12743180Y-9448800D02*
X12711193Y-9448800D01*
X12600700Y-10124680D02*
X12531080Y-10124680D01*
X12676500Y-10048880D02*
X12600700Y-10124680D01*
%TO.N,PA5*%
X12649200Y-10203180D02*
X12600700Y-10251680D01*
X12717780Y-9509760D02*
X12696500Y-9531040D01*
X12696500Y-9531040D02*
X12696500Y-10057164D01*
X12649200Y-10104464D02*
X12649200Y-10203180D01*
X12600700Y-10251680D02*
X12531080Y-10251680D01*
X12696500Y-10057164D02*
X12649200Y-10104464D01*
%TO.N,PB0*%
X12796520Y-10139680D02*
X12796520Y-10279380D01*
X12697220Y-10378680D02*
X12531080Y-10378680D01*
X12743180Y-9552940D02*
X12716500Y-9579620D01*
X12796520Y-10279380D02*
X12697220Y-10378680D01*
X12716500Y-9579620D02*
X12716500Y-10059660D01*
X12716500Y-10059660D02*
X12796520Y-10139680D01*
%TO.N,PB1*%
X12816520Y-10355900D02*
X12666740Y-10505680D01*
X12776200Y-9584360D02*
X12736500Y-9624060D01*
X12776200Y-9499120D02*
X12776200Y-9584360D01*
X12796520Y-9478800D02*
X12776200Y-9499120D01*
X12736500Y-9624060D02*
X12736500Y-10051376D01*
X12736500Y-10051376D02*
X12816520Y-10131396D01*
X12816520Y-10131396D02*
X12816520Y-10355900D01*
X12666740Y-10505680D02*
X12531080Y-10505680D01*
%TO.N,PB14*%
X12636500Y-11144013D02*
X12697580Y-11205093D01*
X12697580Y-11205093D02*
X12697580Y-11307180D01*
X12636500Y-10730220D02*
X12636500Y-11144013D01*
X12706820Y-10659900D02*
X12636500Y-10730220D01*
%TO.N,PB15*%
X12770800Y-11182980D02*
X12824580Y-11236760D01*
X12703752Y-11182980D02*
X12770800Y-11182980D01*
X12824580Y-11236760D02*
X12824580Y-11307180D01*
X12731590Y-10691308D02*
X12656500Y-10766398D01*
X12656500Y-11135728D02*
X12703752Y-11182980D01*
X12656500Y-10766398D02*
X12656500Y-11135728D01*
%TO.N,PD13*%
X12984480Y-11142980D02*
X13078580Y-11237080D01*
X12696500Y-11119160D02*
X12720320Y-11142980D01*
X12784267Y-10751836D02*
X12756176Y-10751836D01*
X13078580Y-11237080D02*
X13078580Y-11307180D01*
X12756176Y-10751836D02*
X12696500Y-10811512D01*
X12720320Y-11142980D02*
X12984480Y-11142980D01*
X12696500Y-10811512D02*
X12696500Y-11119160D01*
%TO.N,PH7*%
X12676500Y-10803228D02*
X12676500Y-11127444D01*
X12676500Y-11127444D02*
X12712036Y-11162980D01*
X12951580Y-11239620D02*
X12951580Y-11307180D01*
X12874940Y-11162980D02*
X12951580Y-11239620D01*
X12758420Y-10721308D02*
X12676500Y-10803228D01*
X12712036Y-11162980D02*
X12874940Y-11162980D01*
%TO.N,PH14*%
X14278755Y-11106480D02*
X13716940Y-11106480D01*
X14431640Y-10092060D02*
X14368780Y-10154920D01*
X14772060Y-9859120D02*
X14742060Y-9889120D01*
X14368780Y-11016455D02*
X14278755Y-11106480D01*
X14368780Y-10154920D02*
X14368780Y-11016455D01*
X14670400Y-10092060D02*
X14431640Y-10092060D01*
X14742060Y-10020400D02*
X14670400Y-10092060D01*
X13716940Y-11106480D02*
X13586580Y-11236840D01*
X13586580Y-11236840D02*
X13586580Y-11307180D01*
X14742060Y-9889120D02*
X14742060Y-10020400D01*
%TO.N,PC12*%
X15349860Y-11053096D02*
X15349860Y-10542328D01*
X14681200Y-11163300D02*
X15239656Y-11163300D01*
X14952636Y-10386060D02*
X14904720Y-10338144D01*
X15349860Y-10542328D02*
X15193592Y-10386060D01*
X14904720Y-10282609D02*
X14929279Y-10258049D01*
X14602580Y-11307180D02*
X14602580Y-11241920D01*
X14904720Y-10338144D02*
X14904720Y-10282609D01*
X15239656Y-11163300D02*
X15349860Y-11053096D01*
X14602580Y-11241920D02*
X14681200Y-11163300D01*
X14929279Y-10258049D02*
X14929279Y-10232855D01*
X15193592Y-10386060D02*
X14952636Y-10386060D01*
%TO.N,PI3*%
X15309860Y-11036527D02*
X15223727Y-11122660D01*
X14889480Y-10177780D02*
X14854170Y-10213090D01*
X15177663Y-10426700D02*
X15309860Y-10558897D01*
X14854170Y-10344163D02*
X14936707Y-10426700D01*
X15309860Y-10558897D02*
X15309860Y-11036527D01*
X14840030Y-10095700D02*
X14889480Y-10145150D01*
X14472920Y-11122660D02*
X14348580Y-11247000D01*
X14854170Y-10213090D02*
X14854170Y-10344163D01*
X14348580Y-11247000D02*
X14348580Y-11307180D01*
X14936707Y-10426700D02*
X15177663Y-10426700D01*
X15223727Y-11122660D02*
X14472920Y-11122660D01*
X14889480Y-10145150D02*
X14889480Y-10177780D01*
%TO.N,PD6*%
X14094580Y-11219060D02*
X14094580Y-11307180D01*
X14448780Y-10446235D02*
X14448780Y-11049592D01*
X14569915Y-10325100D02*
X14448780Y-10446235D01*
X14775180Y-10297160D02*
X14747240Y-10325100D01*
X14856297Y-10164917D02*
X14775180Y-10246033D01*
X14311892Y-11186480D02*
X14127160Y-11186480D01*
X14747240Y-10325100D02*
X14569915Y-10325100D01*
X14448780Y-11049592D02*
X14311892Y-11186480D01*
X14775180Y-10246033D02*
X14775180Y-10297160D01*
X14127160Y-11186480D02*
X14094580Y-11219060D01*
%TO.N,PD7*%
X14360816Y-11206480D02*
X14257020Y-11206480D01*
X14221580Y-11241920D02*
X14221580Y-11307180D01*
X14824170Y-10343610D02*
X14927580Y-10447020D01*
X14464956Y-11102340D02*
X14360816Y-11206480D01*
X14257020Y-11206480D02*
X14221580Y-11241920D01*
X15169699Y-10447020D02*
X15289860Y-10567181D01*
X14824170Y-10239470D02*
X14824170Y-10343610D01*
X15289860Y-10567181D02*
X15289860Y-11028243D01*
X14927580Y-10447020D02*
X15169699Y-10447020D01*
X15289860Y-11028243D02*
X15215763Y-11102340D01*
X15215763Y-11102340D02*
X14464956Y-11102340D01*
%TO.N,PD5*%
X13967580Y-11206360D02*
X13967580Y-11307180D01*
X14686280Y-10231120D02*
X14612620Y-10304780D01*
X14007460Y-11166480D02*
X13967580Y-11206360D01*
X14428780Y-10437951D02*
X14428780Y-11041307D01*
X14428780Y-11041307D02*
X14303607Y-11166480D01*
X14813280Y-10165080D02*
X14747240Y-10231120D01*
X14612620Y-10304780D02*
X14561951Y-10304780D01*
X14747240Y-10231120D02*
X14686280Y-10231120D01*
X14303607Y-11166480D02*
X14007460Y-11166480D01*
X14561951Y-10304780D02*
X14428780Y-10437951D01*
%TO.N,PA15*%
X14475580Y-11241920D02*
X14475580Y-11307180D01*
X15231692Y-11142980D02*
X14574520Y-11142980D01*
X14884400Y-10346108D02*
X14944672Y-10406380D01*
X15329860Y-10550613D02*
X15329860Y-11044812D01*
X15185627Y-10406380D02*
X15329860Y-10550613D01*
X14884400Y-10226040D02*
X14884400Y-10346108D01*
X15329860Y-11044812D02*
X15231692Y-11142980D01*
X14944672Y-10406380D02*
X15185627Y-10406380D01*
X14574520Y-11142980D02*
X14475580Y-11241920D01*
%TO.N,PB4*%
X15389860Y-11069664D02*
X15255584Y-11203940D01*
X15389860Y-10525760D02*
X15389860Y-11069664D01*
X15013940Y-10335260D02*
X15199360Y-10335260D01*
X14897100Y-11203940D02*
X14856580Y-11244460D01*
X15255584Y-11203940D02*
X14897100Y-11203940D01*
X14856580Y-11244460D02*
X14856580Y-11307180D01*
X15199360Y-10335260D02*
X15389860Y-10525760D01*
%TO.N,PD2*%
X14739519Y-10112060D02*
X14480220Y-10112060D01*
X14480220Y-10112060D02*
X14444980Y-10147300D01*
X14388780Y-10421382D02*
X14388780Y-11024739D01*
X14444980Y-10365182D02*
X14388780Y-10421382D01*
X14287039Y-11126480D02*
X13788380Y-11126480D01*
X13713580Y-11201280D02*
X13713580Y-11307180D01*
X14772859Y-10078720D02*
X14739519Y-10112060D01*
X14388780Y-11024739D02*
X14287039Y-11126480D01*
X14444980Y-10147300D02*
X14444980Y-10365182D01*
X13788380Y-11126480D02*
X13713580Y-11201280D01*
%TO.N,PG11*%
X14790420Y-11183620D02*
X14729580Y-11244460D01*
X15369860Y-11061380D02*
X15247620Y-11183620D01*
X15247620Y-11183620D02*
X14790420Y-11183620D01*
X14960600Y-10365740D02*
X15201556Y-10365740D01*
X14935440Y-10340580D02*
X14960600Y-10365740D01*
X14935440Y-10294860D02*
X14935440Y-10340580D01*
X15201556Y-10365740D02*
X15369860Y-10534044D01*
X14729580Y-11244460D02*
X14729580Y-11307180D01*
X15369860Y-10534044D02*
X15369860Y-11061380D01*
%TO.N,PD3*%
X13840580Y-11203820D02*
X13840580Y-11307180D01*
X14408780Y-11033023D02*
X14295323Y-11146480D01*
X14803205Y-10111318D02*
X14782464Y-10132060D01*
X14295323Y-11146480D02*
X13897920Y-11146480D01*
X14516100Y-10165080D02*
X14516100Y-10322346D01*
X14782464Y-10132060D02*
X14549120Y-10132060D01*
X13897920Y-11146480D02*
X13840580Y-11203820D01*
X14408780Y-10429666D02*
X14408780Y-11033023D01*
X14516100Y-10322346D02*
X14408780Y-10429666D01*
X14549120Y-10132060D02*
X14516100Y-10165080D01*
%TD*%
M02*
