%TF.GenerationSoftware,KiCad,Pcbnew,9.0.1*%
%TF.CreationDate,2025-04-29T11:50:24+07:00*%
%TF.ProjectId,siplex-som-s16,7369706c-6578-42d7-936f-6d2d7331362e,rev?*%
%TF.SameCoordinates,Original*%
%TF.FileFunction,Legend,Top*%
%TF.FilePolarity,Positive*%
%FSLAX45Y45*%
G04 Gerber Fmt 4.5, Leading zero omitted, Abs format (unit mm)*
G04 Created by KiCad (PCBNEW 9.0.1) date 2025-04-29 11:50:24*
%MOMM*%
%LPD*%
G01*
G04 APERTURE LIST*
%ADD10C,0.120000*%
G04 APERTURE END LIST*
D10*
%TO.C,C36*%
X14486978Y-10347760D02*
X14458862Y-10347760D01*
X14486978Y-10449760D02*
X14458862Y-10449760D01*
%TO.C,U5*%
X13641220Y-10180460D02*
X13641220Y-10980460D01*
X14263220Y-10181460D02*
X14263220Y-10980460D01*
X14231220Y-10157460D02*
X14183220Y-10157460D01*
X14183220Y-10109460D01*
X14231220Y-10157460D01*
G36*
X14231220Y-10157460D02*
G01*
X14183220Y-10157460D01*
X14183220Y-10109460D01*
X14231220Y-10157460D01*
G37*
%TO.C,C1*%
X13899504Y-9682040D02*
X13877936Y-9682040D01*
X13899504Y-9754040D02*
X13877936Y-9754040D01*
%TO.C,C40*%
X14175300Y-8830956D02*
X14175300Y-8852524D01*
X14247300Y-8830956D02*
X14247300Y-8852524D01*
%TO.C,U1*%
X14066060Y-9023120D02*
X14988060Y-9023120D01*
X14066060Y-10045120D02*
X14066060Y-9023120D01*
X15088060Y-9123120D02*
X15088060Y-10045120D01*
X15088060Y-10045120D02*
X14066060Y-10045120D01*
X15138060Y-9023120D02*
X15088060Y-9023120D01*
X15088060Y-8973120D01*
X15138060Y-9023120D01*
G36*
X15138060Y-9023120D02*
G01*
X15088060Y-9023120D01*
X15088060Y-8973120D01*
X15138060Y-9023120D01*
G37*
%TO.C,R8*%
X15052140Y-10538336D02*
X15052140Y-10569064D01*
X15128140Y-10538336D02*
X15128140Y-10569064D01*
%TO.C,C2*%
X14668060Y-10215256D02*
X14668060Y-10236824D01*
X14740060Y-10215256D02*
X14740060Y-10236824D01*
%TO.C,U3*%
X12891920Y-10180460D02*
X12891920Y-10980460D01*
X13513920Y-10181460D02*
X13513920Y-10980460D01*
X13481920Y-10157460D02*
X13433920Y-10157460D01*
X13433920Y-10109460D01*
X13481920Y-10157460D01*
G36*
X13481920Y-10157460D02*
G01*
X13433920Y-10157460D01*
X13433920Y-10109460D01*
X13481920Y-10157460D01*
G37*
%TO.C,J1*%
X12705580Y-8843680D02*
X12705580Y-9003680D01*
X12705580Y-9443680D02*
X12705580Y-9603680D01*
X12705580Y-10010680D02*
X12705580Y-10170680D01*
X12705580Y-10610680D02*
X12705580Y-10770680D01*
X13227580Y-8481680D02*
X13067580Y-8481680D01*
X13227580Y-11132680D02*
X13067580Y-11132680D01*
X13827580Y-8481680D02*
X13667580Y-8481680D01*
X13827580Y-11132680D02*
X13667580Y-11132680D01*
X14394580Y-8481680D02*
X14234580Y-8481680D01*
X14394580Y-11132680D02*
X14234580Y-11132680D01*
X14994580Y-8481680D02*
X14834580Y-8481680D01*
X14994580Y-11132680D02*
X14834580Y-11132680D01*
X15356580Y-8843680D02*
X15356580Y-9003680D01*
X15356580Y-9443680D02*
X15356580Y-9603680D01*
X15356580Y-10010680D02*
X15356580Y-10170680D01*
X15356580Y-10610680D02*
X15356580Y-10770680D01*
%TO.C,U2*%
X12888440Y-9023120D02*
X13710440Y-9023120D01*
X12888440Y-9745120D02*
X12888440Y-9023120D01*
X13710440Y-9023120D02*
X13710440Y-9845120D01*
X13710440Y-9845120D02*
X12988440Y-9845120D01*
X12888440Y-9895120D02*
X12838440Y-9845120D01*
X12888440Y-9845120D01*
X12888440Y-9895120D01*
G36*
X12888440Y-9895120D02*
G01*
X12838440Y-9845120D01*
X12888440Y-9845120D01*
X12888440Y-9895120D01*
G37*
%TO.C,Y2*%
X14843540Y-8680340D02*
X14843540Y-8840340D01*
X14843540Y-8840340D02*
X15083540Y-8840340D01*
X15083540Y-8680340D02*
X14843540Y-8680340D01*
%TO.C,L2*%
X14368660Y-10702882D02*
X14368660Y-10622958D01*
X14480660Y-10702882D02*
X14480660Y-10622958D01*
%TO.C,D1*%
X13460940Y-8775700D02*
X13460940Y-8710700D01*
X13460940Y-8775700D02*
X13460940Y-8840700D01*
X13772940Y-8775700D02*
X13772940Y-8710700D01*
X13772940Y-8775700D02*
X13772940Y-8840700D01*
X13800940Y-8683450D02*
X13767940Y-8659450D01*
X13800940Y-8635450D01*
X13800940Y-8683450D01*
G36*
X13800940Y-8683450D02*
G01*
X13767940Y-8659450D01*
X13800940Y-8635450D01*
X13800940Y-8683450D01*
G37*
%TO.C,C44*%
X14759262Y-10348870D02*
X14787378Y-10348870D01*
X14759262Y-10450870D02*
X14787378Y-10450870D01*
%TO.C,R7*%
X14955620Y-10538336D02*
X14955620Y-10569064D01*
X15031620Y-10538336D02*
X15031620Y-10569064D01*
%TO.C,C34*%
X14933622Y-10907670D02*
X14961738Y-10907670D01*
X14933622Y-11009670D02*
X14961738Y-11009670D01*
%TO.C,C42*%
X14662238Y-10907670D02*
X14634122Y-10907670D01*
X14662238Y-11009670D02*
X14634122Y-11009670D01*
%TO.C,C10*%
X13825020Y-8820238D02*
X13825020Y-8792122D01*
X13927020Y-8820238D02*
X13927020Y-8792122D01*
%TO.C,Y1*%
X14744160Y-8607820D02*
X14474160Y-8607820D01*
X14744160Y-8837820D02*
X14744160Y-8607820D01*
%TO.C,C8*%
X13987340Y-8849984D02*
X13987340Y-8828416D01*
X14059340Y-8849984D02*
X14059340Y-8828416D01*
%TO.C,U7*%
X14619180Y-10678710D02*
X14619180Y-10598710D01*
X14619180Y-10678710D02*
X14619180Y-10758710D01*
X14931180Y-10678710D02*
X14931180Y-10598710D01*
X14931180Y-10678710D02*
X14931180Y-10758710D01*
X14624180Y-10808710D02*
X14591180Y-10832710D01*
X14591180Y-10784710D01*
X14624180Y-10808710D01*
G36*
X14624180Y-10808710D02*
G01*
X14591180Y-10832710D01*
X14591180Y-10784710D01*
X14624180Y-10808710D01*
G37*
%TO.C,C43*%
X14520740Y-10619926D02*
X14520740Y-10641494D01*
X14592740Y-10619926D02*
X14592740Y-10641494D01*
%TD*%
M02*
