%TF.GenerationSoftware,KiCad,Pcbnew,9.0.1*%
%TF.CreationDate,2025-04-29T11:50:24+07:00*%
%TF.ProjectId,siplex-som-s16,7369706c-6578-42d7-936f-6d2d7331362e,rev?*%
%TF.SameCoordinates,Original*%
%TF.FileFunction,Paste,Top*%
%TF.FilePolarity,Positive*%
%FSLAX45Y45*%
G04 Gerber Fmt 4.5, Leading zero omitted, Abs format (unit mm)*
G04 Created by KiCad (PCBNEW 9.0.1) date 2025-04-29 11:50:24*
%MOMM*%
%LPD*%
G01*
G04 APERTURE LIST*
G04 Aperture macros list*
%AMRoundRect*
0 Rectangle with rounded corners*
0 $1 Rounding radius*
0 $2 $3 $4 $5 $6 $7 $8 $9 X,Y pos of 4 corners*
0 Add a 4 corners polygon primitive as box body*
4,1,4,$2,$3,$4,$5,$6,$7,$8,$9,$2,$3,0*
0 Add four circle primitives for the rounded corners*
1,1,$1+$1,$2,$3*
1,1,$1+$1,$4,$5*
1,1,$1+$1,$6,$7*
1,1,$1+$1,$8,$9*
0 Add four rect primitives between the rounded corners*
20,1,$1+$1,$2,$3,$4,$5,0*
20,1,$1+$1,$4,$5,$6,$7,0*
20,1,$1+$1,$6,$7,$8,$9,0*
20,1,$1+$1,$8,$9,$2,$3,0*%
G04 Aperture macros list end*
%ADD10RoundRect,0.079500X0.100500X-0.079500X0.100500X0.079500X-0.100500X0.079500X-0.100500X-0.079500X0*%
%ADD11RoundRect,0.225000X0.225000X0.250000X-0.225000X0.250000X-0.225000X-0.250000X0.225000X-0.250000X0*%
%ADD12RoundRect,0.079500X-0.079500X-0.100500X0.079500X-0.100500X0.079500X0.100500X-0.079500X0.100500X0*%
%ADD13RoundRect,0.079500X-0.100500X0.079500X-0.100500X-0.079500X0.100500X-0.079500X0.100500X0.079500X0*%
%ADD14RoundRect,0.250000X-0.615000X0.435000X-0.615000X-0.435000X0.615000X-0.435000X0.615000X0.435000X0*%
%ADD15RoundRect,0.125000X-0.125000X0.200000X-0.125000X-0.200000X0.125000X-0.200000X0.125000X0.200000X0*%
%ADD16RoundRect,0.140000X0.140000X0.170000X-0.140000X0.170000X-0.140000X-0.170000X0.140000X-0.170000X0*%
%ADD17RoundRect,0.140000X-0.170000X0.140000X-0.170000X-0.140000X0.170000X-0.140000X0.170000X0.140000X0*%
%ADD18C,0.300002*%
%ADD19RoundRect,0.135000X-0.185000X0.135000X-0.185000X-0.135000X0.185000X-0.135000X0.185000X0.135000X0*%
%ADD20R,1.000000X1.000000*%
%ADD21R,2.570000X1.000000*%
%ADD22R,3.800000X1.000000*%
%ADD23R,3.470000X1.000000*%
%ADD24R,1.000000X2.570000*%
%ADD25R,1.000000X3.800000*%
%ADD26R,1.000000X3.470000*%
%ADD27C,0.400000*%
%ADD28R,0.600000X1.100000*%
%ADD29RoundRect,0.218750X0.381250X-0.218750X0.381250X0.218750X-0.381250X0.218750X-0.381250X-0.218750X0*%
%ADD30RoundRect,0.150000X-0.150000X0.587500X-0.150000X-0.587500X0.150000X-0.587500X0.150000X0.587500X0*%
%ADD31RoundRect,0.079500X0.079500X0.100500X-0.079500X0.100500X-0.079500X-0.100500X0.079500X-0.100500X0*%
%ADD32RoundRect,0.225000X-0.225000X-0.250000X0.225000X-0.250000X0.225000X0.250000X-0.225000X0.250000X0*%
%ADD33RoundRect,0.225000X0.250000X-0.225000X0.250000X0.225000X-0.250000X0.225000X-0.250000X-0.225000X0*%
%ADD34R,0.900000X0.800000*%
%ADD35RoundRect,0.140000X0.170000X-0.140000X0.170000X0.140000X-0.170000X0.140000X-0.170000X-0.140000X0*%
%ADD36RoundRect,0.150000X0.150000X-0.512500X0.150000X0.512500X-0.150000X0.512500X-0.150000X-0.512500X0*%
%ADD37RoundRect,0.147500X-0.172500X0.147500X-0.172500X-0.147500X0.172500X-0.147500X0.172500X0.147500X0*%
G04 APERTURE END LIST*
D10*
%TO.C,C38*%
X14312440Y-10957960D03*
X14312440Y-10888960D03*
%TD*%
%TO.C,C29*%
X13179440Y-10039560D03*
X13179440Y-9970560D03*
%TD*%
D11*
%TO.C,C36*%
X14550420Y-10398760D03*
X14395420Y-10398760D03*
%TD*%
D12*
%TO.C,C9*%
X13872000Y-9006840D03*
X13941000Y-9006840D03*
%TD*%
D13*
%TO.C,C33*%
X12979400Y-8827560D03*
X12979400Y-8896560D03*
%TD*%
D14*
%TO.C,U5*%
X14059720Y-10495460D03*
X13844720Y-10495460D03*
X14059720Y-10665460D03*
X13844720Y-10665460D03*
D15*
X14142720Y-10205460D03*
X14015720Y-10205460D03*
X13888720Y-10205460D03*
X13761720Y-10205460D03*
X13761720Y-10955460D03*
X13888720Y-10955460D03*
X14015720Y-10955460D03*
X14142720Y-10955460D03*
%TD*%
D16*
%TO.C,C1*%
X13936720Y-9718040D03*
X13840720Y-9718040D03*
%TD*%
D17*
%TO.C,C40*%
X14211300Y-8793740D03*
X14211300Y-8889740D03*
%TD*%
D10*
%TO.C,C22*%
X14551660Y-10240220D03*
X14551660Y-10171220D03*
%TD*%
%TO.C,R4*%
X13563140Y-10271960D03*
X13563140Y-10202960D03*
%TD*%
D13*
%TO.C,C15*%
X15100300Y-10343940D03*
X15100300Y-10412940D03*
%TD*%
D10*
%TO.C,R6*%
X14993620Y-10775960D03*
X14993620Y-10706960D03*
%TD*%
D12*
%TO.C,C13*%
X13868540Y-9566620D03*
X13937540Y-9566620D03*
%TD*%
D13*
%TO.C,R3*%
X15140940Y-8818460D03*
X15140940Y-8887460D03*
%TD*%
D12*
%TO.C,C11*%
X13868540Y-9636760D03*
X13937540Y-9636760D03*
%TD*%
D10*
%TO.C,C26*%
X13019440Y-10039560D03*
X13019440Y-9970560D03*
%TD*%
D18*
%TO.C,U1*%
X15032060Y-9079120D03*
X15032060Y-9144120D03*
X15032060Y-9209120D03*
X15032060Y-9274120D03*
X15032060Y-9339120D03*
X15032060Y-9404120D03*
X15032060Y-9469120D03*
X15032060Y-9534120D03*
X15032060Y-9599120D03*
X15032060Y-9664120D03*
X15032060Y-9729120D03*
X15032060Y-9794120D03*
X15032060Y-9859120D03*
X15032060Y-9924120D03*
X15032060Y-9989120D03*
X14967060Y-9079120D03*
X14967060Y-9144120D03*
X14967060Y-9209120D03*
X14967060Y-9274120D03*
X14967060Y-9339120D03*
X14967060Y-9404120D03*
X14967060Y-9469120D03*
X14967060Y-9534120D03*
X14967060Y-9599120D03*
X14967060Y-9664120D03*
X14967060Y-9729120D03*
X14967060Y-9794120D03*
X14967060Y-9859120D03*
X14967060Y-9924120D03*
X14967060Y-9989120D03*
X14902060Y-9079120D03*
X14902060Y-9144120D03*
X14902060Y-9209120D03*
X14902060Y-9274120D03*
X14902060Y-9339120D03*
X14902060Y-9404120D03*
X14902060Y-9469120D03*
X14902060Y-9534120D03*
X14902060Y-9599120D03*
X14902060Y-9664120D03*
X14902060Y-9729120D03*
X14902060Y-9794120D03*
X14902060Y-9859120D03*
X14902060Y-9924120D03*
X14902060Y-9989120D03*
X14837060Y-9079120D03*
X14837060Y-9144120D03*
X14837060Y-9209120D03*
X14837060Y-9274120D03*
X14837060Y-9339120D03*
X14837060Y-9404120D03*
X14837060Y-9469120D03*
X14837060Y-9534120D03*
X14837060Y-9599120D03*
X14837060Y-9664120D03*
X14837060Y-9729120D03*
X14837060Y-9794120D03*
X14837060Y-9859120D03*
X14837060Y-9924120D03*
X14837060Y-9989120D03*
X14772060Y-9079120D03*
X14772060Y-9144120D03*
X14772060Y-9209120D03*
X14772060Y-9274120D03*
X14772060Y-9794120D03*
X14772060Y-9859120D03*
X14772060Y-9924120D03*
X14772060Y-9989120D03*
X14707060Y-9079120D03*
X14707060Y-9144120D03*
X14707060Y-9209120D03*
X14707060Y-9274120D03*
X14707060Y-9404120D03*
X14707060Y-9469120D03*
X14707060Y-9534120D03*
X14707060Y-9599120D03*
X14707060Y-9664120D03*
X14707060Y-9794120D03*
X14707060Y-9859120D03*
X14707060Y-9924120D03*
X14707060Y-9989120D03*
X14642060Y-9079120D03*
X14642060Y-9144120D03*
X14642060Y-9209120D03*
X14642060Y-9274120D03*
X14642060Y-9404120D03*
X14642060Y-9469120D03*
X14642060Y-9534120D03*
X14642060Y-9599120D03*
X14642060Y-9664120D03*
X14642060Y-9794120D03*
X14642060Y-9859120D03*
X14642060Y-9924120D03*
X14642060Y-9989120D03*
X14577060Y-9079120D03*
X14577060Y-9144120D03*
X14577060Y-9209120D03*
X14577060Y-9274120D03*
X14577060Y-9404120D03*
X14577060Y-9469120D03*
X14577060Y-9534120D03*
X14577060Y-9599120D03*
X14577060Y-9664120D03*
X14577060Y-9794120D03*
X14577060Y-9859120D03*
X14577060Y-9924120D03*
X14577060Y-9989120D03*
X14512060Y-9079120D03*
X14512060Y-9144120D03*
X14512060Y-9209120D03*
X14512060Y-9274120D03*
X14512060Y-9404120D03*
X14512060Y-9469120D03*
X14512060Y-9534120D03*
X14512060Y-9599120D03*
X14512060Y-9664120D03*
X14512060Y-9794120D03*
X14512060Y-9859120D03*
X14512060Y-9924120D03*
X14512060Y-9989120D03*
X14447060Y-9079120D03*
X14447060Y-9144120D03*
X14447060Y-9209120D03*
X14447060Y-9274120D03*
X14447060Y-9404120D03*
X14447060Y-9469120D03*
X14447060Y-9534120D03*
X14447060Y-9599120D03*
X14447060Y-9664120D03*
X14447060Y-9794120D03*
X14447060Y-9859120D03*
X14447060Y-9924120D03*
X14447060Y-9989120D03*
X14382060Y-9079120D03*
X14382060Y-9144120D03*
X14382060Y-9209120D03*
X14382060Y-9274120D03*
X14382060Y-9794120D03*
X14382060Y-9859120D03*
X14382060Y-9924120D03*
X14382060Y-9989120D03*
X14317060Y-9079120D03*
X14317060Y-9144120D03*
X14317060Y-9209120D03*
X14317060Y-9274120D03*
X14317060Y-9339120D03*
X14317060Y-9404120D03*
X14317060Y-9469120D03*
X14317060Y-9534120D03*
X14317060Y-9599120D03*
X14317060Y-9664120D03*
X14317060Y-9729120D03*
X14317060Y-9794120D03*
X14317060Y-9859120D03*
X14317060Y-9924120D03*
X14317060Y-9989120D03*
X14252060Y-9079120D03*
X14252060Y-9144120D03*
X14252060Y-9209120D03*
X14252060Y-9274120D03*
X14252060Y-9339120D03*
X14252060Y-9404120D03*
X14252060Y-9469120D03*
X14252060Y-9534120D03*
X14252060Y-9599120D03*
X14252060Y-9664120D03*
X14252060Y-9729120D03*
X14252060Y-9794120D03*
X14252060Y-9859120D03*
X14252060Y-9924120D03*
X14252060Y-9989120D03*
X14187060Y-9079120D03*
X14187060Y-9144120D03*
X14187060Y-9209120D03*
X14187060Y-9274120D03*
X14187060Y-9339120D03*
X14187060Y-9404120D03*
X14187060Y-9469120D03*
X14187060Y-9534120D03*
X14187060Y-9599120D03*
X14187060Y-9664120D03*
X14187060Y-9729120D03*
X14187060Y-9794120D03*
X14187060Y-9859120D03*
X14187060Y-9924120D03*
X14187060Y-9989120D03*
X14122060Y-9079120D03*
X14122060Y-9144120D03*
X14122060Y-9209120D03*
X14122060Y-9274120D03*
X14122060Y-9339120D03*
X14122060Y-9404120D03*
X14122060Y-9469120D03*
X14122060Y-9534120D03*
X14122060Y-9599120D03*
X14122060Y-9664120D03*
X14122060Y-9729120D03*
X14122060Y-9794120D03*
X14122060Y-9859120D03*
X14122060Y-9924120D03*
X14122060Y-9989120D03*
%TD*%
D12*
%TO.C,C4*%
X14644660Y-8887920D03*
X14713660Y-8887920D03*
%TD*%
D19*
%TO.C,R8*%
X15090140Y-10502700D03*
X15090140Y-10604700D03*
%TD*%
D13*
%TO.C,C25*%
X15212060Y-9487960D03*
X15212060Y-9556960D03*
%TD*%
D17*
%TO.C,C2*%
X14704060Y-10178040D03*
X14704060Y-10274040D03*
%TD*%
D12*
%TO.C,C6*%
X14999040Y-8887340D03*
X15068040Y-8887340D03*
%TD*%
D13*
%TO.C,C32*%
X12899400Y-8827560D03*
X12899400Y-8896560D03*
%TD*%
D14*
%TO.C,U3*%
X13310420Y-10495460D03*
X13095420Y-10495460D03*
X13310420Y-10665460D03*
X13095420Y-10665460D03*
D15*
X13393420Y-10205460D03*
X13266420Y-10205460D03*
X13139420Y-10205460D03*
X13012420Y-10205460D03*
X13012420Y-10955460D03*
X13139420Y-10955460D03*
X13266420Y-10955460D03*
X13393420Y-10955460D03*
%TD*%
D20*
%TO.C,J1*%
X15331580Y-8506680D03*
D21*
X15153080Y-8506680D03*
D22*
X14614580Y-8506680D03*
D23*
X14031080Y-8506680D03*
D22*
X13447580Y-8506680D03*
D21*
X12909080Y-8506680D03*
D20*
X12730580Y-8506680D03*
D24*
X15331580Y-8685180D03*
X12730580Y-8685180D03*
D25*
X15331580Y-9223680D03*
X12730580Y-9223680D03*
D26*
X15331580Y-9807180D03*
X12730580Y-9807180D03*
D25*
X15331580Y-10390680D03*
X12730580Y-10390680D03*
D24*
X15331580Y-10929180D03*
X12730580Y-10929180D03*
D20*
X15331580Y-11107680D03*
D21*
X15153080Y-11107680D03*
D22*
X14614580Y-11107680D03*
D23*
X14031080Y-11107680D03*
D22*
X13447580Y-11107680D03*
D21*
X12909080Y-11107680D03*
D20*
X12730580Y-11107680D03*
%TD*%
D27*
%TO.C,U2*%
X12979440Y-9754120D03*
X12979440Y-9674120D03*
X12979440Y-9594120D03*
X12979440Y-9274120D03*
X12979440Y-9194120D03*
X12979440Y-9114120D03*
X13059440Y-9754120D03*
X13059440Y-9674120D03*
X13059440Y-9594120D03*
X13059440Y-9274120D03*
X13059440Y-9194120D03*
X13059440Y-9114120D03*
X13139440Y-9754120D03*
X13139440Y-9674120D03*
X13139440Y-9594120D03*
X13139440Y-9274120D03*
X13139440Y-9194120D03*
X13139440Y-9114120D03*
X13219440Y-9754120D03*
X13219440Y-9674120D03*
X13219440Y-9594120D03*
X13219440Y-9274120D03*
X13219440Y-9194120D03*
X13219440Y-9114120D03*
X13299440Y-9754120D03*
X13299440Y-9674120D03*
X13299440Y-9594120D03*
X13299440Y-9274120D03*
X13299440Y-9194120D03*
X13299440Y-9114120D03*
X13379440Y-9754120D03*
X13379440Y-9674120D03*
X13379440Y-9594120D03*
X13379440Y-9274120D03*
X13379440Y-9194120D03*
X13379440Y-9114120D03*
X13459440Y-9754120D03*
X13459440Y-9674120D03*
X13459440Y-9594120D03*
X13459440Y-9274120D03*
X13459440Y-9194120D03*
X13459440Y-9114120D03*
X13539440Y-9754120D03*
X13539440Y-9674120D03*
X13539440Y-9594120D03*
X13539440Y-9274120D03*
X13539440Y-9194120D03*
X13539440Y-9114120D03*
X13619440Y-9754120D03*
X13619440Y-9674120D03*
X13619440Y-9594120D03*
X13619440Y-9274120D03*
X13619440Y-9194120D03*
X13619440Y-9114120D03*
%TD*%
D10*
%TO.C,R5*%
X14312440Y-10271960D03*
X14312440Y-10202960D03*
%TD*%
%TO.C,C31*%
X13563140Y-10957960D03*
X13563140Y-10888960D03*
%TD*%
D13*
%TO.C,C27*%
X13059400Y-8827560D03*
X13059400Y-8896560D03*
%TD*%
%TO.C,C14*%
X15212060Y-9345720D03*
X15212060Y-9414720D03*
%TD*%
D28*
%TO.C,Y2*%
X14893540Y-8760340D03*
X15033540Y-8760340D03*
%TD*%
D29*
%TO.C,L2*%
X14424660Y-10769170D03*
X14424660Y-10556670D03*
%TD*%
D30*
%TO.C,D1*%
X13711940Y-8681950D03*
X13521940Y-8681950D03*
X13616940Y-8869450D03*
%TD*%
D13*
%TO.C,C30*%
X13339440Y-8827560D03*
X13339440Y-8896560D03*
%TD*%
D31*
%TO.C,C7*%
X14928040Y-8887340D03*
X14859040Y-8887340D03*
%TD*%
D32*
%TO.C,C44*%
X14695820Y-10399870D03*
X14850820Y-10399870D03*
%TD*%
D13*
%TO.C,C16*%
X15212060Y-9061240D03*
X15212060Y-9130240D03*
%TD*%
D19*
%TO.C,R7*%
X14993620Y-10502700D03*
X14993620Y-10604700D03*
%TD*%
D32*
%TO.C,C34*%
X14870180Y-10958670D03*
X15025180Y-10958670D03*
%TD*%
D13*
%TO.C,R1*%
X15212060Y-8818460D03*
X15212060Y-8887460D03*
%TD*%
D31*
%TO.C,C5*%
X14573660Y-8887920D03*
X14504660Y-8887920D03*
%TD*%
D10*
%TO.C,C18*%
X14479560Y-10240220D03*
X14479560Y-10171220D03*
%TD*%
D13*
%TO.C,C20*%
X14292580Y-8825020D03*
X14292580Y-8894020D03*
%TD*%
%TO.C,C28*%
X13411200Y-8827560D03*
X13411200Y-8896560D03*
%TD*%
D11*
%TO.C,C42*%
X14725680Y-10958670D03*
X14570680Y-10958670D03*
%TD*%
D33*
%TO.C,C10*%
X13876020Y-8883680D03*
X13876020Y-8728680D03*
%TD*%
D12*
%TO.C,C12*%
X13868540Y-9494520D03*
X13937540Y-9494520D03*
%TD*%
D34*
%TO.C,Y1*%
X14679160Y-8667820D03*
X14539160Y-8667820D03*
X14539160Y-8777820D03*
X14679160Y-8777820D03*
%TD*%
D10*
%TO.C,C17*%
X14409420Y-10240220D03*
X14409420Y-10171220D03*
%TD*%
%TO.C,C24*%
X15212060Y-9698120D03*
X15212060Y-9629120D03*
%TD*%
D35*
%TO.C,C8*%
X14023340Y-8887200D03*
X14023340Y-8791200D03*
%TD*%
D13*
%TO.C,C3*%
X14433900Y-8825480D03*
X14433900Y-8894480D03*
%TD*%
D12*
%TO.C,C39*%
X13872000Y-9079120D03*
X13941000Y-9079120D03*
%TD*%
D36*
%TO.C,U7*%
X14680180Y-10792460D03*
X14775180Y-10792460D03*
X14870180Y-10792460D03*
X14870180Y-10564960D03*
X14775180Y-10564960D03*
X14680180Y-10564960D03*
%TD*%
D10*
%TO.C,C23*%
X14622780Y-10240220D03*
X14622780Y-10171220D03*
%TD*%
D17*
%TO.C,C43*%
X14556740Y-10582710D03*
X14556740Y-10678710D03*
%TD*%
D37*
%TO.C,L1*%
X14117320Y-8790700D03*
X14117320Y-8887700D03*
%TD*%
D13*
%TO.C,R2*%
X14363700Y-8825480D03*
X14363700Y-8894480D03*
%TD*%
%TO.C,C19*%
X15212060Y-9203480D03*
X15212060Y-9272480D03*
%TD*%
%TO.C,C21*%
X14787880Y-8821420D03*
X14787880Y-8890420D03*
%TD*%
M02*
