%TF.GenerationSoftware,KiCad,Pcbnew,8.0.1*%
%TF.CreationDate,2024-09-11T08:29:46+07:00*%
%TF.ProjectId,siplex-som-s16,7369706c-6578-42d7-936f-6d2d7331362e,rev?*%
%TF.SameCoordinates,Original*%
%TF.FileFunction,Copper,L7,Inr*%
%TF.FilePolarity,Positive*%
%FSLAX46Y46*%
G04 Gerber Fmt 4.6, Leading zero omitted, Abs format (unit mm)*
G04 Created by KiCad (PCBNEW 8.0.1) date 2024-09-11 08:29:46*
%MOMM*%
%LPD*%
G01*
G04 APERTURE LIST*
%TA.AperFunction,ComponentPad*%
%ADD10O,1.500000X1.000000*%
%TD*%
%TA.AperFunction,ComponentPad*%
%ADD11O,1.000000X1.500000*%
%TD*%
%TA.AperFunction,ViaPad*%
%ADD12C,0.600000*%
%TD*%
%TA.AperFunction,ViaPad*%
%ADD13C,0.300000*%
%TD*%
G04 APERTURE END LIST*
D10*
%TO.N,PB8*%
%TO.C,J8*%
X125310800Y-84736800D03*
%TO.N,PB9*%
X125310800Y-86006800D03*
%TO.N,PH4*%
X125310800Y-87276800D03*
%TO.N,GND*%
X125310800Y-88546800D03*
%TO.N,PC0*%
X125310800Y-89816800D03*
%TO.N,PC1*%
X125310800Y-91086800D03*
%TO.N,PC4*%
X125310800Y-92356800D03*
%TO.N,PA0*%
X125310800Y-93626800D03*
%TO.N,PA1*%
X125310800Y-94896800D03*
%TO.N,PA4*%
X125310800Y-96166800D03*
%TO.N,PA3*%
X125310800Y-97436800D03*
%TO.N,PA7*%
X125310800Y-98706800D03*
%TO.N,PA6*%
X125310800Y-99976800D03*
%TO.N,PA5*%
X125310800Y-101246800D03*
%TO.N,PB0*%
X125310800Y-102516800D03*
%TO.N,PB1*%
X125310800Y-103786800D03*
%TO.N,PC5*%
X125310800Y-105056800D03*
%TO.N,PB12*%
X125310800Y-106326800D03*
%TO.N,PB10*%
X125310800Y-107596800D03*
%TO.N,PB13*%
X125310800Y-108866800D03*
%TO.N,PB11*%
X125310800Y-110136800D03*
%TO.N,PB14*%
X125310800Y-111406800D03*
%TD*%
%TO.N,/Castellated_holes/SWDIO*%
%TO.C,J5*%
X155310800Y-111406800D03*
%TO.N,/Castellated_holes/SWCLK*%
X155310800Y-110136800D03*
%TO.N,GND*%
X155310800Y-108866800D03*
%TO.N,/Castellated_holes/USB_DN*%
X155310800Y-107596800D03*
%TO.N,/Castellated_holes/USB_DP*%
X155310800Y-106326800D03*
%TO.N,GND*%
X155310800Y-105056800D03*
%TO.N,/Castellated_holes/USB_VBUS_DET*%
X155310800Y-103786800D03*
%TO.N,GND*%
X155310800Y-102516800D03*
%TO.N,/Castellated_holes/LTDC_CLK*%
X155310800Y-101246800D03*
%TO.N,GND*%
X155310800Y-99976800D03*
%TO.N,/Castellated_holes/SWO*%
X155310800Y-98706800D03*
%TO.N,/Castellated_holes/LTDC_R0*%
X155310800Y-97436800D03*
%TO.N,/Castellated_holes/LTDC_R1*%
X155310800Y-96166800D03*
%TO.N,/Castellated_holes/LTDC_R2*%
X155310800Y-94896800D03*
%TO.N,/Castellated_holes/LTDC_R3*%
X155310800Y-93626800D03*
%TO.N,/Castellated_holes/LTDC_R4*%
X155310800Y-92356800D03*
%TO.N,/Castellated_holes/LTDC_R5*%
X155310800Y-91086800D03*
%TO.N,/Castellated_holes/LTDC_R6*%
X155310800Y-89816800D03*
%TO.N,/Castellated_holes/LTDC_R7*%
X155310800Y-88546800D03*
%TO.N,/Castellated_holes/LTDC_G0*%
X155310800Y-87276800D03*
%TO.N,/Castellated_holes/LTDC_G1*%
X155310800Y-86006800D03*
%TO.N,/Castellated_holes/LTDC_G2*%
X155310800Y-84736800D03*
%TD*%
D11*
%TO.N,PB15*%
%TO.C,J9*%
X126975800Y-113071800D03*
%TO.N,PH7*%
X128245800Y-113071800D03*
%TO.N,PD13*%
X129515800Y-113071800D03*
%TO.N,PC6*%
X130785800Y-113071800D03*
%TO.N,PC7*%
X132055800Y-113071800D03*
%TO.N,PC8*%
X133325800Y-113071800D03*
%TO.N,PH14*%
X134595800Y-113071800D03*
%TO.N,GND*%
X135865800Y-113071800D03*
%TO.N,PD2*%
X137135800Y-113071800D03*
%TO.N,PD3*%
X138405800Y-113071800D03*
%TO.N,PD5*%
X139675800Y-113071800D03*
%TO.N,PD6*%
X140945800Y-113071800D03*
%TO.N,PD7*%
X142215800Y-113071800D03*
%TO.N,PI3*%
X143485800Y-113071800D03*
%TO.N,PA15*%
X144755800Y-113071800D03*
%TO.N,PC12*%
X146025800Y-113071800D03*
%TO.N,PG11*%
X147295800Y-113071800D03*
%TO.N,PB4*%
X148565800Y-113071800D03*
%TO.N,VIN*%
X149835800Y-113071800D03*
%TO.N,+3V3*%
X151105800Y-113071800D03*
%TO.N,GND*%
X152375800Y-113071800D03*
X153645800Y-113071800D03*
%TD*%
%TO.N,PB7*%
%TO.C,J7*%
X126975800Y-83071800D03*
%TO.N,PB5*%
X128245800Y-83071800D03*
%TO.N,GND*%
X129515800Y-83071800D03*
%TO.N,VBAT*%
X130785800Y-83071800D03*
%TO.N,/MCU/BOOT0*%
X132055800Y-83071800D03*
%TO.N,/Castellated_holes/LTDC_DE*%
X133325800Y-83071800D03*
%TO.N,/Castellated_holes/LTDC_HSYNC*%
X134595800Y-83071800D03*
%TO.N,/Castellated_holes/LTDC_VSYNC*%
X135865800Y-83071800D03*
%TO.N,GND*%
X137135800Y-83071800D03*
%TO.N,/Castellated_holes/LTDC_B7*%
X138405800Y-83071800D03*
%TO.N,/Castellated_holes/LTDC_B6*%
X139675800Y-83071800D03*
%TO.N,/Castellated_holes/LTDC_B5*%
X140945800Y-83071800D03*
%TO.N,/Castellated_holes/LTDC_B4*%
X142215800Y-83071800D03*
%TO.N,/Castellated_holes/LTDC_B3*%
X143485800Y-83071800D03*
%TO.N,/Castellated_holes/LTDC_B2*%
X144755800Y-83071800D03*
%TO.N,/Castellated_holes/LTDC_B1*%
X146025800Y-83071800D03*
%TO.N,/Castellated_holes/LTDC_B0*%
X147295800Y-83071800D03*
%TO.N,/Castellated_holes/LTDC_G7*%
X148565800Y-83071800D03*
%TO.N,/Castellated_holes/LTDC_G6*%
X149835800Y-83071800D03*
%TO.N,/Castellated_holes/LTDC_G5*%
X151105800Y-83071800D03*
%TO.N,/Castellated_holes/LTDC_G4*%
X152375800Y-83071800D03*
%TO.N,/Castellated_holes/LTDC_G3*%
X153645800Y-83071800D03*
%TD*%
D12*
%TO.N,GND*%
X150952200Y-102692200D03*
X151485600Y-107264200D03*
X151968200Y-109524800D03*
X132334000Y-108432600D03*
X128346200Y-109931200D03*
X128320800Y-97713800D03*
X129133600Y-102260400D03*
X151257000Y-87401400D03*
X149580600Y-86360000D03*
X147701000Y-87172800D03*
X144348200Y-86664800D03*
X141071600Y-87071200D03*
X133400800Y-86690200D03*
X137744200Y-87934800D03*
X132054600Y-88646000D03*
X128854200Y-86969600D03*
D13*
%TO.N,Net-(C1-Pad1)*%
X147040600Y-101780400D03*
X139367200Y-97180400D03*
%TO.N,GND*%
X146420600Y-95991200D03*
X128994000Y-88300600D03*
X142849600Y-112395000D03*
X145120600Y-95991200D03*
X152120600Y-96956200D03*
D12*
X145706800Y-109586700D03*
D13*
X144470600Y-95341200D03*
X145120600Y-94041200D03*
X147878800Y-88239200D03*
X138710400Y-95666200D03*
X154635200Y-89179400D03*
X145770600Y-94691200D03*
X143170600Y-90791200D03*
D12*
X139522200Y-106804600D03*
D13*
X146420600Y-97941200D03*
X145389600Y-112395000D03*
X147070600Y-96641200D03*
X130149600Y-83769200D03*
X154635200Y-101879400D03*
X146420600Y-96641200D03*
X146420600Y-95341200D03*
X147929600Y-83769200D03*
X146227800Y-102377200D03*
D12*
X140522200Y-105804600D03*
D13*
X126009400Y-98069400D03*
X154635200Y-100609400D03*
X147070600Y-91441200D03*
X148370600Y-94691200D03*
X145770600Y-95341200D03*
X143170600Y-95991200D03*
X126009400Y-104419400D03*
X154635200Y-90449400D03*
X144470600Y-95991200D03*
X130149600Y-112395000D03*
X137769600Y-83769200D03*
X145516600Y-102377200D03*
X126009400Y-91719400D03*
X154635200Y-87909400D03*
X129794000Y-88300600D03*
X143170600Y-95341200D03*
D12*
X138522200Y-104804600D03*
X132029200Y-106804600D03*
D13*
X129794400Y-97541200D03*
X154635200Y-110769400D03*
D12*
X131029200Y-106804600D03*
D13*
X141579600Y-112395000D03*
X131745800Y-86385400D03*
D12*
X132029200Y-104804600D03*
D13*
X149199600Y-112395000D03*
X126009400Y-92989400D03*
X147111600Y-88879200D03*
X154635200Y-91719400D03*
D12*
X146801800Y-107924600D03*
D13*
X154635200Y-95529400D03*
X139039600Y-83769200D03*
X144470600Y-94691200D03*
X138710400Y-96367600D03*
X140233400Y-87912000D03*
X129794400Y-95941200D03*
X128879600Y-83769200D03*
X154635200Y-85369400D03*
D12*
X133029200Y-105804600D03*
D13*
X138710400Y-94945200D03*
X147070600Y-94691200D03*
X144470600Y-94041200D03*
X126009400Y-99339400D03*
D12*
X150251800Y-109586700D03*
D13*
X154736800Y-83693000D03*
D12*
X132029200Y-105804600D03*
D13*
X132994400Y-95941200D03*
X126009400Y-90449400D03*
X133959600Y-112395000D03*
X147070600Y-94041200D03*
X152120600Y-90637400D03*
X126009400Y-110769400D03*
X140309600Y-83769200D03*
X127609600Y-83769200D03*
X148615400Y-88873400D03*
X145120600Y-96641200D03*
X131419600Y-112395000D03*
X141579600Y-83769200D03*
X145389600Y-83769200D03*
X151739600Y-83769200D03*
X152120600Y-94904600D03*
X145770600Y-97941200D03*
X139039600Y-112395000D03*
X142520600Y-90791200D03*
X137769600Y-112395000D03*
X154635200Y-108229400D03*
X145770600Y-96641200D03*
X154635200Y-109499400D03*
X128879600Y-112395000D03*
D12*
X138522200Y-105804600D03*
D13*
X125882400Y-112572800D03*
X130133133Y-102048267D03*
X148370600Y-95991200D03*
X126009400Y-101879400D03*
D12*
X131029200Y-104804600D03*
D13*
X126009400Y-86639400D03*
X140309600Y-112395000D03*
X126009400Y-89179400D03*
X146420600Y-94691200D03*
X146659600Y-83769200D03*
X126009400Y-100609400D03*
X142925800Y-88275200D03*
X136194400Y-88300600D03*
X148370600Y-95341200D03*
X153009600Y-83769200D03*
X149199600Y-83769200D03*
X127609600Y-112395000D03*
X126009400Y-109499400D03*
X132689600Y-83769200D03*
X126009400Y-95529400D03*
X138745000Y-90791200D03*
D12*
X140522200Y-104804600D03*
D13*
X143820600Y-92741200D03*
X147040600Y-102740400D03*
X154863800Y-112674400D03*
X144470600Y-96641200D03*
X138407200Y-97180400D03*
D12*
X127381000Y-101549200D03*
D13*
X145770600Y-94041200D03*
X152120600Y-92059800D03*
X131419600Y-83769200D03*
X145120600Y-95341200D03*
X126314200Y-84074000D03*
X126009400Y-103149400D03*
D12*
X133029200Y-104804600D03*
D13*
X135631400Y-108914600D03*
X143124400Y-108914600D03*
X150469600Y-83769200D03*
X126009400Y-94259400D03*
X133394400Y-88300600D03*
X147929600Y-112395000D03*
X154635200Y-103149400D03*
D12*
X139522200Y-104804600D03*
D13*
X144094200Y-102377200D03*
X126009400Y-85369400D03*
X154635200Y-98069400D03*
X154635200Y-96799400D03*
X154635200Y-99339400D03*
X154635200Y-86639400D03*
X142113000Y-88897400D03*
X150901400Y-106047000D03*
X132194400Y-92741200D03*
X145120600Y-94691200D03*
X147070600Y-95991200D03*
X146659600Y-112395000D03*
X145770600Y-95991200D03*
X138745000Y-90068400D03*
X136194400Y-97541200D03*
X126009400Y-108229400D03*
X130194400Y-100370600D03*
X144795600Y-102377200D03*
X126009400Y-106959400D03*
X126009400Y-87909400D03*
X136499600Y-112395000D03*
X144119600Y-83769200D03*
X130594000Y-88300600D03*
X154635200Y-104419400D03*
X154635200Y-94259400D03*
X146420600Y-94041200D03*
X131394400Y-95941200D03*
X148370600Y-93391200D03*
X145071600Y-88879200D03*
X131794400Y-100370600D03*
X150655400Y-88873400D03*
X132689600Y-112395000D03*
X154635200Y-92989400D03*
X152120600Y-93482200D03*
X154635200Y-105689400D03*
X142849600Y-83769200D03*
D12*
X140522200Y-106804600D03*
D13*
X133959600Y-83769200D03*
X154635200Y-106959400D03*
X136499600Y-83769200D03*
X126009400Y-96799400D03*
X146420600Y-91441200D03*
X151409400Y-88209600D03*
X137617200Y-102054600D03*
X126009400Y-105689400D03*
D12*
X131029200Y-105804600D03*
D13*
X147070600Y-95341200D03*
D12*
X138522200Y-106804600D03*
X133029200Y-106804600D03*
D13*
X144339000Y-88279800D03*
D12*
X128041400Y-93522800D03*
X139522200Y-105804600D03*
D13*
X144119600Y-112395000D03*
X135229600Y-112395000D03*
X147070600Y-97941200D03*
X135229600Y-83769200D03*
X130594400Y-92741200D03*
%TO.N,+3V3*%
X147878800Y-88879200D03*
X143637000Y-88279800D03*
X133394400Y-88940600D03*
X152120600Y-91277400D03*
X146227800Y-101737200D03*
X141173200Y-87907000D03*
X152120600Y-92699800D03*
X128994000Y-88940600D03*
X131794400Y-99730600D03*
X130194400Y-99730600D03*
X139350400Y-96367600D03*
X135631400Y-102694600D03*
X142925800Y-88915200D03*
X152120600Y-94122200D03*
X143124400Y-109554600D03*
X142113000Y-87937400D03*
X130594000Y-88940600D03*
X139350400Y-95666200D03*
X152120600Y-95544600D03*
X152120600Y-88209600D03*
X144795600Y-101737200D03*
X152120600Y-96316200D03*
X145516600Y-101737200D03*
X149936200Y-105027000D03*
X129794000Y-88940600D03*
D12*
X145897600Y-104902000D03*
X145237200Y-104902000D03*
D13*
X144094200Y-101737200D03*
D12*
X146227800Y-104013000D03*
D13*
X143124400Y-102694600D03*
X139350400Y-94945200D03*
D12*
X146913600Y-104013000D03*
D13*
X135631400Y-109554600D03*
X136194400Y-88940600D03*
%TO.N,Net-(U1-PDR_ON)*%
X149020600Y-94041200D03*
X152120600Y-88849600D03*
%TO.N,/MCU/BOOT0*%
X151409400Y-88849600D03*
X148370600Y-94041200D03*
%TO.N,/Castellated_holes/LTDC_G5*%
X147720600Y-99241200D03*
X152196800Y-99852200D03*
%TO.N,/Castellated_holes/LTDC_G7*%
X152196800Y-99241200D03*
X149020600Y-99241200D03*
%TO.N,/Castellated_holes/LTDC_B1*%
X151434800Y-95021400D03*
X149670600Y-95341200D03*
%TO.N,/Castellated_holes/LTDC_R4*%
X143820600Y-98591200D03*
%TO.N,unconnected-(U1-PH6-PadM11)*%
X143170600Y-97291200D03*
%TO.N,/Castellated_holes/LTDC_R0*%
X150320600Y-95341200D03*
%TO.N,/Castellated_holes/LTDC_B4*%
X148370600Y-92741200D03*
%TO.N,/Castellated_holes/LTDC_G1*%
X149670600Y-92091200D03*
%TO.N,/Castellated_holes/LTDC_R3*%
X143170600Y-98591200D03*
%TO.N,/Castellated_holes/LTDC_G0*%
X149670600Y-91441200D03*
%TO.N,unconnected-(U1-PA10-PadD15)*%
X148370600Y-99891200D03*
%TO.N,/Castellated_holes/LTDC_R2*%
X149670600Y-99241200D03*
%TO.N,/Castellated_holes/LTDC_CLK*%
X145120600Y-99241200D03*
%TO.N,/Castellated_holes/LTDC_VSYNC*%
X148370600Y-92091200D03*
%TO.N,/Castellated_holes/LTDC_B2*%
X152196800Y-98841197D03*
X147070600Y-99241200D03*
%TO.N,/Castellated_holes/LTDC_G4*%
X148370600Y-98591200D03*
%TO.N,/Castellated_holes/LTDC_R1*%
X141870600Y-91441200D03*
%TO.N,/Castellated_holes/LTDC_R5*%
X143820600Y-97941200D03*
%TO.N,/Castellated_holes/LTDC_G2*%
X147720600Y-97941200D03*
%TO.N,/Castellated_holes/LTDC_R7*%
X145120600Y-99891200D03*
%TO.N,unconnected-(U1-PH8-PadM12)*%
X143170600Y-97941200D03*
%TO.N,/Castellated_holes/LTDC_B6*%
X149020600Y-92091200D03*
X150557833Y-90353632D03*
%TO.N,VBAT*%
X149020600Y-90791200D03*
%TO.N,/Castellated_holes/LTDC_G6*%
X148370600Y-99241200D03*
%TO.N,/Castellated_holes/LTDC_R6*%
X144470600Y-97941200D03*
%TO.N,/Castellated_holes/LTDC_B7*%
X149020600Y-91441200D03*
%TO.N,/Castellated_holes/LTDC_HSYNC*%
X147720600Y-92091200D03*
X150139400Y-89916000D03*
%TO.N,unconnected-(U1-PG3-PadK15)*%
X144470600Y-99891200D03*
%TO.N,/Castellated_holes/LTDC_B3*%
X152196800Y-98441194D03*
X147070600Y-99891200D03*
%TO.N,/Castellated_holes/LTDC_B0*%
X149670600Y-90791200D03*
%TO.N,/Castellated_holes/LTDC_DE*%
X143820600Y-90791200D03*
%TO.N,/Castellated_holes/LTDC_G3*%
X149670600Y-96641200D03*
X151547080Y-90116054D03*
%TO.N,/Castellated_holes/LTDC_B5*%
X149020600Y-92741200D03*
%TO.N,/MCU/SDRAM_A12*%
X143820600Y-99891200D03*
X134594400Y-97541200D03*
%TO.N,/MCU/SDRAM_A8*%
X135394400Y-97541200D03*
X141220600Y-94691200D03*
%TO.N,/MCU/SDRAM_DQ13*%
X141870600Y-99891200D03*
X130594400Y-96741200D03*
%TO.N,/MCU/SDRAM_CKE*%
X143170600Y-93391200D03*
X133794400Y-95941200D03*
%TO.N,/MCU/SDRAM_DQ6*%
X141870600Y-95991200D03*
X132194400Y-91941200D03*
%TO.N,/MCU/SDRAM_A5*%
X144470600Y-92091200D03*
X136194400Y-96741200D03*
%TO.N,/MCU/SDRAM_DQ0*%
X129794400Y-91941200D03*
X143170600Y-99241200D03*
%TO.N,/MCU/SDRAM_DQMH*%
X150320600Y-92091200D03*
X133794400Y-97541200D03*
%TO.N,/MCU/SDRAM_DQ14*%
X130594400Y-97541200D03*
X141870600Y-99241200D03*
%TO.N,/MCU/SDRAM_A7*%
X142520600Y-94041200D03*
X135394400Y-96741200D03*
%TO.N,/MCU/SDRAM_A2*%
X136194400Y-91941200D03*
X145770600Y-91441200D03*
%TO.N,/MCU/SDRAM_DQ12*%
X131394400Y-97541200D03*
X141220600Y-97291200D03*
%TO.N,/MCU/SDRAM_A6*%
X135394400Y-95941200D03*
X141870600Y-94041200D03*
%TO.N,/MCU/SDRAM_A9*%
X141870600Y-94691200D03*
X134594400Y-95941200D03*
%TO.N,/MCU/~{SDRAM_RAS}*%
X141220600Y-94041200D03*
X133794400Y-91941200D03*
%TO.N,/MCU/SDRAM_DQ7*%
X132994400Y-91141200D03*
X141220600Y-95991200D03*
%TO.N,/MCU/SDRAM_A1*%
X145770600Y-92091200D03*
X135394400Y-91941200D03*
%TO.N,/MCU/SDRAM_DQ3*%
X149020600Y-97941200D03*
X131394400Y-91141200D03*
%TO.N,/MCU/~{SDRAM_CAS}*%
X149670600Y-94691200D03*
X133794400Y-92741200D03*
%TO.N,/MCU/SDRAM_DQ15*%
X129794400Y-96741200D03*
X142520600Y-99891200D03*
%TO.N,/MCU/SDRAM_A11*%
X143170600Y-94691200D03*
X134594400Y-96741200D03*
%TO.N,/MCU/SDRAM_DQ5*%
X141870600Y-95341200D03*
X132194400Y-91141200D03*
%TO.N,/MCU/SDRAM_A10*%
X142520600Y-94691200D03*
X135394400Y-91141200D03*
%TO.N,/MCU/SDRAM_A0*%
X135394400Y-92741200D03*
X147720600Y-91441200D03*
%TO.N,/MCU/~{SDRAM_WE}*%
X145120600Y-92741200D03*
X133794400Y-91141200D03*
%TO.N,/MCU/SDRAM_DQML*%
X132994400Y-91941200D03*
X150320600Y-92741200D03*
%TO.N,/MCU/SDRAM_DQ4*%
X141220600Y-95341200D03*
X131394400Y-91941200D03*
%TO.N,/MCU/SDRAM_DQ9*%
X141220600Y-96641200D03*
X132194400Y-96741200D03*
%TO.N,/MCU/SDRAM_DQ8*%
X132994400Y-97541200D03*
X141870600Y-96641200D03*
%TO.N,/MCU/SDRAM_DQ10*%
X142520600Y-97291200D03*
X132194400Y-97541200D03*
%TO.N,/MCU/SDRAM_BA1*%
X144470600Y-98591200D03*
X134594400Y-91941200D03*
%TO.N,/MCU/SDRAM_A4*%
X145120600Y-92091200D03*
X136194400Y-95941200D03*
%TO.N,/MCU/SDRAM_DQ1*%
X143820600Y-99241200D03*
X130594400Y-91141200D03*
%TO.N,/MCU/SDRAM_CLK*%
X145770600Y-99241200D03*
X133794400Y-96741200D03*
%TO.N,/MCU/SDRAM_A3*%
X145120600Y-91441200D03*
X136194400Y-92741200D03*
%TO.N,/MCU/SDRAM_DQ2*%
X130594400Y-91941200D03*
X149670600Y-97941200D03*
%TO.N,/MCU/SDRAM_BA0*%
X134594400Y-92741200D03*
X144470600Y-99241200D03*
%TO.N,/MCU/~{SDRAM_CS}*%
X134594400Y-91141200D03*
X143170600Y-92741200D03*
%TO.N,unconnected-(U2-NC-PadE2)*%
X132994400Y-96741200D03*
%TO.N,/MCU/SDRAM_DQ11*%
X131394400Y-96741200D03*
X141870600Y-97291200D03*
%TO.N,/Castellated_holes/USB_DN*%
X149020600Y-99891200D03*
%TO.N,/Castellated_holes/USB_DP*%
X149670600Y-99891200D03*
%TO.N,/MCU/~{FLASH_BK1_CS}*%
X149670600Y-94041200D03*
X133934200Y-102054600D03*
%TO.N,/MCU/~{FLASH_BK2_CS}*%
X149670600Y-98591200D03*
X141427200Y-102054600D03*
%TO.N,/MCU/FLASH_BK1_IO1*%
X143820600Y-91441200D03*
X132664200Y-102054600D03*
%TO.N,/MCU/FLASH_BK1_IO0*%
X143820600Y-92091200D03*
X130124200Y-109554600D03*
%TO.N,/MCU/FLASH_BK2_IO1*%
X146420600Y-92741200D03*
X140157200Y-102054600D03*
%TO.N,/MCU/FLASH_BK1_IO2*%
X144470600Y-90791200D03*
X131394200Y-102054600D03*
%TO.N,/MCU/FLASH_CLK*%
X143170600Y-94041200D03*
X131394200Y-109554600D03*
X138887200Y-109554600D03*
%TO.N,/MCU/FLASH_BK1_IO3*%
X144470600Y-91441200D03*
X132664200Y-109554600D03*
%TO.N,/MCU/FLASH_BK2_IO3*%
X140157200Y-109554600D03*
X150320600Y-94691200D03*
%TO.N,/MCU/FLASH_BK2_IO2*%
X149020600Y-96641200D03*
X138887200Y-102054600D03*
%TO.N,/MCU/FLASH_BK2_IO0*%
X147070600Y-92741200D03*
X137617200Y-109554600D03*
%TO.N,PB7*%
X149670600Y-93391200D03*
%TO.N,PB5*%
X150320600Y-94041200D03*
%TO.N,PB8*%
X150320600Y-93391200D03*
%TO.N,PB9*%
X149670600Y-92741200D03*
%TO.N,/Castellated_holes/SWCLK*%
X150320600Y-99241200D03*
%TO.N,/Castellated_holes/SWO*%
X150320600Y-96641200D03*
%TO.N,/Castellated_holes/SWDIO*%
X150320600Y-99891200D03*
%TO.N,/Castellated_holes/USB_VBUS_DET*%
X147720600Y-99891200D03*
%TO.N,PH4*%
X142875800Y-86766400D03*
X145770600Y-92741200D03*
%TO.N,PC1*%
X143170600Y-92091200D03*
X139369800Y-85816802D03*
%TO.N,PC0*%
X143170600Y-91441200D03*
X139750800Y-86004400D03*
%TO.N,PC4*%
X142520600Y-93391200D03*
X137942827Y-85374000D03*
%TO.N,PC5*%
X127897600Y-95762000D03*
X141870600Y-93391200D03*
%TO.N,PA1*%
X142520600Y-91441200D03*
X138969797Y-85816802D03*
%TO.N,PA4*%
X138314054Y-86429390D03*
X142520600Y-92741200D03*
%TO.N,PA0*%
X138569992Y-85829390D03*
X142520600Y-92091200D03*
%TO.N,PA7*%
X141220600Y-92091200D03*
%TO.N,PA3*%
X141220600Y-91441200D03*
%TO.N,PA6*%
X141870600Y-92091200D03*
X127203200Y-94462600D03*
%TO.N,PA5*%
X127050800Y-95097600D03*
X141870600Y-92741200D03*
%TO.N,PB0*%
X127297600Y-95521526D03*
X141220600Y-93391200D03*
%TO.N,PB1*%
X141220600Y-92741200D03*
X127990600Y-94788000D03*
%TO.N,PB11*%
X141220600Y-98591200D03*
%TO.N,PB10*%
X141220600Y-97941200D03*
%TO.N,PB13*%
X141870600Y-98591200D03*
%TO.N,PB12*%
X141870600Y-97941200D03*
%TO.N,PB14*%
X127068200Y-106599000D03*
X141220600Y-99241200D03*
%TO.N,PB15*%
X141220600Y-99891200D03*
X127315903Y-106913078D03*
%TO.N,PD13*%
X143170600Y-99891200D03*
X127842670Y-107518357D03*
%TO.N,PH7*%
X127584200Y-107213078D03*
X142520600Y-97941200D03*
%TO.N,PC7*%
X146420600Y-99891200D03*
%TO.N,PC6*%
X145770600Y-99891200D03*
%TO.N,PC8*%
X146420600Y-99241200D03*
%TO.N,PH14*%
X147720600Y-98591200D03*
%TO.N,PC12*%
X149292795Y-102328553D03*
X150320600Y-97941200D03*
%TO.N,PI3*%
X149020600Y-98591200D03*
X148400302Y-100957000D03*
%TO.N,PD6*%
X148562967Y-101649167D03*
X149670600Y-97291200D03*
%TO.N,PD7*%
X148241700Y-102394700D03*
X150320600Y-97291200D03*
%TO.N,PD5*%
X148132800Y-101650800D03*
X149020600Y-97291200D03*
%TO.N,PA15*%
X150320600Y-98591200D03*
X148844000Y-102260400D03*
%TO.N,PB4*%
X150139400Y-103352600D03*
X150320600Y-95991200D03*
%TO.N,PD2*%
X148370600Y-97941200D03*
X147728590Y-100787200D03*
%TO.N,PG11*%
X149354400Y-102948600D03*
X149670600Y-95991200D03*
%TO.N,PD3*%
X148032052Y-101113184D03*
X148370600Y-97291200D03*
%TD*%
%TA.AperFunction,Conductor*%
%TO.N,GND*%
G36*
X127692476Y-83591985D02*
G01*
X127732824Y-83634300D01*
X127765280Y-83690516D01*
X127877084Y-83802320D01*
X127877086Y-83802321D01*
X127877090Y-83802324D01*
X128014009Y-83881373D01*
X128014016Y-83881377D01*
X128166743Y-83922300D01*
X128166745Y-83922300D01*
X128324855Y-83922300D01*
X128324857Y-83922300D01*
X128477584Y-83881377D01*
X128614516Y-83802320D01*
X128726320Y-83690516D01*
X128758775Y-83634300D01*
X128809342Y-83586085D01*
X128866163Y-83572300D01*
X130165437Y-83572300D01*
X130232476Y-83591985D01*
X130272824Y-83634300D01*
X130305280Y-83690516D01*
X130417084Y-83802320D01*
X130417086Y-83802321D01*
X130417090Y-83802324D01*
X130554009Y-83881373D01*
X130554016Y-83881377D01*
X130706743Y-83922300D01*
X130706745Y-83922300D01*
X130864855Y-83922300D01*
X130864857Y-83922300D01*
X131017584Y-83881377D01*
X131154516Y-83802320D01*
X131266320Y-83690516D01*
X131298775Y-83634300D01*
X131349342Y-83586085D01*
X131406163Y-83572300D01*
X131435437Y-83572300D01*
X131502476Y-83591985D01*
X131542824Y-83634300D01*
X131575280Y-83690516D01*
X131687084Y-83802320D01*
X131687086Y-83802321D01*
X131687090Y-83802324D01*
X131824009Y-83881373D01*
X131824016Y-83881377D01*
X131976743Y-83922300D01*
X131976745Y-83922300D01*
X132134855Y-83922300D01*
X132134857Y-83922300D01*
X132287584Y-83881377D01*
X132424516Y-83802320D01*
X132536320Y-83690516D01*
X132568775Y-83634300D01*
X132619342Y-83586085D01*
X132676163Y-83572300D01*
X132705437Y-83572300D01*
X132772476Y-83591985D01*
X132812824Y-83634300D01*
X132845280Y-83690516D01*
X132957084Y-83802320D01*
X132957086Y-83802321D01*
X132957090Y-83802324D01*
X133094009Y-83881373D01*
X133094016Y-83881377D01*
X133246743Y-83922300D01*
X133246745Y-83922300D01*
X133404855Y-83922300D01*
X133404857Y-83922300D01*
X133557584Y-83881377D01*
X133694516Y-83802320D01*
X133806320Y-83690516D01*
X133838775Y-83634300D01*
X133889342Y-83586085D01*
X133946163Y-83572300D01*
X133975437Y-83572300D01*
X134042476Y-83591985D01*
X134082824Y-83634300D01*
X134115280Y-83690516D01*
X134227084Y-83802320D01*
X134227086Y-83802321D01*
X134227090Y-83802324D01*
X134364009Y-83881373D01*
X134364016Y-83881377D01*
X134516743Y-83922300D01*
X134516745Y-83922300D01*
X134674855Y-83922300D01*
X134674857Y-83922300D01*
X134827584Y-83881377D01*
X134964516Y-83802320D01*
X135076320Y-83690516D01*
X135108775Y-83634300D01*
X135159342Y-83586085D01*
X135216163Y-83572300D01*
X135245437Y-83572300D01*
X135312476Y-83591985D01*
X135352824Y-83634300D01*
X135385280Y-83690516D01*
X135497084Y-83802320D01*
X135497086Y-83802321D01*
X135497090Y-83802324D01*
X135634009Y-83881373D01*
X135634016Y-83881377D01*
X135786743Y-83922300D01*
X135786745Y-83922300D01*
X135944855Y-83922300D01*
X135944857Y-83922300D01*
X136097584Y-83881377D01*
X136234516Y-83802320D01*
X136346320Y-83690516D01*
X136378775Y-83634300D01*
X136429342Y-83586085D01*
X136486163Y-83572300D01*
X137785437Y-83572300D01*
X137852476Y-83591985D01*
X137892824Y-83634300D01*
X137925280Y-83690516D01*
X138037084Y-83802320D01*
X138037086Y-83802321D01*
X138037090Y-83802324D01*
X138174009Y-83881373D01*
X138174016Y-83881377D01*
X138326743Y-83922300D01*
X138326745Y-83922300D01*
X138484855Y-83922300D01*
X138484857Y-83922300D01*
X138637584Y-83881377D01*
X138774516Y-83802320D01*
X138886320Y-83690516D01*
X138918775Y-83634300D01*
X138969342Y-83586085D01*
X139026163Y-83572300D01*
X139055437Y-83572300D01*
X139122476Y-83591985D01*
X139162824Y-83634300D01*
X139195280Y-83690516D01*
X139307084Y-83802320D01*
X139307086Y-83802321D01*
X139307090Y-83802324D01*
X139444009Y-83881373D01*
X139444016Y-83881377D01*
X139596743Y-83922300D01*
X139596745Y-83922300D01*
X139754855Y-83922300D01*
X139754857Y-83922300D01*
X139907584Y-83881377D01*
X140044516Y-83802320D01*
X140156320Y-83690516D01*
X140188775Y-83634300D01*
X140239342Y-83586085D01*
X140296163Y-83572300D01*
X140325437Y-83572300D01*
X140392476Y-83591985D01*
X140432824Y-83634300D01*
X140465280Y-83690516D01*
X140577084Y-83802320D01*
X140577086Y-83802321D01*
X140577090Y-83802324D01*
X140714009Y-83881373D01*
X140714016Y-83881377D01*
X140866743Y-83922300D01*
X140866745Y-83922300D01*
X141024855Y-83922300D01*
X141024857Y-83922300D01*
X141177584Y-83881377D01*
X141314516Y-83802320D01*
X141426320Y-83690516D01*
X141458775Y-83634300D01*
X141509342Y-83586085D01*
X141566163Y-83572300D01*
X141595437Y-83572300D01*
X141662476Y-83591985D01*
X141702824Y-83634300D01*
X141735280Y-83690516D01*
X141847084Y-83802320D01*
X141847086Y-83802321D01*
X141847090Y-83802324D01*
X141984009Y-83881373D01*
X141984016Y-83881377D01*
X142136743Y-83922300D01*
X142136745Y-83922300D01*
X142294855Y-83922300D01*
X142294857Y-83922300D01*
X142447584Y-83881377D01*
X142584516Y-83802320D01*
X142696320Y-83690516D01*
X142728775Y-83634300D01*
X142779342Y-83586085D01*
X142836163Y-83572300D01*
X142865437Y-83572300D01*
X142932476Y-83591985D01*
X142972824Y-83634300D01*
X143005280Y-83690516D01*
X143117084Y-83802320D01*
X143117086Y-83802321D01*
X143117090Y-83802324D01*
X143254009Y-83881373D01*
X143254016Y-83881377D01*
X143406743Y-83922300D01*
X143406745Y-83922300D01*
X143564855Y-83922300D01*
X143564857Y-83922300D01*
X143717584Y-83881377D01*
X143854516Y-83802320D01*
X143966320Y-83690516D01*
X143998775Y-83634300D01*
X144049342Y-83586085D01*
X144106163Y-83572300D01*
X144135437Y-83572300D01*
X144202476Y-83591985D01*
X144242824Y-83634300D01*
X144275280Y-83690516D01*
X144387084Y-83802320D01*
X144387086Y-83802321D01*
X144387090Y-83802324D01*
X144524009Y-83881373D01*
X144524016Y-83881377D01*
X144676743Y-83922300D01*
X144676745Y-83922300D01*
X144834855Y-83922300D01*
X144834857Y-83922300D01*
X144987584Y-83881377D01*
X145124516Y-83802320D01*
X145236320Y-83690516D01*
X145268775Y-83634300D01*
X145319342Y-83586085D01*
X145376163Y-83572300D01*
X145405437Y-83572300D01*
X145472476Y-83591985D01*
X145512824Y-83634300D01*
X145545280Y-83690516D01*
X145657084Y-83802320D01*
X145657086Y-83802321D01*
X145657090Y-83802324D01*
X145794009Y-83881373D01*
X145794016Y-83881377D01*
X145946743Y-83922300D01*
X145946745Y-83922300D01*
X146104855Y-83922300D01*
X146104857Y-83922300D01*
X146257584Y-83881377D01*
X146394516Y-83802320D01*
X146506320Y-83690516D01*
X146538775Y-83634300D01*
X146589342Y-83586085D01*
X146646163Y-83572300D01*
X146675437Y-83572300D01*
X146742476Y-83591985D01*
X146782824Y-83634300D01*
X146815280Y-83690516D01*
X146927084Y-83802320D01*
X146927086Y-83802321D01*
X146927090Y-83802324D01*
X147064009Y-83881373D01*
X147064016Y-83881377D01*
X147216743Y-83922300D01*
X147216745Y-83922300D01*
X147374855Y-83922300D01*
X147374857Y-83922300D01*
X147527584Y-83881377D01*
X147664516Y-83802320D01*
X147776320Y-83690516D01*
X147808775Y-83634300D01*
X147859342Y-83586085D01*
X147916163Y-83572300D01*
X147945437Y-83572300D01*
X148012476Y-83591985D01*
X148052824Y-83634300D01*
X148085280Y-83690516D01*
X148197084Y-83802320D01*
X148197086Y-83802321D01*
X148197090Y-83802324D01*
X148334009Y-83881373D01*
X148334016Y-83881377D01*
X148486743Y-83922300D01*
X148486745Y-83922300D01*
X148644855Y-83922300D01*
X148644857Y-83922300D01*
X148797584Y-83881377D01*
X148934516Y-83802320D01*
X149046320Y-83690516D01*
X149078775Y-83634300D01*
X149129342Y-83586085D01*
X149186163Y-83572300D01*
X149215437Y-83572300D01*
X149282476Y-83591985D01*
X149322824Y-83634300D01*
X149355280Y-83690516D01*
X149467084Y-83802320D01*
X149467086Y-83802321D01*
X149467090Y-83802324D01*
X149604009Y-83881373D01*
X149604016Y-83881377D01*
X149756743Y-83922300D01*
X149756745Y-83922300D01*
X149914855Y-83922300D01*
X149914857Y-83922300D01*
X150067584Y-83881377D01*
X150204516Y-83802320D01*
X150316320Y-83690516D01*
X150348775Y-83634300D01*
X150399342Y-83586085D01*
X150456163Y-83572300D01*
X150485437Y-83572300D01*
X150552476Y-83591985D01*
X150592824Y-83634300D01*
X150625280Y-83690516D01*
X150737084Y-83802320D01*
X150737086Y-83802321D01*
X150737090Y-83802324D01*
X150874009Y-83881373D01*
X150874016Y-83881377D01*
X151026743Y-83922300D01*
X151026745Y-83922300D01*
X151184855Y-83922300D01*
X151184857Y-83922300D01*
X151337584Y-83881377D01*
X151474516Y-83802320D01*
X151586320Y-83690516D01*
X151618775Y-83634300D01*
X151669342Y-83586085D01*
X151726163Y-83572300D01*
X151755437Y-83572300D01*
X151822476Y-83591985D01*
X151862824Y-83634300D01*
X151895280Y-83690516D01*
X152007084Y-83802320D01*
X152007086Y-83802321D01*
X152007090Y-83802324D01*
X152144009Y-83881373D01*
X152144016Y-83881377D01*
X152296743Y-83922300D01*
X152296745Y-83922300D01*
X152454855Y-83922300D01*
X152454857Y-83922300D01*
X152607584Y-83881377D01*
X152744516Y-83802320D01*
X152856320Y-83690516D01*
X152888775Y-83634300D01*
X152939342Y-83586085D01*
X152996163Y-83572300D01*
X153025437Y-83572300D01*
X153092476Y-83591985D01*
X153132824Y-83634300D01*
X153165280Y-83690516D01*
X153277084Y-83802320D01*
X153277086Y-83802321D01*
X153277090Y-83802324D01*
X153414009Y-83881373D01*
X153414016Y-83881377D01*
X153566743Y-83922300D01*
X153566745Y-83922300D01*
X153724855Y-83922300D01*
X153724857Y-83922300D01*
X153877584Y-83881377D01*
X154014516Y-83802320D01*
X154126320Y-83690516D01*
X154158775Y-83634300D01*
X154209342Y-83586085D01*
X154266163Y-83572300D01*
X154686300Y-83572300D01*
X154753339Y-83591985D01*
X154799094Y-83644789D01*
X154810300Y-83696300D01*
X154810300Y-84116436D01*
X154790615Y-84183475D01*
X154748301Y-84223823D01*
X154692084Y-84256280D01*
X154692081Y-84256282D01*
X154580281Y-84368082D01*
X154580275Y-84368090D01*
X154501226Y-84505009D01*
X154501223Y-84505016D01*
X154460300Y-84657743D01*
X154460300Y-84815856D01*
X154501223Y-84968583D01*
X154501226Y-84968590D01*
X154580275Y-85105509D01*
X154580279Y-85105514D01*
X154580280Y-85105516D01*
X154692084Y-85217320D01*
X154748299Y-85249775D01*
X154796515Y-85300342D01*
X154810300Y-85357163D01*
X154810300Y-85386436D01*
X154790615Y-85453475D01*
X154748301Y-85493823D01*
X154692084Y-85526280D01*
X154692081Y-85526282D01*
X154580281Y-85638082D01*
X154580275Y-85638090D01*
X154501226Y-85775009D01*
X154501223Y-85775016D01*
X154460300Y-85927743D01*
X154460300Y-86085857D01*
X154489123Y-86193424D01*
X154501223Y-86238583D01*
X154501226Y-86238590D01*
X154580275Y-86375509D01*
X154580279Y-86375514D01*
X154580280Y-86375516D01*
X154692084Y-86487320D01*
X154733086Y-86510992D01*
X154748299Y-86519775D01*
X154796515Y-86570342D01*
X154810300Y-86627163D01*
X154810300Y-86656436D01*
X154790615Y-86723475D01*
X154748301Y-86763823D01*
X154692084Y-86796280D01*
X154692081Y-86796282D01*
X154580281Y-86908082D01*
X154580275Y-86908090D01*
X154501226Y-87045009D01*
X154501223Y-87045016D01*
X154460300Y-87197743D01*
X154460300Y-87355856D01*
X154501223Y-87508583D01*
X154501226Y-87508590D01*
X154580275Y-87645509D01*
X154580279Y-87645514D01*
X154580280Y-87645516D01*
X154692084Y-87757320D01*
X154748299Y-87789775D01*
X154796515Y-87840342D01*
X154810300Y-87897163D01*
X154810300Y-87926436D01*
X154790615Y-87993475D01*
X154748301Y-88033823D01*
X154692084Y-88066280D01*
X154692081Y-88066282D01*
X154580281Y-88178082D01*
X154580275Y-88178090D01*
X154501226Y-88315009D01*
X154501223Y-88315016D01*
X154460300Y-88467743D01*
X154460300Y-88625857D01*
X154494063Y-88751860D01*
X154501223Y-88778583D01*
X154501226Y-88778590D01*
X154580275Y-88915509D01*
X154580279Y-88915514D01*
X154580280Y-88915516D01*
X154692084Y-89027320D01*
X154748299Y-89059775D01*
X154796515Y-89110342D01*
X154810300Y-89167163D01*
X154810300Y-89196436D01*
X154790615Y-89263475D01*
X154748301Y-89303823D01*
X154692084Y-89336280D01*
X154692081Y-89336282D01*
X154580281Y-89448082D01*
X154580275Y-89448090D01*
X154501226Y-89585009D01*
X154501223Y-89585016D01*
X154460300Y-89737743D01*
X154460300Y-89895857D01*
X154493113Y-90018315D01*
X154501223Y-90048583D01*
X154501226Y-90048590D01*
X154580275Y-90185509D01*
X154580279Y-90185514D01*
X154580280Y-90185516D01*
X154692084Y-90297320D01*
X154748299Y-90329775D01*
X154796515Y-90380342D01*
X154810300Y-90437163D01*
X154810300Y-90466436D01*
X154790615Y-90533475D01*
X154748301Y-90573823D01*
X154692084Y-90606280D01*
X154692081Y-90606282D01*
X154580281Y-90718082D01*
X154580275Y-90718090D01*
X154501226Y-90855009D01*
X154501223Y-90855016D01*
X154460300Y-91007743D01*
X154460300Y-91165857D01*
X154490189Y-91277402D01*
X154501223Y-91318583D01*
X154501226Y-91318590D01*
X154580275Y-91455509D01*
X154580279Y-91455514D01*
X154580280Y-91455516D01*
X154692084Y-91567320D01*
X154748299Y-91599775D01*
X154796515Y-91650342D01*
X154810300Y-91707163D01*
X154810300Y-91736436D01*
X154790615Y-91803475D01*
X154748301Y-91843823D01*
X154692084Y-91876280D01*
X154692081Y-91876282D01*
X154580281Y-91988082D01*
X154580275Y-91988090D01*
X154501226Y-92125009D01*
X154501223Y-92125016D01*
X154460300Y-92277743D01*
X154460300Y-92435857D01*
X154493725Y-92560599D01*
X154501223Y-92588583D01*
X154501226Y-92588590D01*
X154580275Y-92725509D01*
X154580279Y-92725514D01*
X154580280Y-92725516D01*
X154692084Y-92837320D01*
X154731359Y-92859995D01*
X154748299Y-92869775D01*
X154796515Y-92920342D01*
X154810300Y-92977163D01*
X154810300Y-93006436D01*
X154790615Y-93073475D01*
X154748301Y-93113823D01*
X154692084Y-93146280D01*
X154692081Y-93146282D01*
X154580281Y-93258082D01*
X154580275Y-93258090D01*
X154501226Y-93395009D01*
X154501223Y-93395016D01*
X154460300Y-93547743D01*
X154460300Y-93705857D01*
X154490698Y-93819302D01*
X154501223Y-93858583D01*
X154501226Y-93858590D01*
X154580275Y-93995509D01*
X154580279Y-93995514D01*
X154580280Y-93995516D01*
X154692084Y-94107320D01*
X154748299Y-94139775D01*
X154796515Y-94190342D01*
X154810300Y-94247163D01*
X154810300Y-94276436D01*
X154790615Y-94343475D01*
X154748301Y-94383823D01*
X154692084Y-94416280D01*
X154692081Y-94416282D01*
X154580281Y-94528082D01*
X154580275Y-94528090D01*
X154501226Y-94665009D01*
X154501223Y-94665016D01*
X154460300Y-94817743D01*
X154460300Y-94975857D01*
X154500478Y-95125801D01*
X154501223Y-95128583D01*
X154501226Y-95128590D01*
X154580275Y-95265509D01*
X154580279Y-95265514D01*
X154580280Y-95265516D01*
X154692084Y-95377320D01*
X154742595Y-95406482D01*
X154748299Y-95409775D01*
X154796515Y-95460342D01*
X154810300Y-95517163D01*
X154810300Y-95546436D01*
X154790615Y-95613475D01*
X154748301Y-95653823D01*
X154692084Y-95686280D01*
X154692081Y-95686282D01*
X154580281Y-95798082D01*
X154580275Y-95798090D01*
X154501226Y-95935009D01*
X154501223Y-95935016D01*
X154460300Y-96087743D01*
X154460300Y-96245857D01*
X154497796Y-96385792D01*
X154501223Y-96398583D01*
X154501226Y-96398590D01*
X154580275Y-96535509D01*
X154580279Y-96535514D01*
X154580280Y-96535516D01*
X154692084Y-96647320D01*
X154748299Y-96679775D01*
X154796515Y-96730342D01*
X154810300Y-96787163D01*
X154810300Y-96816436D01*
X154790615Y-96883475D01*
X154748301Y-96923823D01*
X154692084Y-96956280D01*
X154692081Y-96956282D01*
X154580281Y-97068082D01*
X154580275Y-97068090D01*
X154501226Y-97205009D01*
X154501223Y-97205016D01*
X154460300Y-97357743D01*
X154460300Y-97515857D01*
X154493280Y-97638938D01*
X154501223Y-97668583D01*
X154501226Y-97668590D01*
X154580275Y-97805509D01*
X154580279Y-97805514D01*
X154580280Y-97805516D01*
X154692084Y-97917320D01*
X154748299Y-97949775D01*
X154796515Y-98000342D01*
X154810300Y-98057163D01*
X154810300Y-98086436D01*
X154790615Y-98153475D01*
X154748301Y-98193823D01*
X154692084Y-98226280D01*
X154692081Y-98226282D01*
X154580281Y-98338082D01*
X154580275Y-98338090D01*
X154501226Y-98475009D01*
X154501223Y-98475016D01*
X154460300Y-98627743D01*
X154460300Y-98785857D01*
X154481965Y-98866710D01*
X154501223Y-98938583D01*
X154501226Y-98938590D01*
X154580275Y-99075509D01*
X154580279Y-99075514D01*
X154580280Y-99075516D01*
X154692084Y-99187320D01*
X154748299Y-99219775D01*
X154796515Y-99270342D01*
X154810300Y-99327163D01*
X154810300Y-100626436D01*
X154790615Y-100693475D01*
X154748301Y-100733823D01*
X154692084Y-100766280D01*
X154692081Y-100766282D01*
X154580281Y-100878082D01*
X154580275Y-100878090D01*
X154501226Y-101015009D01*
X154501223Y-101015016D01*
X154460300Y-101167743D01*
X154460300Y-101325857D01*
X154498977Y-101470199D01*
X154501223Y-101478583D01*
X154501226Y-101478590D01*
X154580275Y-101615509D01*
X154580279Y-101615514D01*
X154580280Y-101615516D01*
X154692084Y-101727320D01*
X154745318Y-101758054D01*
X154748299Y-101759775D01*
X154796515Y-101810342D01*
X154810300Y-101867163D01*
X154810300Y-103166436D01*
X154790615Y-103233475D01*
X154748301Y-103273823D01*
X154692084Y-103306280D01*
X154692081Y-103306282D01*
X154580281Y-103418082D01*
X154580275Y-103418090D01*
X154501226Y-103555009D01*
X154501223Y-103555016D01*
X154460300Y-103707743D01*
X154460300Y-103865857D01*
X154466153Y-103887698D01*
X154501223Y-104018583D01*
X154501226Y-104018590D01*
X154580275Y-104155509D01*
X154580279Y-104155514D01*
X154580280Y-104155516D01*
X154692084Y-104267320D01*
X154741194Y-104295673D01*
X154748299Y-104299775D01*
X154796515Y-104350342D01*
X154810300Y-104407163D01*
X154810300Y-105706436D01*
X154790615Y-105773475D01*
X154748301Y-105813823D01*
X154692084Y-105846280D01*
X154692081Y-105846282D01*
X154580281Y-105958082D01*
X154580275Y-105958090D01*
X154501226Y-106095009D01*
X154501223Y-106095016D01*
X154460300Y-106247743D01*
X154460300Y-106405857D01*
X154485864Y-106501261D01*
X154501223Y-106558583D01*
X154501226Y-106558590D01*
X154580275Y-106695509D01*
X154580279Y-106695514D01*
X154580280Y-106695516D01*
X154692084Y-106807320D01*
X154739971Y-106834967D01*
X154748299Y-106839775D01*
X154796515Y-106890342D01*
X154810300Y-106947163D01*
X154810300Y-106976436D01*
X154790615Y-107043475D01*
X154748301Y-107083823D01*
X154692084Y-107116280D01*
X154692081Y-107116282D01*
X154580281Y-107228082D01*
X154580275Y-107228090D01*
X154501226Y-107365009D01*
X154501223Y-107365016D01*
X154460300Y-107517743D01*
X154460300Y-107675857D01*
X154486535Y-107773765D01*
X154501223Y-107828583D01*
X154501226Y-107828590D01*
X154580275Y-107965509D01*
X154580279Y-107965514D01*
X154580280Y-107965516D01*
X154692084Y-108077320D01*
X154748299Y-108109775D01*
X154796515Y-108160342D01*
X154810300Y-108217163D01*
X154810300Y-109516436D01*
X154790615Y-109583475D01*
X154748301Y-109623823D01*
X154692084Y-109656280D01*
X154692081Y-109656282D01*
X154580281Y-109768082D01*
X154580275Y-109768090D01*
X154501226Y-109905009D01*
X154501223Y-109905016D01*
X154460300Y-110057743D01*
X154460300Y-110215856D01*
X154501223Y-110368583D01*
X154501226Y-110368590D01*
X154580275Y-110505509D01*
X154580279Y-110505514D01*
X154580280Y-110505516D01*
X154692084Y-110617320D01*
X154748299Y-110649775D01*
X154796515Y-110700342D01*
X154810300Y-110757163D01*
X154810300Y-110786436D01*
X154790615Y-110853475D01*
X154748301Y-110893823D01*
X154692084Y-110926280D01*
X154692081Y-110926282D01*
X154580281Y-111038082D01*
X154580275Y-111038090D01*
X154501226Y-111175009D01*
X154501223Y-111175016D01*
X154460300Y-111327743D01*
X154460300Y-111485856D01*
X154501223Y-111638583D01*
X154501226Y-111638590D01*
X154580275Y-111775509D01*
X154580279Y-111775514D01*
X154580280Y-111775516D01*
X154692084Y-111887320D01*
X154748299Y-111919775D01*
X154796515Y-111970342D01*
X154810300Y-112027163D01*
X154810300Y-112447300D01*
X154790615Y-112514339D01*
X154737811Y-112560094D01*
X154686300Y-112571300D01*
X151726163Y-112571300D01*
X151659124Y-112551615D01*
X151618775Y-112509299D01*
X151612720Y-112498811D01*
X151586320Y-112453084D01*
X151474516Y-112341280D01*
X151474514Y-112341279D01*
X151474509Y-112341275D01*
X151337590Y-112262226D01*
X151337586Y-112262224D01*
X151337584Y-112262223D01*
X151184857Y-112221300D01*
X151026743Y-112221300D01*
X150874016Y-112262223D01*
X150874009Y-112262226D01*
X150737090Y-112341275D01*
X150737082Y-112341281D01*
X150625281Y-112453082D01*
X150625279Y-112453085D01*
X150592825Y-112509299D01*
X150542258Y-112557515D01*
X150485437Y-112571300D01*
X150456163Y-112571300D01*
X150389124Y-112551615D01*
X150348775Y-112509299D01*
X150342720Y-112498811D01*
X150316320Y-112453084D01*
X150204516Y-112341280D01*
X150204514Y-112341279D01*
X150204509Y-112341275D01*
X150067590Y-112262226D01*
X150067586Y-112262224D01*
X150067584Y-112262223D01*
X149914857Y-112221300D01*
X149756743Y-112221300D01*
X149604016Y-112262223D01*
X149604009Y-112262226D01*
X149467090Y-112341275D01*
X149467082Y-112341281D01*
X149355281Y-112453082D01*
X149355279Y-112453085D01*
X149322825Y-112509299D01*
X149272258Y-112557515D01*
X149215437Y-112571300D01*
X149186163Y-112571300D01*
X149119124Y-112551615D01*
X149078775Y-112509299D01*
X149072720Y-112498811D01*
X149046320Y-112453084D01*
X148934516Y-112341280D01*
X148934514Y-112341279D01*
X148934509Y-112341275D01*
X148797590Y-112262226D01*
X148797586Y-112262224D01*
X148797584Y-112262223D01*
X148644857Y-112221300D01*
X148486743Y-112221300D01*
X148334016Y-112262223D01*
X148334009Y-112262226D01*
X148197090Y-112341275D01*
X148197082Y-112341281D01*
X148085281Y-112453082D01*
X148085279Y-112453085D01*
X148052825Y-112509299D01*
X148002258Y-112557515D01*
X147945437Y-112571300D01*
X147916163Y-112571300D01*
X147849124Y-112551615D01*
X147808775Y-112509299D01*
X147802720Y-112498811D01*
X147776320Y-112453084D01*
X147664516Y-112341280D01*
X147664514Y-112341279D01*
X147664509Y-112341275D01*
X147527590Y-112262226D01*
X147527586Y-112262224D01*
X147527584Y-112262223D01*
X147374857Y-112221300D01*
X147216743Y-112221300D01*
X147064016Y-112262223D01*
X147064009Y-112262226D01*
X146927090Y-112341275D01*
X146927082Y-112341281D01*
X146815281Y-112453082D01*
X146815279Y-112453085D01*
X146782825Y-112509299D01*
X146732258Y-112557515D01*
X146675437Y-112571300D01*
X146646163Y-112571300D01*
X146579124Y-112551615D01*
X146538775Y-112509299D01*
X146532720Y-112498811D01*
X146506320Y-112453084D01*
X146394516Y-112341280D01*
X146394514Y-112341279D01*
X146394509Y-112341275D01*
X146257590Y-112262226D01*
X146257586Y-112262224D01*
X146257584Y-112262223D01*
X146104857Y-112221300D01*
X145946743Y-112221300D01*
X145794016Y-112262223D01*
X145794009Y-112262226D01*
X145657090Y-112341275D01*
X145657082Y-112341281D01*
X145545281Y-112453082D01*
X145545279Y-112453085D01*
X145512825Y-112509299D01*
X145462258Y-112557515D01*
X145405437Y-112571300D01*
X145376163Y-112571300D01*
X145309124Y-112551615D01*
X145268775Y-112509299D01*
X145262720Y-112498811D01*
X145236320Y-112453084D01*
X145124516Y-112341280D01*
X145124514Y-112341279D01*
X145124509Y-112341275D01*
X144987590Y-112262226D01*
X144987586Y-112262224D01*
X144987584Y-112262223D01*
X144834857Y-112221300D01*
X144676743Y-112221300D01*
X144524016Y-112262223D01*
X144524009Y-112262226D01*
X144387090Y-112341275D01*
X144387082Y-112341281D01*
X144275281Y-112453082D01*
X144275279Y-112453085D01*
X144242825Y-112509299D01*
X144192258Y-112557515D01*
X144135437Y-112571300D01*
X144106163Y-112571300D01*
X144039124Y-112551615D01*
X143998775Y-112509299D01*
X143992720Y-112498811D01*
X143966320Y-112453084D01*
X143854516Y-112341280D01*
X143854514Y-112341279D01*
X143854509Y-112341275D01*
X143717590Y-112262226D01*
X143717586Y-112262224D01*
X143717584Y-112262223D01*
X143564857Y-112221300D01*
X143406743Y-112221300D01*
X143254016Y-112262223D01*
X143254009Y-112262226D01*
X143117090Y-112341275D01*
X143117082Y-112341281D01*
X143005281Y-112453082D01*
X143005279Y-112453085D01*
X142972825Y-112509299D01*
X142922258Y-112557515D01*
X142865437Y-112571300D01*
X142836163Y-112571300D01*
X142769124Y-112551615D01*
X142728775Y-112509299D01*
X142722720Y-112498811D01*
X142696320Y-112453084D01*
X142584516Y-112341280D01*
X142584514Y-112341279D01*
X142584509Y-112341275D01*
X142447590Y-112262226D01*
X142447586Y-112262224D01*
X142447584Y-112262223D01*
X142294857Y-112221300D01*
X142136743Y-112221300D01*
X141984016Y-112262223D01*
X141984009Y-112262226D01*
X141847090Y-112341275D01*
X141847082Y-112341281D01*
X141735281Y-112453082D01*
X141735279Y-112453085D01*
X141702825Y-112509299D01*
X141652258Y-112557515D01*
X141595437Y-112571300D01*
X141566163Y-112571300D01*
X141499124Y-112551615D01*
X141458775Y-112509299D01*
X141452720Y-112498811D01*
X141426320Y-112453084D01*
X141314516Y-112341280D01*
X141314514Y-112341279D01*
X141314509Y-112341275D01*
X141177590Y-112262226D01*
X141177586Y-112262224D01*
X141177584Y-112262223D01*
X141024857Y-112221300D01*
X140866743Y-112221300D01*
X140714016Y-112262223D01*
X140714009Y-112262226D01*
X140577090Y-112341275D01*
X140577082Y-112341281D01*
X140465281Y-112453082D01*
X140465279Y-112453085D01*
X140432825Y-112509299D01*
X140382258Y-112557515D01*
X140325437Y-112571300D01*
X140296163Y-112571300D01*
X140229124Y-112551615D01*
X140188775Y-112509299D01*
X140182720Y-112498811D01*
X140156320Y-112453084D01*
X140044516Y-112341280D01*
X140044514Y-112341279D01*
X140044509Y-112341275D01*
X139907590Y-112262226D01*
X139907586Y-112262224D01*
X139907584Y-112262223D01*
X139754857Y-112221300D01*
X139596743Y-112221300D01*
X139444016Y-112262223D01*
X139444009Y-112262226D01*
X139307090Y-112341275D01*
X139307082Y-112341281D01*
X139195281Y-112453082D01*
X139195279Y-112453085D01*
X139162825Y-112509299D01*
X139112258Y-112557515D01*
X139055437Y-112571300D01*
X139026163Y-112571300D01*
X138959124Y-112551615D01*
X138918775Y-112509299D01*
X138912720Y-112498811D01*
X138886320Y-112453084D01*
X138774516Y-112341280D01*
X138774514Y-112341279D01*
X138774509Y-112341275D01*
X138637590Y-112262226D01*
X138637586Y-112262224D01*
X138637584Y-112262223D01*
X138484857Y-112221300D01*
X138326743Y-112221300D01*
X138174016Y-112262223D01*
X138174009Y-112262226D01*
X138037090Y-112341275D01*
X138037082Y-112341281D01*
X137925281Y-112453082D01*
X137925279Y-112453085D01*
X137892825Y-112509299D01*
X137842258Y-112557515D01*
X137785437Y-112571300D01*
X137756163Y-112571300D01*
X137689124Y-112551615D01*
X137648775Y-112509299D01*
X137642720Y-112498811D01*
X137616320Y-112453084D01*
X137504516Y-112341280D01*
X137504514Y-112341279D01*
X137504509Y-112341275D01*
X137367590Y-112262226D01*
X137367586Y-112262224D01*
X137367584Y-112262223D01*
X137214857Y-112221300D01*
X137056743Y-112221300D01*
X136904016Y-112262223D01*
X136904009Y-112262226D01*
X136767090Y-112341275D01*
X136767082Y-112341281D01*
X136655281Y-112453082D01*
X136655279Y-112453085D01*
X136622825Y-112509299D01*
X136572258Y-112557515D01*
X136515437Y-112571300D01*
X135216163Y-112571300D01*
X135149124Y-112551615D01*
X135108775Y-112509299D01*
X135102720Y-112498811D01*
X135076320Y-112453084D01*
X134964516Y-112341280D01*
X134964514Y-112341279D01*
X134964509Y-112341275D01*
X134827590Y-112262226D01*
X134827586Y-112262224D01*
X134827584Y-112262223D01*
X134674857Y-112221300D01*
X134516743Y-112221300D01*
X134364016Y-112262223D01*
X134364009Y-112262226D01*
X134227090Y-112341275D01*
X134227082Y-112341281D01*
X134115281Y-112453082D01*
X134115279Y-112453085D01*
X134082825Y-112509299D01*
X134032258Y-112557515D01*
X133975437Y-112571300D01*
X133946163Y-112571300D01*
X133879124Y-112551615D01*
X133838775Y-112509299D01*
X133832720Y-112498811D01*
X133806320Y-112453084D01*
X133694516Y-112341280D01*
X133694514Y-112341279D01*
X133694509Y-112341275D01*
X133557590Y-112262226D01*
X133557586Y-112262224D01*
X133557584Y-112262223D01*
X133404857Y-112221300D01*
X133246743Y-112221300D01*
X133094016Y-112262223D01*
X133094009Y-112262226D01*
X132957090Y-112341275D01*
X132957082Y-112341281D01*
X132845281Y-112453082D01*
X132845279Y-112453085D01*
X132812825Y-112509299D01*
X132762258Y-112557515D01*
X132705437Y-112571300D01*
X132676163Y-112571300D01*
X132609124Y-112551615D01*
X132568775Y-112509299D01*
X132562720Y-112498811D01*
X132536320Y-112453084D01*
X132424516Y-112341280D01*
X132424514Y-112341279D01*
X132424509Y-112341275D01*
X132287590Y-112262226D01*
X132287586Y-112262224D01*
X132287584Y-112262223D01*
X132134857Y-112221300D01*
X131976743Y-112221300D01*
X131824016Y-112262223D01*
X131824009Y-112262226D01*
X131687090Y-112341275D01*
X131687082Y-112341281D01*
X131575281Y-112453082D01*
X131575279Y-112453085D01*
X131542825Y-112509299D01*
X131492258Y-112557515D01*
X131435437Y-112571300D01*
X131406163Y-112571300D01*
X131339124Y-112551615D01*
X131298775Y-112509299D01*
X131292720Y-112498811D01*
X131266320Y-112453084D01*
X131154516Y-112341280D01*
X131154514Y-112341279D01*
X131154509Y-112341275D01*
X131017590Y-112262226D01*
X131017586Y-112262224D01*
X131017584Y-112262223D01*
X130864857Y-112221300D01*
X130706743Y-112221300D01*
X130554016Y-112262223D01*
X130554009Y-112262226D01*
X130417090Y-112341275D01*
X130417082Y-112341281D01*
X130305281Y-112453082D01*
X130305279Y-112453085D01*
X130272825Y-112509299D01*
X130222258Y-112557515D01*
X130165437Y-112571300D01*
X130136163Y-112571300D01*
X130069124Y-112551615D01*
X130028775Y-112509299D01*
X130022720Y-112498811D01*
X129996320Y-112453084D01*
X129884516Y-112341280D01*
X129884514Y-112341279D01*
X129884509Y-112341275D01*
X129747590Y-112262226D01*
X129747586Y-112262224D01*
X129747584Y-112262223D01*
X129594857Y-112221300D01*
X129436743Y-112221300D01*
X129284016Y-112262223D01*
X129284009Y-112262226D01*
X129147090Y-112341275D01*
X129147082Y-112341281D01*
X129035281Y-112453082D01*
X129035279Y-112453085D01*
X129002825Y-112509299D01*
X128952258Y-112557515D01*
X128895437Y-112571300D01*
X128866163Y-112571300D01*
X128799124Y-112551615D01*
X128758775Y-112509299D01*
X128752720Y-112498811D01*
X128726320Y-112453084D01*
X128614516Y-112341280D01*
X128614514Y-112341279D01*
X128614509Y-112341275D01*
X128477590Y-112262226D01*
X128477586Y-112262224D01*
X128477584Y-112262223D01*
X128324857Y-112221300D01*
X128166743Y-112221300D01*
X128014016Y-112262223D01*
X128014009Y-112262226D01*
X127877090Y-112341275D01*
X127877082Y-112341281D01*
X127765281Y-112453082D01*
X127765279Y-112453085D01*
X127732825Y-112509299D01*
X127682258Y-112557515D01*
X127625437Y-112571300D01*
X127596163Y-112571300D01*
X127529124Y-112551615D01*
X127488775Y-112509299D01*
X127482720Y-112498811D01*
X127456320Y-112453084D01*
X127344516Y-112341280D01*
X127344514Y-112341279D01*
X127344509Y-112341275D01*
X127207590Y-112262226D01*
X127207586Y-112262224D01*
X127207584Y-112262223D01*
X127054857Y-112221300D01*
X126896743Y-112221300D01*
X126744016Y-112262223D01*
X126744009Y-112262226D01*
X126607090Y-112341275D01*
X126607082Y-112341281D01*
X126495281Y-112453082D01*
X126495279Y-112453085D01*
X126462825Y-112509299D01*
X126412258Y-112557515D01*
X126355437Y-112571300D01*
X125935300Y-112571300D01*
X125868261Y-112551615D01*
X125822506Y-112498811D01*
X125811300Y-112447300D01*
X125811300Y-112027163D01*
X125830985Y-111960124D01*
X125873301Y-111919775D01*
X125929516Y-111887320D01*
X126041320Y-111775516D01*
X126120377Y-111638584D01*
X126161300Y-111485857D01*
X126161300Y-111327743D01*
X126120377Y-111175016D01*
X126120373Y-111175009D01*
X126041324Y-111038090D01*
X126041318Y-111038082D01*
X125929518Y-110926282D01*
X125929516Y-110926280D01*
X125873299Y-110893823D01*
X125825084Y-110843255D01*
X125811300Y-110786436D01*
X125811300Y-110757163D01*
X125830985Y-110690124D01*
X125873301Y-110649775D01*
X125929516Y-110617320D01*
X126041320Y-110505516D01*
X126120377Y-110368584D01*
X126161300Y-110215857D01*
X126161300Y-110057743D01*
X126120377Y-109905016D01*
X126054300Y-109790566D01*
X126041324Y-109768090D01*
X126041318Y-109768082D01*
X125929518Y-109656282D01*
X125929516Y-109656280D01*
X125873299Y-109623823D01*
X125825084Y-109573255D01*
X125820559Y-109554602D01*
X129868792Y-109554602D01*
X129888233Y-109652338D01*
X129888233Y-109652339D01*
X129888234Y-109652340D01*
X129943599Y-109735201D01*
X130026460Y-109790566D01*
X130059040Y-109797046D01*
X130124198Y-109810008D01*
X130124200Y-109810008D01*
X130124202Y-109810008D01*
X130173070Y-109800287D01*
X130221940Y-109790566D01*
X130304801Y-109735201D01*
X130360166Y-109652340D01*
X130379608Y-109554602D01*
X131138792Y-109554602D01*
X131158233Y-109652338D01*
X131158233Y-109652339D01*
X131158234Y-109652340D01*
X131213599Y-109735201D01*
X131296460Y-109790566D01*
X131329040Y-109797046D01*
X131394198Y-109810008D01*
X131394200Y-109810008D01*
X131394202Y-109810008D01*
X131443070Y-109800287D01*
X131491940Y-109790566D01*
X131574801Y-109735201D01*
X131630166Y-109652340D01*
X131649608Y-109554602D01*
X132408792Y-109554602D01*
X132428233Y-109652338D01*
X132428233Y-109652339D01*
X132428234Y-109652340D01*
X132483599Y-109735201D01*
X132566460Y-109790566D01*
X132599040Y-109797046D01*
X132664198Y-109810008D01*
X132664200Y-109810008D01*
X132664202Y-109810008D01*
X132713070Y-109800287D01*
X132761940Y-109790566D01*
X132844801Y-109735201D01*
X132900166Y-109652340D01*
X132919608Y-109554602D01*
X135375992Y-109554602D01*
X135395433Y-109652338D01*
X135395433Y-109652339D01*
X135395434Y-109652340D01*
X135450799Y-109735201D01*
X135533660Y-109790566D01*
X135566240Y-109797046D01*
X135631398Y-109810008D01*
X135631400Y-109810008D01*
X135631402Y-109810008D01*
X135680270Y-109800287D01*
X135729140Y-109790566D01*
X135812001Y-109735201D01*
X135867366Y-109652340D01*
X135886808Y-109554602D01*
X137361792Y-109554602D01*
X137381233Y-109652338D01*
X137381233Y-109652339D01*
X137381234Y-109652340D01*
X137436599Y-109735201D01*
X137519460Y-109790566D01*
X137552040Y-109797046D01*
X137617198Y-109810008D01*
X137617200Y-109810008D01*
X137617202Y-109810008D01*
X137666070Y-109800287D01*
X137714940Y-109790566D01*
X137797801Y-109735201D01*
X137853166Y-109652340D01*
X137872608Y-109554602D01*
X138631792Y-109554602D01*
X138651233Y-109652338D01*
X138651233Y-109652339D01*
X138651234Y-109652340D01*
X138706599Y-109735201D01*
X138789460Y-109790566D01*
X138822040Y-109797046D01*
X138887198Y-109810008D01*
X138887200Y-109810008D01*
X138887202Y-109810008D01*
X138936070Y-109800287D01*
X138984940Y-109790566D01*
X139067801Y-109735201D01*
X139123166Y-109652340D01*
X139142608Y-109554602D01*
X139901792Y-109554602D01*
X139921233Y-109652338D01*
X139921233Y-109652339D01*
X139921234Y-109652340D01*
X139976599Y-109735201D01*
X140059460Y-109790566D01*
X140092040Y-109797046D01*
X140157198Y-109810008D01*
X140157200Y-109810008D01*
X140157202Y-109810008D01*
X140206070Y-109800287D01*
X140254940Y-109790566D01*
X140337801Y-109735201D01*
X140393166Y-109652340D01*
X140412608Y-109554602D01*
X142868992Y-109554602D01*
X142888433Y-109652338D01*
X142888433Y-109652339D01*
X142888434Y-109652340D01*
X142943799Y-109735201D01*
X143026660Y-109790566D01*
X143059240Y-109797046D01*
X143124398Y-109810008D01*
X143124400Y-109810008D01*
X143124402Y-109810008D01*
X143173270Y-109800287D01*
X143222140Y-109790566D01*
X143305001Y-109735201D01*
X143360366Y-109652340D01*
X143379808Y-109554600D01*
X143379808Y-109554597D01*
X143360366Y-109456861D01*
X143360366Y-109456860D01*
X143305001Y-109373999D01*
X143222140Y-109318634D01*
X143222139Y-109318633D01*
X143222138Y-109318633D01*
X143124402Y-109299192D01*
X143124398Y-109299192D01*
X143026661Y-109318633D01*
X142943799Y-109373999D01*
X142888433Y-109456861D01*
X142868992Y-109554597D01*
X142868992Y-109554602D01*
X140412608Y-109554602D01*
X140412608Y-109554600D01*
X140412608Y-109554597D01*
X140393166Y-109456861D01*
X140393166Y-109456860D01*
X140337801Y-109373999D01*
X140254940Y-109318634D01*
X140254939Y-109318633D01*
X140254938Y-109318633D01*
X140157202Y-109299192D01*
X140157198Y-109299192D01*
X140059461Y-109318633D01*
X139976599Y-109373999D01*
X139921233Y-109456861D01*
X139901792Y-109554597D01*
X139901792Y-109554602D01*
X139142608Y-109554602D01*
X139142608Y-109554600D01*
X139142608Y-109554597D01*
X139123166Y-109456861D01*
X139123166Y-109456860D01*
X139067801Y-109373999D01*
X138984940Y-109318634D01*
X138984939Y-109318633D01*
X138984938Y-109318633D01*
X138887202Y-109299192D01*
X138887198Y-109299192D01*
X138789461Y-109318633D01*
X138706599Y-109373999D01*
X138651233Y-109456861D01*
X138631792Y-109554597D01*
X138631792Y-109554602D01*
X137872608Y-109554602D01*
X137872608Y-109554600D01*
X137872608Y-109554597D01*
X137853166Y-109456861D01*
X137853166Y-109456860D01*
X137797801Y-109373999D01*
X137714940Y-109318634D01*
X137714939Y-109318633D01*
X137714938Y-109318633D01*
X137617202Y-109299192D01*
X137617198Y-109299192D01*
X137519461Y-109318633D01*
X137436599Y-109373999D01*
X137381233Y-109456861D01*
X137361792Y-109554597D01*
X137361792Y-109554602D01*
X135886808Y-109554602D01*
X135886808Y-109554600D01*
X135886808Y-109554597D01*
X135867366Y-109456861D01*
X135867366Y-109456860D01*
X135812001Y-109373999D01*
X135729140Y-109318634D01*
X135729139Y-109318633D01*
X135729138Y-109318633D01*
X135631402Y-109299192D01*
X135631398Y-109299192D01*
X135533661Y-109318633D01*
X135450799Y-109373999D01*
X135395433Y-109456861D01*
X135375992Y-109554597D01*
X135375992Y-109554602D01*
X132919608Y-109554602D01*
X132919608Y-109554600D01*
X132919608Y-109554597D01*
X132900166Y-109456861D01*
X132900166Y-109456860D01*
X132844801Y-109373999D01*
X132761940Y-109318634D01*
X132761939Y-109318633D01*
X132761938Y-109318633D01*
X132664202Y-109299192D01*
X132664198Y-109299192D01*
X132566461Y-109318633D01*
X132483599Y-109373999D01*
X132428233Y-109456861D01*
X132408792Y-109554597D01*
X132408792Y-109554602D01*
X131649608Y-109554602D01*
X131649608Y-109554600D01*
X131649608Y-109554597D01*
X131630166Y-109456861D01*
X131630166Y-109456860D01*
X131574801Y-109373999D01*
X131491940Y-109318634D01*
X131491939Y-109318633D01*
X131491938Y-109318633D01*
X131394202Y-109299192D01*
X131394198Y-109299192D01*
X131296461Y-109318633D01*
X131213599Y-109373999D01*
X131158233Y-109456861D01*
X131138792Y-109554597D01*
X131138792Y-109554602D01*
X130379608Y-109554602D01*
X130379608Y-109554600D01*
X130379608Y-109554597D01*
X130360166Y-109456861D01*
X130360166Y-109456860D01*
X130304801Y-109373999D01*
X130221940Y-109318634D01*
X130221939Y-109318633D01*
X130221938Y-109318633D01*
X130124202Y-109299192D01*
X130124198Y-109299192D01*
X130026461Y-109318633D01*
X129943599Y-109373999D01*
X129888233Y-109456861D01*
X129868792Y-109554597D01*
X129868792Y-109554602D01*
X125820559Y-109554602D01*
X125811300Y-109516436D01*
X125811300Y-109487163D01*
X125830985Y-109420124D01*
X125873301Y-109379775D01*
X125929516Y-109347320D01*
X126041320Y-109235516D01*
X126120377Y-109098584D01*
X126161300Y-108945857D01*
X126161300Y-108787743D01*
X126120377Y-108635016D01*
X126120373Y-108635009D01*
X126041324Y-108498090D01*
X126041318Y-108498082D01*
X125929518Y-108386282D01*
X125929516Y-108386280D01*
X125873299Y-108353823D01*
X125825084Y-108303255D01*
X125811300Y-108246436D01*
X125811300Y-108217163D01*
X125830985Y-108150124D01*
X125873301Y-108109775D01*
X125929516Y-108077320D01*
X126041320Y-107965516D01*
X126120377Y-107828584D01*
X126161300Y-107675857D01*
X126161300Y-107517743D01*
X126120377Y-107365016D01*
X126072674Y-107282391D01*
X126041324Y-107228090D01*
X126041318Y-107228082D01*
X125929518Y-107116282D01*
X125929516Y-107116280D01*
X125873299Y-107083823D01*
X125825084Y-107033255D01*
X125811300Y-106976436D01*
X125811300Y-106947163D01*
X125830985Y-106880124D01*
X125873301Y-106839775D01*
X125881629Y-106834967D01*
X125929516Y-106807320D01*
X126041320Y-106695516D01*
X126097042Y-106599002D01*
X126812792Y-106599002D01*
X126832233Y-106696738D01*
X126832233Y-106696739D01*
X126832234Y-106696740D01*
X126887599Y-106779601D01*
X126970460Y-106834966D01*
X126970462Y-106834966D01*
X126970463Y-106834967D01*
X126981743Y-106839640D01*
X126980916Y-106841634D01*
X127028671Y-106866612D01*
X127063248Y-106927326D01*
X127064190Y-106931656D01*
X127079936Y-107010816D01*
X127079936Y-107010817D01*
X127079937Y-107010818D01*
X127135302Y-107093679D01*
X127218163Y-107149044D01*
X127238824Y-107153153D01*
X127300735Y-107185537D01*
X127335310Y-107246253D01*
X127336251Y-107250579D01*
X127348233Y-107310816D01*
X127348233Y-107310817D01*
X127348234Y-107310818D01*
X127403599Y-107393679D01*
X127486460Y-107449044D01*
X127495794Y-107450900D01*
X127557705Y-107483283D01*
X127592281Y-107543997D01*
X127593223Y-107548327D01*
X127606703Y-107616095D01*
X127606703Y-107616096D01*
X127606704Y-107616097D01*
X127662069Y-107698958D01*
X127744930Y-107754323D01*
X127777510Y-107760803D01*
X127842668Y-107773765D01*
X127842670Y-107773765D01*
X127842672Y-107773765D01*
X127891540Y-107764044D01*
X127940410Y-107754323D01*
X128023271Y-107698958D01*
X128078636Y-107616097D01*
X128098078Y-107518357D01*
X128098078Y-107518354D01*
X128078636Y-107420618D01*
X128078636Y-107420617D01*
X128023271Y-107337756D01*
X127940410Y-107282391D01*
X127940409Y-107282390D01*
X127940408Y-107282390D01*
X127931072Y-107280533D01*
X127869161Y-107248148D01*
X127834587Y-107187433D01*
X127833657Y-107183164D01*
X127820166Y-107115338D01*
X127764801Y-107032477D01*
X127681940Y-106977112D01*
X127681939Y-106977111D01*
X127681938Y-106977111D01*
X127661276Y-106973001D01*
X127599365Y-106940616D01*
X127564791Y-106879900D01*
X127563860Y-106875620D01*
X127551869Y-106815338D01*
X127496504Y-106732477D01*
X127413643Y-106677112D01*
X127413641Y-106677111D01*
X127413639Y-106677110D01*
X127402360Y-106672438D01*
X127403185Y-106670444D01*
X127355423Y-106645457D01*
X127320851Y-106584740D01*
X127319912Y-106580420D01*
X127315570Y-106558590D01*
X127304166Y-106501260D01*
X127248801Y-106418399D01*
X127165940Y-106363034D01*
X127165939Y-106363033D01*
X127165938Y-106363033D01*
X127068202Y-106343592D01*
X127068198Y-106343592D01*
X126970461Y-106363033D01*
X126887599Y-106418399D01*
X126832233Y-106501261D01*
X126812792Y-106598997D01*
X126812792Y-106599002D01*
X126097042Y-106599002D01*
X126120377Y-106558584D01*
X126161300Y-106405857D01*
X126161300Y-106247743D01*
X126120377Y-106095016D01*
X126120373Y-106095009D01*
X126041324Y-105958090D01*
X126041318Y-105958082D01*
X125929518Y-105846282D01*
X125929516Y-105846280D01*
X125873299Y-105813823D01*
X125825084Y-105763255D01*
X125811300Y-105706436D01*
X125811300Y-105677163D01*
X125830985Y-105610124D01*
X125873301Y-105569775D01*
X125929516Y-105537320D01*
X126041320Y-105425516D01*
X126120377Y-105288584D01*
X126161300Y-105135857D01*
X126161300Y-104977743D01*
X126141006Y-104902003D01*
X144831708Y-104902003D01*
X144851552Y-105027300D01*
X144851552Y-105027301D01*
X144851554Y-105027304D01*
X144909150Y-105140342D01*
X144909152Y-105140344D01*
X144909154Y-105140347D01*
X144998852Y-105230045D01*
X144998854Y-105230046D01*
X144998858Y-105230050D01*
X145111896Y-105287646D01*
X145111897Y-105287646D01*
X145111899Y-105287647D01*
X145237197Y-105307492D01*
X145237200Y-105307492D01*
X145237203Y-105307492D01*
X145362500Y-105287647D01*
X145362501Y-105287647D01*
X145362502Y-105287646D01*
X145362504Y-105287646D01*
X145475542Y-105230050D01*
X145475547Y-105230045D01*
X145479719Y-105225874D01*
X145541042Y-105192389D01*
X145610734Y-105197373D01*
X145655081Y-105225874D01*
X145659252Y-105230045D01*
X145659254Y-105230046D01*
X145659258Y-105230050D01*
X145772296Y-105287646D01*
X145772297Y-105287646D01*
X145772299Y-105287647D01*
X145897597Y-105307492D01*
X145897600Y-105307492D01*
X145897603Y-105307492D01*
X146022900Y-105287647D01*
X146022901Y-105287647D01*
X146022902Y-105287646D01*
X146022904Y-105287646D01*
X146135942Y-105230050D01*
X146225650Y-105140342D01*
X146283246Y-105027304D01*
X146283246Y-105027302D01*
X146283247Y-105027301D01*
X146283247Y-105027300D01*
X146283294Y-105027002D01*
X149680792Y-105027002D01*
X149700233Y-105124738D01*
X149700233Y-105124739D01*
X149700234Y-105124740D01*
X149755599Y-105207601D01*
X149838460Y-105262966D01*
X149871040Y-105269446D01*
X149936198Y-105282408D01*
X149936200Y-105282408D01*
X149936202Y-105282408D01*
X149985070Y-105272687D01*
X150033940Y-105262966D01*
X150116801Y-105207601D01*
X150172166Y-105124740D01*
X150191548Y-105027304D01*
X150191608Y-105027002D01*
X150191608Y-105026997D01*
X150172166Y-104929261D01*
X150172166Y-104929260D01*
X150116801Y-104846399D01*
X150033940Y-104791034D01*
X150033939Y-104791033D01*
X150033938Y-104791033D01*
X149936202Y-104771592D01*
X149936198Y-104771592D01*
X149838461Y-104791033D01*
X149755599Y-104846399D01*
X149700233Y-104929261D01*
X149680792Y-105026997D01*
X149680792Y-105027002D01*
X146283294Y-105027002D01*
X146303092Y-104902003D01*
X146303092Y-104901996D01*
X146283247Y-104776699D01*
X146283247Y-104776698D01*
X146280645Y-104771592D01*
X146225650Y-104663658D01*
X146225646Y-104663654D01*
X146225645Y-104663652D01*
X146186384Y-104624391D01*
X146152899Y-104563068D01*
X146157883Y-104493376D01*
X146199755Y-104437443D01*
X146254668Y-104414237D01*
X146353100Y-104398647D01*
X146353101Y-104398647D01*
X146353102Y-104398646D01*
X146353104Y-104398646D01*
X146466142Y-104341050D01*
X146471621Y-104335571D01*
X146483019Y-104324174D01*
X146544342Y-104290689D01*
X146614034Y-104295673D01*
X146658381Y-104324174D01*
X146675252Y-104341045D01*
X146675254Y-104341046D01*
X146675258Y-104341050D01*
X146788296Y-104398646D01*
X146788297Y-104398646D01*
X146788299Y-104398647D01*
X146913597Y-104418492D01*
X146913600Y-104418492D01*
X146913603Y-104418492D01*
X147038900Y-104398647D01*
X147038901Y-104398647D01*
X147038902Y-104398646D01*
X147038904Y-104398646D01*
X147151942Y-104341050D01*
X147241650Y-104251342D01*
X147299246Y-104138304D01*
X147299246Y-104138302D01*
X147299247Y-104138301D01*
X147299247Y-104138300D01*
X147319092Y-104013003D01*
X147319092Y-104012996D01*
X147299247Y-103887699D01*
X147299247Y-103887698D01*
X147288117Y-103865855D01*
X147241650Y-103774658D01*
X147241646Y-103774654D01*
X147241645Y-103774652D01*
X147151947Y-103684954D01*
X147151944Y-103684952D01*
X147151942Y-103684950D01*
X147038904Y-103627354D01*
X147038903Y-103627353D01*
X147038900Y-103627352D01*
X146913603Y-103607508D01*
X146913597Y-103607508D01*
X146788299Y-103627352D01*
X146788298Y-103627352D01*
X146712937Y-103665751D01*
X146675258Y-103684950D01*
X146675257Y-103684951D01*
X146675252Y-103684954D01*
X146658381Y-103701826D01*
X146597058Y-103735311D01*
X146527366Y-103730327D01*
X146483019Y-103701826D01*
X146466147Y-103684954D01*
X146466144Y-103684952D01*
X146466142Y-103684950D01*
X146353104Y-103627354D01*
X146353103Y-103627353D01*
X146353100Y-103627352D01*
X146227803Y-103607508D01*
X146227797Y-103607508D01*
X146102499Y-103627352D01*
X146102498Y-103627352D01*
X146027137Y-103665751D01*
X145989458Y-103684950D01*
X145989457Y-103684951D01*
X145989452Y-103684954D01*
X145899754Y-103774652D01*
X145899751Y-103774657D01*
X145842152Y-103887698D01*
X145842152Y-103887699D01*
X145822308Y-104012996D01*
X145822308Y-104013003D01*
X145842152Y-104138300D01*
X145842152Y-104138301D01*
X145860605Y-104174517D01*
X145899750Y-104251342D01*
X145899752Y-104251344D01*
X145899754Y-104251347D01*
X145939015Y-104290608D01*
X145972500Y-104351931D01*
X145967516Y-104421623D01*
X145925644Y-104477556D01*
X145870733Y-104500762D01*
X145772298Y-104516353D01*
X145772296Y-104516353D01*
X145772296Y-104516354D01*
X145659258Y-104573950D01*
X145659257Y-104573951D01*
X145659252Y-104573954D01*
X145655081Y-104578126D01*
X145593758Y-104611611D01*
X145524066Y-104606627D01*
X145479719Y-104578126D01*
X145475547Y-104573954D01*
X145475544Y-104573952D01*
X145475542Y-104573950D01*
X145362504Y-104516354D01*
X145362503Y-104516353D01*
X145362500Y-104516352D01*
X145237203Y-104496508D01*
X145237197Y-104496508D01*
X145111899Y-104516352D01*
X145111898Y-104516352D01*
X145057985Y-104543823D01*
X144998858Y-104573950D01*
X144998857Y-104573951D01*
X144998852Y-104573954D01*
X144909154Y-104663652D01*
X144909151Y-104663657D01*
X144909150Y-104663658D01*
X144896705Y-104688082D01*
X144851552Y-104776698D01*
X144851552Y-104776699D01*
X144831708Y-104901996D01*
X144831708Y-104902003D01*
X126141006Y-104902003D01*
X126120377Y-104825016D01*
X126100757Y-104791033D01*
X126041324Y-104688090D01*
X126041318Y-104688082D01*
X125929518Y-104576282D01*
X125929516Y-104576280D01*
X125873299Y-104543823D01*
X125825084Y-104493255D01*
X125811300Y-104436436D01*
X125811300Y-104407163D01*
X125830985Y-104340124D01*
X125873301Y-104299775D01*
X125880406Y-104295673D01*
X125929516Y-104267320D01*
X126041320Y-104155516D01*
X126120377Y-104018584D01*
X126161300Y-103865857D01*
X126161300Y-103707743D01*
X126120377Y-103555016D01*
X126059942Y-103450338D01*
X126041324Y-103418090D01*
X126041318Y-103418082D01*
X125975838Y-103352602D01*
X149883992Y-103352602D01*
X149903433Y-103450338D01*
X149903433Y-103450339D01*
X149903434Y-103450340D01*
X149958799Y-103533201D01*
X150041660Y-103588566D01*
X150074240Y-103595046D01*
X150139398Y-103608008D01*
X150139400Y-103608008D01*
X150139402Y-103608008D01*
X150188270Y-103598287D01*
X150237140Y-103588566D01*
X150320001Y-103533201D01*
X150375366Y-103450340D01*
X150394808Y-103352600D01*
X150394808Y-103352597D01*
X150375366Y-103254861D01*
X150375366Y-103254860D01*
X150320001Y-103171999D01*
X150237140Y-103116634D01*
X150237139Y-103116633D01*
X150237138Y-103116633D01*
X150139402Y-103097192D01*
X150139398Y-103097192D01*
X150041661Y-103116633D01*
X149958799Y-103171999D01*
X149903433Y-103254861D01*
X149883992Y-103352597D01*
X149883992Y-103352602D01*
X125975838Y-103352602D01*
X125929518Y-103306282D01*
X125929516Y-103306280D01*
X125873299Y-103273823D01*
X125825084Y-103223255D01*
X125811300Y-103166436D01*
X125811300Y-103137163D01*
X125830985Y-103070124D01*
X125873301Y-103029775D01*
X125929516Y-102997320D01*
X126041320Y-102885516D01*
X126120377Y-102748584D01*
X126134841Y-102694602D01*
X135375992Y-102694602D01*
X135395433Y-102792338D01*
X135395433Y-102792339D01*
X135395434Y-102792340D01*
X135450799Y-102875201D01*
X135533660Y-102930566D01*
X135566240Y-102937046D01*
X135631398Y-102950008D01*
X135631400Y-102950008D01*
X135631402Y-102950008D01*
X135680270Y-102940287D01*
X135729140Y-102930566D01*
X135812001Y-102875201D01*
X135867366Y-102792340D01*
X135886808Y-102694602D01*
X142868992Y-102694602D01*
X142888433Y-102792338D01*
X142888433Y-102792339D01*
X142888434Y-102792340D01*
X142943799Y-102875201D01*
X143026660Y-102930566D01*
X143059240Y-102937046D01*
X143124398Y-102950008D01*
X143124400Y-102950008D01*
X143124402Y-102950008D01*
X143173270Y-102940287D01*
X143222140Y-102930566D01*
X143305001Y-102875201D01*
X143360366Y-102792340D01*
X143379808Y-102694600D01*
X143379808Y-102694597D01*
X143360366Y-102596861D01*
X143360366Y-102596860D01*
X143305001Y-102513999D01*
X143222140Y-102458634D01*
X143222139Y-102458633D01*
X143222138Y-102458633D01*
X143124402Y-102439192D01*
X143124398Y-102439192D01*
X143026661Y-102458633D01*
X142943799Y-102513999D01*
X142888433Y-102596861D01*
X142868992Y-102694597D01*
X142868992Y-102694602D01*
X135886808Y-102694602D01*
X135886808Y-102694600D01*
X135886808Y-102694597D01*
X135867366Y-102596861D01*
X135867366Y-102596860D01*
X135812001Y-102513999D01*
X135729140Y-102458634D01*
X135729139Y-102458633D01*
X135729138Y-102458633D01*
X135631402Y-102439192D01*
X135631398Y-102439192D01*
X135533661Y-102458633D01*
X135450799Y-102513999D01*
X135395433Y-102596861D01*
X135375992Y-102694597D01*
X135375992Y-102694602D01*
X126134841Y-102694602D01*
X126161300Y-102595857D01*
X126161300Y-102437743D01*
X126120377Y-102285016D01*
X126079931Y-102214961D01*
X126041324Y-102148090D01*
X126041318Y-102148082D01*
X125947838Y-102054602D01*
X131138792Y-102054602D01*
X131158233Y-102152338D01*
X131158233Y-102152339D01*
X131158234Y-102152340D01*
X131213599Y-102235201D01*
X131296460Y-102290566D01*
X131328604Y-102296960D01*
X131394198Y-102310008D01*
X131394200Y-102310008D01*
X131394202Y-102310008D01*
X131443070Y-102300287D01*
X131491940Y-102290566D01*
X131574801Y-102235201D01*
X131630166Y-102152340D01*
X131645919Y-102073145D01*
X131649608Y-102054602D01*
X132408792Y-102054602D01*
X132428233Y-102152338D01*
X132428233Y-102152339D01*
X132428234Y-102152340D01*
X132483599Y-102235201D01*
X132566460Y-102290566D01*
X132598604Y-102296960D01*
X132664198Y-102310008D01*
X132664200Y-102310008D01*
X132664202Y-102310008D01*
X132713070Y-102300287D01*
X132761940Y-102290566D01*
X132844801Y-102235201D01*
X132900166Y-102152340D01*
X132915919Y-102073145D01*
X132919608Y-102054602D01*
X133678792Y-102054602D01*
X133698233Y-102152338D01*
X133698233Y-102152339D01*
X133698234Y-102152340D01*
X133753599Y-102235201D01*
X133836460Y-102290566D01*
X133868604Y-102296960D01*
X133934198Y-102310008D01*
X133934200Y-102310008D01*
X133934202Y-102310008D01*
X133983070Y-102300287D01*
X134031940Y-102290566D01*
X134114801Y-102235201D01*
X134170166Y-102152340D01*
X134185919Y-102073145D01*
X134189608Y-102054602D01*
X138631792Y-102054602D01*
X138651233Y-102152338D01*
X138651233Y-102152339D01*
X138651234Y-102152340D01*
X138706599Y-102235201D01*
X138789460Y-102290566D01*
X138821604Y-102296960D01*
X138887198Y-102310008D01*
X138887200Y-102310008D01*
X138887202Y-102310008D01*
X138936070Y-102300287D01*
X138984940Y-102290566D01*
X139067801Y-102235201D01*
X139123166Y-102152340D01*
X139138919Y-102073145D01*
X139142608Y-102054602D01*
X139901792Y-102054602D01*
X139921233Y-102152338D01*
X139921233Y-102152339D01*
X139921234Y-102152340D01*
X139976599Y-102235201D01*
X140059460Y-102290566D01*
X140091604Y-102296960D01*
X140157198Y-102310008D01*
X140157200Y-102310008D01*
X140157202Y-102310008D01*
X140206070Y-102300287D01*
X140254940Y-102290566D01*
X140337801Y-102235201D01*
X140393166Y-102152340D01*
X140408919Y-102073145D01*
X140412608Y-102054602D01*
X141171792Y-102054602D01*
X141191233Y-102152338D01*
X141191233Y-102152339D01*
X141191234Y-102152340D01*
X141246599Y-102235201D01*
X141329460Y-102290566D01*
X141361604Y-102296960D01*
X141427198Y-102310008D01*
X141427200Y-102310008D01*
X141427202Y-102310008D01*
X141476070Y-102300287D01*
X141524940Y-102290566D01*
X141607801Y-102235201D01*
X141663166Y-102152340D01*
X141678919Y-102073145D01*
X141682608Y-102054602D01*
X141682608Y-102054597D01*
X141668026Y-101981295D01*
X141663166Y-101956860D01*
X141607801Y-101873999D01*
X141524940Y-101818634D01*
X141524939Y-101818633D01*
X141524938Y-101818633D01*
X141427202Y-101799192D01*
X141427198Y-101799192D01*
X141329461Y-101818633D01*
X141246599Y-101873999D01*
X141191233Y-101956861D01*
X141171792Y-102054597D01*
X141171792Y-102054602D01*
X140412608Y-102054602D01*
X140412608Y-102054597D01*
X140398026Y-101981295D01*
X140393166Y-101956860D01*
X140337801Y-101873999D01*
X140254940Y-101818634D01*
X140254939Y-101818633D01*
X140254938Y-101818633D01*
X140157202Y-101799192D01*
X140157198Y-101799192D01*
X140059461Y-101818633D01*
X139976599Y-101873999D01*
X139921233Y-101956861D01*
X139901792Y-102054597D01*
X139901792Y-102054602D01*
X139142608Y-102054602D01*
X139142608Y-102054597D01*
X139128026Y-101981295D01*
X139123166Y-101956860D01*
X139067801Y-101873999D01*
X138984940Y-101818634D01*
X138984939Y-101818633D01*
X138984938Y-101818633D01*
X138887202Y-101799192D01*
X138887198Y-101799192D01*
X138789461Y-101818633D01*
X138706599Y-101873999D01*
X138651233Y-101956861D01*
X138631792Y-102054597D01*
X138631792Y-102054602D01*
X134189608Y-102054602D01*
X134189608Y-102054597D01*
X134175026Y-101981295D01*
X134170166Y-101956860D01*
X134114801Y-101873999D01*
X134031940Y-101818634D01*
X134031939Y-101818633D01*
X134031938Y-101818633D01*
X133934202Y-101799192D01*
X133934198Y-101799192D01*
X133836461Y-101818633D01*
X133753599Y-101873999D01*
X133698233Y-101956861D01*
X133678792Y-102054597D01*
X133678792Y-102054602D01*
X132919608Y-102054602D01*
X132919608Y-102054597D01*
X132905026Y-101981295D01*
X132900166Y-101956860D01*
X132844801Y-101873999D01*
X132761940Y-101818634D01*
X132761939Y-101818633D01*
X132761938Y-101818633D01*
X132664202Y-101799192D01*
X132664198Y-101799192D01*
X132566461Y-101818633D01*
X132483599Y-101873999D01*
X132428233Y-101956861D01*
X132408792Y-102054597D01*
X132408792Y-102054602D01*
X131649608Y-102054602D01*
X131649608Y-102054597D01*
X131635026Y-101981295D01*
X131630166Y-101956860D01*
X131574801Y-101873999D01*
X131491940Y-101818634D01*
X131491939Y-101818633D01*
X131491938Y-101818633D01*
X131394202Y-101799192D01*
X131394198Y-101799192D01*
X131296461Y-101818633D01*
X131213599Y-101873999D01*
X131158233Y-101956861D01*
X131138792Y-102054597D01*
X131138792Y-102054602D01*
X125947838Y-102054602D01*
X125929518Y-102036282D01*
X125929516Y-102036280D01*
X125873299Y-102003823D01*
X125825084Y-101953255D01*
X125811300Y-101896436D01*
X125811300Y-101867163D01*
X125830985Y-101800124D01*
X125873301Y-101759775D01*
X125876282Y-101758054D01*
X125912400Y-101737202D01*
X143838792Y-101737202D01*
X143858233Y-101834938D01*
X143858233Y-101834939D01*
X143858234Y-101834940D01*
X143913599Y-101917801D01*
X143996460Y-101973166D01*
X144029040Y-101979646D01*
X144094198Y-101992608D01*
X144094200Y-101992608D01*
X144094202Y-101992608D01*
X144143070Y-101982887D01*
X144191940Y-101973166D01*
X144274801Y-101917801D01*
X144330166Y-101834940D01*
X144330166Y-101834936D01*
X144330338Y-101834525D01*
X144330952Y-101833762D01*
X144336951Y-101824785D01*
X144337754Y-101825321D01*
X144374178Y-101780120D01*
X144440471Y-101758054D01*
X144508171Y-101775332D01*
X144555783Y-101826468D01*
X144559462Y-101834525D01*
X144559633Y-101834938D01*
X144559633Y-101834939D01*
X144559634Y-101834940D01*
X144614999Y-101917801D01*
X144697860Y-101973166D01*
X144730440Y-101979646D01*
X144795598Y-101992608D01*
X144795600Y-101992608D01*
X144795602Y-101992608D01*
X144844470Y-101982887D01*
X144893340Y-101973166D01*
X144976201Y-101917801D01*
X145031566Y-101834940D01*
X145033251Y-101826468D01*
X145034483Y-101820278D01*
X145066868Y-101758367D01*
X145102587Y-101738026D01*
X145100293Y-101736372D01*
X145209613Y-101736372D01*
X145254025Y-101768398D01*
X145277717Y-101820278D01*
X145280633Y-101834938D01*
X145280633Y-101834939D01*
X145280634Y-101834940D01*
X145335999Y-101917801D01*
X145418860Y-101973166D01*
X145451440Y-101979646D01*
X145516598Y-101992608D01*
X145516600Y-101992608D01*
X145516602Y-101992608D01*
X145565470Y-101982887D01*
X145614340Y-101973166D01*
X145697201Y-101917801D01*
X145752566Y-101834940D01*
X145752567Y-101834936D01*
X145757240Y-101823657D01*
X145760906Y-101825175D01*
X145782967Y-101783002D01*
X145843682Y-101748427D01*
X145913452Y-101752166D01*
X145970124Y-101793032D01*
X145984595Y-101824719D01*
X145987160Y-101823657D01*
X145991832Y-101834936D01*
X145991833Y-101834938D01*
X145991834Y-101834940D01*
X146047199Y-101917801D01*
X146130060Y-101973166D01*
X146162640Y-101979646D01*
X146227798Y-101992608D01*
X146227800Y-101992608D01*
X146227802Y-101992608D01*
X146276670Y-101982887D01*
X146325540Y-101973166D01*
X146408401Y-101917801D01*
X146463766Y-101834940D01*
X146474614Y-101780402D01*
X146785192Y-101780402D01*
X146804633Y-101878138D01*
X146804633Y-101878139D01*
X146804634Y-101878140D01*
X146859999Y-101961001D01*
X146942860Y-102016366D01*
X146975440Y-102022846D01*
X147040598Y-102035808D01*
X147040600Y-102035808D01*
X147040602Y-102035808D01*
X147097785Y-102024433D01*
X147138340Y-102016366D01*
X147221201Y-101961001D01*
X147276566Y-101878140D01*
X147292270Y-101799192D01*
X147296008Y-101780402D01*
X147296008Y-101780397D01*
X147279829Y-101699065D01*
X147276566Y-101682660D01*
X147221201Y-101599799D01*
X147138340Y-101544434D01*
X147138339Y-101544433D01*
X147138338Y-101544433D01*
X147040602Y-101524992D01*
X147040598Y-101524992D01*
X146942861Y-101544433D01*
X146859999Y-101599799D01*
X146804633Y-101682661D01*
X146785192Y-101780397D01*
X146785192Y-101780402D01*
X146474614Y-101780402D01*
X146477002Y-101768398D01*
X146483208Y-101737202D01*
X146483208Y-101737197D01*
X146463849Y-101639878D01*
X146463766Y-101639460D01*
X146408401Y-101556599D01*
X146325540Y-101501234D01*
X146325539Y-101501233D01*
X146325538Y-101501233D01*
X146227802Y-101481792D01*
X146227798Y-101481792D01*
X146130061Y-101501233D01*
X146047199Y-101556599D01*
X145991832Y-101639463D01*
X145987160Y-101650743D01*
X145983494Y-101649224D01*
X145961425Y-101691406D01*
X145900706Y-101725975D01*
X145830937Y-101722229D01*
X145774268Y-101681358D01*
X145759802Y-101649681D01*
X145757240Y-101650743D01*
X145752567Y-101639463D01*
X145752566Y-101639461D01*
X145752566Y-101639460D01*
X145697201Y-101556599D01*
X145614340Y-101501234D01*
X145614339Y-101501233D01*
X145614338Y-101501233D01*
X145516602Y-101481792D01*
X145516598Y-101481792D01*
X145418861Y-101501233D01*
X145335999Y-101556599D01*
X145280633Y-101639461D01*
X145277717Y-101654122D01*
X145245332Y-101716033D01*
X145209613Y-101736372D01*
X145100293Y-101736372D01*
X145058175Y-101706000D01*
X145034483Y-101654122D01*
X145031649Y-101639878D01*
X145031566Y-101639460D01*
X144976201Y-101556599D01*
X144893340Y-101501234D01*
X144893339Y-101501233D01*
X144893338Y-101501233D01*
X144795602Y-101481792D01*
X144795598Y-101481792D01*
X144697861Y-101501233D01*
X144614999Y-101556599D01*
X144559633Y-101639460D01*
X144559461Y-101639878D01*
X144558840Y-101640647D01*
X144552849Y-101649615D01*
X144552046Y-101649078D01*
X144515619Y-101694281D01*
X144449325Y-101716345D01*
X144381626Y-101699065D01*
X144334016Y-101647928D01*
X144330339Y-101639878D01*
X144330166Y-101639460D01*
X144314167Y-101615516D01*
X144274801Y-101556599D01*
X144191940Y-101501234D01*
X144191939Y-101501233D01*
X144191938Y-101501233D01*
X144094202Y-101481792D01*
X144094198Y-101481792D01*
X143996461Y-101501233D01*
X143913599Y-101556599D01*
X143858233Y-101639461D01*
X143838792Y-101737197D01*
X143838792Y-101737202D01*
X125912400Y-101737202D01*
X125929516Y-101727320D01*
X126041320Y-101615516D01*
X126120377Y-101478584D01*
X126161300Y-101325857D01*
X126161300Y-101167743D01*
X126120377Y-101015016D01*
X126051366Y-100895484D01*
X126041324Y-100878090D01*
X126041318Y-100878082D01*
X125950438Y-100787202D01*
X147473182Y-100787202D01*
X147492623Y-100884938D01*
X147492623Y-100884939D01*
X147492624Y-100884940D01*
X147547989Y-100967801D01*
X147630850Y-101023166D01*
X147646065Y-101026192D01*
X147682744Y-101033489D01*
X147744655Y-101065874D01*
X147779229Y-101126590D01*
X147780170Y-101130914D01*
X147796085Y-101210922D01*
X147851452Y-101293786D01*
X147899492Y-101325885D01*
X147944298Y-101379497D01*
X147953005Y-101448822D01*
X147933705Y-101497876D01*
X147896833Y-101553059D01*
X147896833Y-101553060D01*
X147877392Y-101650797D01*
X147877392Y-101650802D01*
X147896833Y-101748538D01*
X147896833Y-101748539D01*
X147896834Y-101748540D01*
X147952199Y-101831401D01*
X148035060Y-101886766D01*
X148067640Y-101893246D01*
X148132798Y-101906208D01*
X148132800Y-101906208D01*
X148132802Y-101906208D01*
X148230536Y-101886767D01*
X148230536Y-101886766D01*
X148230540Y-101886766D01*
X148280219Y-101853572D01*
X148346890Y-101832696D01*
X148414271Y-101851180D01*
X148417964Y-101853553D01*
X148465227Y-101885133D01*
X148562967Y-101904575D01*
X148562970Y-101904574D01*
X148572948Y-101906559D01*
X148634860Y-101938944D01*
X148669434Y-101999660D01*
X148665695Y-102069429D01*
X148651861Y-102097067D01*
X148648838Y-102101591D01*
X148614930Y-102152340D01*
X148601249Y-102172815D01*
X148599804Y-102171849D01*
X148565061Y-102214961D01*
X148498766Y-102237024D01*
X148431067Y-102219743D01*
X148425454Y-102216206D01*
X148422301Y-102214099D01*
X148339440Y-102158734D01*
X148339439Y-102158733D01*
X148339438Y-102158733D01*
X148241702Y-102139292D01*
X148241698Y-102139292D01*
X148143961Y-102158733D01*
X148061099Y-102214099D01*
X148005733Y-102296961D01*
X147986292Y-102394697D01*
X147986292Y-102394702D01*
X148005733Y-102492438D01*
X148005733Y-102492439D01*
X148005734Y-102492440D01*
X148061099Y-102575301D01*
X148143960Y-102630666D01*
X148176540Y-102637146D01*
X148241698Y-102650108D01*
X148241700Y-102650108D01*
X148241702Y-102650108D01*
X148290570Y-102640387D01*
X148339440Y-102630666D01*
X148422301Y-102575301D01*
X148477666Y-102492440D01*
X148477666Y-102492439D01*
X148484451Y-102482285D01*
X148485896Y-102483250D01*
X148520625Y-102440147D01*
X148586917Y-102418075D01*
X148654618Y-102435348D01*
X148660245Y-102438893D01*
X148663398Y-102440999D01*
X148663399Y-102441001D01*
X148746260Y-102496366D01*
X148778840Y-102502846D01*
X148843998Y-102515808D01*
X148844000Y-102515808D01*
X148844002Y-102515808D01*
X148897470Y-102505172D01*
X148941740Y-102496366D01*
X148951640Y-102489750D01*
X149018318Y-102468873D01*
X149085698Y-102487358D01*
X149108212Y-102505172D01*
X149112191Y-102509151D01*
X149112192Y-102509152D01*
X149112194Y-102509154D01*
X149182388Y-102556055D01*
X149227192Y-102609666D01*
X149235900Y-102678991D01*
X149205746Y-102742019D01*
X149182393Y-102762256D01*
X149173800Y-102767998D01*
X149173799Y-102767999D01*
X149157535Y-102792340D01*
X149118433Y-102850861D01*
X149098992Y-102948597D01*
X149098992Y-102948602D01*
X149118433Y-103046338D01*
X149118433Y-103046339D01*
X149118434Y-103046340D01*
X149173799Y-103129201D01*
X149256660Y-103184566D01*
X149289240Y-103191046D01*
X149354398Y-103204008D01*
X149354400Y-103204008D01*
X149354402Y-103204008D01*
X149403270Y-103194287D01*
X149452140Y-103184566D01*
X149535001Y-103129201D01*
X149590366Y-103046340D01*
X149609808Y-102948600D01*
X149609808Y-102948597D01*
X149590366Y-102850861D01*
X149590366Y-102850860D01*
X149535001Y-102767999D01*
X149464806Y-102721097D01*
X149420001Y-102667485D01*
X149411294Y-102598161D01*
X149441448Y-102535133D01*
X149464808Y-102514892D01*
X149473396Y-102509154D01*
X149528761Y-102426293D01*
X149548203Y-102328553D01*
X149548203Y-102328550D01*
X149529634Y-102235201D01*
X149528761Y-102230813D01*
X149473396Y-102147952D01*
X149390535Y-102092587D01*
X149390534Y-102092586D01*
X149390533Y-102092586D01*
X149292797Y-102073145D01*
X149292793Y-102073145D01*
X149195055Y-102092586D01*
X149195053Y-102092587D01*
X149185148Y-102099205D01*
X149118469Y-102120079D01*
X149051090Y-102101591D01*
X149028582Y-102083780D01*
X149024603Y-102079801D01*
X149024601Y-102079800D01*
X149024601Y-102079799D01*
X148941740Y-102024434D01*
X148941739Y-102024433D01*
X148941738Y-102024433D01*
X148834017Y-102003006D01*
X148772106Y-101970621D01*
X148737532Y-101909906D01*
X148741271Y-101840136D01*
X148755102Y-101812505D01*
X148798933Y-101746907D01*
X148811972Y-101681358D01*
X148818375Y-101649169D01*
X148818375Y-101649164D01*
X148799258Y-101553060D01*
X148798933Y-101551427D01*
X148743568Y-101468566D01*
X148660707Y-101413201D01*
X148660706Y-101413200D01*
X148660705Y-101413200D01*
X148574974Y-101396147D01*
X148513064Y-101363762D01*
X148478489Y-101303046D01*
X148482229Y-101233277D01*
X148523096Y-101176605D01*
X148530265Y-101171435D01*
X148580903Y-101137601D01*
X148636268Y-101054740D01*
X148655710Y-100957000D01*
X148655710Y-100956997D01*
X148636268Y-100859261D01*
X148636268Y-100859260D01*
X148580903Y-100776399D01*
X148498042Y-100721034D01*
X148498041Y-100721033D01*
X148498040Y-100721033D01*
X148400304Y-100701592D01*
X148400300Y-100701592D01*
X148302563Y-100721033D01*
X148219699Y-100776400D01*
X148202728Y-100801800D01*
X148149116Y-100846604D01*
X148079791Y-100855311D01*
X148016763Y-100825156D01*
X147980045Y-100765712D01*
X147978016Y-100757131D01*
X147964556Y-100689460D01*
X147909191Y-100606599D01*
X147826330Y-100551234D01*
X147826329Y-100551233D01*
X147826328Y-100551233D01*
X147728592Y-100531792D01*
X147728588Y-100531792D01*
X147630851Y-100551233D01*
X147547989Y-100606599D01*
X147492623Y-100689461D01*
X147473182Y-100787197D01*
X147473182Y-100787202D01*
X125950438Y-100787202D01*
X125929518Y-100766282D01*
X125929516Y-100766280D01*
X125873299Y-100733823D01*
X125825084Y-100683255D01*
X125811300Y-100626436D01*
X125811300Y-100597163D01*
X125830985Y-100530124D01*
X125873301Y-100489775D01*
X125929516Y-100457320D01*
X126041320Y-100345516D01*
X126120377Y-100208584D01*
X126161300Y-100055857D01*
X126161300Y-99897743D01*
X126120377Y-99745016D01*
X126112055Y-99730602D01*
X129938992Y-99730602D01*
X129958433Y-99828338D01*
X129958433Y-99828339D01*
X129958434Y-99828340D01*
X130013799Y-99911201D01*
X130096660Y-99966566D01*
X130129240Y-99973046D01*
X130194398Y-99986008D01*
X130194400Y-99986008D01*
X130194402Y-99986008D01*
X130243270Y-99976287D01*
X130292140Y-99966566D01*
X130375001Y-99911201D01*
X130430366Y-99828340D01*
X130445062Y-99754460D01*
X130449808Y-99730602D01*
X131538992Y-99730602D01*
X131558433Y-99828338D01*
X131558433Y-99828339D01*
X131558434Y-99828340D01*
X131613799Y-99911201D01*
X131696660Y-99966566D01*
X131729240Y-99973046D01*
X131794398Y-99986008D01*
X131794400Y-99986008D01*
X131794402Y-99986008D01*
X131843270Y-99976287D01*
X131892140Y-99966566D01*
X131975001Y-99911201D01*
X131988364Y-99891202D01*
X140965192Y-99891202D01*
X140984633Y-99988938D01*
X140984633Y-99988939D01*
X140984634Y-99988940D01*
X141039999Y-100071801D01*
X141122860Y-100127166D01*
X141155440Y-100133646D01*
X141220598Y-100146608D01*
X141220600Y-100146608D01*
X141220602Y-100146608D01*
X141269470Y-100136887D01*
X141318340Y-100127166D01*
X141401201Y-100071801D01*
X141442498Y-100009993D01*
X141496109Y-99965190D01*
X141565434Y-99956482D01*
X141628462Y-99986636D01*
X141648699Y-100009991D01*
X141689999Y-100071801D01*
X141772860Y-100127166D01*
X141805440Y-100133646D01*
X141870598Y-100146608D01*
X141870600Y-100146608D01*
X141870602Y-100146608D01*
X141919470Y-100136887D01*
X141968340Y-100127166D01*
X142051201Y-100071801D01*
X142092498Y-100009993D01*
X142146109Y-99965190D01*
X142215434Y-99956482D01*
X142278462Y-99986636D01*
X142298699Y-100009991D01*
X142339999Y-100071801D01*
X142422860Y-100127166D01*
X142455440Y-100133646D01*
X142520598Y-100146608D01*
X142520600Y-100146608D01*
X142520602Y-100146608D01*
X142569470Y-100136887D01*
X142618340Y-100127166D01*
X142701201Y-100071801D01*
X142742498Y-100009993D01*
X142796109Y-99965190D01*
X142865434Y-99956482D01*
X142928462Y-99986636D01*
X142948699Y-100009991D01*
X142989999Y-100071801D01*
X143072860Y-100127166D01*
X143105440Y-100133646D01*
X143170598Y-100146608D01*
X143170600Y-100146608D01*
X143170602Y-100146608D01*
X143219470Y-100136887D01*
X143268340Y-100127166D01*
X143351201Y-100071801D01*
X143392498Y-100009993D01*
X143446109Y-99965190D01*
X143515434Y-99956482D01*
X143578462Y-99986636D01*
X143598699Y-100009991D01*
X143639999Y-100071801D01*
X143722860Y-100127166D01*
X143755440Y-100133646D01*
X143820598Y-100146608D01*
X143820600Y-100146608D01*
X143820602Y-100146608D01*
X143869470Y-100136887D01*
X143918340Y-100127166D01*
X144001201Y-100071801D01*
X144042498Y-100009993D01*
X144096109Y-99965190D01*
X144165434Y-99956482D01*
X144228462Y-99986636D01*
X144248699Y-100009991D01*
X144289999Y-100071801D01*
X144372860Y-100127166D01*
X144405440Y-100133646D01*
X144470598Y-100146608D01*
X144470600Y-100146608D01*
X144470602Y-100146608D01*
X144519470Y-100136887D01*
X144568340Y-100127166D01*
X144651201Y-100071801D01*
X144692498Y-100009993D01*
X144746109Y-99965190D01*
X144815434Y-99956482D01*
X144878462Y-99986636D01*
X144898699Y-100009991D01*
X144939999Y-100071801D01*
X145022860Y-100127166D01*
X145055440Y-100133646D01*
X145120598Y-100146608D01*
X145120600Y-100146608D01*
X145120602Y-100146608D01*
X145169470Y-100136887D01*
X145218340Y-100127166D01*
X145301201Y-100071801D01*
X145342498Y-100009993D01*
X145396109Y-99965190D01*
X145465434Y-99956482D01*
X145528462Y-99986636D01*
X145548699Y-100009991D01*
X145589999Y-100071801D01*
X145672860Y-100127166D01*
X145705440Y-100133646D01*
X145770598Y-100146608D01*
X145770600Y-100146608D01*
X145770602Y-100146608D01*
X145819470Y-100136887D01*
X145868340Y-100127166D01*
X145951201Y-100071801D01*
X145992498Y-100009993D01*
X146046109Y-99965190D01*
X146115434Y-99956482D01*
X146178462Y-99986636D01*
X146198699Y-100009991D01*
X146239999Y-100071801D01*
X146322860Y-100127166D01*
X146355440Y-100133646D01*
X146420598Y-100146608D01*
X146420600Y-100146608D01*
X146420602Y-100146608D01*
X146469470Y-100136887D01*
X146518340Y-100127166D01*
X146601201Y-100071801D01*
X146642498Y-100009993D01*
X146696109Y-99965190D01*
X146765434Y-99956482D01*
X146828462Y-99986636D01*
X146848699Y-100009991D01*
X146889999Y-100071801D01*
X146972860Y-100127166D01*
X147005440Y-100133646D01*
X147070598Y-100146608D01*
X147070600Y-100146608D01*
X147070602Y-100146608D01*
X147119470Y-100136887D01*
X147168340Y-100127166D01*
X147251201Y-100071801D01*
X147292498Y-100009993D01*
X147346109Y-99965190D01*
X147415434Y-99956482D01*
X147478462Y-99986636D01*
X147498699Y-100009991D01*
X147539999Y-100071801D01*
X147622860Y-100127166D01*
X147655440Y-100133646D01*
X147720598Y-100146608D01*
X147720600Y-100146608D01*
X147720602Y-100146608D01*
X147769470Y-100136887D01*
X147818340Y-100127166D01*
X147901201Y-100071801D01*
X147942498Y-100009993D01*
X147996109Y-99965190D01*
X148065434Y-99956482D01*
X148128462Y-99986636D01*
X148148699Y-100009991D01*
X148189999Y-100071801D01*
X148272860Y-100127166D01*
X148305440Y-100133646D01*
X148370598Y-100146608D01*
X148370600Y-100146608D01*
X148370602Y-100146608D01*
X148419470Y-100136887D01*
X148468340Y-100127166D01*
X148551201Y-100071801D01*
X148592498Y-100009993D01*
X148646109Y-99965190D01*
X148715434Y-99956482D01*
X148778462Y-99986636D01*
X148798699Y-100009991D01*
X148839999Y-100071801D01*
X148922860Y-100127166D01*
X148955440Y-100133646D01*
X149020598Y-100146608D01*
X149020600Y-100146608D01*
X149020602Y-100146608D01*
X149069470Y-100136887D01*
X149118340Y-100127166D01*
X149201201Y-100071801D01*
X149242498Y-100009993D01*
X149296109Y-99965190D01*
X149365434Y-99956482D01*
X149428462Y-99986636D01*
X149448699Y-100009991D01*
X149489999Y-100071801D01*
X149572860Y-100127166D01*
X149605440Y-100133646D01*
X149670598Y-100146608D01*
X149670600Y-100146608D01*
X149670602Y-100146608D01*
X149719470Y-100136887D01*
X149768340Y-100127166D01*
X149851201Y-100071801D01*
X149892498Y-100009993D01*
X149946109Y-99965190D01*
X150015434Y-99956482D01*
X150078462Y-99986636D01*
X150098699Y-100009991D01*
X150139999Y-100071801D01*
X150222860Y-100127166D01*
X150255440Y-100133646D01*
X150320598Y-100146608D01*
X150320600Y-100146608D01*
X150320602Y-100146608D01*
X150369470Y-100136887D01*
X150418340Y-100127166D01*
X150501201Y-100071801D01*
X150556566Y-99988940D01*
X150566287Y-99940070D01*
X150576008Y-99891202D01*
X150576008Y-99891197D01*
X150568251Y-99852202D01*
X151941392Y-99852202D01*
X151960833Y-99949938D01*
X151960833Y-99949939D01*
X151960834Y-99949940D01*
X152016199Y-100032801D01*
X152099060Y-100088166D01*
X152131640Y-100094646D01*
X152196798Y-100107608D01*
X152196800Y-100107608D01*
X152196802Y-100107608D01*
X152245670Y-100097887D01*
X152294540Y-100088166D01*
X152377401Y-100032801D01*
X152432766Y-99949940D01*
X152452208Y-99852200D01*
X152452208Y-99852197D01*
X152437626Y-99778895D01*
X152432766Y-99754460D01*
X152377401Y-99671599D01*
X152344777Y-99649800D01*
X152299974Y-99596191D01*
X152291265Y-99526866D01*
X152321419Y-99463839D01*
X152344774Y-99443601D01*
X152377401Y-99421801D01*
X152432766Y-99338940D01*
X152448444Y-99260124D01*
X152452208Y-99241202D01*
X152452208Y-99241197D01*
X152432766Y-99143461D01*
X152432766Y-99143460D01*
X152410467Y-99110086D01*
X152389590Y-99043412D01*
X152408074Y-98976031D01*
X152410445Y-98972342D01*
X152432766Y-98938937D01*
X152452208Y-98841197D01*
X152452208Y-98841194D01*
X152432766Y-98743458D01*
X152432766Y-98743457D01*
X152410467Y-98710083D01*
X152389590Y-98643409D01*
X152408074Y-98576028D01*
X152410445Y-98572339D01*
X152432766Y-98538934D01*
X152452208Y-98441194D01*
X152452208Y-98441191D01*
X152435109Y-98355234D01*
X152432766Y-98343454D01*
X152377401Y-98260593D01*
X152294540Y-98205228D01*
X152294539Y-98205227D01*
X152294538Y-98205227D01*
X152196802Y-98185786D01*
X152196798Y-98185786D01*
X152099061Y-98205227D01*
X152016199Y-98260593D01*
X151960833Y-98343455D01*
X151941392Y-98441191D01*
X151941392Y-98441196D01*
X151960833Y-98538933D01*
X151960833Y-98538934D01*
X151983131Y-98572306D01*
X152004008Y-98638984D01*
X151985522Y-98706364D01*
X151983132Y-98710083D01*
X151960833Y-98743457D01*
X151941392Y-98841194D01*
X151941392Y-98841199D01*
X151960833Y-98938936D01*
X151960833Y-98938937D01*
X151983131Y-98972309D01*
X152004008Y-99038987D01*
X151985522Y-99106367D01*
X151983132Y-99110086D01*
X151960833Y-99143460D01*
X151941392Y-99241197D01*
X151941392Y-99241202D01*
X151960833Y-99338938D01*
X151960833Y-99338939D01*
X151960834Y-99338940D01*
X152010489Y-99413255D01*
X152016199Y-99421801D01*
X152048821Y-99443598D01*
X152093626Y-99497210D01*
X152102333Y-99566535D01*
X152072179Y-99629562D01*
X152048821Y-99649802D01*
X152016199Y-99671598D01*
X151960833Y-99754461D01*
X151941392Y-99852197D01*
X151941392Y-99852202D01*
X150568251Y-99852202D01*
X150556566Y-99793461D01*
X150556566Y-99793460D01*
X150501201Y-99710599D01*
X150439393Y-99669301D01*
X150394590Y-99615691D01*
X150385882Y-99546366D01*
X150416036Y-99483338D01*
X150439391Y-99463100D01*
X150501201Y-99421801D01*
X150556566Y-99338940D01*
X150572244Y-99260124D01*
X150576008Y-99241202D01*
X150576008Y-99241197D01*
X150556566Y-99143461D01*
X150556566Y-99143460D01*
X150501201Y-99060599D01*
X150439393Y-99019301D01*
X150394590Y-98965691D01*
X150385882Y-98896366D01*
X150416036Y-98833338D01*
X150439391Y-98813100D01*
X150501201Y-98771801D01*
X150556566Y-98688940D01*
X150576008Y-98591200D01*
X150576008Y-98591197D01*
X150556566Y-98493461D01*
X150556566Y-98493460D01*
X150501201Y-98410599D01*
X150439393Y-98369301D01*
X150394590Y-98315691D01*
X150385882Y-98246366D01*
X150416036Y-98183338D01*
X150439391Y-98163100D01*
X150501201Y-98121801D01*
X150556566Y-98038940D01*
X150567182Y-97985571D01*
X150576008Y-97941202D01*
X150576008Y-97941197D01*
X150556566Y-97843461D01*
X150556566Y-97843460D01*
X150501201Y-97760599D01*
X150439393Y-97719301D01*
X150394590Y-97665691D01*
X150385882Y-97596366D01*
X150416036Y-97533338D01*
X150439391Y-97513100D01*
X150501201Y-97471801D01*
X150556566Y-97388940D01*
X150566287Y-97340070D01*
X150576008Y-97291202D01*
X150576008Y-97291197D01*
X150556566Y-97193461D01*
X150556566Y-97193460D01*
X150501201Y-97110599D01*
X150439393Y-97069301D01*
X150394590Y-97015691D01*
X150385882Y-96946366D01*
X150416036Y-96883338D01*
X150439391Y-96863100D01*
X150501201Y-96821801D01*
X150556566Y-96738940D01*
X150574791Y-96647318D01*
X150576008Y-96641202D01*
X150576008Y-96641197D01*
X150556566Y-96543461D01*
X150556566Y-96543460D01*
X150501201Y-96460599D01*
X150439393Y-96419301D01*
X150394590Y-96365691D01*
X150388374Y-96316202D01*
X151865192Y-96316202D01*
X151884633Y-96413938D01*
X151884633Y-96413939D01*
X151884634Y-96413940D01*
X151939999Y-96496801D01*
X152022860Y-96552166D01*
X152055440Y-96558646D01*
X152120598Y-96571608D01*
X152120600Y-96571608D01*
X152120602Y-96571608D01*
X152175945Y-96560599D01*
X152218340Y-96552166D01*
X152301201Y-96496801D01*
X152356566Y-96413940D01*
X152376008Y-96316200D01*
X152376008Y-96316197D01*
X152356566Y-96218461D01*
X152356566Y-96218460D01*
X152301201Y-96135599D01*
X152218340Y-96080234D01*
X152218339Y-96080233D01*
X152218338Y-96080233D01*
X152120602Y-96060792D01*
X152120598Y-96060792D01*
X152022861Y-96080233D01*
X151939999Y-96135599D01*
X151884633Y-96218461D01*
X151865192Y-96316197D01*
X151865192Y-96316202D01*
X150388374Y-96316202D01*
X150385882Y-96296366D01*
X150416036Y-96233338D01*
X150439391Y-96213100D01*
X150501201Y-96171801D01*
X150556566Y-96088940D01*
X150576008Y-95991200D01*
X150576008Y-95991197D01*
X150556566Y-95893461D01*
X150556566Y-95893460D01*
X150501201Y-95810599D01*
X150439393Y-95769301D01*
X150394590Y-95715691D01*
X150385882Y-95646366D01*
X150416036Y-95583338D01*
X150439391Y-95563100D01*
X150467076Y-95544602D01*
X151865192Y-95544602D01*
X151884633Y-95642338D01*
X151884633Y-95642339D01*
X151884634Y-95642340D01*
X151939999Y-95725201D01*
X152022860Y-95780566D01*
X152055440Y-95787046D01*
X152120598Y-95800008D01*
X152120600Y-95800008D01*
X152120602Y-95800008D01*
X152169470Y-95790287D01*
X152218340Y-95780566D01*
X152301201Y-95725201D01*
X152356566Y-95642340D01*
X152371355Y-95567994D01*
X152376008Y-95544602D01*
X152376008Y-95544597D01*
X152356566Y-95446861D01*
X152356566Y-95446860D01*
X152301201Y-95363999D01*
X152218340Y-95308634D01*
X152218339Y-95308633D01*
X152218338Y-95308633D01*
X152120602Y-95289192D01*
X152120598Y-95289192D01*
X152022861Y-95308633D01*
X151939999Y-95363999D01*
X151884633Y-95446861D01*
X151865192Y-95544597D01*
X151865192Y-95544602D01*
X150467076Y-95544602D01*
X150501201Y-95521801D01*
X150556566Y-95438940D01*
X150572425Y-95359212D01*
X150576008Y-95341202D01*
X150576008Y-95341197D01*
X150556566Y-95243461D01*
X150556566Y-95243460D01*
X150501201Y-95160599D01*
X150439393Y-95119301D01*
X150394590Y-95065691D01*
X150389027Y-95021402D01*
X151179392Y-95021402D01*
X151198833Y-95119138D01*
X151198833Y-95119139D01*
X151198834Y-95119140D01*
X151254199Y-95202001D01*
X151337060Y-95257366D01*
X151369640Y-95263846D01*
X151434798Y-95276808D01*
X151434800Y-95276808D01*
X151434802Y-95276808D01*
X151488541Y-95266118D01*
X151532540Y-95257366D01*
X151615401Y-95202001D01*
X151670766Y-95119140D01*
X151685830Y-95043408D01*
X151690208Y-95021402D01*
X151690208Y-95021397D01*
X151670766Y-94923661D01*
X151670766Y-94923660D01*
X151615401Y-94840799D01*
X151532540Y-94785434D01*
X151532539Y-94785433D01*
X151532538Y-94785433D01*
X151434802Y-94765992D01*
X151434798Y-94765992D01*
X151337061Y-94785433D01*
X151254199Y-94840799D01*
X151198833Y-94923661D01*
X151179392Y-95021397D01*
X151179392Y-95021402D01*
X150389027Y-95021402D01*
X150385882Y-94996366D01*
X150416036Y-94933338D01*
X150439391Y-94913100D01*
X150501201Y-94871801D01*
X150556566Y-94788940D01*
X150569596Y-94723435D01*
X150576008Y-94691202D01*
X150576008Y-94691197D01*
X150556566Y-94593461D01*
X150556566Y-94593460D01*
X150501201Y-94510599D01*
X150439393Y-94469301D01*
X150394590Y-94415691D01*
X150385882Y-94346366D01*
X150416036Y-94283338D01*
X150439391Y-94263100D01*
X150501201Y-94221801D01*
X150556566Y-94138940D01*
X150559895Y-94122202D01*
X151865192Y-94122202D01*
X151884633Y-94219938D01*
X151884633Y-94219939D01*
X151884634Y-94219940D01*
X151939999Y-94302801D01*
X152022860Y-94358166D01*
X152055440Y-94364646D01*
X152120598Y-94377608D01*
X152120600Y-94377608D01*
X152120602Y-94377608D01*
X152184682Y-94364861D01*
X152218340Y-94358166D01*
X152301201Y-94302801D01*
X152356566Y-94219940D01*
X152372679Y-94138938D01*
X152376008Y-94122202D01*
X152376008Y-94122197D01*
X152356566Y-94024461D01*
X152356566Y-94024460D01*
X152301201Y-93941599D01*
X152218340Y-93886234D01*
X152218339Y-93886233D01*
X152218338Y-93886233D01*
X152120602Y-93866792D01*
X152120598Y-93866792D01*
X152022861Y-93886233D01*
X151939999Y-93941599D01*
X151884633Y-94024461D01*
X151865192Y-94122197D01*
X151865192Y-94122202D01*
X150559895Y-94122202D01*
X150576008Y-94041200D01*
X150576008Y-94041197D01*
X150556566Y-93943461D01*
X150556566Y-93943460D01*
X150501201Y-93860599D01*
X150439393Y-93819301D01*
X150394590Y-93765691D01*
X150385882Y-93696366D01*
X150416036Y-93633338D01*
X150439391Y-93613100D01*
X150501201Y-93571801D01*
X150556566Y-93488940D01*
X150575249Y-93395016D01*
X150576008Y-93391202D01*
X150576008Y-93391197D01*
X150556566Y-93293461D01*
X150556566Y-93293460D01*
X150501201Y-93210599D01*
X150439393Y-93169301D01*
X150394590Y-93115691D01*
X150385882Y-93046366D01*
X150416036Y-92983338D01*
X150439391Y-92963100D01*
X150501201Y-92921801D01*
X150556566Y-92838940D01*
X150576008Y-92741200D01*
X150576008Y-92741197D01*
X150567774Y-92699802D01*
X151865192Y-92699802D01*
X151884633Y-92797538D01*
X151884633Y-92797539D01*
X151884634Y-92797540D01*
X151939999Y-92880401D01*
X152022860Y-92935766D01*
X152055440Y-92942246D01*
X152120598Y-92955208D01*
X152120600Y-92955208D01*
X152120602Y-92955208D01*
X152169470Y-92945487D01*
X152218340Y-92935766D01*
X152301201Y-92880401D01*
X152356566Y-92797540D01*
X152367773Y-92741200D01*
X152376008Y-92699802D01*
X152376008Y-92699797D01*
X152356566Y-92602061D01*
X152356566Y-92602060D01*
X152301201Y-92519199D01*
X152218340Y-92463834D01*
X152218339Y-92463833D01*
X152218338Y-92463833D01*
X152120602Y-92444392D01*
X152120598Y-92444392D01*
X152022861Y-92463833D01*
X151939999Y-92519199D01*
X151884633Y-92602061D01*
X151865192Y-92699797D01*
X151865192Y-92699802D01*
X150567774Y-92699802D01*
X150556566Y-92643461D01*
X150556566Y-92643460D01*
X150501201Y-92560599D01*
X150439393Y-92519301D01*
X150394590Y-92465691D01*
X150385882Y-92396366D01*
X150416036Y-92333338D01*
X150439391Y-92313100D01*
X150501201Y-92271801D01*
X150556566Y-92188940D01*
X150566287Y-92140070D01*
X150576008Y-92091202D01*
X150576008Y-92091197D01*
X150556566Y-91993461D01*
X150556566Y-91993460D01*
X150501201Y-91910599D01*
X150418340Y-91855234D01*
X150418339Y-91855233D01*
X150418338Y-91855233D01*
X150320602Y-91835792D01*
X150320598Y-91835792D01*
X150222861Y-91855233D01*
X150139998Y-91910599D01*
X150098702Y-91972405D01*
X150045090Y-92017210D01*
X149975765Y-92025917D01*
X149912738Y-91995763D01*
X149892498Y-91972405D01*
X149851201Y-91910599D01*
X149851200Y-91910598D01*
X149789393Y-91869301D01*
X149744590Y-91815691D01*
X149735882Y-91746366D01*
X149766036Y-91683338D01*
X149789391Y-91663100D01*
X149851201Y-91621801D01*
X149906566Y-91538940D01*
X149923160Y-91455517D01*
X149926008Y-91441202D01*
X149926008Y-91441197D01*
X149906566Y-91343461D01*
X149906566Y-91343460D01*
X149862428Y-91277402D01*
X151865192Y-91277402D01*
X151884633Y-91375138D01*
X151884633Y-91375139D01*
X151884634Y-91375140D01*
X151939999Y-91458001D01*
X152022860Y-91513366D01*
X152032030Y-91515190D01*
X152120598Y-91532808D01*
X152120600Y-91532808D01*
X152120602Y-91532808D01*
X152169470Y-91523087D01*
X152218340Y-91513366D01*
X152301201Y-91458001D01*
X152356566Y-91375140D01*
X152376008Y-91277400D01*
X152376008Y-91277397D01*
X152356566Y-91179661D01*
X152356566Y-91179660D01*
X152301201Y-91096799D01*
X152218340Y-91041434D01*
X152218339Y-91041433D01*
X152218338Y-91041433D01*
X152120602Y-91021992D01*
X152120598Y-91021992D01*
X152022861Y-91041433D01*
X151939999Y-91096799D01*
X151884633Y-91179661D01*
X151865192Y-91277397D01*
X151865192Y-91277402D01*
X149862428Y-91277402D01*
X149851201Y-91260599D01*
X149789393Y-91219301D01*
X149744590Y-91165691D01*
X149735882Y-91096366D01*
X149766036Y-91033338D01*
X149789391Y-91013100D01*
X149851201Y-90971801D01*
X149906566Y-90888940D01*
X149926008Y-90791200D01*
X149926008Y-90791197D01*
X149906566Y-90693461D01*
X149906566Y-90693460D01*
X149851201Y-90610599D01*
X149768340Y-90555234D01*
X149768339Y-90555233D01*
X149768338Y-90555233D01*
X149670602Y-90535792D01*
X149670598Y-90535792D01*
X149572861Y-90555233D01*
X149489998Y-90610599D01*
X149448702Y-90672405D01*
X149395090Y-90717210D01*
X149325765Y-90725917D01*
X149262738Y-90695763D01*
X149242498Y-90672405D01*
X149201201Y-90610599D01*
X149146161Y-90573823D01*
X149118340Y-90555234D01*
X149118339Y-90555233D01*
X149118338Y-90555233D01*
X149020602Y-90535792D01*
X149020598Y-90535792D01*
X148922861Y-90555233D01*
X148839999Y-90610599D01*
X148784633Y-90693461D01*
X148765192Y-90791197D01*
X148765192Y-90791202D01*
X148784633Y-90888938D01*
X148784633Y-90888939D01*
X148784634Y-90888940D01*
X148832514Y-90960599D01*
X148839999Y-90971801D01*
X148901805Y-91013098D01*
X148946610Y-91066710D01*
X148955317Y-91136035D01*
X148925163Y-91199062D01*
X148901805Y-91219302D01*
X148839999Y-91260598D01*
X148784633Y-91343461D01*
X148765192Y-91441197D01*
X148765192Y-91441202D01*
X148784633Y-91538938D01*
X148784633Y-91538939D01*
X148784634Y-91538940D01*
X148803595Y-91567318D01*
X148839999Y-91621801D01*
X148901805Y-91663098D01*
X148946610Y-91716710D01*
X148955317Y-91786035D01*
X148925163Y-91849062D01*
X148901805Y-91869302D01*
X148839999Y-91910599D01*
X148798702Y-91972405D01*
X148745090Y-92017210D01*
X148675765Y-92025917D01*
X148612738Y-91995763D01*
X148592498Y-91972405D01*
X148551201Y-91910599D01*
X148489396Y-91869303D01*
X148468340Y-91855234D01*
X148468339Y-91855233D01*
X148468338Y-91855233D01*
X148370602Y-91835792D01*
X148370598Y-91835792D01*
X148272861Y-91855233D01*
X148189998Y-91910599D01*
X148148702Y-91972405D01*
X148095090Y-92017210D01*
X148025765Y-92025917D01*
X147962738Y-91995763D01*
X147942498Y-91972405D01*
X147901201Y-91910599D01*
X147901200Y-91910598D01*
X147839393Y-91869301D01*
X147794590Y-91815691D01*
X147785882Y-91746366D01*
X147816036Y-91683338D01*
X147839391Y-91663100D01*
X147901201Y-91621801D01*
X147956566Y-91538940D01*
X147973160Y-91455517D01*
X147976008Y-91441202D01*
X147976008Y-91441197D01*
X147956566Y-91343461D01*
X147956566Y-91343460D01*
X147901201Y-91260599D01*
X147818340Y-91205234D01*
X147818339Y-91205233D01*
X147818338Y-91205233D01*
X147720602Y-91185792D01*
X147720598Y-91185792D01*
X147622861Y-91205233D01*
X147539999Y-91260599D01*
X147484633Y-91343461D01*
X147465192Y-91441197D01*
X147465192Y-91441202D01*
X147484633Y-91538938D01*
X147484633Y-91538939D01*
X147484634Y-91538940D01*
X147503595Y-91567318D01*
X147539999Y-91621801D01*
X147601805Y-91663098D01*
X147646610Y-91716710D01*
X147655317Y-91786035D01*
X147625163Y-91849062D01*
X147601805Y-91869302D01*
X147539999Y-91910598D01*
X147484633Y-91993461D01*
X147465192Y-92091197D01*
X147465192Y-92091202D01*
X147484633Y-92188938D01*
X147484633Y-92188939D01*
X147484634Y-92188940D01*
X147539999Y-92271801D01*
X147622860Y-92327166D01*
X147653888Y-92333338D01*
X147720598Y-92346608D01*
X147720600Y-92346608D01*
X147720602Y-92346608D01*
X147769470Y-92336887D01*
X147818340Y-92327166D01*
X147901201Y-92271801D01*
X147942498Y-92209993D01*
X147996109Y-92165190D01*
X148065434Y-92156482D01*
X148128462Y-92186636D01*
X148148699Y-92209991D01*
X148189998Y-92271800D01*
X148189999Y-92271801D01*
X148251805Y-92313098D01*
X148296610Y-92366710D01*
X148305317Y-92436035D01*
X148275163Y-92499062D01*
X148251805Y-92519302D01*
X148189999Y-92560598D01*
X148134633Y-92643461D01*
X148115192Y-92741197D01*
X148115192Y-92741202D01*
X148134633Y-92838938D01*
X148134633Y-92838939D01*
X148134634Y-92838940D01*
X148189999Y-92921801D01*
X148272860Y-92977166D01*
X148303888Y-92983338D01*
X148370598Y-92996608D01*
X148370600Y-92996608D01*
X148370602Y-92996608D01*
X148419470Y-92986887D01*
X148468340Y-92977166D01*
X148551201Y-92921801D01*
X148592498Y-92859993D01*
X148646109Y-92815190D01*
X148715434Y-92806482D01*
X148778462Y-92836636D01*
X148798699Y-92859991D01*
X148839999Y-92921801D01*
X148922860Y-92977166D01*
X148953888Y-92983338D01*
X149020598Y-92996608D01*
X149020600Y-92996608D01*
X149020602Y-92996608D01*
X149069470Y-92986887D01*
X149118340Y-92977166D01*
X149201201Y-92921801D01*
X149242498Y-92859993D01*
X149296109Y-92815190D01*
X149365434Y-92806482D01*
X149428462Y-92836636D01*
X149448699Y-92859991D01*
X149462337Y-92880401D01*
X149489999Y-92921801D01*
X149551805Y-92963098D01*
X149596610Y-93016710D01*
X149605317Y-93086035D01*
X149575163Y-93149062D01*
X149551805Y-93169302D01*
X149489999Y-93210598D01*
X149434633Y-93293461D01*
X149415192Y-93391197D01*
X149415192Y-93391202D01*
X149434633Y-93488938D01*
X149434633Y-93488939D01*
X149434634Y-93488940D01*
X149473924Y-93547743D01*
X149489999Y-93571801D01*
X149551805Y-93613098D01*
X149596610Y-93666710D01*
X149605317Y-93736035D01*
X149575163Y-93799062D01*
X149551805Y-93819302D01*
X149489999Y-93860599D01*
X149448702Y-93922405D01*
X149395090Y-93967210D01*
X149325765Y-93975917D01*
X149262738Y-93945763D01*
X149242498Y-93922405D01*
X149201201Y-93860599D01*
X149139396Y-93819303D01*
X149118340Y-93805234D01*
X149118339Y-93805233D01*
X149118338Y-93805233D01*
X149020602Y-93785792D01*
X149020598Y-93785792D01*
X148922861Y-93805233D01*
X148839998Y-93860599D01*
X148798702Y-93922405D01*
X148745090Y-93967210D01*
X148675765Y-93975917D01*
X148612738Y-93945763D01*
X148592498Y-93922405D01*
X148551201Y-93860599D01*
X148489396Y-93819303D01*
X148468340Y-93805234D01*
X148468339Y-93805233D01*
X148468338Y-93805233D01*
X148370602Y-93785792D01*
X148370598Y-93785792D01*
X148272861Y-93805233D01*
X148189999Y-93860599D01*
X148134633Y-93943461D01*
X148115192Y-94041197D01*
X148115192Y-94041202D01*
X148134633Y-94138938D01*
X148134633Y-94138939D01*
X148134634Y-94138940D01*
X148189999Y-94221801D01*
X148272860Y-94277166D01*
X148297157Y-94281999D01*
X148370598Y-94296608D01*
X148370600Y-94296608D01*
X148370602Y-94296608D01*
X148419470Y-94286887D01*
X148468340Y-94277166D01*
X148551201Y-94221801D01*
X148592498Y-94159993D01*
X148646109Y-94115190D01*
X148715434Y-94106482D01*
X148778462Y-94136636D01*
X148798699Y-94159991D01*
X148839999Y-94221801D01*
X148922860Y-94277166D01*
X148947157Y-94281999D01*
X149020598Y-94296608D01*
X149020600Y-94296608D01*
X149020602Y-94296608D01*
X149069470Y-94286887D01*
X149118340Y-94277166D01*
X149201201Y-94221801D01*
X149242498Y-94159993D01*
X149296109Y-94115190D01*
X149365434Y-94106482D01*
X149428462Y-94136636D01*
X149448699Y-94159991D01*
X149480238Y-94207192D01*
X149489999Y-94221801D01*
X149551805Y-94263098D01*
X149596610Y-94316710D01*
X149605317Y-94386035D01*
X149575163Y-94449062D01*
X149551805Y-94469302D01*
X149489999Y-94510598D01*
X149434633Y-94593461D01*
X149415192Y-94691197D01*
X149415192Y-94691202D01*
X149434633Y-94788938D01*
X149434633Y-94788939D01*
X149434634Y-94788940D01*
X149470215Y-94842192D01*
X149489999Y-94871801D01*
X149551805Y-94913098D01*
X149596610Y-94966710D01*
X149605317Y-95036035D01*
X149575163Y-95099062D01*
X149551805Y-95119302D01*
X149489999Y-95160598D01*
X149434633Y-95243461D01*
X149415192Y-95341197D01*
X149415192Y-95341202D01*
X149434633Y-95438938D01*
X149434633Y-95438939D01*
X149434634Y-95438940D01*
X149465810Y-95485599D01*
X149489999Y-95521801D01*
X149551805Y-95563098D01*
X149596610Y-95616710D01*
X149605317Y-95686035D01*
X149575163Y-95749062D01*
X149551805Y-95769302D01*
X149489999Y-95810598D01*
X149434633Y-95893461D01*
X149415192Y-95991197D01*
X149415192Y-95991202D01*
X149434633Y-96088938D01*
X149434633Y-96088939D01*
X149434634Y-96088940D01*
X149450170Y-96112192D01*
X149489999Y-96171801D01*
X149551805Y-96213098D01*
X149596610Y-96266710D01*
X149605317Y-96336035D01*
X149575163Y-96399062D01*
X149551805Y-96419302D01*
X149489999Y-96460599D01*
X149448702Y-96522405D01*
X149395090Y-96567210D01*
X149325765Y-96575917D01*
X149262738Y-96545763D01*
X149242498Y-96522405D01*
X149201201Y-96460599D01*
X149139396Y-96419303D01*
X149118340Y-96405234D01*
X149118339Y-96405233D01*
X149118338Y-96405233D01*
X149020602Y-96385792D01*
X149020598Y-96385792D01*
X148922861Y-96405233D01*
X148839999Y-96460599D01*
X148784633Y-96543461D01*
X148765192Y-96641197D01*
X148765192Y-96641202D01*
X148784633Y-96738938D01*
X148784633Y-96738939D01*
X148784634Y-96738940D01*
X148816855Y-96787163D01*
X148839999Y-96821801D01*
X148901805Y-96863098D01*
X148946610Y-96916710D01*
X148955317Y-96986035D01*
X148925163Y-97049062D01*
X148901805Y-97069302D01*
X148839999Y-97110599D01*
X148798702Y-97172405D01*
X148745090Y-97217210D01*
X148675765Y-97225917D01*
X148612738Y-97195763D01*
X148592498Y-97172405D01*
X148551201Y-97110599D01*
X148509388Y-97082661D01*
X148468340Y-97055234D01*
X148468339Y-97055233D01*
X148468338Y-97055233D01*
X148370602Y-97035792D01*
X148370598Y-97035792D01*
X148272861Y-97055233D01*
X148189999Y-97110599D01*
X148134633Y-97193461D01*
X148115192Y-97291197D01*
X148115192Y-97291202D01*
X148134633Y-97388938D01*
X148134633Y-97388939D01*
X148134634Y-97388940D01*
X148171063Y-97443461D01*
X148189999Y-97471801D01*
X148251805Y-97513098D01*
X148296610Y-97566710D01*
X148305317Y-97636035D01*
X148275163Y-97699062D01*
X148251805Y-97719302D01*
X148189999Y-97760599D01*
X148148702Y-97822405D01*
X148095090Y-97867210D01*
X148025765Y-97875917D01*
X147962738Y-97845763D01*
X147942498Y-97822405D01*
X147901201Y-97760599D01*
X147901200Y-97760598D01*
X147818340Y-97705234D01*
X147818339Y-97705233D01*
X147818338Y-97705233D01*
X147720602Y-97685792D01*
X147720598Y-97685792D01*
X147622861Y-97705233D01*
X147539999Y-97760599D01*
X147484633Y-97843461D01*
X147465192Y-97941197D01*
X147465192Y-97941202D01*
X147484633Y-98038938D01*
X147484633Y-98038939D01*
X147484634Y-98038940D01*
X147516369Y-98086436D01*
X147539999Y-98121801D01*
X147601805Y-98163098D01*
X147646610Y-98216710D01*
X147655317Y-98286035D01*
X147625163Y-98349062D01*
X147601805Y-98369302D01*
X147539999Y-98410598D01*
X147484633Y-98493461D01*
X147465192Y-98591197D01*
X147465192Y-98591202D01*
X147484633Y-98688938D01*
X147484633Y-98688939D01*
X147484634Y-98688940D01*
X147521061Y-98743458D01*
X147539999Y-98771801D01*
X147601805Y-98813098D01*
X147646610Y-98866710D01*
X147655317Y-98936035D01*
X147625163Y-98999062D01*
X147601805Y-99019302D01*
X147539999Y-99060599D01*
X147498702Y-99122405D01*
X147445090Y-99167210D01*
X147375765Y-99175917D01*
X147312738Y-99145763D01*
X147292498Y-99122405D01*
X147251201Y-99060599D01*
X147189396Y-99019303D01*
X147168340Y-99005234D01*
X147168339Y-99005233D01*
X147168338Y-99005233D01*
X147070602Y-98985792D01*
X147070598Y-98985792D01*
X146972861Y-99005233D01*
X146889998Y-99060599D01*
X146848702Y-99122405D01*
X146795090Y-99167210D01*
X146725765Y-99175917D01*
X146662738Y-99145763D01*
X146642498Y-99122405D01*
X146601201Y-99060599D01*
X146539396Y-99019303D01*
X146518340Y-99005234D01*
X146518339Y-99005233D01*
X146518338Y-99005233D01*
X146420602Y-98985792D01*
X146420598Y-98985792D01*
X146322861Y-99005233D01*
X146239998Y-99060599D01*
X146198702Y-99122405D01*
X146145090Y-99167210D01*
X146075765Y-99175917D01*
X146012738Y-99145763D01*
X145992498Y-99122405D01*
X145951201Y-99060599D01*
X145889396Y-99019303D01*
X145868340Y-99005234D01*
X145868339Y-99005233D01*
X145868338Y-99005233D01*
X145770602Y-98985792D01*
X145770598Y-98985792D01*
X145672861Y-99005233D01*
X145589998Y-99060599D01*
X145548702Y-99122405D01*
X145495090Y-99167210D01*
X145425765Y-99175917D01*
X145362738Y-99145763D01*
X145342498Y-99122405D01*
X145301201Y-99060599D01*
X145239396Y-99019303D01*
X145218340Y-99005234D01*
X145218339Y-99005233D01*
X145218338Y-99005233D01*
X145120602Y-98985792D01*
X145120598Y-98985792D01*
X145022861Y-99005233D01*
X144939998Y-99060599D01*
X144898702Y-99122405D01*
X144845090Y-99167210D01*
X144775765Y-99175917D01*
X144712738Y-99145763D01*
X144692498Y-99122405D01*
X144651201Y-99060599D01*
X144625478Y-99043412D01*
X144589393Y-99019301D01*
X144544590Y-98965691D01*
X144535882Y-98896366D01*
X144566036Y-98833338D01*
X144589391Y-98813100D01*
X144651201Y-98771801D01*
X144706566Y-98688940D01*
X144726008Y-98591200D01*
X144726008Y-98591197D01*
X144706566Y-98493461D01*
X144706566Y-98493460D01*
X144651201Y-98410599D01*
X144589393Y-98369301D01*
X144544590Y-98315691D01*
X144535882Y-98246366D01*
X144566036Y-98183338D01*
X144589391Y-98163100D01*
X144651201Y-98121801D01*
X144706566Y-98038940D01*
X144717182Y-97985571D01*
X144726008Y-97941202D01*
X144726008Y-97941197D01*
X144706566Y-97843461D01*
X144706566Y-97843460D01*
X144651201Y-97760599D01*
X144568340Y-97705234D01*
X144568339Y-97705233D01*
X144568338Y-97705233D01*
X144470602Y-97685792D01*
X144470598Y-97685792D01*
X144372861Y-97705233D01*
X144289998Y-97760599D01*
X144248702Y-97822405D01*
X144195090Y-97867210D01*
X144125765Y-97875917D01*
X144062738Y-97845763D01*
X144042498Y-97822405D01*
X144001201Y-97760599D01*
X144001200Y-97760598D01*
X143918340Y-97705234D01*
X143918339Y-97705233D01*
X143918338Y-97705233D01*
X143820602Y-97685792D01*
X143820598Y-97685792D01*
X143722861Y-97705233D01*
X143639998Y-97760599D01*
X143598702Y-97822405D01*
X143545090Y-97867210D01*
X143475765Y-97875917D01*
X143412738Y-97845763D01*
X143392498Y-97822405D01*
X143351201Y-97760599D01*
X143351200Y-97760598D01*
X143289393Y-97719301D01*
X143244590Y-97665691D01*
X143235882Y-97596366D01*
X143266036Y-97533338D01*
X143289391Y-97513100D01*
X143351201Y-97471801D01*
X143406566Y-97388940D01*
X143416287Y-97340070D01*
X143426008Y-97291202D01*
X143426008Y-97291197D01*
X143406566Y-97193461D01*
X143406566Y-97193460D01*
X143351201Y-97110599D01*
X143268340Y-97055234D01*
X143268339Y-97055233D01*
X143268338Y-97055233D01*
X143170602Y-97035792D01*
X143170598Y-97035792D01*
X143072861Y-97055233D01*
X142989998Y-97110599D01*
X142948702Y-97172405D01*
X142895090Y-97217210D01*
X142825765Y-97225917D01*
X142762738Y-97195763D01*
X142742498Y-97172405D01*
X142701201Y-97110599D01*
X142659388Y-97082661D01*
X142618340Y-97055234D01*
X142618339Y-97055233D01*
X142618338Y-97055233D01*
X142520602Y-97035792D01*
X142520598Y-97035792D01*
X142422861Y-97055233D01*
X142339998Y-97110599D01*
X142298702Y-97172405D01*
X142245090Y-97217210D01*
X142175765Y-97225917D01*
X142112738Y-97195763D01*
X142092498Y-97172405D01*
X142051201Y-97110599D01*
X142051200Y-97110598D01*
X141989393Y-97069301D01*
X141944590Y-97015691D01*
X141935882Y-96946366D01*
X141966036Y-96883338D01*
X141989391Y-96863100D01*
X142051201Y-96821801D01*
X142106566Y-96738940D01*
X142124791Y-96647318D01*
X142126008Y-96641202D01*
X142126008Y-96641197D01*
X142106566Y-96543461D01*
X142106566Y-96543460D01*
X142051201Y-96460599D01*
X141989393Y-96419301D01*
X141944590Y-96365691D01*
X141935882Y-96296366D01*
X141966036Y-96233338D01*
X141989391Y-96213100D01*
X142051201Y-96171801D01*
X142106566Y-96088940D01*
X142126008Y-95991200D01*
X142126008Y-95991197D01*
X142106566Y-95893461D01*
X142106566Y-95893460D01*
X142051201Y-95810599D01*
X141989393Y-95769301D01*
X141944590Y-95715691D01*
X141935882Y-95646366D01*
X141966036Y-95583338D01*
X141989391Y-95563100D01*
X142051201Y-95521801D01*
X142106566Y-95438940D01*
X142122425Y-95359212D01*
X142126008Y-95341202D01*
X142126008Y-95341197D01*
X142106566Y-95243461D01*
X142106566Y-95243460D01*
X142051201Y-95160599D01*
X141989393Y-95119301D01*
X141944590Y-95065691D01*
X141935882Y-94996366D01*
X141966036Y-94933338D01*
X141989391Y-94913100D01*
X142051201Y-94871801D01*
X142092498Y-94809993D01*
X142146109Y-94765190D01*
X142215434Y-94756482D01*
X142278462Y-94786636D01*
X142298699Y-94809991D01*
X142339999Y-94871801D01*
X142422860Y-94927166D01*
X142453888Y-94933338D01*
X142520598Y-94946608D01*
X142520600Y-94946608D01*
X142520602Y-94946608D01*
X142569470Y-94936887D01*
X142618340Y-94927166D01*
X142701201Y-94871801D01*
X142742498Y-94809993D01*
X142796109Y-94765190D01*
X142865434Y-94756482D01*
X142928462Y-94786636D01*
X142948699Y-94809991D01*
X142989999Y-94871801D01*
X143072860Y-94927166D01*
X143103888Y-94933338D01*
X143170598Y-94946608D01*
X143170600Y-94946608D01*
X143170602Y-94946608D01*
X143219470Y-94936887D01*
X143268340Y-94927166D01*
X143351201Y-94871801D01*
X143406566Y-94788940D01*
X143419596Y-94723435D01*
X143426008Y-94691202D01*
X143426008Y-94691197D01*
X143406566Y-94593461D01*
X143406566Y-94593460D01*
X143351201Y-94510599D01*
X143289393Y-94469301D01*
X143244590Y-94415691D01*
X143235882Y-94346366D01*
X143266036Y-94283338D01*
X143289391Y-94263100D01*
X143351201Y-94221801D01*
X143406566Y-94138940D01*
X143426008Y-94041200D01*
X143426008Y-94041197D01*
X143406566Y-93943461D01*
X143406566Y-93943460D01*
X143351201Y-93860599D01*
X143289393Y-93819301D01*
X143244590Y-93765691D01*
X143235882Y-93696366D01*
X143266036Y-93633338D01*
X143289391Y-93613100D01*
X143351201Y-93571801D01*
X143406566Y-93488940D01*
X143425249Y-93395016D01*
X143426008Y-93391202D01*
X143426008Y-93391197D01*
X143406566Y-93293461D01*
X143406566Y-93293460D01*
X143351201Y-93210599D01*
X143289393Y-93169301D01*
X143244590Y-93115691D01*
X143235882Y-93046366D01*
X143266036Y-92983338D01*
X143289391Y-92963100D01*
X143351201Y-92921801D01*
X143406566Y-92838940D01*
X143426008Y-92741200D01*
X143426008Y-92741197D01*
X143406566Y-92643461D01*
X143406566Y-92643460D01*
X143351201Y-92560599D01*
X143289393Y-92519301D01*
X143244590Y-92465691D01*
X143235882Y-92396366D01*
X143266036Y-92333338D01*
X143289391Y-92313100D01*
X143351201Y-92271801D01*
X143392498Y-92209993D01*
X143446109Y-92165190D01*
X143515434Y-92156482D01*
X143578462Y-92186636D01*
X143598699Y-92209991D01*
X143639999Y-92271801D01*
X143722860Y-92327166D01*
X143753888Y-92333338D01*
X143820598Y-92346608D01*
X143820600Y-92346608D01*
X143820602Y-92346608D01*
X143869470Y-92336887D01*
X143918340Y-92327166D01*
X144001201Y-92271801D01*
X144042498Y-92209993D01*
X144096109Y-92165190D01*
X144165434Y-92156482D01*
X144228462Y-92186636D01*
X144248699Y-92209991D01*
X144289999Y-92271801D01*
X144372860Y-92327166D01*
X144403888Y-92333338D01*
X144470598Y-92346608D01*
X144470600Y-92346608D01*
X144470602Y-92346608D01*
X144519470Y-92336887D01*
X144568340Y-92327166D01*
X144651201Y-92271801D01*
X144692498Y-92209993D01*
X144746109Y-92165190D01*
X144815434Y-92156482D01*
X144878462Y-92186636D01*
X144898699Y-92209991D01*
X144939998Y-92271800D01*
X144939999Y-92271801D01*
X145001805Y-92313098D01*
X145046610Y-92366710D01*
X145055317Y-92436035D01*
X145025163Y-92499062D01*
X145001805Y-92519302D01*
X144939999Y-92560598D01*
X144884633Y-92643461D01*
X144865192Y-92741197D01*
X144865192Y-92741202D01*
X144884633Y-92838938D01*
X144884633Y-92838939D01*
X144884634Y-92838940D01*
X144939999Y-92921801D01*
X145022860Y-92977166D01*
X145053888Y-92983338D01*
X145120598Y-92996608D01*
X145120600Y-92996608D01*
X145120602Y-92996608D01*
X145169470Y-92986887D01*
X145218340Y-92977166D01*
X145301201Y-92921801D01*
X145342498Y-92859993D01*
X145396109Y-92815190D01*
X145465434Y-92806482D01*
X145528462Y-92836636D01*
X145548699Y-92859991D01*
X145589999Y-92921801D01*
X145672860Y-92977166D01*
X145703888Y-92983338D01*
X145770598Y-92996608D01*
X145770600Y-92996608D01*
X145770602Y-92996608D01*
X145819470Y-92986887D01*
X145868340Y-92977166D01*
X145951201Y-92921801D01*
X145992498Y-92859993D01*
X146046109Y-92815190D01*
X146115434Y-92806482D01*
X146178462Y-92836636D01*
X146198699Y-92859991D01*
X146239999Y-92921801D01*
X146322860Y-92977166D01*
X146353888Y-92983338D01*
X146420598Y-92996608D01*
X146420600Y-92996608D01*
X146420602Y-92996608D01*
X146469470Y-92986887D01*
X146518340Y-92977166D01*
X146601201Y-92921801D01*
X146642498Y-92859993D01*
X146696109Y-92815190D01*
X146765434Y-92806482D01*
X146828462Y-92836636D01*
X146848699Y-92859991D01*
X146889999Y-92921801D01*
X146972860Y-92977166D01*
X147003888Y-92983338D01*
X147070598Y-92996608D01*
X147070600Y-92996608D01*
X147070602Y-92996608D01*
X147119470Y-92986887D01*
X147168340Y-92977166D01*
X147251201Y-92921801D01*
X147306566Y-92838940D01*
X147326008Y-92741200D01*
X147326008Y-92741197D01*
X147306566Y-92643461D01*
X147306566Y-92643460D01*
X147251201Y-92560599D01*
X147168340Y-92505234D01*
X147168339Y-92505233D01*
X147168338Y-92505233D01*
X147070602Y-92485792D01*
X147070598Y-92485792D01*
X146972861Y-92505233D01*
X146889998Y-92560599D01*
X146848702Y-92622405D01*
X146795090Y-92667210D01*
X146725765Y-92675917D01*
X146662738Y-92645763D01*
X146642498Y-92622405D01*
X146601201Y-92560599D01*
X146539396Y-92519303D01*
X146518340Y-92505234D01*
X146518339Y-92505233D01*
X146518338Y-92505233D01*
X146420602Y-92485792D01*
X146420598Y-92485792D01*
X146322861Y-92505233D01*
X146239998Y-92560599D01*
X146198702Y-92622405D01*
X146145090Y-92667210D01*
X146075765Y-92675917D01*
X146012738Y-92645763D01*
X145992498Y-92622405D01*
X145951201Y-92560599D01*
X145951200Y-92560598D01*
X145889393Y-92519301D01*
X145844590Y-92465691D01*
X145835882Y-92396366D01*
X145866036Y-92333338D01*
X145889391Y-92313100D01*
X145951201Y-92271801D01*
X146006566Y-92188940D01*
X146016287Y-92140070D01*
X146026008Y-92091202D01*
X146026008Y-92091197D01*
X146006566Y-91993461D01*
X146006566Y-91993460D01*
X145951201Y-91910599D01*
X145889393Y-91869301D01*
X145844590Y-91815691D01*
X145835882Y-91746366D01*
X145866036Y-91683338D01*
X145889391Y-91663100D01*
X145951201Y-91621801D01*
X146006566Y-91538940D01*
X146023160Y-91455517D01*
X146026008Y-91441202D01*
X146026008Y-91441197D01*
X146006566Y-91343461D01*
X146006566Y-91343460D01*
X145951201Y-91260599D01*
X145868340Y-91205234D01*
X145868339Y-91205233D01*
X145868338Y-91205233D01*
X145770602Y-91185792D01*
X145770598Y-91185792D01*
X145672861Y-91205233D01*
X145589998Y-91260599D01*
X145548702Y-91322405D01*
X145495090Y-91367210D01*
X145425765Y-91375917D01*
X145362738Y-91345763D01*
X145342498Y-91322405D01*
X145301201Y-91260599D01*
X145239396Y-91219303D01*
X145218340Y-91205234D01*
X145218339Y-91205233D01*
X145218338Y-91205233D01*
X145120602Y-91185792D01*
X145120598Y-91185792D01*
X145022861Y-91205233D01*
X144939998Y-91260599D01*
X144898702Y-91322405D01*
X144845090Y-91367210D01*
X144775765Y-91375917D01*
X144712738Y-91345763D01*
X144692498Y-91322405D01*
X144651201Y-91260599D01*
X144618782Y-91238938D01*
X144589393Y-91219301D01*
X144544590Y-91165691D01*
X144535882Y-91096366D01*
X144566036Y-91033338D01*
X144589391Y-91013100D01*
X144651201Y-90971801D01*
X144706566Y-90888940D01*
X144726008Y-90791200D01*
X144726008Y-90791197D01*
X144706566Y-90693461D01*
X144706566Y-90693460D01*
X144651201Y-90610599D01*
X144568340Y-90555234D01*
X144568339Y-90555233D01*
X144568338Y-90555233D01*
X144470602Y-90535792D01*
X144470598Y-90535792D01*
X144372861Y-90555233D01*
X144289998Y-90610599D01*
X144248702Y-90672405D01*
X144195090Y-90717210D01*
X144125765Y-90725917D01*
X144062738Y-90695763D01*
X144042498Y-90672405D01*
X144001201Y-90610599D01*
X143946161Y-90573823D01*
X143918340Y-90555234D01*
X143918339Y-90555233D01*
X143918338Y-90555233D01*
X143820602Y-90535792D01*
X143820598Y-90535792D01*
X143722861Y-90555233D01*
X143639999Y-90610599D01*
X143584633Y-90693461D01*
X143565192Y-90791197D01*
X143565192Y-90791202D01*
X143584633Y-90888938D01*
X143584633Y-90888939D01*
X143584634Y-90888940D01*
X143632514Y-90960599D01*
X143639999Y-90971801D01*
X143701805Y-91013098D01*
X143746610Y-91066710D01*
X143755317Y-91136035D01*
X143725163Y-91199062D01*
X143701805Y-91219302D01*
X143639999Y-91260599D01*
X143598702Y-91322405D01*
X143545090Y-91367210D01*
X143475765Y-91375917D01*
X143412738Y-91345763D01*
X143392498Y-91322405D01*
X143351201Y-91260599D01*
X143289396Y-91219303D01*
X143268340Y-91205234D01*
X143268339Y-91205233D01*
X143268338Y-91205233D01*
X143170602Y-91185792D01*
X143170598Y-91185792D01*
X143072861Y-91205233D01*
X142989998Y-91260599D01*
X142948702Y-91322405D01*
X142895090Y-91367210D01*
X142825765Y-91375917D01*
X142762738Y-91345763D01*
X142742498Y-91322405D01*
X142701201Y-91260599D01*
X142639396Y-91219303D01*
X142618340Y-91205234D01*
X142618339Y-91205233D01*
X142618338Y-91205233D01*
X142520602Y-91185792D01*
X142520598Y-91185792D01*
X142422861Y-91205233D01*
X142339998Y-91260599D01*
X142298702Y-91322405D01*
X142245090Y-91367210D01*
X142175765Y-91375917D01*
X142112738Y-91345763D01*
X142092498Y-91322405D01*
X142051201Y-91260599D01*
X141989396Y-91219303D01*
X141968340Y-91205234D01*
X141968339Y-91205233D01*
X141968338Y-91205233D01*
X141870602Y-91185792D01*
X141870598Y-91185792D01*
X141772861Y-91205233D01*
X141689998Y-91260599D01*
X141648702Y-91322405D01*
X141595090Y-91367210D01*
X141525765Y-91375917D01*
X141462738Y-91345763D01*
X141442498Y-91322405D01*
X141401201Y-91260599D01*
X141339396Y-91219303D01*
X141318340Y-91205234D01*
X141318339Y-91205233D01*
X141318338Y-91205233D01*
X141220602Y-91185792D01*
X141220598Y-91185792D01*
X141122861Y-91205233D01*
X141039999Y-91260599D01*
X140984633Y-91343461D01*
X140965192Y-91441197D01*
X140965192Y-91441202D01*
X140984633Y-91538938D01*
X140984633Y-91538939D01*
X140984634Y-91538940D01*
X141003595Y-91567318D01*
X141039999Y-91621801D01*
X141101805Y-91663098D01*
X141146610Y-91716710D01*
X141155317Y-91786035D01*
X141125163Y-91849062D01*
X141101805Y-91869302D01*
X141039999Y-91910598D01*
X140984633Y-91993461D01*
X140965192Y-92091197D01*
X140965192Y-92091202D01*
X140984633Y-92188938D01*
X140984633Y-92188939D01*
X140984634Y-92188940D01*
X141039998Y-92271800D01*
X141039999Y-92271801D01*
X141101805Y-92313098D01*
X141146610Y-92366710D01*
X141155317Y-92436035D01*
X141125163Y-92499062D01*
X141101805Y-92519302D01*
X141039999Y-92560598D01*
X140984633Y-92643461D01*
X140965192Y-92741197D01*
X140965192Y-92741202D01*
X140984633Y-92838938D01*
X140984633Y-92838939D01*
X140984634Y-92838940D01*
X141005237Y-92869775D01*
X141039999Y-92921801D01*
X141101805Y-92963098D01*
X141146610Y-93016710D01*
X141155317Y-93086035D01*
X141125163Y-93149062D01*
X141101805Y-93169302D01*
X141039999Y-93210598D01*
X140984633Y-93293461D01*
X140965192Y-93391197D01*
X140965192Y-93391202D01*
X140984633Y-93488938D01*
X140984633Y-93488939D01*
X140984634Y-93488940D01*
X141023924Y-93547743D01*
X141039999Y-93571801D01*
X141101805Y-93613098D01*
X141146610Y-93666710D01*
X141155317Y-93736035D01*
X141125163Y-93799062D01*
X141101805Y-93819302D01*
X141039999Y-93860598D01*
X140984633Y-93943461D01*
X140965192Y-94041197D01*
X140965192Y-94041202D01*
X140984633Y-94138938D01*
X140984633Y-94138939D01*
X140984634Y-94138940D01*
X141009110Y-94175571D01*
X141039999Y-94221801D01*
X141101805Y-94263098D01*
X141146610Y-94316710D01*
X141155317Y-94386035D01*
X141125163Y-94449062D01*
X141101805Y-94469302D01*
X141039999Y-94510598D01*
X140984633Y-94593461D01*
X140965192Y-94691197D01*
X140965192Y-94691202D01*
X140984633Y-94788938D01*
X140984633Y-94788939D01*
X140984634Y-94788940D01*
X141020215Y-94842192D01*
X141039999Y-94871801D01*
X141101805Y-94913098D01*
X141146610Y-94966710D01*
X141155317Y-95036035D01*
X141125163Y-95099062D01*
X141101805Y-95119302D01*
X141039999Y-95160598D01*
X140984633Y-95243461D01*
X140965192Y-95341197D01*
X140965192Y-95341202D01*
X140984633Y-95438938D01*
X140984633Y-95438939D01*
X140984634Y-95438940D01*
X141015810Y-95485599D01*
X141039999Y-95521801D01*
X141101805Y-95563098D01*
X141146610Y-95616710D01*
X141155317Y-95686035D01*
X141125163Y-95749062D01*
X141101805Y-95769302D01*
X141039999Y-95810598D01*
X140984633Y-95893461D01*
X140965192Y-95991197D01*
X140965192Y-95991202D01*
X140984633Y-96088938D01*
X140984633Y-96088939D01*
X140984634Y-96088940D01*
X141000170Y-96112192D01*
X141039999Y-96171801D01*
X141101805Y-96213098D01*
X141146610Y-96266710D01*
X141155317Y-96336035D01*
X141125163Y-96399062D01*
X141101805Y-96419302D01*
X141039999Y-96460598D01*
X140984633Y-96543461D01*
X140965192Y-96641197D01*
X140965192Y-96641202D01*
X140984633Y-96738938D01*
X140984633Y-96738939D01*
X140984634Y-96738940D01*
X141016855Y-96787163D01*
X141039999Y-96821801D01*
X141101805Y-96863098D01*
X141146610Y-96916710D01*
X141155317Y-96986035D01*
X141125163Y-97049062D01*
X141101805Y-97069302D01*
X141039999Y-97110598D01*
X140984633Y-97193461D01*
X140965192Y-97291197D01*
X140965192Y-97291202D01*
X140984633Y-97388938D01*
X140984633Y-97388939D01*
X140984634Y-97388940D01*
X141021063Y-97443461D01*
X141039999Y-97471801D01*
X141101805Y-97513098D01*
X141146610Y-97566710D01*
X141155317Y-97636035D01*
X141125163Y-97699062D01*
X141101805Y-97719302D01*
X141039999Y-97760598D01*
X140984633Y-97843461D01*
X140965192Y-97941197D01*
X140965192Y-97941202D01*
X140984633Y-98038938D01*
X140984633Y-98038939D01*
X140984634Y-98038940D01*
X141016369Y-98086436D01*
X141039999Y-98121801D01*
X141101805Y-98163098D01*
X141146610Y-98216710D01*
X141155317Y-98286035D01*
X141125163Y-98349062D01*
X141101805Y-98369302D01*
X141039999Y-98410598D01*
X140984633Y-98493461D01*
X140965192Y-98591197D01*
X140965192Y-98591202D01*
X140984633Y-98688938D01*
X140984633Y-98688939D01*
X140984634Y-98688940D01*
X141021061Y-98743458D01*
X141039999Y-98771801D01*
X141101805Y-98813098D01*
X141146610Y-98866710D01*
X141155317Y-98936035D01*
X141125163Y-98999062D01*
X141101805Y-99019302D01*
X141039999Y-99060598D01*
X140984633Y-99143461D01*
X140965192Y-99241197D01*
X140965192Y-99241202D01*
X140984633Y-99338938D01*
X140984633Y-99338939D01*
X140984634Y-99338940D01*
X141034289Y-99413255D01*
X141039999Y-99421801D01*
X141101805Y-99463098D01*
X141146610Y-99516710D01*
X141155317Y-99586035D01*
X141125163Y-99649062D01*
X141101805Y-99669302D01*
X141039999Y-99710598D01*
X140984633Y-99793461D01*
X140965192Y-99891197D01*
X140965192Y-99891202D01*
X131988364Y-99891202D01*
X132030366Y-99828340D01*
X132045062Y-99754460D01*
X132049808Y-99730602D01*
X132049808Y-99730597D01*
X132030366Y-99632861D01*
X132030366Y-99632860D01*
X131975001Y-99549999D01*
X131892140Y-99494634D01*
X131892139Y-99494633D01*
X131892138Y-99494633D01*
X131794402Y-99475192D01*
X131794398Y-99475192D01*
X131696661Y-99494633D01*
X131613799Y-99549999D01*
X131558433Y-99632861D01*
X131538992Y-99730597D01*
X131538992Y-99730602D01*
X130449808Y-99730602D01*
X130449808Y-99730597D01*
X130430366Y-99632861D01*
X130430366Y-99632860D01*
X130375001Y-99549999D01*
X130292140Y-99494634D01*
X130292139Y-99494633D01*
X130292138Y-99494633D01*
X130194402Y-99475192D01*
X130194398Y-99475192D01*
X130096661Y-99494633D01*
X130013799Y-99549999D01*
X129958433Y-99632861D01*
X129938992Y-99730597D01*
X129938992Y-99730602D01*
X126112055Y-99730602D01*
X126077990Y-99671599D01*
X126041324Y-99608090D01*
X126041318Y-99608082D01*
X125929518Y-99496282D01*
X125929516Y-99496280D01*
X125873299Y-99463823D01*
X125825084Y-99413255D01*
X125811300Y-99356436D01*
X125811300Y-99327163D01*
X125830985Y-99260124D01*
X125873301Y-99219775D01*
X125929516Y-99187320D01*
X126041320Y-99075516D01*
X126120377Y-98938584D01*
X126161300Y-98785857D01*
X126161300Y-98627743D01*
X126120377Y-98475016D01*
X126083186Y-98410598D01*
X126041324Y-98338090D01*
X126041318Y-98338082D01*
X125929518Y-98226282D01*
X125929516Y-98226280D01*
X125873299Y-98193823D01*
X125825084Y-98143255D01*
X125811300Y-98086436D01*
X125811300Y-98057163D01*
X125830985Y-97990124D01*
X125873301Y-97949775D01*
X125929516Y-97917320D01*
X126041320Y-97805516D01*
X126120377Y-97668584D01*
X126154509Y-97541202D01*
X130338992Y-97541202D01*
X130358433Y-97638938D01*
X130358433Y-97638939D01*
X130358434Y-97638940D01*
X130413799Y-97721801D01*
X130496660Y-97777166D01*
X130529240Y-97783646D01*
X130594398Y-97796608D01*
X130594400Y-97796608D01*
X130594402Y-97796608D01*
X130643270Y-97786887D01*
X130692140Y-97777166D01*
X130775001Y-97721801D01*
X130830366Y-97638940D01*
X130844734Y-97566710D01*
X130849808Y-97541202D01*
X131138992Y-97541202D01*
X131158433Y-97638938D01*
X131158433Y-97638939D01*
X131158434Y-97638940D01*
X131213799Y-97721801D01*
X131296660Y-97777166D01*
X131329240Y-97783646D01*
X131394398Y-97796608D01*
X131394400Y-97796608D01*
X131394402Y-97796608D01*
X131443270Y-97786887D01*
X131492140Y-97777166D01*
X131575001Y-97721801D01*
X131630366Y-97638940D01*
X131644734Y-97566710D01*
X131649808Y-97541202D01*
X131938992Y-97541202D01*
X131958433Y-97638938D01*
X131958433Y-97638939D01*
X131958434Y-97638940D01*
X132013799Y-97721801D01*
X132096660Y-97777166D01*
X132129240Y-97783646D01*
X132194398Y-97796608D01*
X132194400Y-97796608D01*
X132194402Y-97796608D01*
X132243270Y-97786887D01*
X132292140Y-97777166D01*
X132375001Y-97721801D01*
X132430366Y-97638940D01*
X132444734Y-97566710D01*
X132449808Y-97541202D01*
X132738992Y-97541202D01*
X132758433Y-97638938D01*
X132758433Y-97638939D01*
X132758434Y-97638940D01*
X132813799Y-97721801D01*
X132896660Y-97777166D01*
X132929240Y-97783646D01*
X132994398Y-97796608D01*
X132994400Y-97796608D01*
X132994402Y-97796608D01*
X133043270Y-97786887D01*
X133092140Y-97777166D01*
X133175001Y-97721801D01*
X133230366Y-97638940D01*
X133244734Y-97566710D01*
X133249808Y-97541202D01*
X133538992Y-97541202D01*
X133558433Y-97638938D01*
X133558433Y-97638939D01*
X133558434Y-97638940D01*
X133613799Y-97721801D01*
X133696660Y-97777166D01*
X133729240Y-97783646D01*
X133794398Y-97796608D01*
X133794400Y-97796608D01*
X133794402Y-97796608D01*
X133843270Y-97786887D01*
X133892140Y-97777166D01*
X133975001Y-97721801D01*
X134030366Y-97638940D01*
X134044734Y-97566710D01*
X134049808Y-97541202D01*
X134338992Y-97541202D01*
X134358433Y-97638938D01*
X134358433Y-97638939D01*
X134358434Y-97638940D01*
X134413799Y-97721801D01*
X134496660Y-97777166D01*
X134529240Y-97783646D01*
X134594398Y-97796608D01*
X134594400Y-97796608D01*
X134594402Y-97796608D01*
X134643270Y-97786887D01*
X134692140Y-97777166D01*
X134775001Y-97721801D01*
X134830366Y-97638940D01*
X134844734Y-97566710D01*
X134849808Y-97541202D01*
X135138992Y-97541202D01*
X135158433Y-97638938D01*
X135158433Y-97638939D01*
X135158434Y-97638940D01*
X135213799Y-97721801D01*
X135296660Y-97777166D01*
X135329240Y-97783646D01*
X135394398Y-97796608D01*
X135394400Y-97796608D01*
X135394402Y-97796608D01*
X135443270Y-97786887D01*
X135492140Y-97777166D01*
X135575001Y-97721801D01*
X135630366Y-97638940D01*
X135644734Y-97566710D01*
X135649808Y-97541202D01*
X135649808Y-97541197D01*
X135630366Y-97443461D01*
X135630366Y-97443460D01*
X135575001Y-97360599D01*
X135492140Y-97305234D01*
X135492139Y-97305233D01*
X135492138Y-97305233D01*
X135394402Y-97285792D01*
X135394398Y-97285792D01*
X135296661Y-97305233D01*
X135213799Y-97360599D01*
X135158433Y-97443461D01*
X135138992Y-97541197D01*
X135138992Y-97541202D01*
X134849808Y-97541202D01*
X134849808Y-97541197D01*
X134830366Y-97443461D01*
X134830366Y-97443460D01*
X134775001Y-97360599D01*
X134692140Y-97305234D01*
X134692139Y-97305233D01*
X134692138Y-97305233D01*
X134594402Y-97285792D01*
X134594398Y-97285792D01*
X134496661Y-97305233D01*
X134413799Y-97360599D01*
X134358433Y-97443461D01*
X134338992Y-97541197D01*
X134338992Y-97541202D01*
X134049808Y-97541202D01*
X134049808Y-97541197D01*
X134030366Y-97443461D01*
X134030366Y-97443460D01*
X133975001Y-97360599D01*
X133892140Y-97305234D01*
X133892139Y-97305233D01*
X133892138Y-97305233D01*
X133794402Y-97285792D01*
X133794398Y-97285792D01*
X133696661Y-97305233D01*
X133613799Y-97360599D01*
X133558433Y-97443461D01*
X133538992Y-97541197D01*
X133538992Y-97541202D01*
X133249808Y-97541202D01*
X133249808Y-97541197D01*
X133230366Y-97443461D01*
X133230366Y-97443460D01*
X133175001Y-97360599D01*
X133092140Y-97305234D01*
X133092139Y-97305233D01*
X133092138Y-97305233D01*
X132994402Y-97285792D01*
X132994398Y-97285792D01*
X132896661Y-97305233D01*
X132813799Y-97360599D01*
X132758433Y-97443461D01*
X132738992Y-97541197D01*
X132738992Y-97541202D01*
X132449808Y-97541202D01*
X132449808Y-97541197D01*
X132430366Y-97443461D01*
X132430366Y-97443460D01*
X132375001Y-97360599D01*
X132292140Y-97305234D01*
X132292139Y-97305233D01*
X132292138Y-97305233D01*
X132194402Y-97285792D01*
X132194398Y-97285792D01*
X132096661Y-97305233D01*
X132013799Y-97360599D01*
X131958433Y-97443461D01*
X131938992Y-97541197D01*
X131938992Y-97541202D01*
X131649808Y-97541202D01*
X131649808Y-97541197D01*
X131630366Y-97443461D01*
X131630366Y-97443460D01*
X131575001Y-97360599D01*
X131492140Y-97305234D01*
X131492139Y-97305233D01*
X131492138Y-97305233D01*
X131394402Y-97285792D01*
X131394398Y-97285792D01*
X131296661Y-97305233D01*
X131213799Y-97360599D01*
X131158433Y-97443461D01*
X131138992Y-97541197D01*
X131138992Y-97541202D01*
X130849808Y-97541202D01*
X130849808Y-97541197D01*
X130830366Y-97443461D01*
X130830366Y-97443460D01*
X130775001Y-97360599D01*
X130692140Y-97305234D01*
X130692139Y-97305233D01*
X130692138Y-97305233D01*
X130594402Y-97285792D01*
X130594398Y-97285792D01*
X130496661Y-97305233D01*
X130413799Y-97360599D01*
X130358433Y-97443461D01*
X130338992Y-97541197D01*
X130338992Y-97541202D01*
X126154509Y-97541202D01*
X126161300Y-97515857D01*
X126161300Y-97357743D01*
X126120377Y-97205016D01*
X126106166Y-97180402D01*
X139111792Y-97180402D01*
X139131233Y-97278138D01*
X139131233Y-97278139D01*
X139131234Y-97278140D01*
X139186599Y-97361001D01*
X139269460Y-97416366D01*
X139302040Y-97422846D01*
X139367198Y-97435808D01*
X139367200Y-97435808D01*
X139367202Y-97435808D01*
X139416070Y-97426087D01*
X139464940Y-97416366D01*
X139547801Y-97361001D01*
X139603166Y-97278140D01*
X139615286Y-97217210D01*
X139622608Y-97180402D01*
X139622608Y-97180397D01*
X139603166Y-97082661D01*
X139603166Y-97082660D01*
X139547801Y-96999799D01*
X139464940Y-96944434D01*
X139464939Y-96944433D01*
X139464938Y-96944433D01*
X139367202Y-96924992D01*
X139367198Y-96924992D01*
X139269461Y-96944433D01*
X139186599Y-96999799D01*
X139131233Y-97082661D01*
X139111792Y-97180397D01*
X139111792Y-97180402D01*
X126106166Y-97180402D01*
X126065866Y-97110599D01*
X126041324Y-97068090D01*
X126041318Y-97068082D01*
X125929518Y-96956282D01*
X125929516Y-96956280D01*
X125873299Y-96923823D01*
X125825084Y-96873255D01*
X125811300Y-96816436D01*
X125811300Y-96787163D01*
X125824796Y-96741202D01*
X129538992Y-96741202D01*
X129558433Y-96838938D01*
X129558433Y-96838939D01*
X129558434Y-96838940D01*
X129613799Y-96921801D01*
X129696660Y-96977166D01*
X129729240Y-96983646D01*
X129794398Y-96996608D01*
X129794400Y-96996608D01*
X129794402Y-96996608D01*
X129847553Y-96986035D01*
X129892140Y-96977166D01*
X129975001Y-96921801D01*
X130030366Y-96838940D01*
X130040665Y-96787163D01*
X130049808Y-96741202D01*
X130338992Y-96741202D01*
X130358433Y-96838938D01*
X130358433Y-96838939D01*
X130358434Y-96838940D01*
X130413799Y-96921801D01*
X130496660Y-96977166D01*
X130529240Y-96983646D01*
X130594398Y-96996608D01*
X130594400Y-96996608D01*
X130594402Y-96996608D01*
X130647553Y-96986035D01*
X130692140Y-96977166D01*
X130775001Y-96921801D01*
X130830366Y-96838940D01*
X130840665Y-96787163D01*
X130849808Y-96741202D01*
X131138992Y-96741202D01*
X131158433Y-96838938D01*
X131158433Y-96838939D01*
X131158434Y-96838940D01*
X131213799Y-96921801D01*
X131296660Y-96977166D01*
X131329240Y-96983646D01*
X131394398Y-96996608D01*
X131394400Y-96996608D01*
X131394402Y-96996608D01*
X131447553Y-96986035D01*
X131492140Y-96977166D01*
X131575001Y-96921801D01*
X131630366Y-96838940D01*
X131640665Y-96787163D01*
X131649808Y-96741202D01*
X131938992Y-96741202D01*
X131958433Y-96838938D01*
X131958433Y-96838939D01*
X131958434Y-96838940D01*
X132013799Y-96921801D01*
X132096660Y-96977166D01*
X132129240Y-96983646D01*
X132194398Y-96996608D01*
X132194400Y-96996608D01*
X132194402Y-96996608D01*
X132247553Y-96986035D01*
X132292140Y-96977166D01*
X132375001Y-96921801D01*
X132430366Y-96838940D01*
X132440665Y-96787163D01*
X132449808Y-96741202D01*
X132738992Y-96741202D01*
X132758433Y-96838938D01*
X132758433Y-96838939D01*
X132758434Y-96838940D01*
X132813799Y-96921801D01*
X132896660Y-96977166D01*
X132929240Y-96983646D01*
X132994398Y-96996608D01*
X132994400Y-96996608D01*
X132994402Y-96996608D01*
X133047553Y-96986035D01*
X133092140Y-96977166D01*
X133175001Y-96921801D01*
X133230366Y-96838940D01*
X133240665Y-96787163D01*
X133249808Y-96741202D01*
X133538992Y-96741202D01*
X133558433Y-96838938D01*
X133558433Y-96838939D01*
X133558434Y-96838940D01*
X133613799Y-96921801D01*
X133696660Y-96977166D01*
X133729240Y-96983646D01*
X133794398Y-96996608D01*
X133794400Y-96996608D01*
X133794402Y-96996608D01*
X133847553Y-96986035D01*
X133892140Y-96977166D01*
X133975001Y-96921801D01*
X134030366Y-96838940D01*
X134040665Y-96787163D01*
X134049808Y-96741202D01*
X134338992Y-96741202D01*
X134358433Y-96838938D01*
X134358433Y-96838939D01*
X134358434Y-96838940D01*
X134413799Y-96921801D01*
X134496660Y-96977166D01*
X134529240Y-96983646D01*
X134594398Y-96996608D01*
X134594400Y-96996608D01*
X134594402Y-96996608D01*
X134647553Y-96986035D01*
X134692140Y-96977166D01*
X134775001Y-96921801D01*
X134830366Y-96838940D01*
X134840665Y-96787163D01*
X134849808Y-96741202D01*
X135138992Y-96741202D01*
X135158433Y-96838938D01*
X135158433Y-96838939D01*
X135158434Y-96838940D01*
X135213799Y-96921801D01*
X135296660Y-96977166D01*
X135329240Y-96983646D01*
X135394398Y-96996608D01*
X135394400Y-96996608D01*
X135394402Y-96996608D01*
X135447553Y-96986035D01*
X135492140Y-96977166D01*
X135575001Y-96921801D01*
X135630366Y-96838940D01*
X135640665Y-96787163D01*
X135649808Y-96741202D01*
X135938992Y-96741202D01*
X135958433Y-96838938D01*
X135958433Y-96838939D01*
X135958434Y-96838940D01*
X136013799Y-96921801D01*
X136096660Y-96977166D01*
X136129240Y-96983646D01*
X136194398Y-96996608D01*
X136194400Y-96996608D01*
X136194402Y-96996608D01*
X136247553Y-96986035D01*
X136292140Y-96977166D01*
X136375001Y-96921801D01*
X136430366Y-96838940D01*
X136440665Y-96787163D01*
X136449808Y-96741202D01*
X136449808Y-96741197D01*
X136430366Y-96643461D01*
X136430366Y-96643460D01*
X136375001Y-96560599D01*
X136292140Y-96505234D01*
X136292139Y-96505233D01*
X136292138Y-96505233D01*
X136194402Y-96485792D01*
X136194398Y-96485792D01*
X136096661Y-96505233D01*
X136013799Y-96560599D01*
X135958433Y-96643461D01*
X135938992Y-96741197D01*
X135938992Y-96741202D01*
X135649808Y-96741202D01*
X135649808Y-96741197D01*
X135630366Y-96643461D01*
X135630366Y-96643460D01*
X135575001Y-96560599D01*
X135492140Y-96505234D01*
X135492139Y-96505233D01*
X135492138Y-96505233D01*
X135394402Y-96485792D01*
X135394398Y-96485792D01*
X135296661Y-96505233D01*
X135213799Y-96560599D01*
X135158433Y-96643461D01*
X135138992Y-96741197D01*
X135138992Y-96741202D01*
X134849808Y-96741202D01*
X134849808Y-96741197D01*
X134830366Y-96643461D01*
X134830366Y-96643460D01*
X134775001Y-96560599D01*
X134692140Y-96505234D01*
X134692139Y-96505233D01*
X134692138Y-96505233D01*
X134594402Y-96485792D01*
X134594398Y-96485792D01*
X134496661Y-96505233D01*
X134413799Y-96560599D01*
X134358433Y-96643461D01*
X134338992Y-96741197D01*
X134338992Y-96741202D01*
X134049808Y-96741202D01*
X134049808Y-96741197D01*
X134030366Y-96643461D01*
X134030366Y-96643460D01*
X133975001Y-96560599D01*
X133892140Y-96505234D01*
X133892139Y-96505233D01*
X133892138Y-96505233D01*
X133794402Y-96485792D01*
X133794398Y-96485792D01*
X133696661Y-96505233D01*
X133613799Y-96560599D01*
X133558433Y-96643461D01*
X133538992Y-96741197D01*
X133538992Y-96741202D01*
X133249808Y-96741202D01*
X133249808Y-96741197D01*
X133230366Y-96643461D01*
X133230366Y-96643460D01*
X133175001Y-96560599D01*
X133092140Y-96505234D01*
X133092139Y-96505233D01*
X133092138Y-96505233D01*
X132994402Y-96485792D01*
X132994398Y-96485792D01*
X132896661Y-96505233D01*
X132813799Y-96560599D01*
X132758433Y-96643461D01*
X132738992Y-96741197D01*
X132738992Y-96741202D01*
X132449808Y-96741202D01*
X132449808Y-96741197D01*
X132430366Y-96643461D01*
X132430366Y-96643460D01*
X132375001Y-96560599D01*
X132292140Y-96505234D01*
X132292139Y-96505233D01*
X132292138Y-96505233D01*
X132194402Y-96485792D01*
X132194398Y-96485792D01*
X132096661Y-96505233D01*
X132013799Y-96560599D01*
X131958433Y-96643461D01*
X131938992Y-96741197D01*
X131938992Y-96741202D01*
X131649808Y-96741202D01*
X131649808Y-96741197D01*
X131630366Y-96643461D01*
X131630366Y-96643460D01*
X131575001Y-96560599D01*
X131492140Y-96505234D01*
X131492139Y-96505233D01*
X131492138Y-96505233D01*
X131394402Y-96485792D01*
X131394398Y-96485792D01*
X131296661Y-96505233D01*
X131213799Y-96560599D01*
X131158433Y-96643461D01*
X131138992Y-96741197D01*
X131138992Y-96741202D01*
X130849808Y-96741202D01*
X130849808Y-96741197D01*
X130830366Y-96643461D01*
X130830366Y-96643460D01*
X130775001Y-96560599D01*
X130692140Y-96505234D01*
X130692139Y-96505233D01*
X130692138Y-96505233D01*
X130594402Y-96485792D01*
X130594398Y-96485792D01*
X130496661Y-96505233D01*
X130413799Y-96560599D01*
X130358433Y-96643461D01*
X130338992Y-96741197D01*
X130338992Y-96741202D01*
X130049808Y-96741202D01*
X130049808Y-96741197D01*
X130030366Y-96643461D01*
X130030366Y-96643460D01*
X129975001Y-96560599D01*
X129892140Y-96505234D01*
X129892139Y-96505233D01*
X129892138Y-96505233D01*
X129794402Y-96485792D01*
X129794398Y-96485792D01*
X129696661Y-96505233D01*
X129613799Y-96560599D01*
X129558433Y-96643461D01*
X129538992Y-96741197D01*
X129538992Y-96741202D01*
X125824796Y-96741202D01*
X125830985Y-96720124D01*
X125873301Y-96679775D01*
X125929516Y-96647320D01*
X126041320Y-96535516D01*
X126120377Y-96398584D01*
X126128679Y-96367602D01*
X139094992Y-96367602D01*
X139114433Y-96465338D01*
X139114433Y-96465339D01*
X139114434Y-96465340D01*
X139169799Y-96548201D01*
X139252660Y-96603566D01*
X139285240Y-96610046D01*
X139350398Y-96623008D01*
X139350400Y-96623008D01*
X139350402Y-96623008D01*
X139399270Y-96613287D01*
X139448140Y-96603566D01*
X139531001Y-96548201D01*
X139586366Y-96465340D01*
X139599645Y-96398583D01*
X139605808Y-96367602D01*
X139605808Y-96367597D01*
X139586366Y-96269861D01*
X139586366Y-96269860D01*
X139531001Y-96186999D01*
X139448140Y-96131634D01*
X139448139Y-96131633D01*
X139448138Y-96131633D01*
X139447725Y-96131462D01*
X139446962Y-96130847D01*
X139437985Y-96124849D01*
X139438521Y-96124045D01*
X139393320Y-96087622D01*
X139371254Y-96021329D01*
X139388532Y-95953629D01*
X139439668Y-95906017D01*
X139447725Y-95902338D01*
X139448136Y-95902166D01*
X139448140Y-95902166D01*
X139531001Y-95846801D01*
X139586366Y-95763940D01*
X139600148Y-95694654D01*
X139605808Y-95666202D01*
X139605808Y-95666197D01*
X139586366Y-95568461D01*
X139586366Y-95568460D01*
X139531001Y-95485599D01*
X139448140Y-95430234D01*
X139448139Y-95430233D01*
X139448138Y-95430233D01*
X139433478Y-95427317D01*
X139371567Y-95394932D01*
X139351226Y-95359212D01*
X139319200Y-95403625D01*
X139267322Y-95427317D01*
X139252661Y-95430233D01*
X139169799Y-95485599D01*
X139114433Y-95568461D01*
X139094992Y-95666197D01*
X139094992Y-95666202D01*
X139114433Y-95763938D01*
X139114433Y-95763939D01*
X139114434Y-95763940D01*
X139169799Y-95846801D01*
X139239632Y-95893461D01*
X139252660Y-95902166D01*
X139253078Y-95902339D01*
X139253847Y-95902959D01*
X139262815Y-95908951D01*
X139262278Y-95909753D01*
X139307481Y-95946181D01*
X139329545Y-96012475D01*
X139312265Y-96080174D01*
X139261128Y-96127784D01*
X139253078Y-96131461D01*
X139252660Y-96131633D01*
X139169799Y-96186999D01*
X139114433Y-96269861D01*
X139094992Y-96367597D01*
X139094992Y-96367602D01*
X126128679Y-96367602D01*
X126161300Y-96245857D01*
X126161300Y-96087743D01*
X126120377Y-95935016D01*
X126101411Y-95902166D01*
X126041324Y-95798090D01*
X126041318Y-95798082D01*
X125929518Y-95686282D01*
X125929516Y-95686280D01*
X125873299Y-95653823D01*
X125825084Y-95603255D01*
X125811300Y-95546436D01*
X125811300Y-95517163D01*
X125830985Y-95450124D01*
X125873301Y-95409775D01*
X125879005Y-95406482D01*
X125929516Y-95377320D01*
X126041320Y-95265516D01*
X126120377Y-95128584D01*
X126128679Y-95097602D01*
X126795392Y-95097602D01*
X126814833Y-95195338D01*
X126814833Y-95195339D01*
X126814834Y-95195340D01*
X126870199Y-95278201D01*
X126953060Y-95333566D01*
X126953142Y-95333582D01*
X126953311Y-95333670D01*
X126964343Y-95338240D01*
X126963934Y-95339226D01*
X127015052Y-95365963D01*
X127049630Y-95426677D01*
X127050573Y-95479390D01*
X127042192Y-95521527D01*
X127042192Y-95521528D01*
X127061633Y-95619264D01*
X127061633Y-95619265D01*
X127061634Y-95619266D01*
X127116999Y-95702127D01*
X127199860Y-95757492D01*
X127215480Y-95760599D01*
X127297598Y-95776934D01*
X127297600Y-95776934D01*
X127297602Y-95776934D01*
X127362934Y-95763938D01*
X127395340Y-95757492D01*
X127458140Y-95715531D01*
X127524814Y-95694654D01*
X127592194Y-95713138D01*
X127638885Y-95765117D01*
X127648645Y-95794443D01*
X127661633Y-95859738D01*
X127661633Y-95859739D01*
X127661634Y-95859740D01*
X127716999Y-95942601D01*
X127799860Y-95997966D01*
X127832440Y-96004446D01*
X127897598Y-96017408D01*
X127897600Y-96017408D01*
X127897602Y-96017408D01*
X127946470Y-96007687D01*
X127995340Y-95997966D01*
X128078201Y-95942601D01*
X128079136Y-95941202D01*
X133538992Y-95941202D01*
X133558433Y-96038938D01*
X133558433Y-96038939D01*
X133558434Y-96038940D01*
X133613799Y-96121801D01*
X133696660Y-96177166D01*
X133729240Y-96183646D01*
X133794398Y-96196608D01*
X133794400Y-96196608D01*
X133794402Y-96196608D01*
X133843270Y-96186887D01*
X133892140Y-96177166D01*
X133975001Y-96121801D01*
X134030366Y-96038940D01*
X134047336Y-95953629D01*
X134049808Y-95941202D01*
X134338992Y-95941202D01*
X134358433Y-96038938D01*
X134358433Y-96038939D01*
X134358434Y-96038940D01*
X134413799Y-96121801D01*
X134496660Y-96177166D01*
X134529240Y-96183646D01*
X134594398Y-96196608D01*
X134594400Y-96196608D01*
X134594402Y-96196608D01*
X134643270Y-96186887D01*
X134692140Y-96177166D01*
X134775001Y-96121801D01*
X134830366Y-96038940D01*
X134847336Y-95953629D01*
X134849808Y-95941202D01*
X135138992Y-95941202D01*
X135158433Y-96038938D01*
X135158433Y-96038939D01*
X135158434Y-96038940D01*
X135213799Y-96121801D01*
X135296660Y-96177166D01*
X135329240Y-96183646D01*
X135394398Y-96196608D01*
X135394400Y-96196608D01*
X135394402Y-96196608D01*
X135443270Y-96186887D01*
X135492140Y-96177166D01*
X135575001Y-96121801D01*
X135630366Y-96038940D01*
X135647336Y-95953629D01*
X135649808Y-95941202D01*
X135938992Y-95941202D01*
X135958433Y-96038938D01*
X135958433Y-96038939D01*
X135958434Y-96038940D01*
X136013799Y-96121801D01*
X136096660Y-96177166D01*
X136129240Y-96183646D01*
X136194398Y-96196608D01*
X136194400Y-96196608D01*
X136194402Y-96196608D01*
X136243270Y-96186887D01*
X136292140Y-96177166D01*
X136375001Y-96121801D01*
X136430366Y-96038940D01*
X136447336Y-95953629D01*
X136449808Y-95941202D01*
X136449808Y-95941197D01*
X136433604Y-95859738D01*
X136430366Y-95843460D01*
X136375001Y-95760599D01*
X136292140Y-95705234D01*
X136292139Y-95705233D01*
X136292138Y-95705233D01*
X136194402Y-95685792D01*
X136194398Y-95685792D01*
X136096661Y-95705233D01*
X136013799Y-95760599D01*
X135958433Y-95843461D01*
X135938992Y-95941197D01*
X135938992Y-95941202D01*
X135649808Y-95941202D01*
X135649808Y-95941197D01*
X135633604Y-95859738D01*
X135630366Y-95843460D01*
X135575001Y-95760599D01*
X135492140Y-95705234D01*
X135492139Y-95705233D01*
X135492138Y-95705233D01*
X135394402Y-95685792D01*
X135394398Y-95685792D01*
X135296661Y-95705233D01*
X135213799Y-95760599D01*
X135158433Y-95843461D01*
X135138992Y-95941197D01*
X135138992Y-95941202D01*
X134849808Y-95941202D01*
X134849808Y-95941197D01*
X134833604Y-95859738D01*
X134830366Y-95843460D01*
X134775001Y-95760599D01*
X134692140Y-95705234D01*
X134692139Y-95705233D01*
X134692138Y-95705233D01*
X134594402Y-95685792D01*
X134594398Y-95685792D01*
X134496661Y-95705233D01*
X134413799Y-95760599D01*
X134358433Y-95843461D01*
X134338992Y-95941197D01*
X134338992Y-95941202D01*
X134049808Y-95941202D01*
X134049808Y-95941197D01*
X134033604Y-95859738D01*
X134030366Y-95843460D01*
X133975001Y-95760599D01*
X133892140Y-95705234D01*
X133892139Y-95705233D01*
X133892138Y-95705233D01*
X133794402Y-95685792D01*
X133794398Y-95685792D01*
X133696661Y-95705233D01*
X133613799Y-95760599D01*
X133558433Y-95843461D01*
X133538992Y-95941197D01*
X133538992Y-95941202D01*
X128079136Y-95941202D01*
X128133566Y-95859740D01*
X128149315Y-95780566D01*
X128153008Y-95762002D01*
X128153008Y-95761997D01*
X128138426Y-95688695D01*
X128133566Y-95664260D01*
X128078201Y-95581399D01*
X127995340Y-95526034D01*
X127995339Y-95526033D01*
X127995338Y-95526033D01*
X127897602Y-95506592D01*
X127897598Y-95506592D01*
X127799860Y-95526033D01*
X127737060Y-95567994D01*
X127670383Y-95588871D01*
X127603003Y-95570386D01*
X127556313Y-95518406D01*
X127546555Y-95489089D01*
X127533566Y-95423786D01*
X127478201Y-95340925D01*
X127395340Y-95285560D01*
X127395339Y-95285559D01*
X127395338Y-95285559D01*
X127395252Y-95285542D01*
X127395077Y-95285450D01*
X127384057Y-95280886D01*
X127384465Y-95279899D01*
X127333341Y-95253156D01*
X127298767Y-95192440D01*
X127297827Y-95139733D01*
X127306208Y-95097600D01*
X127306208Y-95097597D01*
X127286766Y-94999861D01*
X127286766Y-94999860D01*
X127231401Y-94916999D01*
X127231399Y-94916997D01*
X127231398Y-94916996D01*
X127224785Y-94910383D01*
X127191300Y-94849060D01*
X127195667Y-94788002D01*
X127735192Y-94788002D01*
X127754633Y-94885738D01*
X127754633Y-94885739D01*
X127754634Y-94885740D01*
X127809999Y-94968601D01*
X127892860Y-95023966D01*
X127925440Y-95030446D01*
X127990598Y-95043408D01*
X127990600Y-95043408D01*
X127990602Y-95043408D01*
X128039470Y-95033687D01*
X128088340Y-95023966D01*
X128171201Y-94968601D01*
X128186835Y-94945202D01*
X139094992Y-94945202D01*
X139114433Y-95042938D01*
X139114433Y-95042939D01*
X139114434Y-95042940D01*
X139169799Y-95125801D01*
X139252660Y-95181166D01*
X139256827Y-95181994D01*
X139267322Y-95184083D01*
X139329233Y-95216468D01*
X139349572Y-95252186D01*
X139381598Y-95207775D01*
X139433478Y-95184083D01*
X139441649Y-95182456D01*
X139448140Y-95181166D01*
X139531001Y-95125801D01*
X139586366Y-95042940D01*
X139601153Y-94968601D01*
X139605808Y-94945202D01*
X139605808Y-94945197D01*
X139586366Y-94847461D01*
X139586366Y-94847460D01*
X139531001Y-94764599D01*
X139448140Y-94709234D01*
X139448139Y-94709233D01*
X139448138Y-94709233D01*
X139350402Y-94689792D01*
X139350398Y-94689792D01*
X139252661Y-94709233D01*
X139169799Y-94764599D01*
X139114433Y-94847461D01*
X139094992Y-94945197D01*
X139094992Y-94945202D01*
X128186835Y-94945202D01*
X128226566Y-94885740D01*
X128245821Y-94788940D01*
X128246008Y-94788002D01*
X128246008Y-94787997D01*
X128226566Y-94690261D01*
X128226566Y-94690260D01*
X128171201Y-94607399D01*
X128088340Y-94552034D01*
X128088339Y-94552033D01*
X128088338Y-94552033D01*
X127990602Y-94532592D01*
X127990598Y-94532592D01*
X127892861Y-94552033D01*
X127809999Y-94607399D01*
X127754633Y-94690261D01*
X127735192Y-94787997D01*
X127735192Y-94788002D01*
X127195667Y-94788002D01*
X127196284Y-94779368D01*
X127238156Y-94723435D01*
X127288277Y-94701084D01*
X127300940Y-94698566D01*
X127383801Y-94643201D01*
X127439166Y-94560340D01*
X127458608Y-94462600D01*
X127458608Y-94462597D01*
X127439166Y-94364861D01*
X127439166Y-94364860D01*
X127383801Y-94281999D01*
X127300940Y-94226634D01*
X127300939Y-94226633D01*
X127300938Y-94226633D01*
X127203202Y-94207192D01*
X127203198Y-94207192D01*
X127105461Y-94226633D01*
X127022599Y-94281999D01*
X126967233Y-94364861D01*
X126947792Y-94462597D01*
X126947792Y-94462602D01*
X126967233Y-94560338D01*
X126967233Y-94560339D01*
X126967234Y-94560340D01*
X127022599Y-94643201D01*
X127022600Y-94643201D01*
X127022601Y-94643203D01*
X127029214Y-94649816D01*
X127062699Y-94711139D01*
X127057715Y-94780831D01*
X127015843Y-94836764D01*
X126965726Y-94859114D01*
X126953061Y-94861633D01*
X126870199Y-94916999D01*
X126814833Y-94999861D01*
X126795392Y-95097597D01*
X126795392Y-95097602D01*
X126128679Y-95097602D01*
X126161300Y-94975857D01*
X126161300Y-94817743D01*
X126120377Y-94665016D01*
X126107782Y-94643200D01*
X126041324Y-94528090D01*
X126041318Y-94528082D01*
X125929518Y-94416282D01*
X125929516Y-94416280D01*
X125873299Y-94383823D01*
X125825084Y-94333255D01*
X125811300Y-94276436D01*
X125811300Y-94247163D01*
X125830985Y-94180124D01*
X125873301Y-94139775D01*
X125929516Y-94107320D01*
X126041320Y-93995516D01*
X126120377Y-93858584D01*
X126161300Y-93705857D01*
X126161300Y-93547743D01*
X126120377Y-93395016D01*
X126061745Y-93293461D01*
X126041324Y-93258090D01*
X126041318Y-93258082D01*
X125929518Y-93146282D01*
X125929516Y-93146280D01*
X125873299Y-93113823D01*
X125825084Y-93063255D01*
X125811300Y-93006436D01*
X125811300Y-92977163D01*
X125830985Y-92910124D01*
X125873301Y-92869775D01*
X125929516Y-92837320D01*
X126025634Y-92741202D01*
X133538992Y-92741202D01*
X133558433Y-92838938D01*
X133558433Y-92838939D01*
X133558434Y-92838940D01*
X133613799Y-92921801D01*
X133696660Y-92977166D01*
X133727688Y-92983338D01*
X133794398Y-92996608D01*
X133794400Y-92996608D01*
X133794402Y-92996608D01*
X133843270Y-92986887D01*
X133892140Y-92977166D01*
X133975001Y-92921801D01*
X134030366Y-92838940D01*
X134049808Y-92741202D01*
X134338992Y-92741202D01*
X134358433Y-92838938D01*
X134358433Y-92838939D01*
X134358434Y-92838940D01*
X134413799Y-92921801D01*
X134496660Y-92977166D01*
X134527688Y-92983338D01*
X134594398Y-92996608D01*
X134594400Y-92996608D01*
X134594402Y-92996608D01*
X134643270Y-92986887D01*
X134692140Y-92977166D01*
X134775001Y-92921801D01*
X134830366Y-92838940D01*
X134849808Y-92741202D01*
X135138992Y-92741202D01*
X135158433Y-92838938D01*
X135158433Y-92838939D01*
X135158434Y-92838940D01*
X135213799Y-92921801D01*
X135296660Y-92977166D01*
X135327688Y-92983338D01*
X135394398Y-92996608D01*
X135394400Y-92996608D01*
X135394402Y-92996608D01*
X135443270Y-92986887D01*
X135492140Y-92977166D01*
X135575001Y-92921801D01*
X135630366Y-92838940D01*
X135649808Y-92741202D01*
X135938992Y-92741202D01*
X135958433Y-92838938D01*
X135958433Y-92838939D01*
X135958434Y-92838940D01*
X136013799Y-92921801D01*
X136096660Y-92977166D01*
X136127688Y-92983338D01*
X136194398Y-92996608D01*
X136194400Y-92996608D01*
X136194402Y-92996608D01*
X136243270Y-92986887D01*
X136292140Y-92977166D01*
X136375001Y-92921801D01*
X136430366Y-92838940D01*
X136449808Y-92741200D01*
X136449808Y-92741197D01*
X136430366Y-92643461D01*
X136430366Y-92643460D01*
X136375001Y-92560599D01*
X136292140Y-92505234D01*
X136292139Y-92505233D01*
X136292138Y-92505233D01*
X136194402Y-92485792D01*
X136194398Y-92485792D01*
X136096661Y-92505233D01*
X136013799Y-92560599D01*
X135958433Y-92643461D01*
X135938992Y-92741197D01*
X135938992Y-92741202D01*
X135649808Y-92741202D01*
X135649808Y-92741200D01*
X135649808Y-92741197D01*
X135630366Y-92643461D01*
X135630366Y-92643460D01*
X135575001Y-92560599D01*
X135492140Y-92505234D01*
X135492139Y-92505233D01*
X135492138Y-92505233D01*
X135394402Y-92485792D01*
X135394398Y-92485792D01*
X135296661Y-92505233D01*
X135213799Y-92560599D01*
X135158433Y-92643461D01*
X135138992Y-92741197D01*
X135138992Y-92741202D01*
X134849808Y-92741202D01*
X134849808Y-92741200D01*
X134849808Y-92741197D01*
X134830366Y-92643461D01*
X134830366Y-92643460D01*
X134775001Y-92560599D01*
X134692140Y-92505234D01*
X134692139Y-92505233D01*
X134692138Y-92505233D01*
X134594402Y-92485792D01*
X134594398Y-92485792D01*
X134496661Y-92505233D01*
X134413799Y-92560599D01*
X134358433Y-92643461D01*
X134338992Y-92741197D01*
X134338992Y-92741202D01*
X134049808Y-92741202D01*
X134049808Y-92741200D01*
X134049808Y-92741197D01*
X134030366Y-92643461D01*
X134030366Y-92643460D01*
X133975001Y-92560599D01*
X133892140Y-92505234D01*
X133892139Y-92505233D01*
X133892138Y-92505233D01*
X133794402Y-92485792D01*
X133794398Y-92485792D01*
X133696661Y-92505233D01*
X133613799Y-92560599D01*
X133558433Y-92643461D01*
X133538992Y-92741197D01*
X133538992Y-92741202D01*
X126025634Y-92741202D01*
X126041320Y-92725516D01*
X126120377Y-92588584D01*
X126161300Y-92435857D01*
X126161300Y-92277743D01*
X126120377Y-92125016D01*
X126100852Y-92091197D01*
X126041324Y-91988090D01*
X126041318Y-91988082D01*
X125994438Y-91941202D01*
X129538992Y-91941202D01*
X129558433Y-92038938D01*
X129558433Y-92038939D01*
X129558434Y-92038940D01*
X129613799Y-92121801D01*
X129696660Y-92177166D01*
X129729240Y-92183646D01*
X129794398Y-92196608D01*
X129794400Y-92196608D01*
X129794402Y-92196608D01*
X129844532Y-92186636D01*
X129892140Y-92177166D01*
X129975001Y-92121801D01*
X130030366Y-92038940D01*
X130049808Y-91941202D01*
X130338992Y-91941202D01*
X130358433Y-92038938D01*
X130358433Y-92038939D01*
X130358434Y-92038940D01*
X130413799Y-92121801D01*
X130496660Y-92177166D01*
X130529240Y-92183646D01*
X130594398Y-92196608D01*
X130594400Y-92196608D01*
X130594402Y-92196608D01*
X130644532Y-92186636D01*
X130692140Y-92177166D01*
X130775001Y-92121801D01*
X130830366Y-92038940D01*
X130849808Y-91941202D01*
X131138992Y-91941202D01*
X131158433Y-92038938D01*
X131158433Y-92038939D01*
X131158434Y-92038940D01*
X131213799Y-92121801D01*
X131296660Y-92177166D01*
X131329240Y-92183646D01*
X131394398Y-92196608D01*
X131394400Y-92196608D01*
X131394402Y-92196608D01*
X131444532Y-92186636D01*
X131492140Y-92177166D01*
X131575001Y-92121801D01*
X131630366Y-92038940D01*
X131649808Y-91941202D01*
X131938992Y-91941202D01*
X131958433Y-92038938D01*
X131958433Y-92038939D01*
X131958434Y-92038940D01*
X132013799Y-92121801D01*
X132096660Y-92177166D01*
X132129240Y-92183646D01*
X132194398Y-92196608D01*
X132194400Y-92196608D01*
X132194402Y-92196608D01*
X132244532Y-92186636D01*
X132292140Y-92177166D01*
X132375001Y-92121801D01*
X132430366Y-92038940D01*
X132449808Y-91941202D01*
X132738992Y-91941202D01*
X132758433Y-92038938D01*
X132758433Y-92038939D01*
X132758434Y-92038940D01*
X132813799Y-92121801D01*
X132896660Y-92177166D01*
X132929240Y-92183646D01*
X132994398Y-92196608D01*
X132994400Y-92196608D01*
X132994402Y-92196608D01*
X133044532Y-92186636D01*
X133092140Y-92177166D01*
X133175001Y-92121801D01*
X133230366Y-92038940D01*
X133249808Y-91941202D01*
X133538992Y-91941202D01*
X133558433Y-92038938D01*
X133558433Y-92038939D01*
X133558434Y-92038940D01*
X133613799Y-92121801D01*
X133696660Y-92177166D01*
X133729240Y-92183646D01*
X133794398Y-92196608D01*
X133794400Y-92196608D01*
X133794402Y-92196608D01*
X133844532Y-92186636D01*
X133892140Y-92177166D01*
X133975001Y-92121801D01*
X134030366Y-92038940D01*
X134049808Y-91941202D01*
X134338992Y-91941202D01*
X134358433Y-92038938D01*
X134358433Y-92038939D01*
X134358434Y-92038940D01*
X134413799Y-92121801D01*
X134496660Y-92177166D01*
X134529240Y-92183646D01*
X134594398Y-92196608D01*
X134594400Y-92196608D01*
X134594402Y-92196608D01*
X134644532Y-92186636D01*
X134692140Y-92177166D01*
X134775001Y-92121801D01*
X134830366Y-92038940D01*
X134849808Y-91941202D01*
X135138992Y-91941202D01*
X135158433Y-92038938D01*
X135158433Y-92038939D01*
X135158434Y-92038940D01*
X135213799Y-92121801D01*
X135296660Y-92177166D01*
X135329240Y-92183646D01*
X135394398Y-92196608D01*
X135394400Y-92196608D01*
X135394402Y-92196608D01*
X135444532Y-92186636D01*
X135492140Y-92177166D01*
X135575001Y-92121801D01*
X135630366Y-92038940D01*
X135649808Y-91941202D01*
X135938992Y-91941202D01*
X135958433Y-92038938D01*
X135958433Y-92038939D01*
X135958434Y-92038940D01*
X136013799Y-92121801D01*
X136096660Y-92177166D01*
X136129240Y-92183646D01*
X136194398Y-92196608D01*
X136194400Y-92196608D01*
X136194402Y-92196608D01*
X136244532Y-92186636D01*
X136292140Y-92177166D01*
X136375001Y-92121801D01*
X136430366Y-92038940D01*
X136449808Y-91941200D01*
X136449808Y-91941197D01*
X136430366Y-91843461D01*
X136430366Y-91843460D01*
X136375001Y-91760599D01*
X136292140Y-91705234D01*
X136292139Y-91705233D01*
X136292138Y-91705233D01*
X136194402Y-91685792D01*
X136194398Y-91685792D01*
X136096661Y-91705233D01*
X136013799Y-91760599D01*
X135958433Y-91843461D01*
X135938992Y-91941197D01*
X135938992Y-91941202D01*
X135649808Y-91941202D01*
X135649808Y-91941200D01*
X135649808Y-91941197D01*
X135630366Y-91843461D01*
X135630366Y-91843460D01*
X135575001Y-91760599D01*
X135492140Y-91705234D01*
X135492139Y-91705233D01*
X135492138Y-91705233D01*
X135394402Y-91685792D01*
X135394398Y-91685792D01*
X135296661Y-91705233D01*
X135213799Y-91760599D01*
X135158433Y-91843461D01*
X135138992Y-91941197D01*
X135138992Y-91941202D01*
X134849808Y-91941202D01*
X134849808Y-91941200D01*
X134849808Y-91941197D01*
X134830366Y-91843461D01*
X134830366Y-91843460D01*
X134775001Y-91760599D01*
X134692140Y-91705234D01*
X134692139Y-91705233D01*
X134692138Y-91705233D01*
X134594402Y-91685792D01*
X134594398Y-91685792D01*
X134496661Y-91705233D01*
X134413799Y-91760599D01*
X134358433Y-91843461D01*
X134338992Y-91941197D01*
X134338992Y-91941202D01*
X134049808Y-91941202D01*
X134049808Y-91941200D01*
X134049808Y-91941197D01*
X134030366Y-91843461D01*
X134030366Y-91843460D01*
X133975001Y-91760599D01*
X133892140Y-91705234D01*
X133892139Y-91705233D01*
X133892138Y-91705233D01*
X133794402Y-91685792D01*
X133794398Y-91685792D01*
X133696661Y-91705233D01*
X133613799Y-91760599D01*
X133558433Y-91843461D01*
X133538992Y-91941197D01*
X133538992Y-91941202D01*
X133249808Y-91941202D01*
X133249808Y-91941200D01*
X133249808Y-91941197D01*
X133230366Y-91843461D01*
X133230366Y-91843460D01*
X133175001Y-91760599D01*
X133092140Y-91705234D01*
X133092139Y-91705233D01*
X133092138Y-91705233D01*
X132994402Y-91685792D01*
X132994398Y-91685792D01*
X132896661Y-91705233D01*
X132813799Y-91760599D01*
X132758433Y-91843461D01*
X132738992Y-91941197D01*
X132738992Y-91941202D01*
X132449808Y-91941202D01*
X132449808Y-91941200D01*
X132449808Y-91941197D01*
X132430366Y-91843461D01*
X132430366Y-91843460D01*
X132375001Y-91760599D01*
X132292140Y-91705234D01*
X132292139Y-91705233D01*
X132292138Y-91705233D01*
X132194402Y-91685792D01*
X132194398Y-91685792D01*
X132096661Y-91705233D01*
X132013799Y-91760599D01*
X131958433Y-91843461D01*
X131938992Y-91941197D01*
X131938992Y-91941202D01*
X131649808Y-91941202D01*
X131649808Y-91941200D01*
X131649808Y-91941197D01*
X131630366Y-91843461D01*
X131630366Y-91843460D01*
X131575001Y-91760599D01*
X131492140Y-91705234D01*
X131492139Y-91705233D01*
X131492138Y-91705233D01*
X131394402Y-91685792D01*
X131394398Y-91685792D01*
X131296661Y-91705233D01*
X131213799Y-91760599D01*
X131158433Y-91843461D01*
X131138992Y-91941197D01*
X131138992Y-91941202D01*
X130849808Y-91941202D01*
X130849808Y-91941200D01*
X130849808Y-91941197D01*
X130830366Y-91843461D01*
X130830366Y-91843460D01*
X130775001Y-91760599D01*
X130692140Y-91705234D01*
X130692139Y-91705233D01*
X130692138Y-91705233D01*
X130594402Y-91685792D01*
X130594398Y-91685792D01*
X130496661Y-91705233D01*
X130413799Y-91760599D01*
X130358433Y-91843461D01*
X130338992Y-91941197D01*
X130338992Y-91941202D01*
X130049808Y-91941202D01*
X130049808Y-91941200D01*
X130049808Y-91941197D01*
X130030366Y-91843461D01*
X130030366Y-91843460D01*
X129975001Y-91760599D01*
X129892140Y-91705234D01*
X129892139Y-91705233D01*
X129892138Y-91705233D01*
X129794402Y-91685792D01*
X129794398Y-91685792D01*
X129696661Y-91705233D01*
X129613799Y-91760599D01*
X129558433Y-91843461D01*
X129538992Y-91941197D01*
X129538992Y-91941202D01*
X125994438Y-91941202D01*
X125929518Y-91876282D01*
X125929516Y-91876280D01*
X125873299Y-91843823D01*
X125825084Y-91793255D01*
X125811300Y-91736436D01*
X125811300Y-91707163D01*
X125830985Y-91640124D01*
X125873301Y-91599775D01*
X125929516Y-91567320D01*
X126041320Y-91455516D01*
X126120377Y-91318584D01*
X126161300Y-91165857D01*
X126161300Y-91141202D01*
X130338992Y-91141202D01*
X130358433Y-91238938D01*
X130358433Y-91238939D01*
X130358434Y-91238940D01*
X130413799Y-91321801D01*
X130496660Y-91377166D01*
X130529240Y-91383646D01*
X130594398Y-91396608D01*
X130594400Y-91396608D01*
X130594402Y-91396608D01*
X130643270Y-91386887D01*
X130692140Y-91377166D01*
X130775001Y-91321801D01*
X130830366Y-91238940D01*
X130842158Y-91179660D01*
X130849808Y-91141202D01*
X131138992Y-91141202D01*
X131158433Y-91238938D01*
X131158433Y-91238939D01*
X131158434Y-91238940D01*
X131213799Y-91321801D01*
X131296660Y-91377166D01*
X131329240Y-91383646D01*
X131394398Y-91396608D01*
X131394400Y-91396608D01*
X131394402Y-91396608D01*
X131443270Y-91386887D01*
X131492140Y-91377166D01*
X131575001Y-91321801D01*
X131630366Y-91238940D01*
X131642158Y-91179660D01*
X131649808Y-91141202D01*
X131938992Y-91141202D01*
X131958433Y-91238938D01*
X131958433Y-91238939D01*
X131958434Y-91238940D01*
X132013799Y-91321801D01*
X132096660Y-91377166D01*
X132129240Y-91383646D01*
X132194398Y-91396608D01*
X132194400Y-91396608D01*
X132194402Y-91396608D01*
X132243270Y-91386887D01*
X132292140Y-91377166D01*
X132375001Y-91321801D01*
X132430366Y-91238940D01*
X132442158Y-91179660D01*
X132449808Y-91141202D01*
X132738992Y-91141202D01*
X132758433Y-91238938D01*
X132758433Y-91238939D01*
X132758434Y-91238940D01*
X132813799Y-91321801D01*
X132896660Y-91377166D01*
X132929240Y-91383646D01*
X132994398Y-91396608D01*
X132994400Y-91396608D01*
X132994402Y-91396608D01*
X133043270Y-91386887D01*
X133092140Y-91377166D01*
X133175001Y-91321801D01*
X133230366Y-91238940D01*
X133242158Y-91179660D01*
X133249808Y-91141202D01*
X133538992Y-91141202D01*
X133558433Y-91238938D01*
X133558433Y-91238939D01*
X133558434Y-91238940D01*
X133613799Y-91321801D01*
X133696660Y-91377166D01*
X133729240Y-91383646D01*
X133794398Y-91396608D01*
X133794400Y-91396608D01*
X133794402Y-91396608D01*
X133843270Y-91386887D01*
X133892140Y-91377166D01*
X133975001Y-91321801D01*
X134030366Y-91238940D01*
X134042158Y-91179660D01*
X134049808Y-91141202D01*
X134338992Y-91141202D01*
X134358433Y-91238938D01*
X134358433Y-91238939D01*
X134358434Y-91238940D01*
X134413799Y-91321801D01*
X134496660Y-91377166D01*
X134529240Y-91383646D01*
X134594398Y-91396608D01*
X134594400Y-91396608D01*
X134594402Y-91396608D01*
X134643270Y-91386887D01*
X134692140Y-91377166D01*
X134775001Y-91321801D01*
X134830366Y-91238940D01*
X134842158Y-91179660D01*
X134849808Y-91141202D01*
X135138992Y-91141202D01*
X135158433Y-91238938D01*
X135158433Y-91238939D01*
X135158434Y-91238940D01*
X135213799Y-91321801D01*
X135296660Y-91377166D01*
X135329240Y-91383646D01*
X135394398Y-91396608D01*
X135394400Y-91396608D01*
X135394402Y-91396608D01*
X135443270Y-91386887D01*
X135492140Y-91377166D01*
X135575001Y-91321801D01*
X135630366Y-91238940D01*
X135642158Y-91179660D01*
X135649808Y-91141202D01*
X135649808Y-91141197D01*
X135630366Y-91043461D01*
X135630366Y-91043460D01*
X135575001Y-90960599D01*
X135492140Y-90905234D01*
X135492139Y-90905233D01*
X135492138Y-90905233D01*
X135394402Y-90885792D01*
X135394398Y-90885792D01*
X135296661Y-90905233D01*
X135213799Y-90960599D01*
X135158433Y-91043461D01*
X135138992Y-91141197D01*
X135138992Y-91141202D01*
X134849808Y-91141202D01*
X134849808Y-91141197D01*
X134830366Y-91043461D01*
X134830366Y-91043460D01*
X134775001Y-90960599D01*
X134692140Y-90905234D01*
X134692139Y-90905233D01*
X134692138Y-90905233D01*
X134594402Y-90885792D01*
X134594398Y-90885792D01*
X134496661Y-90905233D01*
X134413799Y-90960599D01*
X134358433Y-91043461D01*
X134338992Y-91141197D01*
X134338992Y-91141202D01*
X134049808Y-91141202D01*
X134049808Y-91141197D01*
X134030366Y-91043461D01*
X134030366Y-91043460D01*
X133975001Y-90960599D01*
X133892140Y-90905234D01*
X133892139Y-90905233D01*
X133892138Y-90905233D01*
X133794402Y-90885792D01*
X133794398Y-90885792D01*
X133696661Y-90905233D01*
X133613799Y-90960599D01*
X133558433Y-91043461D01*
X133538992Y-91141197D01*
X133538992Y-91141202D01*
X133249808Y-91141202D01*
X133249808Y-91141197D01*
X133230366Y-91043461D01*
X133230366Y-91043460D01*
X133175001Y-90960599D01*
X133092140Y-90905234D01*
X133092139Y-90905233D01*
X133092138Y-90905233D01*
X132994402Y-90885792D01*
X132994398Y-90885792D01*
X132896661Y-90905233D01*
X132813799Y-90960599D01*
X132758433Y-91043461D01*
X132738992Y-91141197D01*
X132738992Y-91141202D01*
X132449808Y-91141202D01*
X132449808Y-91141197D01*
X132430366Y-91043461D01*
X132430366Y-91043460D01*
X132375001Y-90960599D01*
X132292140Y-90905234D01*
X132292139Y-90905233D01*
X132292138Y-90905233D01*
X132194402Y-90885792D01*
X132194398Y-90885792D01*
X132096661Y-90905233D01*
X132013799Y-90960599D01*
X131958433Y-91043461D01*
X131938992Y-91141197D01*
X131938992Y-91141202D01*
X131649808Y-91141202D01*
X131649808Y-91141197D01*
X131630366Y-91043461D01*
X131630366Y-91043460D01*
X131575001Y-90960599D01*
X131492140Y-90905234D01*
X131492139Y-90905233D01*
X131492138Y-90905233D01*
X131394402Y-90885792D01*
X131394398Y-90885792D01*
X131296661Y-90905233D01*
X131213799Y-90960599D01*
X131158433Y-91043461D01*
X131138992Y-91141197D01*
X131138992Y-91141202D01*
X130849808Y-91141202D01*
X130849808Y-91141197D01*
X130830366Y-91043461D01*
X130830366Y-91043460D01*
X130775001Y-90960599D01*
X130692140Y-90905234D01*
X130692139Y-90905233D01*
X130692138Y-90905233D01*
X130594402Y-90885792D01*
X130594398Y-90885792D01*
X130496661Y-90905233D01*
X130413799Y-90960599D01*
X130358433Y-91043461D01*
X130338992Y-91141197D01*
X130338992Y-91141202D01*
X126161300Y-91141202D01*
X126161300Y-91007743D01*
X126120377Y-90855016D01*
X126120373Y-90855009D01*
X126041324Y-90718090D01*
X126041318Y-90718082D01*
X125929518Y-90606282D01*
X125929516Y-90606280D01*
X125873299Y-90573823D01*
X125825084Y-90523255D01*
X125811300Y-90466436D01*
X125811300Y-90437163D01*
X125830985Y-90370124D01*
X125873301Y-90329775D01*
X125929516Y-90297320D01*
X126041320Y-90185516D01*
X126120377Y-90048584D01*
X126155902Y-89916002D01*
X149883992Y-89916002D01*
X149903433Y-90013738D01*
X149903433Y-90013739D01*
X149903434Y-90013740D01*
X149958799Y-90096601D01*
X150041660Y-90151966D01*
X150074240Y-90158446D01*
X150139398Y-90171408D01*
X150139399Y-90171408D01*
X150139399Y-90171407D01*
X150139400Y-90171408D01*
X150164867Y-90166342D01*
X150234456Y-90172568D01*
X150289634Y-90215430D01*
X150312880Y-90281320D01*
X150310676Y-90312148D01*
X150302425Y-90353631D01*
X150302425Y-90353634D01*
X150321866Y-90451370D01*
X150321866Y-90451371D01*
X150321867Y-90451372D01*
X150377232Y-90534233D01*
X150460093Y-90589598D01*
X150492673Y-90596078D01*
X150557831Y-90609040D01*
X150557833Y-90609040D01*
X150557835Y-90609040D01*
X150606703Y-90599319D01*
X150655573Y-90589598D01*
X150738434Y-90534233D01*
X150793799Y-90451372D01*
X150807928Y-90380342D01*
X150813241Y-90353634D01*
X150813241Y-90353629D01*
X150793799Y-90255893D01*
X150793799Y-90255892D01*
X150738434Y-90173031D01*
X150655573Y-90117666D01*
X150655572Y-90117665D01*
X150655571Y-90117665D01*
X150647482Y-90116056D01*
X151291672Y-90116056D01*
X151311113Y-90213792D01*
X151311113Y-90213793D01*
X151311114Y-90213794D01*
X151366479Y-90296655D01*
X151449340Y-90352020D01*
X151481920Y-90358500D01*
X151547078Y-90371462D01*
X151547080Y-90371462D01*
X151547082Y-90371462D01*
X151595950Y-90361741D01*
X151644820Y-90352020D01*
X151727681Y-90296655D01*
X151783046Y-90213794D01*
X151795345Y-90151966D01*
X151802488Y-90116056D01*
X151802488Y-90116051D01*
X151783046Y-90018315D01*
X151783046Y-90018314D01*
X151727681Y-89935453D01*
X151644820Y-89880088D01*
X151644819Y-89880087D01*
X151644818Y-89880087D01*
X151547082Y-89860646D01*
X151547078Y-89860646D01*
X151449341Y-89880087D01*
X151366479Y-89935453D01*
X151311113Y-90018315D01*
X151291672Y-90116051D01*
X151291672Y-90116056D01*
X150647482Y-90116056D01*
X150557835Y-90098224D01*
X150557834Y-90098224D01*
X150557833Y-90098224D01*
X150544414Y-90100893D01*
X150532364Y-90103290D01*
X150462772Y-90097061D01*
X150407595Y-90054198D01*
X150384352Y-89988308D01*
X150386557Y-89957480D01*
X150394808Y-89916000D01*
X150394808Y-89915997D01*
X150375366Y-89818261D01*
X150375366Y-89818260D01*
X150320001Y-89735399D01*
X150237140Y-89680034D01*
X150237139Y-89680033D01*
X150237138Y-89680033D01*
X150139402Y-89660592D01*
X150139398Y-89660592D01*
X150041661Y-89680033D01*
X149958799Y-89735399D01*
X149903433Y-89818261D01*
X149883992Y-89915997D01*
X149883992Y-89916002D01*
X126155902Y-89916002D01*
X126161300Y-89895857D01*
X126161300Y-89737743D01*
X126120377Y-89585016D01*
X126120373Y-89585009D01*
X126041324Y-89448090D01*
X126041318Y-89448082D01*
X125929518Y-89336282D01*
X125929516Y-89336280D01*
X125873299Y-89303823D01*
X125825084Y-89253255D01*
X125811300Y-89196436D01*
X125811300Y-88940602D01*
X128738592Y-88940602D01*
X128758033Y-89038338D01*
X128758033Y-89038339D01*
X128758034Y-89038340D01*
X128813399Y-89121201D01*
X128896260Y-89176566D01*
X128928840Y-89183046D01*
X128993998Y-89196008D01*
X128994000Y-89196008D01*
X128994002Y-89196008D01*
X129042870Y-89186287D01*
X129091740Y-89176566D01*
X129174601Y-89121201D01*
X129229966Y-89038340D01*
X129239687Y-88989470D01*
X129249408Y-88940602D01*
X129538592Y-88940602D01*
X129558033Y-89038338D01*
X129558033Y-89038339D01*
X129558034Y-89038340D01*
X129613399Y-89121201D01*
X129696260Y-89176566D01*
X129728840Y-89183046D01*
X129793998Y-89196008D01*
X129794000Y-89196008D01*
X129794002Y-89196008D01*
X129842870Y-89186287D01*
X129891740Y-89176566D01*
X129974601Y-89121201D01*
X130029966Y-89038340D01*
X130039687Y-88989470D01*
X130049408Y-88940602D01*
X130338592Y-88940602D01*
X130358033Y-89038338D01*
X130358033Y-89038339D01*
X130358034Y-89038340D01*
X130413399Y-89121201D01*
X130496260Y-89176566D01*
X130528840Y-89183046D01*
X130593998Y-89196008D01*
X130594000Y-89196008D01*
X130594002Y-89196008D01*
X130642870Y-89186287D01*
X130691740Y-89176566D01*
X130774601Y-89121201D01*
X130829966Y-89038340D01*
X130839687Y-88989470D01*
X130849408Y-88940602D01*
X133138992Y-88940602D01*
X133158433Y-89038338D01*
X133158433Y-89038339D01*
X133158434Y-89038340D01*
X133213799Y-89121201D01*
X133296660Y-89176566D01*
X133329240Y-89183046D01*
X133394398Y-89196008D01*
X133394400Y-89196008D01*
X133394402Y-89196008D01*
X133443270Y-89186287D01*
X133492140Y-89176566D01*
X133575001Y-89121201D01*
X133630366Y-89038340D01*
X133640087Y-88989470D01*
X133649808Y-88940602D01*
X135938992Y-88940602D01*
X135958433Y-89038338D01*
X135958433Y-89038339D01*
X135958434Y-89038340D01*
X136013799Y-89121201D01*
X136096660Y-89176566D01*
X136129240Y-89183046D01*
X136194398Y-89196008D01*
X136194400Y-89196008D01*
X136194402Y-89196008D01*
X136243270Y-89186287D01*
X136292140Y-89176566D01*
X136375001Y-89121201D01*
X136430366Y-89038340D01*
X136440087Y-88989470D01*
X136449808Y-88940602D01*
X136449808Y-88940597D01*
X136444756Y-88915202D01*
X142670392Y-88915202D01*
X142689833Y-89012938D01*
X142689833Y-89012939D01*
X142689834Y-89012940D01*
X142745199Y-89095801D01*
X142828060Y-89151166D01*
X142860640Y-89157646D01*
X142925798Y-89170608D01*
X142925800Y-89170608D01*
X142925802Y-89170608D01*
X142974670Y-89160887D01*
X143023540Y-89151166D01*
X143106401Y-89095801D01*
X143161766Y-89012940D01*
X143181145Y-88915517D01*
X143181208Y-88915202D01*
X143181208Y-88915197D01*
X143174048Y-88879202D01*
X147623392Y-88879202D01*
X147642833Y-88976938D01*
X147642833Y-88976939D01*
X147642834Y-88976940D01*
X147698199Y-89059801D01*
X147781060Y-89115166D01*
X147811400Y-89121201D01*
X147878798Y-89134608D01*
X147878800Y-89134608D01*
X147878802Y-89134608D01*
X147946200Y-89121201D01*
X147976540Y-89115166D01*
X148059401Y-89059801D01*
X148114766Y-88976940D01*
X148134208Y-88879200D01*
X148134208Y-88879197D01*
X148128321Y-88849602D01*
X151153992Y-88849602D01*
X151173433Y-88947338D01*
X151173433Y-88947339D01*
X151173434Y-88947340D01*
X151228799Y-89030201D01*
X151311660Y-89085566D01*
X151344240Y-89092046D01*
X151409398Y-89105008D01*
X151409400Y-89105008D01*
X151409402Y-89105008D01*
X151458270Y-89095287D01*
X151507140Y-89085566D01*
X151590001Y-89030201D01*
X151645366Y-88947340D01*
X151645367Y-88947336D01*
X151650040Y-88936057D01*
X151653706Y-88937575D01*
X151675767Y-88895402D01*
X151736482Y-88860827D01*
X151806252Y-88864566D01*
X151862924Y-88905432D01*
X151877395Y-88937119D01*
X151879960Y-88936057D01*
X151884632Y-88947336D01*
X151884633Y-88947338D01*
X151884634Y-88947340D01*
X151939999Y-89030201D01*
X152022860Y-89085566D01*
X152055440Y-89092046D01*
X152120598Y-89105008D01*
X152120600Y-89105008D01*
X152120602Y-89105008D01*
X152169470Y-89095287D01*
X152218340Y-89085566D01*
X152301201Y-89030201D01*
X152356566Y-88947340D01*
X152376008Y-88849600D01*
X152376008Y-88849597D01*
X152358185Y-88759999D01*
X152356566Y-88751860D01*
X152301201Y-88668999D01*
X152246876Y-88632701D01*
X152202073Y-88579091D01*
X152193365Y-88509766D01*
X152223519Y-88446738D01*
X152246873Y-88426500D01*
X152301201Y-88390201D01*
X152356566Y-88307340D01*
X152376008Y-88209600D01*
X152376008Y-88209597D01*
X152361426Y-88136295D01*
X152356566Y-88111860D01*
X152301201Y-88028999D01*
X152218340Y-87973634D01*
X152218339Y-87973633D01*
X152218338Y-87973633D01*
X152120602Y-87954192D01*
X152120598Y-87954192D01*
X152022861Y-87973633D01*
X151939999Y-88028999D01*
X151884633Y-88111861D01*
X151865192Y-88209597D01*
X151865192Y-88209602D01*
X151884633Y-88307338D01*
X151939999Y-88390201D01*
X151994322Y-88426498D01*
X152039127Y-88480110D01*
X152047834Y-88549435D01*
X152017680Y-88612462D01*
X151994322Y-88632702D01*
X151939999Y-88668998D01*
X151884632Y-88751863D01*
X151879960Y-88763143D01*
X151876294Y-88761624D01*
X151854225Y-88803806D01*
X151793506Y-88838375D01*
X151723737Y-88834629D01*
X151667068Y-88793758D01*
X151652602Y-88762081D01*
X151650040Y-88763143D01*
X151645367Y-88751863D01*
X151645366Y-88751861D01*
X151645366Y-88751860D01*
X151590001Y-88668999D01*
X151507140Y-88613634D01*
X151507139Y-88613633D01*
X151507138Y-88613633D01*
X151409402Y-88594192D01*
X151409398Y-88594192D01*
X151311661Y-88613633D01*
X151228799Y-88668999D01*
X151173433Y-88751861D01*
X151153992Y-88849597D01*
X151153992Y-88849602D01*
X148128321Y-88849602D01*
X148114766Y-88781461D01*
X148114766Y-88781460D01*
X148059401Y-88698599D01*
X147976540Y-88643234D01*
X147976539Y-88643233D01*
X147976538Y-88643233D01*
X147878802Y-88623792D01*
X147878798Y-88623792D01*
X147781061Y-88643233D01*
X147698199Y-88698599D01*
X147642833Y-88781461D01*
X147623392Y-88879197D01*
X147623392Y-88879202D01*
X143174048Y-88879202D01*
X143161766Y-88817461D01*
X143161766Y-88817460D01*
X143106401Y-88734599D01*
X143023540Y-88679234D01*
X143023539Y-88679233D01*
X143023538Y-88679233D01*
X142925802Y-88659792D01*
X142925798Y-88659792D01*
X142828061Y-88679233D01*
X142745199Y-88734599D01*
X142689833Y-88817461D01*
X142670392Y-88915197D01*
X142670392Y-88915202D01*
X136444756Y-88915202D01*
X136430366Y-88842861D01*
X136430366Y-88842860D01*
X136375001Y-88759999D01*
X136292140Y-88704634D01*
X136292139Y-88704633D01*
X136292138Y-88704633D01*
X136194402Y-88685192D01*
X136194398Y-88685192D01*
X136096661Y-88704633D01*
X136013799Y-88759999D01*
X135958433Y-88842861D01*
X135938992Y-88940597D01*
X135938992Y-88940602D01*
X133649808Y-88940602D01*
X133649808Y-88940597D01*
X133630366Y-88842861D01*
X133630366Y-88842860D01*
X133575001Y-88759999D01*
X133492140Y-88704634D01*
X133492139Y-88704633D01*
X133492138Y-88704633D01*
X133394402Y-88685192D01*
X133394398Y-88685192D01*
X133296661Y-88704633D01*
X133213799Y-88759999D01*
X133158433Y-88842861D01*
X133138992Y-88940597D01*
X133138992Y-88940602D01*
X130849408Y-88940602D01*
X130849408Y-88940597D01*
X130829966Y-88842861D01*
X130829966Y-88842860D01*
X130774601Y-88759999D01*
X130691740Y-88704634D01*
X130691739Y-88704633D01*
X130691738Y-88704633D01*
X130594002Y-88685192D01*
X130593998Y-88685192D01*
X130496261Y-88704633D01*
X130413399Y-88759999D01*
X130358033Y-88842861D01*
X130338592Y-88940597D01*
X130338592Y-88940602D01*
X130049408Y-88940602D01*
X130049408Y-88940597D01*
X130029966Y-88842861D01*
X130029966Y-88842860D01*
X129974601Y-88759999D01*
X129891740Y-88704634D01*
X129891739Y-88704633D01*
X129891738Y-88704633D01*
X129794002Y-88685192D01*
X129793998Y-88685192D01*
X129696261Y-88704633D01*
X129613399Y-88759999D01*
X129558033Y-88842861D01*
X129538592Y-88940597D01*
X129538592Y-88940602D01*
X129249408Y-88940602D01*
X129249408Y-88940597D01*
X129229966Y-88842861D01*
X129229966Y-88842860D01*
X129174601Y-88759999D01*
X129091740Y-88704634D01*
X129091739Y-88704633D01*
X129091738Y-88704633D01*
X128994002Y-88685192D01*
X128993998Y-88685192D01*
X128896261Y-88704633D01*
X128813399Y-88759999D01*
X128758033Y-88842861D01*
X128738592Y-88940597D01*
X128738592Y-88940602D01*
X125811300Y-88940602D01*
X125811300Y-88279802D01*
X143381592Y-88279802D01*
X143401033Y-88377538D01*
X143401033Y-88377539D01*
X143401034Y-88377540D01*
X143456399Y-88460401D01*
X143539260Y-88515766D01*
X143571840Y-88522246D01*
X143636998Y-88535208D01*
X143637000Y-88535208D01*
X143637002Y-88535208D01*
X143685870Y-88525487D01*
X143734740Y-88515766D01*
X143817601Y-88460401D01*
X143872966Y-88377540D01*
X143892408Y-88279800D01*
X143892408Y-88279797D01*
X143872966Y-88182061D01*
X143872966Y-88182060D01*
X143817601Y-88099199D01*
X143734740Y-88043834D01*
X143734739Y-88043833D01*
X143734738Y-88043833D01*
X143637002Y-88024392D01*
X143636998Y-88024392D01*
X143539261Y-88043833D01*
X143456399Y-88099199D01*
X143401033Y-88182061D01*
X143381592Y-88279797D01*
X143381592Y-88279802D01*
X125811300Y-88279802D01*
X125811300Y-87907002D01*
X140917792Y-87907002D01*
X140937233Y-88004738D01*
X140937233Y-88004739D01*
X140937234Y-88004740D01*
X140992599Y-88087601D01*
X141075460Y-88142966D01*
X141108040Y-88149446D01*
X141173198Y-88162408D01*
X141173200Y-88162408D01*
X141173202Y-88162408D01*
X141222070Y-88152687D01*
X141270940Y-88142966D01*
X141353801Y-88087601D01*
X141409166Y-88004740D01*
X141422561Y-87937402D01*
X141857592Y-87937402D01*
X141877033Y-88035138D01*
X141877033Y-88035139D01*
X141877034Y-88035140D01*
X141932399Y-88118001D01*
X142015260Y-88173366D01*
X142038969Y-88178082D01*
X142112998Y-88192808D01*
X142113000Y-88192808D01*
X142113002Y-88192808D01*
X142167033Y-88182060D01*
X142210740Y-88173366D01*
X142293601Y-88118001D01*
X142348966Y-88035140D01*
X142358687Y-87986270D01*
X142368408Y-87937402D01*
X142368408Y-87937397D01*
X142353826Y-87864095D01*
X142348966Y-87839660D01*
X142293601Y-87756799D01*
X142210740Y-87701434D01*
X142210739Y-87701433D01*
X142210738Y-87701433D01*
X142113002Y-87681992D01*
X142112998Y-87681992D01*
X142015261Y-87701433D01*
X141932399Y-87756799D01*
X141877033Y-87839661D01*
X141857592Y-87937397D01*
X141857592Y-87937402D01*
X141422561Y-87937402D01*
X141428608Y-87907000D01*
X141428608Y-87906997D01*
X141413316Y-87830124D01*
X141409166Y-87809260D01*
X141353801Y-87726399D01*
X141270940Y-87671034D01*
X141270939Y-87671033D01*
X141270938Y-87671033D01*
X141173202Y-87651592D01*
X141173198Y-87651592D01*
X141075461Y-87671033D01*
X140992599Y-87726399D01*
X140937233Y-87809261D01*
X140917792Y-87906997D01*
X140917792Y-87907002D01*
X125811300Y-87907002D01*
X125811300Y-87897163D01*
X125830985Y-87830124D01*
X125873301Y-87789775D01*
X125929516Y-87757320D01*
X126041320Y-87645516D01*
X126120377Y-87508584D01*
X126161300Y-87355857D01*
X126161300Y-87197743D01*
X126120377Y-87045016D01*
X126063788Y-86947000D01*
X126041324Y-86908090D01*
X126041318Y-86908082D01*
X125929518Y-86796282D01*
X125929516Y-86796280D01*
X125877766Y-86766402D01*
X142620392Y-86766402D01*
X142639833Y-86864138D01*
X142639833Y-86864139D01*
X142639834Y-86864140D01*
X142695199Y-86947001D01*
X142778060Y-87002366D01*
X142810640Y-87008846D01*
X142875798Y-87021808D01*
X142875800Y-87021808D01*
X142875802Y-87021808D01*
X142924670Y-87012087D01*
X142973540Y-87002366D01*
X143056401Y-86947001D01*
X143111766Y-86864140D01*
X143125264Y-86796282D01*
X143131208Y-86766402D01*
X143131208Y-86766397D01*
X143111766Y-86668661D01*
X143111766Y-86668660D01*
X143056401Y-86585799D01*
X142973540Y-86530434D01*
X142973539Y-86530433D01*
X142973538Y-86530433D01*
X142875802Y-86510992D01*
X142875798Y-86510992D01*
X142778061Y-86530433D01*
X142695199Y-86585799D01*
X142639833Y-86668661D01*
X142620392Y-86766397D01*
X142620392Y-86766402D01*
X125877766Y-86766402D01*
X125873299Y-86763823D01*
X125825084Y-86713255D01*
X125811300Y-86656436D01*
X125811300Y-86627163D01*
X125830985Y-86560124D01*
X125873301Y-86519775D01*
X125929516Y-86487320D01*
X125987444Y-86429392D01*
X138058646Y-86429392D01*
X138078087Y-86527128D01*
X138078087Y-86527129D01*
X138078088Y-86527130D01*
X138133453Y-86609991D01*
X138216314Y-86665356D01*
X138248894Y-86671836D01*
X138314052Y-86684798D01*
X138314054Y-86684798D01*
X138314056Y-86684798D01*
X138362924Y-86675077D01*
X138411794Y-86665356D01*
X138494655Y-86609991D01*
X138550020Y-86527130D01*
X138569462Y-86429390D01*
X138569462Y-86429387D01*
X138550020Y-86331651D01*
X138550020Y-86331650D01*
X138509872Y-86271564D01*
X138488996Y-86204891D01*
X138507480Y-86137511D01*
X138559459Y-86090820D01*
X138588785Y-86081060D01*
X138633275Y-86072210D01*
X138667732Y-86065356D01*
X138710424Y-86036831D01*
X138777101Y-86015953D01*
X138844481Y-86034438D01*
X138848195Y-86036824D01*
X138872057Y-86052768D01*
X138877693Y-86053889D01*
X138969795Y-86072210D01*
X138969797Y-86072210D01*
X138969799Y-86072210D01*
X139018667Y-86062489D01*
X139067537Y-86052768D01*
X139100908Y-86030470D01*
X139167583Y-86009592D01*
X139234963Y-86028076D01*
X139238665Y-86030455D01*
X139272060Y-86052768D01*
X139277696Y-86053889D01*
X139369798Y-86072210D01*
X139369800Y-86072210D01*
X139369801Y-86072210D01*
X139398903Y-86066421D01*
X139468495Y-86072648D01*
X139523672Y-86115511D01*
X139526197Y-86119147D01*
X139558812Y-86167959D01*
X139570199Y-86185001D01*
X139653060Y-86240366D01*
X139685640Y-86246846D01*
X139750798Y-86259808D01*
X139750800Y-86259808D01*
X139750802Y-86259808D01*
X139806195Y-86248789D01*
X139848540Y-86240366D01*
X139931401Y-86185001D01*
X139986766Y-86102140D01*
X140001022Y-86030470D01*
X140006208Y-86004402D01*
X140006208Y-86004397D01*
X139986766Y-85906661D01*
X139986766Y-85906660D01*
X139931401Y-85823799D01*
X139848540Y-85768434D01*
X139848539Y-85768433D01*
X139848538Y-85768433D01*
X139750802Y-85748992D01*
X139750800Y-85748992D01*
X139721693Y-85754781D01*
X139652101Y-85748552D01*
X139596925Y-85705688D01*
X139594402Y-85702053D01*
X139550402Y-85636202D01*
X139550401Y-85636201D01*
X139467540Y-85580836D01*
X139467539Y-85580835D01*
X139467538Y-85580835D01*
X139369802Y-85561394D01*
X139369798Y-85561394D01*
X139272060Y-85580835D01*
X139238686Y-85603134D01*
X139172008Y-85624010D01*
X139104628Y-85605524D01*
X139100909Y-85603133D01*
X139067536Y-85580835D01*
X138969799Y-85561394D01*
X138969795Y-85561394D01*
X138872057Y-85580835D01*
X138829362Y-85609362D01*
X138762684Y-85630238D01*
X138695305Y-85611752D01*
X138691585Y-85609361D01*
X138667731Y-85593423D01*
X138569994Y-85573982D01*
X138569990Y-85573982D01*
X138472253Y-85593423D01*
X138389391Y-85648789D01*
X138334025Y-85731651D01*
X138314584Y-85829387D01*
X138314584Y-85829392D01*
X138334025Y-85927128D01*
X138334025Y-85927129D01*
X138334026Y-85927130D01*
X138374171Y-85987213D01*
X138395049Y-86053889D01*
X138376564Y-86121269D01*
X138324586Y-86167959D01*
X138295262Y-86177719D01*
X138216315Y-86193423D01*
X138133453Y-86248789D01*
X138078087Y-86331651D01*
X138058646Y-86429387D01*
X138058646Y-86429392D01*
X125987444Y-86429392D01*
X126041320Y-86375516D01*
X126120377Y-86238584D01*
X126161300Y-86085857D01*
X126161300Y-85927743D01*
X126120377Y-85775016D01*
X126116576Y-85768433D01*
X126041324Y-85638090D01*
X126041318Y-85638082D01*
X125929518Y-85526282D01*
X125929516Y-85526280D01*
X125873299Y-85493823D01*
X125825084Y-85443255D01*
X125811300Y-85386436D01*
X125811300Y-85374002D01*
X137687419Y-85374002D01*
X137706860Y-85471738D01*
X137706860Y-85471739D01*
X137706861Y-85471740D01*
X137762226Y-85554601D01*
X137845087Y-85609966D01*
X137854066Y-85611752D01*
X137942825Y-85629408D01*
X137942827Y-85629408D01*
X137942829Y-85629408D01*
X137991697Y-85619687D01*
X138040567Y-85609966D01*
X138123428Y-85554601D01*
X138178793Y-85471740D01*
X138188514Y-85422870D01*
X138198235Y-85374002D01*
X138198235Y-85373997D01*
X138178793Y-85276261D01*
X138178793Y-85276260D01*
X138123428Y-85193399D01*
X138040567Y-85138034D01*
X138040566Y-85138033D01*
X138040565Y-85138033D01*
X137942829Y-85118592D01*
X137942825Y-85118592D01*
X137845088Y-85138033D01*
X137762226Y-85193399D01*
X137706860Y-85276261D01*
X137687419Y-85373997D01*
X137687419Y-85374002D01*
X125811300Y-85374002D01*
X125811300Y-85357163D01*
X125830985Y-85290124D01*
X125873301Y-85249775D01*
X125929516Y-85217320D01*
X126041320Y-85105516D01*
X126120377Y-84968584D01*
X126161300Y-84815857D01*
X126161300Y-84657743D01*
X126120377Y-84505016D01*
X126120373Y-84505009D01*
X126041324Y-84368090D01*
X126041318Y-84368082D01*
X125929518Y-84256282D01*
X125929516Y-84256280D01*
X125882200Y-84228962D01*
X125833984Y-84178395D01*
X125820762Y-84109788D01*
X125846730Y-84044923D01*
X125856511Y-84033902D01*
X126272896Y-83617517D01*
X126334217Y-83584034D01*
X126403909Y-83589018D01*
X126459842Y-83630890D01*
X126467962Y-83643200D01*
X126495277Y-83690512D01*
X126495279Y-83690514D01*
X126495280Y-83690516D01*
X126607084Y-83802320D01*
X126607086Y-83802321D01*
X126607090Y-83802324D01*
X126744009Y-83881373D01*
X126744016Y-83881377D01*
X126896743Y-83922300D01*
X126896745Y-83922300D01*
X127054855Y-83922300D01*
X127054857Y-83922300D01*
X127207584Y-83881377D01*
X127344516Y-83802320D01*
X127456320Y-83690516D01*
X127488775Y-83634300D01*
X127539342Y-83586085D01*
X127596163Y-83572300D01*
X127625437Y-83572300D01*
X127692476Y-83591985D01*
G37*
%TD.AperFunction*%
%TD*%
M02*
