%TF.GenerationSoftware,KiCad,Pcbnew,8.0.1*%
%TF.CreationDate,2024-09-11T08:29:47+07:00*%
%TF.ProjectId,siplex-som-s16,7369706c-6578-42d7-936f-6d2d7331362e,rev?*%
%TF.SameCoordinates,Original*%
%TF.FileFunction,Soldermask,Bot*%
%TF.FilePolarity,Negative*%
%FSLAX46Y46*%
G04 Gerber Fmt 4.6, Leading zero omitted, Abs format (unit mm)*
G04 Created by KiCad (PCBNEW 8.0.1) date 2024-09-11 08:29:47*
%MOMM*%
%LPD*%
G01*
G04 APERTURE LIST*
%ADD10O,1.500000X1.000000*%
%ADD11O,1.000000X1.500000*%
G04 APERTURE END LIST*
D10*
%TO.C,J8*%
X125310800Y-84736800D03*
X125310800Y-86006800D03*
X125310800Y-87276800D03*
X125310800Y-88546800D03*
X125310800Y-89816800D03*
X125310800Y-91086800D03*
X125310800Y-92356800D03*
X125310800Y-93626800D03*
X125310800Y-94896800D03*
X125310800Y-96166800D03*
X125310800Y-97436800D03*
X125310800Y-98706800D03*
X125310800Y-99976800D03*
X125310800Y-101246800D03*
X125310800Y-102516800D03*
X125310800Y-103786800D03*
X125310800Y-105056800D03*
X125310800Y-106326800D03*
X125310800Y-107596800D03*
X125310800Y-108866800D03*
X125310800Y-110136800D03*
X125310800Y-111406800D03*
%TD*%
%TO.C,J5*%
X155310800Y-111406800D03*
X155310800Y-110136800D03*
X155310800Y-108866800D03*
X155310800Y-107596800D03*
X155310800Y-106326800D03*
X155310800Y-105056800D03*
X155310800Y-103786800D03*
X155310800Y-102516800D03*
X155310800Y-101246800D03*
X155310800Y-99976800D03*
X155310800Y-98706800D03*
X155310800Y-97436800D03*
X155310800Y-96166800D03*
X155310800Y-94896800D03*
X155310800Y-93626800D03*
X155310800Y-92356800D03*
X155310800Y-91086800D03*
X155310800Y-89816800D03*
X155310800Y-88546800D03*
X155310800Y-87276800D03*
X155310800Y-86006800D03*
X155310800Y-84736800D03*
%TD*%
D11*
%TO.C,J9*%
X126975800Y-113071800D03*
X128245800Y-113071800D03*
X129515800Y-113071800D03*
X130785800Y-113071800D03*
X132055800Y-113071800D03*
X133325800Y-113071800D03*
X134595800Y-113071800D03*
X135865800Y-113071800D03*
X137135800Y-113071800D03*
X138405800Y-113071800D03*
X139675800Y-113071800D03*
X140945800Y-113071800D03*
X142215800Y-113071800D03*
X143485800Y-113071800D03*
X144755800Y-113071800D03*
X146025800Y-113071800D03*
X147295800Y-113071800D03*
X148565800Y-113071800D03*
X149835800Y-113071800D03*
X151105800Y-113071800D03*
X152375800Y-113071800D03*
X153645800Y-113071800D03*
%TD*%
%TO.C,J7*%
X126975800Y-83071800D03*
X128245800Y-83071800D03*
X129515800Y-83071800D03*
X130785800Y-83071800D03*
X132055800Y-83071800D03*
X133325800Y-83071800D03*
X134595800Y-83071800D03*
X135865800Y-83071800D03*
X137135800Y-83071800D03*
X138405800Y-83071800D03*
X139675800Y-83071800D03*
X140945800Y-83071800D03*
X142215800Y-83071800D03*
X143485800Y-83071800D03*
X144755800Y-83071800D03*
X146025800Y-83071800D03*
X147295800Y-83071800D03*
X148565800Y-83071800D03*
X149835800Y-83071800D03*
X151105800Y-83071800D03*
X152375800Y-83071800D03*
X153645800Y-83071800D03*
%TD*%
M02*
