%TF.GenerationSoftware,KiCad,Pcbnew,8.0.1*%
%TF.CreationDate,2024-09-11T08:29:46+07:00*%
%TF.ProjectId,siplex-som-s16,7369706c-6578-42d7-936f-6d2d7331362e,rev?*%
%TF.SameCoordinates,Original*%
%TF.FileFunction,Copper,L6,Inr*%
%TF.FilePolarity,Positive*%
%FSLAX46Y46*%
G04 Gerber Fmt 4.6, Leading zero omitted, Abs format (unit mm)*
G04 Created by KiCad (PCBNEW 8.0.1) date 2024-09-11 08:29:46*
%MOMM*%
%LPD*%
G01*
G04 APERTURE LIST*
%TA.AperFunction,ComponentPad*%
%ADD10O,1.500000X1.000000*%
%TD*%
%TA.AperFunction,ComponentPad*%
%ADD11O,1.000000X1.500000*%
%TD*%
%TA.AperFunction,ViaPad*%
%ADD12C,0.600000*%
%TD*%
%TA.AperFunction,ViaPad*%
%ADD13C,0.300000*%
%TD*%
%TA.AperFunction,Conductor*%
%ADD14C,0.100000*%
%TD*%
G04 APERTURE END LIST*
D10*
%TO.N,PB8*%
%TO.C,J8*%
X125310800Y-84736800D03*
%TO.N,PB9*%
X125310800Y-86006800D03*
%TO.N,PH4*%
X125310800Y-87276800D03*
%TO.N,GND*%
X125310800Y-88546800D03*
%TO.N,PC0*%
X125310800Y-89816800D03*
%TO.N,PC1*%
X125310800Y-91086800D03*
%TO.N,PC4*%
X125310800Y-92356800D03*
%TO.N,PA0*%
X125310800Y-93626800D03*
%TO.N,PA1*%
X125310800Y-94896800D03*
%TO.N,PA4*%
X125310800Y-96166800D03*
%TO.N,PA3*%
X125310800Y-97436800D03*
%TO.N,PA7*%
X125310800Y-98706800D03*
%TO.N,PA6*%
X125310800Y-99976800D03*
%TO.N,PA5*%
X125310800Y-101246800D03*
%TO.N,PB0*%
X125310800Y-102516800D03*
%TO.N,PB1*%
X125310800Y-103786800D03*
%TO.N,PC5*%
X125310800Y-105056800D03*
%TO.N,PB12*%
X125310800Y-106326800D03*
%TO.N,PB10*%
X125310800Y-107596800D03*
%TO.N,PB13*%
X125310800Y-108866800D03*
%TO.N,PB11*%
X125310800Y-110136800D03*
%TO.N,PB14*%
X125310800Y-111406800D03*
%TD*%
%TO.N,/Castellated_holes/SWDIO*%
%TO.C,J5*%
X155310800Y-111406800D03*
%TO.N,/Castellated_holes/SWCLK*%
X155310800Y-110136800D03*
%TO.N,GND*%
X155310800Y-108866800D03*
%TO.N,/Castellated_holes/USB_DN*%
X155310800Y-107596800D03*
%TO.N,/Castellated_holes/USB_DP*%
X155310800Y-106326800D03*
%TO.N,GND*%
X155310800Y-105056800D03*
%TO.N,/Castellated_holes/USB_VBUS_DET*%
X155310800Y-103786800D03*
%TO.N,GND*%
X155310800Y-102516800D03*
%TO.N,/Castellated_holes/LTDC_CLK*%
X155310800Y-101246800D03*
%TO.N,GND*%
X155310800Y-99976800D03*
%TO.N,/Castellated_holes/SWO*%
X155310800Y-98706800D03*
%TO.N,/Castellated_holes/LTDC_R0*%
X155310800Y-97436800D03*
%TO.N,/Castellated_holes/LTDC_R1*%
X155310800Y-96166800D03*
%TO.N,/Castellated_holes/LTDC_R2*%
X155310800Y-94896800D03*
%TO.N,/Castellated_holes/LTDC_R3*%
X155310800Y-93626800D03*
%TO.N,/Castellated_holes/LTDC_R4*%
X155310800Y-92356800D03*
%TO.N,/Castellated_holes/LTDC_R5*%
X155310800Y-91086800D03*
%TO.N,/Castellated_holes/LTDC_R6*%
X155310800Y-89816800D03*
%TO.N,/Castellated_holes/LTDC_R7*%
X155310800Y-88546800D03*
%TO.N,/Castellated_holes/LTDC_G0*%
X155310800Y-87276800D03*
%TO.N,/Castellated_holes/LTDC_G1*%
X155310800Y-86006800D03*
%TO.N,/Castellated_holes/LTDC_G2*%
X155310800Y-84736800D03*
%TD*%
D11*
%TO.N,PB15*%
%TO.C,J9*%
X126975800Y-113071800D03*
%TO.N,PH7*%
X128245800Y-113071800D03*
%TO.N,PD13*%
X129515800Y-113071800D03*
%TO.N,PC6*%
X130785800Y-113071800D03*
%TO.N,PC7*%
X132055800Y-113071800D03*
%TO.N,PC8*%
X133325800Y-113071800D03*
%TO.N,PH14*%
X134595800Y-113071800D03*
%TO.N,GND*%
X135865800Y-113071800D03*
%TO.N,PD2*%
X137135800Y-113071800D03*
%TO.N,PD3*%
X138405800Y-113071800D03*
%TO.N,PD5*%
X139675800Y-113071800D03*
%TO.N,PD6*%
X140945800Y-113071800D03*
%TO.N,PD7*%
X142215800Y-113071800D03*
%TO.N,PI3*%
X143485800Y-113071800D03*
%TO.N,PA15*%
X144755800Y-113071800D03*
%TO.N,PC12*%
X146025800Y-113071800D03*
%TO.N,PG11*%
X147295800Y-113071800D03*
%TO.N,PB4*%
X148565800Y-113071800D03*
%TO.N,VIN*%
X149835800Y-113071800D03*
%TO.N,+3V3*%
X151105800Y-113071800D03*
%TO.N,GND*%
X152375800Y-113071800D03*
X153645800Y-113071800D03*
%TD*%
%TO.N,PB7*%
%TO.C,J7*%
X126975800Y-83071800D03*
%TO.N,PB5*%
X128245800Y-83071800D03*
%TO.N,GND*%
X129515800Y-83071800D03*
%TO.N,VBAT*%
X130785800Y-83071800D03*
%TO.N,/MCU/BOOT0*%
X132055800Y-83071800D03*
%TO.N,/Castellated_holes/LTDC_DE*%
X133325800Y-83071800D03*
%TO.N,/Castellated_holes/LTDC_HSYNC*%
X134595800Y-83071800D03*
%TO.N,/Castellated_holes/LTDC_VSYNC*%
X135865800Y-83071800D03*
%TO.N,GND*%
X137135800Y-83071800D03*
%TO.N,/Castellated_holes/LTDC_B7*%
X138405800Y-83071800D03*
%TO.N,/Castellated_holes/LTDC_B6*%
X139675800Y-83071800D03*
%TO.N,/Castellated_holes/LTDC_B5*%
X140945800Y-83071800D03*
%TO.N,/Castellated_holes/LTDC_B4*%
X142215800Y-83071800D03*
%TO.N,/Castellated_holes/LTDC_B3*%
X143485800Y-83071800D03*
%TO.N,/Castellated_holes/LTDC_B2*%
X144755800Y-83071800D03*
%TO.N,/Castellated_holes/LTDC_B1*%
X146025800Y-83071800D03*
%TO.N,/Castellated_holes/LTDC_B0*%
X147295800Y-83071800D03*
%TO.N,/Castellated_holes/LTDC_G7*%
X148565800Y-83071800D03*
%TO.N,/Castellated_holes/LTDC_G6*%
X149835800Y-83071800D03*
%TO.N,/Castellated_holes/LTDC_G5*%
X151105800Y-83071800D03*
%TO.N,/Castellated_holes/LTDC_G4*%
X152375800Y-83071800D03*
%TO.N,/Castellated_holes/LTDC_G3*%
X153645800Y-83071800D03*
%TD*%
D12*
%TO.N,GND*%
X150952200Y-102692200D03*
X151485600Y-107264200D03*
X151968200Y-109524800D03*
X132334000Y-108432600D03*
X128346200Y-109931200D03*
X128320800Y-97713800D03*
X129133600Y-102260400D03*
X151257000Y-87401400D03*
X149580600Y-86360000D03*
X147701000Y-87172800D03*
X144348200Y-86664800D03*
X141071600Y-87071200D03*
X133400800Y-86690200D03*
X137744200Y-87934800D03*
X132054600Y-88646000D03*
X128854200Y-86969600D03*
D13*
%TO.N,Net-(C1-Pad1)*%
X147040600Y-101780400D03*
X139367200Y-97180400D03*
%TO.N,GND*%
X146420600Y-95991200D03*
X128994000Y-88300600D03*
X142849600Y-112395000D03*
X145120600Y-95991200D03*
X152120600Y-96956200D03*
D12*
X145706800Y-109586700D03*
D13*
X144470600Y-95341200D03*
X145120600Y-94041200D03*
X147878800Y-88239200D03*
X138710400Y-95666200D03*
X154635200Y-89179400D03*
X145770600Y-94691200D03*
X143170600Y-90791200D03*
D12*
X139522200Y-106804600D03*
D13*
X146420600Y-97941200D03*
X145389600Y-112395000D03*
X147070600Y-96641200D03*
X130149600Y-83769200D03*
X154635200Y-101879400D03*
X146420600Y-96641200D03*
X146420600Y-95341200D03*
X147929600Y-83769200D03*
X146227800Y-102377200D03*
D12*
X140522200Y-105804600D03*
D13*
X126009400Y-98069400D03*
X154635200Y-100609400D03*
X147070600Y-91441200D03*
X148370600Y-94691200D03*
X145770600Y-95341200D03*
X143170600Y-95991200D03*
X126009400Y-104419400D03*
X154635200Y-90449400D03*
X144470600Y-95991200D03*
X130149600Y-112395000D03*
X137769600Y-83769200D03*
X145516600Y-102377200D03*
X126009400Y-91719400D03*
X154635200Y-87909400D03*
X129794000Y-88300600D03*
X143170600Y-95341200D03*
D12*
X138522200Y-104804600D03*
X132029200Y-106804600D03*
D13*
X129794400Y-97541200D03*
X154635200Y-110769400D03*
D12*
X131029200Y-106804600D03*
D13*
X141579600Y-112395000D03*
X131745800Y-86385400D03*
D12*
X132029200Y-104804600D03*
D13*
X149199600Y-112395000D03*
X126009400Y-92989400D03*
X147111600Y-88879200D03*
X154635200Y-91719400D03*
D12*
X146801800Y-107924600D03*
D13*
X154635200Y-95529400D03*
X139039600Y-83769200D03*
X144470600Y-94691200D03*
X138710400Y-96367600D03*
X140233400Y-87912000D03*
X129794400Y-95941200D03*
X128879600Y-83769200D03*
X154635200Y-85369400D03*
D12*
X133029200Y-105804600D03*
D13*
X138710400Y-94945200D03*
X147070600Y-94691200D03*
X144470600Y-94041200D03*
X126009400Y-99339400D03*
D12*
X150251800Y-109586700D03*
D13*
X154736800Y-83693000D03*
D12*
X132029200Y-105804600D03*
D13*
X132994400Y-95941200D03*
X126009400Y-90449400D03*
X133959600Y-112395000D03*
X147070600Y-94041200D03*
X152120600Y-90637400D03*
X126009400Y-110769400D03*
X140309600Y-83769200D03*
X127609600Y-83769200D03*
X148615400Y-88873400D03*
X145120600Y-96641200D03*
X131419600Y-112395000D03*
X141579600Y-83769200D03*
X145389600Y-83769200D03*
X151739600Y-83769200D03*
X152120600Y-94904600D03*
X145770600Y-97941200D03*
X139039600Y-112395000D03*
X142520600Y-90791200D03*
X137769600Y-112395000D03*
X154635200Y-108229400D03*
X145770600Y-96641200D03*
X154635200Y-109499400D03*
X128879600Y-112395000D03*
D12*
X138522200Y-105804600D03*
D13*
X125882400Y-112572800D03*
X130133133Y-102048267D03*
X148370600Y-95991200D03*
X126009400Y-101879400D03*
D12*
X131029200Y-104804600D03*
D13*
X126009400Y-86639400D03*
X140309600Y-112395000D03*
X126009400Y-89179400D03*
X146420600Y-94691200D03*
X146659600Y-83769200D03*
X126009400Y-100609400D03*
X142925800Y-88275200D03*
X136194400Y-88300600D03*
X148370600Y-95341200D03*
X153009600Y-83769200D03*
X149199600Y-83769200D03*
X127609600Y-112395000D03*
X126009400Y-109499400D03*
X132689600Y-83769200D03*
X126009400Y-95529400D03*
X138745000Y-90791200D03*
D12*
X140522200Y-104804600D03*
D13*
X143820600Y-92741200D03*
X147040600Y-102740400D03*
X154863800Y-112674400D03*
X144470600Y-96641200D03*
X138407200Y-97180400D03*
D12*
X127381000Y-101549200D03*
D13*
X145770600Y-94041200D03*
X152120600Y-92059800D03*
X131419600Y-83769200D03*
X145120600Y-95341200D03*
X126314200Y-84074000D03*
X126009400Y-103149400D03*
D12*
X133029200Y-104804600D03*
D13*
X135631400Y-108914600D03*
X143124400Y-108914600D03*
X150469600Y-83769200D03*
X126009400Y-94259400D03*
X133394400Y-88300600D03*
X147929600Y-112395000D03*
X154635200Y-103149400D03*
D12*
X139522200Y-104804600D03*
D13*
X144094200Y-102377200D03*
X126009400Y-85369400D03*
X154635200Y-98069400D03*
X154635200Y-96799400D03*
X154635200Y-99339400D03*
X154635200Y-86639400D03*
X142113000Y-88897400D03*
X150901400Y-106047000D03*
X132194400Y-92741200D03*
X145120600Y-94691200D03*
X147070600Y-95991200D03*
X146659600Y-112395000D03*
X145770600Y-95991200D03*
X138745000Y-90068400D03*
X136194400Y-97541200D03*
X126009400Y-108229400D03*
X130194400Y-100370600D03*
X144795600Y-102377200D03*
X126009400Y-106959400D03*
X126009400Y-87909400D03*
X136499600Y-112395000D03*
X144119600Y-83769200D03*
X130594000Y-88300600D03*
X154635200Y-104419400D03*
X154635200Y-94259400D03*
X146420600Y-94041200D03*
X131394400Y-95941200D03*
X148370600Y-93391200D03*
X145071600Y-88879200D03*
X131794400Y-100370600D03*
X150655400Y-88873400D03*
X132689600Y-112395000D03*
X154635200Y-92989400D03*
X152120600Y-93482200D03*
X154635200Y-105689400D03*
X142849600Y-83769200D03*
D12*
X140522200Y-106804600D03*
D13*
X133959600Y-83769200D03*
X154635200Y-106959400D03*
X136499600Y-83769200D03*
X126009400Y-96799400D03*
X146420600Y-91441200D03*
X151409400Y-88209600D03*
X137617200Y-102054600D03*
X126009400Y-105689400D03*
D12*
X131029200Y-105804600D03*
D13*
X147070600Y-95341200D03*
D12*
X138522200Y-106804600D03*
X133029200Y-106804600D03*
D13*
X144339000Y-88279800D03*
D12*
X128041400Y-93522800D03*
X139522200Y-105804600D03*
D13*
X144119600Y-112395000D03*
X135229600Y-112395000D03*
X147070600Y-97941200D03*
X135229600Y-83769200D03*
X130594400Y-92741200D03*
%TO.N,+3V3*%
X147878800Y-88879200D03*
X143637000Y-88279800D03*
X133394400Y-88940600D03*
X152120600Y-91277400D03*
X146227800Y-101737200D03*
X141173200Y-87907000D03*
X152120600Y-92699800D03*
X128994000Y-88940600D03*
X131794400Y-99730600D03*
X130194400Y-99730600D03*
X139350400Y-96367600D03*
X135631400Y-102694600D03*
X142925800Y-88915200D03*
X152120600Y-94122200D03*
X143124400Y-109554600D03*
X142113000Y-87937400D03*
X130594000Y-88940600D03*
X139350400Y-95666200D03*
X152120600Y-95544600D03*
X152120600Y-88209600D03*
X144795600Y-101737200D03*
X152120600Y-96316200D03*
X145516600Y-101737200D03*
X149936200Y-105027000D03*
X129794000Y-88940600D03*
D12*
X145897600Y-104902000D03*
X145237200Y-104902000D03*
D13*
X144094200Y-101737200D03*
D12*
X146227800Y-104013000D03*
D13*
X143124400Y-102694600D03*
X139350400Y-94945200D03*
D12*
X146913600Y-104013000D03*
D13*
X135631400Y-109554600D03*
X136194400Y-88940600D03*
%TO.N,Net-(U1-PDR_ON)*%
X149020600Y-94041200D03*
X152120600Y-88849600D03*
%TO.N,/MCU/BOOT0*%
X151409400Y-88849600D03*
X148370600Y-94041200D03*
%TO.N,/Castellated_holes/LTDC_G5*%
X147720600Y-99241200D03*
X152196800Y-99852200D03*
%TO.N,/Castellated_holes/LTDC_G7*%
X152196800Y-99241200D03*
X149020600Y-99241200D03*
%TO.N,/Castellated_holes/LTDC_B1*%
X151434800Y-95021400D03*
X149670600Y-95341200D03*
%TO.N,/Castellated_holes/LTDC_R4*%
X143820600Y-98591200D03*
%TO.N,unconnected-(U1-PH6-PadM11)*%
X143170600Y-97291200D03*
%TO.N,/Castellated_holes/LTDC_R0*%
X150320600Y-95341200D03*
%TO.N,/Castellated_holes/LTDC_B4*%
X148370600Y-92741200D03*
%TO.N,/Castellated_holes/LTDC_G1*%
X149670600Y-92091200D03*
%TO.N,/Castellated_holes/LTDC_R3*%
X143170600Y-98591200D03*
%TO.N,/Castellated_holes/LTDC_G0*%
X149670600Y-91441200D03*
%TO.N,unconnected-(U1-PA10-PadD15)*%
X148370600Y-99891200D03*
%TO.N,/Castellated_holes/LTDC_R2*%
X149670600Y-99241200D03*
%TO.N,/Castellated_holes/LTDC_CLK*%
X145120600Y-99241200D03*
%TO.N,/Castellated_holes/LTDC_VSYNC*%
X148370600Y-92091200D03*
%TO.N,/Castellated_holes/LTDC_B2*%
X152196800Y-98841197D03*
X147070600Y-99241200D03*
%TO.N,/Castellated_holes/LTDC_G4*%
X148370600Y-98591200D03*
%TO.N,/Castellated_holes/LTDC_R1*%
X141870600Y-91441200D03*
%TO.N,/Castellated_holes/LTDC_R5*%
X143820600Y-97941200D03*
%TO.N,/Castellated_holes/LTDC_G2*%
X147720600Y-97941200D03*
%TO.N,/Castellated_holes/LTDC_R7*%
X145120600Y-99891200D03*
%TO.N,unconnected-(U1-PH8-PadM12)*%
X143170600Y-97941200D03*
%TO.N,/Castellated_holes/LTDC_B6*%
X149020600Y-92091200D03*
X150557833Y-90353632D03*
%TO.N,VBAT*%
X149020600Y-90791200D03*
%TO.N,/Castellated_holes/LTDC_G6*%
X148370600Y-99241200D03*
%TO.N,/Castellated_holes/LTDC_R6*%
X144470600Y-97941200D03*
%TO.N,/Castellated_holes/LTDC_B7*%
X149020600Y-91441200D03*
%TO.N,/Castellated_holes/LTDC_HSYNC*%
X147720600Y-92091200D03*
X150139400Y-89916000D03*
%TO.N,unconnected-(U1-PG3-PadK15)*%
X144470600Y-99891200D03*
%TO.N,/Castellated_holes/LTDC_B3*%
X152196800Y-98441194D03*
X147070600Y-99891200D03*
%TO.N,/Castellated_holes/LTDC_B0*%
X149670600Y-90791200D03*
%TO.N,/Castellated_holes/LTDC_DE*%
X143820600Y-90791200D03*
%TO.N,/Castellated_holes/LTDC_G3*%
X149670600Y-96641200D03*
X151547080Y-90116054D03*
%TO.N,/Castellated_holes/LTDC_B5*%
X149020600Y-92741200D03*
%TO.N,/MCU/SDRAM_A12*%
X143820600Y-99891200D03*
X134594400Y-97541200D03*
%TO.N,/MCU/SDRAM_A8*%
X135394400Y-97541200D03*
X141220600Y-94691200D03*
%TO.N,/MCU/SDRAM_DQ13*%
X141870600Y-99891200D03*
X130594400Y-96741200D03*
%TO.N,/MCU/SDRAM_CKE*%
X143170600Y-93391200D03*
X133794400Y-95941200D03*
%TO.N,/MCU/SDRAM_DQ6*%
X141870600Y-95991200D03*
X132194400Y-91941200D03*
%TO.N,/MCU/SDRAM_A5*%
X144470600Y-92091200D03*
X136194400Y-96741200D03*
%TO.N,/MCU/SDRAM_DQ0*%
X129794400Y-91941200D03*
X143170600Y-99241200D03*
%TO.N,/MCU/SDRAM_DQMH*%
X150320600Y-92091200D03*
X133794400Y-97541200D03*
%TO.N,/MCU/SDRAM_DQ14*%
X130594400Y-97541200D03*
X141870600Y-99241200D03*
%TO.N,/MCU/SDRAM_A7*%
X142520600Y-94041200D03*
X135394400Y-96741200D03*
%TO.N,/MCU/SDRAM_A2*%
X136194400Y-91941200D03*
X145770600Y-91441200D03*
%TO.N,/MCU/SDRAM_DQ12*%
X131394400Y-97541200D03*
X141220600Y-97291200D03*
%TO.N,/MCU/SDRAM_A6*%
X135394400Y-95941200D03*
X141870600Y-94041200D03*
%TO.N,/MCU/SDRAM_A9*%
X141870600Y-94691200D03*
X134594400Y-95941200D03*
%TO.N,/MCU/~{SDRAM_RAS}*%
X141220600Y-94041200D03*
X133794400Y-91941200D03*
%TO.N,/MCU/SDRAM_DQ7*%
X132994400Y-91141200D03*
X141220600Y-95991200D03*
%TO.N,/MCU/SDRAM_A1*%
X145770600Y-92091200D03*
X135394400Y-91941200D03*
%TO.N,/MCU/SDRAM_DQ3*%
X149020600Y-97941200D03*
X131394400Y-91141200D03*
%TO.N,/MCU/~{SDRAM_CAS}*%
X149670600Y-94691200D03*
X133794400Y-92741200D03*
%TO.N,/MCU/SDRAM_DQ15*%
X129794400Y-96741200D03*
X142520600Y-99891200D03*
%TO.N,/MCU/SDRAM_A11*%
X143170600Y-94691200D03*
X134594400Y-96741200D03*
%TO.N,/MCU/SDRAM_DQ5*%
X141870600Y-95341200D03*
X132194400Y-91141200D03*
%TO.N,/MCU/SDRAM_A10*%
X142520600Y-94691200D03*
X135394400Y-91141200D03*
%TO.N,/MCU/SDRAM_A0*%
X135394400Y-92741200D03*
X147720600Y-91441200D03*
%TO.N,/MCU/~{SDRAM_WE}*%
X145120600Y-92741200D03*
X133794400Y-91141200D03*
%TO.N,/MCU/SDRAM_DQML*%
X132994400Y-91941200D03*
X150320600Y-92741200D03*
%TO.N,/MCU/SDRAM_DQ4*%
X141220600Y-95341200D03*
X131394400Y-91941200D03*
%TO.N,/MCU/SDRAM_DQ9*%
X141220600Y-96641200D03*
X132194400Y-96741200D03*
%TO.N,/MCU/SDRAM_DQ8*%
X132994400Y-97541200D03*
X141870600Y-96641200D03*
%TO.N,/MCU/SDRAM_DQ10*%
X142520600Y-97291200D03*
X132194400Y-97541200D03*
%TO.N,/MCU/SDRAM_BA1*%
X144470600Y-98591200D03*
X134594400Y-91941200D03*
%TO.N,/MCU/SDRAM_A4*%
X145120600Y-92091200D03*
X136194400Y-95941200D03*
%TO.N,/MCU/SDRAM_DQ1*%
X143820600Y-99241200D03*
X130594400Y-91141200D03*
%TO.N,/MCU/SDRAM_CLK*%
X145770600Y-99241200D03*
X133794400Y-96741200D03*
%TO.N,/MCU/SDRAM_A3*%
X145120600Y-91441200D03*
X136194400Y-92741200D03*
%TO.N,/MCU/SDRAM_DQ2*%
X130594400Y-91941200D03*
X149670600Y-97941200D03*
%TO.N,/MCU/SDRAM_BA0*%
X134594400Y-92741200D03*
X144470600Y-99241200D03*
%TO.N,/MCU/~{SDRAM_CS}*%
X134594400Y-91141200D03*
X143170600Y-92741200D03*
%TO.N,unconnected-(U2-NC-PadE2)*%
X132994400Y-96741200D03*
%TO.N,/MCU/SDRAM_DQ11*%
X131394400Y-96741200D03*
X141870600Y-97291200D03*
%TO.N,/Castellated_holes/USB_DN*%
X149020600Y-99891200D03*
%TO.N,/Castellated_holes/USB_DP*%
X149670600Y-99891200D03*
%TO.N,/MCU/~{FLASH_BK1_CS}*%
X149670600Y-94041200D03*
X133934200Y-102054600D03*
%TO.N,/MCU/~{FLASH_BK2_CS}*%
X149670600Y-98591200D03*
X141427200Y-102054600D03*
%TO.N,/MCU/FLASH_BK1_IO1*%
X143820600Y-91441200D03*
X132664200Y-102054600D03*
%TO.N,/MCU/FLASH_BK1_IO0*%
X143820600Y-92091200D03*
X130124200Y-109554600D03*
%TO.N,/MCU/FLASH_BK2_IO1*%
X146420600Y-92741200D03*
X140157200Y-102054600D03*
%TO.N,/MCU/FLASH_BK1_IO2*%
X144470600Y-90791200D03*
X131394200Y-102054600D03*
%TO.N,/MCU/FLASH_CLK*%
X143170600Y-94041200D03*
X131394200Y-109554600D03*
X138887200Y-109554600D03*
%TO.N,/MCU/FLASH_BK1_IO3*%
X144470600Y-91441200D03*
X132664200Y-109554600D03*
%TO.N,/MCU/FLASH_BK2_IO3*%
X140157200Y-109554600D03*
X150320600Y-94691200D03*
%TO.N,/MCU/FLASH_BK2_IO2*%
X149020600Y-96641200D03*
X138887200Y-102054600D03*
%TO.N,/MCU/FLASH_BK2_IO0*%
X147070600Y-92741200D03*
X137617200Y-109554600D03*
%TO.N,PB7*%
X149670600Y-93391200D03*
%TO.N,PB5*%
X150320600Y-94041200D03*
%TO.N,PB8*%
X150320600Y-93391200D03*
%TO.N,PB9*%
X149670600Y-92741200D03*
%TO.N,/Castellated_holes/SWCLK*%
X150320600Y-99241200D03*
%TO.N,/Castellated_holes/SWO*%
X150320600Y-96641200D03*
%TO.N,/Castellated_holes/SWDIO*%
X150320600Y-99891200D03*
%TO.N,/Castellated_holes/USB_VBUS_DET*%
X147720600Y-99891200D03*
%TO.N,PH4*%
X142875800Y-86766400D03*
X145770600Y-92741200D03*
%TO.N,PC1*%
X143170600Y-92091200D03*
X139369800Y-85816802D03*
%TO.N,PC0*%
X143170600Y-91441200D03*
X139750800Y-86004400D03*
%TO.N,PC4*%
X142520600Y-93391200D03*
X137942827Y-85374000D03*
%TO.N,PC5*%
X127897600Y-95762000D03*
X141870600Y-93391200D03*
%TO.N,PA1*%
X142520600Y-91441200D03*
X138969797Y-85816802D03*
%TO.N,PA4*%
X138314054Y-86429390D03*
X142520600Y-92741200D03*
%TO.N,PA0*%
X138569992Y-85829390D03*
X142520600Y-92091200D03*
%TO.N,PA7*%
X141220600Y-92091200D03*
%TO.N,PA3*%
X141220600Y-91441200D03*
%TO.N,PA6*%
X141870600Y-92091200D03*
X127203200Y-94462600D03*
%TO.N,PA5*%
X127050800Y-95097600D03*
X141870600Y-92741200D03*
%TO.N,PB0*%
X127297600Y-95521526D03*
X141220600Y-93391200D03*
%TO.N,PB1*%
X141220600Y-92741200D03*
X127990600Y-94788000D03*
%TO.N,PB11*%
X141220600Y-98591200D03*
%TO.N,PB10*%
X141220600Y-97941200D03*
%TO.N,PB13*%
X141870600Y-98591200D03*
%TO.N,PB12*%
X141870600Y-97941200D03*
%TO.N,PB14*%
X127068200Y-106599000D03*
X141220600Y-99241200D03*
%TO.N,PB15*%
X141220600Y-99891200D03*
X127315903Y-106913078D03*
%TO.N,PD13*%
X143170600Y-99891200D03*
X127842670Y-107518357D03*
%TO.N,PH7*%
X127584200Y-107213078D03*
X142520600Y-97941200D03*
%TO.N,PC7*%
X146420600Y-99891200D03*
%TO.N,PC6*%
X145770600Y-99891200D03*
%TO.N,PC8*%
X146420600Y-99241200D03*
%TO.N,PH14*%
X147720600Y-98591200D03*
%TO.N,PC12*%
X149292795Y-102328553D03*
X150320600Y-97941200D03*
%TO.N,PI3*%
X149020600Y-98591200D03*
X148400302Y-100957000D03*
%TO.N,PD6*%
X148562967Y-101649167D03*
X149670600Y-97291200D03*
%TO.N,PD7*%
X148241700Y-102394700D03*
X150320600Y-97291200D03*
%TO.N,PD5*%
X148132800Y-101650800D03*
X149020600Y-97291200D03*
%TO.N,PA15*%
X150320600Y-98591200D03*
X148844000Y-102260400D03*
%TO.N,PB4*%
X150139400Y-103352600D03*
X150320600Y-95991200D03*
%TO.N,PD2*%
X148370600Y-97941200D03*
X147728590Y-100787200D03*
%TO.N,PG11*%
X149354400Y-102948600D03*
X149670600Y-95991200D03*
%TO.N,PD3*%
X148032052Y-101113184D03*
X148370600Y-97291200D03*
%TD*%
D14*
%TO.N,Net-(U1-PDR_ON)*%
X149370600Y-93691200D02*
X149370600Y-90126000D01*
X149020600Y-94041200D02*
X149370600Y-93691200D01*
X151736800Y-89233400D02*
X152120600Y-88849600D01*
X150263200Y-89233400D02*
X151736800Y-89233400D01*
X149370600Y-90126000D02*
X150263200Y-89233400D01*
%TO.N,/MCU/BOOT0*%
X150393400Y-88519000D02*
X148717000Y-90195400D01*
X148717000Y-90195400D02*
X148717000Y-93694800D01*
X151409400Y-88849600D02*
X151078800Y-88519000D01*
X151078800Y-88519000D02*
X150393400Y-88519000D01*
X148717000Y-93694800D02*
X148370600Y-94041200D01*
%TO.N,/Castellated_holes/LTDC_R7*%
X153949400Y-99568000D02*
X153949400Y-88925400D01*
X146862800Y-99591200D02*
X148494865Y-99591200D01*
X146770600Y-99161600D02*
X146770600Y-99499000D01*
X148720600Y-99816935D02*
X148720600Y-100130400D01*
X146770600Y-99499000D02*
X146862800Y-99591200D01*
X153949400Y-88925400D02*
X154328000Y-88546800D01*
X145470600Y-99106000D02*
X145635400Y-98941200D01*
X148494865Y-99591200D02*
X148720600Y-99816935D01*
X145120600Y-99891200D02*
X145470600Y-99541200D01*
X148869400Y-100279200D02*
X153238200Y-100279200D01*
X145470600Y-99541200D02*
X145470600Y-99106000D01*
X153238200Y-100279200D02*
X153949400Y-99568000D01*
X146550200Y-98941200D02*
X146770600Y-99161600D01*
X154328000Y-88546800D02*
X155310800Y-88546800D01*
X148720600Y-100130400D02*
X148869400Y-100279200D01*
X145635400Y-98941200D02*
X146550200Y-98941200D01*
%TO.N,/MCU/~{FLASH_BK1_CS}*%
X134975600Y-97866200D02*
X134975600Y-95072200D01*
X148020600Y-91316935D02*
X148020600Y-94115465D01*
X131089400Y-101752400D02*
X134975600Y-97866200D01*
X148020600Y-94115465D02*
X148246335Y-94341200D01*
X131089400Y-102311200D02*
X131089400Y-101752400D01*
X146975265Y-90271600D02*
X148020600Y-91316935D01*
X133934200Y-102054600D02*
X133499800Y-102489000D01*
X134975600Y-95072200D02*
X139776200Y-90271600D01*
X139776200Y-90271600D02*
X146975265Y-90271600D01*
X133499800Y-102489000D02*
X131267200Y-102489000D01*
X148246335Y-94341200D02*
X149370600Y-94341200D01*
X131267200Y-102489000D02*
X131089400Y-102311200D01*
X149370600Y-94341200D02*
X149670600Y-94041200D01*
%TO.N,/MCU/~{FLASH_BK2_CS}*%
X151351000Y-99052518D02*
X151311000Y-99052518D01*
X144805400Y-100558600D02*
X144221200Y-101142800D01*
X149970600Y-98291200D02*
X149670600Y-98591200D01*
X150751000Y-95641200D02*
X150711000Y-95641200D01*
X145110200Y-98475800D02*
X144805400Y-98780600D01*
X151820600Y-99360000D02*
X151612600Y-99568000D01*
X151031000Y-95721200D02*
X151031000Y-98972492D01*
X151511000Y-95641200D02*
X151749800Y-95641200D01*
X150831000Y-98972492D02*
X150831000Y-95721200D01*
X149144865Y-98941200D02*
X147455200Y-98941200D01*
X142339000Y-101142800D02*
X141427200Y-102054600D01*
X146989800Y-98475800D02*
X145110200Y-98475800D01*
X151749800Y-95641200D02*
X151820600Y-95712000D01*
X144805400Y-98780600D02*
X144805400Y-100558600D01*
X150951000Y-99052492D02*
X150911000Y-99052492D01*
X149320600Y-99116935D02*
X149144865Y-98941200D01*
X149970600Y-95825199D02*
X149970600Y-98291200D01*
X151820600Y-95712000D02*
X151820600Y-99360000D01*
X147455200Y-98941200D02*
X146989800Y-98475800D01*
X149504400Y-99568000D02*
X149320600Y-99384200D01*
X150711000Y-95641200D02*
X150481996Y-95641200D01*
X144221200Y-101142800D02*
X142339000Y-101142800D01*
X150154599Y-95641200D02*
X149970600Y-95825199D01*
X151151000Y-95641200D02*
X151111000Y-95641200D01*
X151431000Y-95721200D02*
X151431000Y-98972518D01*
X149320600Y-99384200D02*
X149320600Y-99116935D01*
X151612600Y-99568000D02*
X149504400Y-99568000D01*
X151231000Y-98972518D02*
X151231000Y-95721200D01*
X150481996Y-95641200D02*
X150154599Y-95641200D01*
X151231000Y-95721200D02*
G75*
G03*
X151151000Y-95641200I-80000J0D01*
G01*
X151511000Y-95641200D02*
G75*
G03*
X151431000Y-95721200I0J-80000D01*
G01*
X151111000Y-95641200D02*
G75*
G03*
X151031000Y-95721200I0J-80000D01*
G01*
X151311000Y-99052518D02*
G75*
G02*
X151230982Y-98972518I0J80018D01*
G01*
X151431000Y-98972518D02*
G75*
G02*
X151351000Y-99052500I-80000J18D01*
G01*
X150831000Y-95721200D02*
G75*
G03*
X150751000Y-95641200I-80000J0D01*
G01*
X151031000Y-98972492D02*
G75*
G02*
X150951000Y-99052500I-80000J-8D01*
G01*
X150911000Y-99052492D02*
G75*
G02*
X150831008Y-98972492I0J79992D01*
G01*
%TO.N,/MCU/FLASH_BK1_IO1*%
X140916642Y-91141200D02*
X143520600Y-91141200D01*
X133550600Y-101168200D02*
X133769246Y-101168200D01*
X135605246Y-101168200D02*
X135605246Y-101997048D01*
X140043000Y-98608516D02*
X140043000Y-92014842D01*
X140043000Y-92014842D02*
X140916642Y-91141200D01*
X135265246Y-101168200D02*
X135265246Y-100339351D01*
X135945246Y-101168200D02*
X135945246Y-100339351D01*
X134925246Y-101168200D02*
X134925246Y-101997049D01*
X136829246Y-101168200D02*
X137128519Y-101168200D01*
X136285246Y-100339351D02*
X136285246Y-101168200D01*
X135605246Y-100339351D02*
X135605246Y-101168200D01*
X134041246Y-100203345D02*
X134109246Y-100203345D01*
X134585246Y-101997055D02*
X134585246Y-101168200D01*
X135945246Y-101997048D02*
X135945246Y-101168200D01*
X135401246Y-100203351D02*
X135469246Y-100203351D01*
X134721246Y-100203345D02*
X134789246Y-100203345D01*
X135061246Y-102133049D02*
X135129246Y-102133049D01*
X134585246Y-101168200D02*
X134585246Y-100339345D01*
X136421246Y-102033048D02*
X136489246Y-102033048D01*
X137483316Y-101168200D02*
X140043000Y-98608516D01*
X136081246Y-100203351D02*
X136149246Y-100203351D01*
X136761246Y-101168200D02*
X136829246Y-101168200D01*
X132664200Y-102054600D02*
X133550600Y-101168200D01*
X134245246Y-101032200D02*
X134245246Y-101997055D01*
X136285246Y-101168200D02*
X136285246Y-101897048D01*
X137128519Y-101168200D02*
X137483316Y-101168200D01*
X143520600Y-91141200D02*
X143820600Y-91441200D01*
X136625246Y-101897048D02*
X136625246Y-101304200D01*
X135741246Y-102133048D02*
X135809246Y-102133048D01*
X134925246Y-100339345D02*
X134925246Y-101168200D01*
X135265246Y-101997049D02*
X135265246Y-101168200D01*
X133905246Y-101032200D02*
X133905246Y-100339345D01*
X134245246Y-100339345D02*
X134245246Y-101032200D01*
X134381246Y-102133055D02*
X134449246Y-102133055D01*
X136149246Y-100203351D02*
G75*
G02*
X136285149Y-100339351I-46J-135949D01*
G01*
X134109246Y-100203345D02*
G75*
G02*
X134245155Y-100339345I-46J-135955D01*
G01*
X134449246Y-102133055D02*
G75*
G03*
X134585155Y-101997055I-46J135955D01*
G01*
X136285246Y-101897048D02*
G75*
G03*
X136421246Y-102032954I135954J48D01*
G01*
X134585246Y-100339345D02*
G75*
G02*
X134721246Y-100203346I135954J45D01*
G01*
X133769246Y-101168200D02*
G75*
G03*
X133905200Y-101032200I-46J136000D01*
G01*
X135469246Y-100203351D02*
G75*
G02*
X135605149Y-100339351I-46J-135949D01*
G01*
X136489246Y-102033048D02*
G75*
G03*
X136625248Y-101897048I-46J136048D01*
G01*
X135809246Y-102133048D02*
G75*
G03*
X135945248Y-101997048I-46J136048D01*
G01*
X135265246Y-100339351D02*
G75*
G02*
X135401246Y-100203346I135954J51D01*
G01*
X136625246Y-101304200D02*
G75*
G02*
X136761246Y-101168246I135954J0D01*
G01*
X135129246Y-102133049D02*
G75*
G03*
X135265149Y-101997049I-46J135949D01*
G01*
X134789246Y-100203345D02*
G75*
G02*
X134925155Y-100339345I-46J-135955D01*
G01*
X135945246Y-100339351D02*
G75*
G02*
X136081246Y-100203346I135954J51D01*
G01*
X134925246Y-101997049D02*
G75*
G03*
X135061246Y-102133054I135954J-51D01*
G01*
X133905246Y-100339345D02*
G75*
G02*
X134041246Y-100203346I135954J45D01*
G01*
X135605246Y-101997048D02*
G75*
G03*
X135741246Y-102132954I135954J48D01*
G01*
X134245246Y-101997055D02*
G75*
G03*
X134381246Y-102133054I135954J-45D01*
G01*
%TO.N,/MCU/FLASH_BK1_IO0*%
X130632200Y-103606600D02*
X130124200Y-104114600D01*
X130124200Y-105461200D02*
X130124200Y-105557200D01*
X129216548Y-105941200D02*
X129216548Y-106037200D01*
X129216552Y-106901200D02*
X129216552Y-106997200D01*
X130124200Y-104114600D02*
X130124200Y-104597200D01*
X129216552Y-104981200D02*
X129216552Y-105077200D01*
X130124200Y-108464511D02*
X130124200Y-109554600D01*
X129408548Y-106229200D02*
X129932200Y-106229200D01*
X129408552Y-107189200D02*
X129932200Y-107189200D01*
X129932200Y-104789200D02*
X129408552Y-104789200D01*
X130124200Y-107381200D02*
X130124200Y-107477200D01*
X140243000Y-92644535D02*
X140243000Y-98691358D01*
X135327758Y-103606600D02*
X130632200Y-103606600D01*
X140243000Y-98691358D02*
X135327758Y-103606600D01*
X129932200Y-107669200D02*
X129408548Y-107669200D01*
X130124200Y-108341200D02*
X130124200Y-108437200D01*
X130124200Y-106421200D02*
X130124200Y-106517200D01*
X129932200Y-105749200D02*
X129408548Y-105749200D01*
X129932200Y-106709200D02*
X129408552Y-106709200D01*
X143520600Y-91791200D02*
X141096335Y-91791200D01*
X129408548Y-108149200D02*
X129932200Y-108149200D01*
X130124200Y-108437200D02*
X130124200Y-108464511D01*
X141096335Y-91791200D02*
X140243000Y-92644535D01*
X129408552Y-105269200D02*
X129932200Y-105269200D01*
X129216548Y-107861200D02*
X129216548Y-107957200D01*
X143820600Y-92091200D02*
X143520600Y-91791200D01*
X129216548Y-106037200D02*
G75*
G03*
X129408548Y-106229152I191952J0D01*
G01*
X130124200Y-107477200D02*
G75*
G02*
X129932200Y-107669200I-192000J0D01*
G01*
X130124200Y-106517200D02*
G75*
G02*
X129932200Y-106709200I-192000J0D01*
G01*
X129932200Y-106229200D02*
G75*
G02*
X130124200Y-106421200I0J-192000D01*
G01*
X130124200Y-104597200D02*
G75*
G02*
X129932200Y-104789200I-192000J0D01*
G01*
X129408552Y-106709200D02*
G75*
G03*
X129216600Y-106901200I48J-192000D01*
G01*
X129216552Y-106997200D02*
G75*
G03*
X129408552Y-107189248I192048J0D01*
G01*
X129932200Y-105269200D02*
G75*
G02*
X130124200Y-105461200I0J-192000D01*
G01*
X129408548Y-107669200D02*
G75*
G03*
X129216500Y-107861200I-48J-192000D01*
G01*
X129932200Y-107189200D02*
G75*
G02*
X130124200Y-107381200I0J-192000D01*
G01*
X129216552Y-105077200D02*
G75*
G03*
X129408552Y-105269248I192048J0D01*
G01*
X129408548Y-105749200D02*
G75*
G03*
X129216500Y-105941200I-48J-192000D01*
G01*
X129216548Y-107957200D02*
G75*
G03*
X129408548Y-108149152I191952J0D01*
G01*
X130124200Y-105557200D02*
G75*
G02*
X129932200Y-105749200I-192000J0D01*
G01*
X129932200Y-108149200D02*
G75*
G02*
X130124200Y-108341200I0J-192000D01*
G01*
X129408552Y-104789200D02*
G75*
G03*
X129216600Y-104981200I48J-192000D01*
G01*
%TO.N,/MCU/FLASH_BK2_IO1*%
X144622000Y-96970249D02*
X144622000Y-97508200D01*
X145922000Y-97508200D02*
X145922000Y-97070250D01*
X146858000Y-96916250D02*
X146806000Y-96916250D01*
X146182000Y-97070250D02*
X146182000Y-97508200D01*
X145142000Y-97508200D02*
X145142000Y-97904150D01*
X145402000Y-97508200D02*
X145402000Y-97070249D01*
X144518000Y-97612200D02*
X144466000Y-97612200D01*
X145558000Y-97612200D02*
X145506000Y-97612200D01*
X144882000Y-97612200D02*
X144882000Y-96970249D01*
X145818000Y-96966250D02*
X145766000Y-96966250D01*
X142425335Y-97612200D02*
X142220600Y-97816935D01*
X146735800Y-94150265D02*
X146494865Y-94391200D01*
X144292600Y-94391200D02*
X144170400Y-94513400D01*
X146078000Y-97612200D02*
X146026000Y-97612200D01*
X146659600Y-95681800D02*
X144246600Y-95681800D01*
X142220600Y-97816935D02*
X142220600Y-99991200D01*
X144297400Y-95021400D02*
X146659600Y-95021400D01*
X144882000Y-97904150D02*
X144882000Y-97612200D01*
X144094200Y-95834200D02*
X144094200Y-96189800D01*
X147345400Y-97612200D02*
X147066000Y-97612200D01*
X144094200Y-96189800D02*
X144245600Y-96341200D01*
X144102000Y-97020254D02*
X144102000Y-97508200D01*
X147395200Y-96341200D02*
X147523200Y-96469200D01*
X144170400Y-94894400D02*
X144297400Y-95021400D01*
X142220600Y-99991200D02*
X140157200Y-102054600D01*
X146770600Y-95132400D02*
X146770600Y-95570800D01*
X146420600Y-92741200D02*
X146735800Y-93056400D01*
X143946000Y-97612200D02*
X143523741Y-97612200D01*
X144778000Y-96866249D02*
X144726000Y-96866249D01*
X145662000Y-97070250D02*
X145662000Y-97508200D01*
X146442000Y-97508200D02*
X146442000Y-97070250D01*
X144362000Y-97508200D02*
X144362000Y-97020254D01*
X146598000Y-97612200D02*
X146546000Y-97612200D01*
X146770600Y-95570800D02*
X146659600Y-95681800D01*
X146659600Y-95021400D02*
X146770600Y-95132400D01*
X143523741Y-97612200D02*
X142425335Y-97612200D01*
X146338000Y-96966250D02*
X146286000Y-96966250D01*
X144246600Y-95681800D02*
X144094200Y-95834200D01*
X144170400Y-94513400D02*
X144170400Y-94894400D01*
X145142000Y-97070249D02*
X145142000Y-97508200D01*
X145038000Y-98008150D02*
X144986000Y-98008150D01*
X143998000Y-97612200D02*
X143946000Y-97612200D01*
X144258000Y-96916254D02*
X144206000Y-96916254D01*
X146702000Y-97020250D02*
X146702000Y-97508200D01*
X146735800Y-93056400D02*
X146735800Y-94150265D01*
X146494865Y-94391200D02*
X144292600Y-94391200D01*
X145298000Y-96966249D02*
X145246000Y-96966249D01*
X144245600Y-96341200D02*
X147395200Y-96341200D01*
X147523200Y-96469200D02*
X147523200Y-97434400D01*
X147523200Y-97434400D02*
X147345400Y-97612200D01*
X146962000Y-97508200D02*
X146962000Y-97020250D01*
X146026000Y-97612200D02*
G75*
G02*
X145922000Y-97508200I0J104000D01*
G01*
X146702000Y-97508200D02*
G75*
G02*
X146598000Y-97612200I-104000J0D01*
G01*
X145246000Y-96966249D02*
G75*
G03*
X145142049Y-97070249I0J-103951D01*
G01*
X144622000Y-97508200D02*
G75*
G02*
X144518000Y-97612200I-104000J0D01*
G01*
X144102000Y-97508200D02*
G75*
G02*
X143998000Y-97612200I-104000J0D01*
G01*
X147066000Y-97612200D02*
G75*
G02*
X146962000Y-97508200I0J104000D01*
G01*
X145142000Y-97904150D02*
G75*
G02*
X145038000Y-98008100I-104000J50D01*
G01*
X146286000Y-96966250D02*
G75*
G03*
X146181950Y-97070250I0J-104050D01*
G01*
X144206000Y-96916254D02*
G75*
G03*
X144101954Y-97020254I0J-104046D01*
G01*
X146546000Y-97612200D02*
G75*
G02*
X146442000Y-97508200I0J104000D01*
G01*
X144882000Y-96970249D02*
G75*
G03*
X144778000Y-96866200I-104000J49D01*
G01*
X145922000Y-97070250D02*
G75*
G03*
X145818000Y-96966300I-104000J-50D01*
G01*
X146806000Y-96916250D02*
G75*
G03*
X146701950Y-97020250I0J-104050D01*
G01*
X145766000Y-96966250D02*
G75*
G03*
X145661950Y-97070250I0J-104050D01*
G01*
X144362000Y-97020254D02*
G75*
G03*
X144258000Y-96916300I-104000J-46D01*
G01*
X146442000Y-97070250D02*
G75*
G03*
X146338000Y-96966300I-104000J-50D01*
G01*
X146962000Y-97020250D02*
G75*
G03*
X146858000Y-96916300I-104000J-50D01*
G01*
X145402000Y-97070249D02*
G75*
G03*
X145298000Y-96966200I-104000J49D01*
G01*
X144466000Y-97612200D02*
G75*
G02*
X144362000Y-97508200I0J104000D01*
G01*
X145506000Y-97612200D02*
G75*
G02*
X145402000Y-97508200I0J104000D01*
G01*
X144986000Y-98008150D02*
G75*
G02*
X144881950Y-97904150I0J104050D01*
G01*
X146182000Y-97508200D02*
G75*
G02*
X146078000Y-97612200I-104000J0D01*
G01*
X144726000Y-96866249D02*
G75*
G03*
X144622049Y-96970249I0J-103951D01*
G01*
X145662000Y-97508200D02*
G75*
G02*
X145558000Y-97612200I-104000J0D01*
G01*
%TO.N,/MCU/FLASH_BK1_IO2*%
X137841324Y-92489319D02*
X137841323Y-92489319D01*
X139839442Y-90491200D02*
X139538387Y-90792255D01*
X136186688Y-94143958D02*
X136144260Y-94186383D01*
X139114121Y-91386227D02*
X139637469Y-91909575D01*
X138732284Y-91598362D02*
X138689856Y-91640787D01*
X139538387Y-90961961D02*
X140061701Y-91485275D01*
X135763000Y-97685800D02*
X131394200Y-102054600D01*
X138576771Y-92970207D02*
X138053458Y-92446894D01*
X137303970Y-94243002D02*
X136780660Y-93719692D01*
X144470600Y-90791200D02*
X144170600Y-90491200D01*
X137417057Y-93083291D02*
X137940362Y-93606596D01*
X139425337Y-92121709D02*
X138901990Y-91598362D01*
X138265590Y-92065053D02*
X138265589Y-92065053D01*
X140061701Y-91654981D02*
X140019273Y-91697410D01*
X136144260Y-94186383D02*
X135907264Y-94423378D01*
X139156550Y-91174096D02*
X139114122Y-91216521D01*
X139849569Y-91697409D02*
X139326256Y-91174096D01*
X136568526Y-93762117D02*
X136568525Y-93762117D01*
X135907264Y-94423378D02*
X135763000Y-94567642D01*
X136610954Y-93719692D02*
X136568526Y-93762117D01*
X137883752Y-92446894D02*
X137841324Y-92489319D01*
X138788903Y-92927779D02*
X138746475Y-92970208D01*
X136992791Y-93507557D02*
X137516102Y-94030868D01*
X137841323Y-92659025D02*
X138364671Y-93182373D01*
X138308018Y-92022628D02*
X138265590Y-92065053D01*
X137091890Y-94624894D02*
X137049462Y-94667323D01*
X136879758Y-94667322D02*
X136356394Y-94143958D01*
X138265589Y-92234759D02*
X138788903Y-92758073D01*
X138364671Y-93352079D02*
X138322243Y-93394508D01*
X137035220Y-93295426D02*
X136992792Y-93337851D01*
X139637469Y-92079281D02*
X139595041Y-92121710D01*
X135763000Y-94567642D02*
X135763000Y-97685800D01*
X139114122Y-91216521D02*
X139114121Y-91216521D01*
X139001026Y-92545930D02*
X138477724Y-92022628D01*
X137417058Y-92913585D02*
X137417057Y-92913585D01*
X137940362Y-93776302D02*
X137897934Y-93818731D01*
X137516102Y-94200574D02*
X137473674Y-94243003D01*
X137459486Y-92871160D02*
X137417058Y-92913585D01*
X138689856Y-91640787D02*
X138689855Y-91640787D01*
X138689855Y-91810493D02*
X139213158Y-92333796D01*
X136992792Y-93337851D02*
X136992791Y-93337851D01*
X144170600Y-90491200D02*
X139839442Y-90491200D01*
X136568525Y-93931823D02*
X137091890Y-94455188D01*
X138152539Y-93394507D02*
X137629192Y-92871160D01*
X137728230Y-93818730D02*
X137204926Y-93295426D01*
X139213158Y-92503502D02*
X139170730Y-92545931D01*
X136780659Y-93719693D02*
G75*
G03*
X136610955Y-93719693I-84852J-84853D01*
G01*
X137516102Y-94030868D02*
G75*
G02*
X137516081Y-94200553I-84902J-84832D01*
G01*
X139170730Y-92545931D02*
G75*
G02*
X139001048Y-92545908I-84830J84831D01*
G01*
X139213158Y-92333796D02*
G75*
G02*
X139213109Y-92503453I-84858J-84804D01*
G01*
X138364671Y-93182373D02*
G75*
G02*
X138364645Y-93352053I-84871J-84827D01*
G01*
X137091890Y-94455188D02*
G75*
G02*
X137091849Y-94624853I-84890J-84812D01*
G01*
X137049462Y-94667323D02*
G75*
G02*
X136879748Y-94667332I-84862J84823D01*
G01*
X138322243Y-93394508D02*
G75*
G02*
X138152548Y-93394498I-84843J84808D01*
G01*
X139637468Y-91909576D02*
G75*
G02*
X139637440Y-92079252I-84868J-84824D01*
G01*
X137204925Y-93295427D02*
G75*
G03*
X137035221Y-93295427I-84852J-84853D01*
G01*
X139326255Y-91174097D02*
G75*
G03*
X139156551Y-91174097I-84852J-84853D01*
G01*
X139595041Y-92121710D02*
G75*
G02*
X139425348Y-92121698I-84841J84810D01*
G01*
X137473674Y-94243003D02*
G75*
G02*
X137303948Y-94243024I-84874J84903D01*
G01*
X138477723Y-92022629D02*
G75*
G03*
X138308019Y-92022629I-84852J-84853D01*
G01*
X137629191Y-92871161D02*
G75*
G03*
X137459487Y-92871161I-84852J-84853D01*
G01*
X137940361Y-93606597D02*
G75*
G02*
X137940312Y-93776252I-84861J-84803D01*
G01*
X138788903Y-92758073D02*
G75*
G02*
X138788877Y-92927753I-84903J-84827D01*
G01*
X140061701Y-91485275D02*
G75*
G02*
X140061673Y-91654953I-84901J-84825D01*
G01*
X138746475Y-92970208D02*
G75*
G02*
X138576747Y-92970230I-84875J84808D01*
G01*
X137897934Y-93818731D02*
G75*
G02*
X137728248Y-93818712I-84834J84831D01*
G01*
X136568525Y-93762117D02*
G75*
G03*
X136568495Y-93931853I84875J-84883D01*
G01*
X139114121Y-91216521D02*
G75*
G03*
X139114095Y-91386253I84879J-84879D01*
G01*
X138901989Y-91598363D02*
G75*
G03*
X138732285Y-91598363I-84852J-84853D01*
G01*
X138053457Y-92446895D02*
G75*
G03*
X137883753Y-92446895I-84852J-84853D01*
G01*
X138265589Y-92065053D02*
G75*
G03*
X138265595Y-92234753I84811J-84847D01*
G01*
X137417057Y-92913585D02*
G75*
G03*
X137417095Y-93083253I84843J-84815D01*
G01*
X137841323Y-92489319D02*
G75*
G03*
X137841295Y-92659053I84877J-84881D01*
G01*
X136992791Y-93337851D02*
G75*
G03*
X136992795Y-93507553I84809J-84849D01*
G01*
X138689855Y-91640787D02*
G75*
G03*
X138689895Y-91810453I84845J-84813D01*
G01*
X139538387Y-90792255D02*
G75*
G03*
X139538395Y-90961953I84813J-84845D01*
G01*
X140019273Y-91697410D02*
G75*
G02*
X139849547Y-91697430I-84873J84810D01*
G01*
X136356393Y-94143959D02*
G75*
G03*
X136186689Y-94143959I-84852J-84853D01*
G01*
%TO.N,/MCU/FLASH_CLK*%
X133338273Y-110846000D02*
X133268273Y-110846000D01*
X134388273Y-110236000D02*
X134318273Y-110236000D01*
X134038273Y-110846000D02*
X133968273Y-110846000D01*
X136488273Y-110236000D02*
X136418273Y-110236000D01*
X138887200Y-109554600D02*
X138887200Y-108889800D01*
X133128273Y-110706000D02*
X133128273Y-110376000D01*
X142784326Y-96941200D02*
X143535400Y-96190126D01*
X134178273Y-110376000D02*
X134178273Y-110706000D01*
X136978273Y-110376000D02*
X136978273Y-110706000D01*
X143535400Y-94406000D02*
X143170600Y-94041200D01*
X133828273Y-110706000D02*
X133828273Y-110376000D01*
X137188273Y-110236000D02*
X137118273Y-110236000D01*
X138887200Y-109554600D02*
X138205800Y-110236000D01*
X136628273Y-110706000D02*
X136628273Y-110376000D01*
X143535400Y-96190126D02*
X143535400Y-94406000D01*
X135788273Y-110236000D02*
X135718273Y-110236000D01*
X132988273Y-110236000D02*
X132918273Y-110236000D01*
X135088273Y-110236000D02*
X135018273Y-110236000D01*
X133478273Y-110376000D02*
X133478273Y-110706000D01*
X132918273Y-110236000D02*
X132383995Y-110236000D01*
X134738273Y-110846000D02*
X134668273Y-110846000D01*
X135228273Y-110706000D02*
X135228273Y-110376000D01*
X137845800Y-107848400D02*
X137845800Y-103838642D01*
X136838273Y-110846000D02*
X136768273Y-110846000D01*
X134528273Y-110706000D02*
X134528273Y-110376000D01*
X137328273Y-110706000D02*
X137328273Y-110376000D01*
X135578273Y-110376000D02*
X135578273Y-110706000D01*
X132075600Y-110236000D02*
X131394200Y-109554600D01*
X137845800Y-103838642D02*
X141570600Y-100113842D01*
X137678273Y-110376000D02*
X137678273Y-110706000D01*
X136278273Y-110376000D02*
X136278273Y-110706000D01*
X134878273Y-110376000D02*
X134878273Y-110706000D01*
X135928273Y-110706000D02*
X135928273Y-110376000D01*
X138887200Y-108889800D02*
X137845800Y-107848400D01*
X141570600Y-97166935D02*
X141796335Y-96941200D01*
X136138273Y-110846000D02*
X136068273Y-110846000D01*
X138205800Y-110236000D02*
X137818273Y-110236000D01*
X135438273Y-110846000D02*
X135368273Y-110846000D01*
X141796335Y-96941200D02*
X142784326Y-96941200D01*
X132383995Y-110236000D02*
X132075600Y-110236000D01*
X137538273Y-110846000D02*
X137468273Y-110846000D01*
X141570600Y-100113842D02*
X141570600Y-97166935D01*
X133688273Y-110236000D02*
X133618273Y-110236000D01*
X135578273Y-110706000D02*
G75*
G02*
X135438273Y-110845973I-139973J0D01*
G01*
X136978273Y-110706000D02*
G75*
G02*
X136838273Y-110845973I-139973J0D01*
G01*
X135228273Y-110376000D02*
G75*
G03*
X135088273Y-110236027I-139973J0D01*
G01*
X133128273Y-110376000D02*
G75*
G03*
X132988273Y-110236027I-139973J0D01*
G01*
X135928273Y-110376000D02*
G75*
G03*
X135788273Y-110236027I-139973J0D01*
G01*
X137328273Y-110376000D02*
G75*
G03*
X137188273Y-110236027I-139973J0D01*
G01*
X136278273Y-110706000D02*
G75*
G02*
X136138273Y-110845973I-139973J0D01*
G01*
X137818273Y-110236000D02*
G75*
G03*
X137678300Y-110376000I27J-140000D01*
G01*
X134878273Y-110706000D02*
G75*
G02*
X134738273Y-110845973I-139973J0D01*
G01*
X133478273Y-110706000D02*
G75*
G02*
X133338273Y-110845973I-139973J0D01*
G01*
X133268273Y-110846000D02*
G75*
G02*
X133128300Y-110706000I27J140000D01*
G01*
X136068273Y-110846000D02*
G75*
G02*
X135928300Y-110706000I27J140000D01*
G01*
X135018273Y-110236000D02*
G75*
G03*
X134878300Y-110376000I27J-140000D01*
G01*
X136418273Y-110236000D02*
G75*
G03*
X136278300Y-110376000I27J-140000D01*
G01*
X137678273Y-110706000D02*
G75*
G02*
X137538273Y-110845973I-139973J0D01*
G01*
X134528273Y-110376000D02*
G75*
G03*
X134388273Y-110236027I-139973J0D01*
G01*
X136628273Y-110376000D02*
G75*
G03*
X136488273Y-110236027I-139973J0D01*
G01*
X135718273Y-110236000D02*
G75*
G03*
X135578300Y-110376000I27J-140000D01*
G01*
X133968273Y-110846000D02*
G75*
G02*
X133828300Y-110706000I27J140000D01*
G01*
X133618273Y-110236000D02*
G75*
G03*
X133478300Y-110376000I27J-140000D01*
G01*
X135368273Y-110846000D02*
G75*
G02*
X135228300Y-110706000I27J140000D01*
G01*
X136768273Y-110846000D02*
G75*
G02*
X136628300Y-110706000I27J140000D01*
G01*
X134668273Y-110846000D02*
G75*
G02*
X134528300Y-110706000I27J140000D01*
G01*
X134318273Y-110236000D02*
G75*
G03*
X134178300Y-110376000I27J-140000D01*
G01*
X137118273Y-110236000D02*
G75*
G03*
X136978300Y-110376000I27J-140000D01*
G01*
X133828273Y-110376000D02*
G75*
G03*
X133688273Y-110236027I-139973J0D01*
G01*
X137468273Y-110846000D02*
G75*
G02*
X137328300Y-110706000I27J140000D01*
G01*
X134178273Y-110706000D02*
G75*
G02*
X134038273Y-110845973I-139973J0D01*
G01*
%TO.N,/MCU/FLASH_BK1_IO3*%
X134594857Y-105885000D02*
X134594857Y-105963000D01*
X134750881Y-106899000D02*
X135327600Y-106899000D01*
X135327600Y-104949000D02*
X134750857Y-104949000D01*
X135483600Y-106275000D02*
X135483600Y-106353000D01*
X134750857Y-107679000D02*
X135327600Y-107679000D01*
X134594857Y-107445000D02*
X134594857Y-107523000D01*
X135327600Y-104169000D02*
X134750857Y-104169000D01*
X134594881Y-106665000D02*
X134594881Y-106743000D01*
X140944600Y-92430600D02*
X140443000Y-92932200D01*
X134750857Y-104559000D02*
X135327600Y-104559000D01*
X134594857Y-105105000D02*
X134594857Y-105183000D01*
X134594857Y-104325000D02*
X134594857Y-104403000D01*
X140443000Y-98774200D02*
X135483600Y-103733600D01*
X144470600Y-91441200D02*
X144770600Y-91741200D01*
X134750857Y-105339000D02*
X135327600Y-105339000D01*
X135483600Y-108280200D02*
X134209200Y-109554600D01*
X134750857Y-106119000D02*
X135327600Y-106119000D01*
X135327600Y-106509000D02*
X134750881Y-106509000D01*
X135483600Y-107055000D02*
X135483600Y-107133000D01*
X135483600Y-107913000D02*
X135483600Y-108026200D01*
X144770600Y-92265465D02*
X144605465Y-92430600D01*
X135327600Y-107289000D02*
X134750857Y-107289000D01*
X135483600Y-103733600D02*
X135483600Y-104013000D01*
X134209200Y-109554600D02*
X132664200Y-109554600D01*
X135483600Y-105495000D02*
X135483600Y-105573000D01*
X135483600Y-108026200D02*
X135483600Y-108280200D01*
X135483600Y-104715000D02*
X135483600Y-104793000D01*
X135483600Y-107835000D02*
X135483600Y-107913000D01*
X144605465Y-92430600D02*
X140944600Y-92430600D01*
X135327600Y-105729000D02*
X134750857Y-105729000D01*
X144770600Y-91741200D02*
X144770600Y-92265465D01*
X140443000Y-92932200D02*
X140443000Y-98774200D01*
X134750857Y-104169000D02*
G75*
G03*
X134594900Y-104325000I43J-156000D01*
G01*
X134594857Y-105183000D02*
G75*
G03*
X134750857Y-105339043I156043J0D01*
G01*
X135327600Y-105339000D02*
G75*
G02*
X135483600Y-105495000I0J-156000D01*
G01*
X134594881Y-106743000D02*
G75*
G03*
X134750881Y-106899019I156019J0D01*
G01*
X135327600Y-106899000D02*
G75*
G02*
X135483600Y-107055000I0J-156000D01*
G01*
X134750857Y-105729000D02*
G75*
G03*
X134594900Y-105885000I43J-156000D01*
G01*
X135327600Y-107679000D02*
G75*
G02*
X135483600Y-107835000I0J-156000D01*
G01*
X135483600Y-104793000D02*
G75*
G02*
X135327600Y-104949000I-156000J0D01*
G01*
X134594857Y-107523000D02*
G75*
G03*
X134750857Y-107679043I156043J0D01*
G01*
X135483600Y-106353000D02*
G75*
G02*
X135327600Y-106509000I-156000J0D01*
G01*
X134594857Y-104403000D02*
G75*
G03*
X134750857Y-104559043I156043J0D01*
G01*
X135483600Y-107133000D02*
G75*
G02*
X135327600Y-107289000I-156000J0D01*
G01*
X134594857Y-105963000D02*
G75*
G03*
X134750857Y-106119043I156043J0D01*
G01*
X135483600Y-104013000D02*
G75*
G02*
X135327600Y-104169000I-156000J0D01*
G01*
X134750881Y-106509000D02*
G75*
G03*
X134594900Y-106665000I19J-156000D01*
G01*
X135327600Y-104559000D02*
G75*
G02*
X135483600Y-104715000I0J-156000D01*
G01*
X135327600Y-106119000D02*
G75*
G02*
X135483600Y-106275000I0J-156000D01*
G01*
X134750857Y-104949000D02*
G75*
G03*
X134594900Y-105105000I43J-156000D01*
G01*
X135483600Y-105573000D02*
G75*
G02*
X135327600Y-105729000I-156000J0D01*
G01*
X134750857Y-107289000D02*
G75*
G03*
X134594900Y-107445000I43J-156000D01*
G01*
%TO.N,/MCU/FLASH_BK2_IO3*%
X141554200Y-103798823D02*
X141554200Y-103894823D01*
X149596335Y-94991200D02*
X149320600Y-95266935D01*
X141746200Y-106006823D02*
X142577718Y-106006823D01*
X141554200Y-106678823D02*
X141554200Y-106774823D01*
X150020600Y-94991200D02*
X149596335Y-94991200D01*
X142577737Y-104566823D02*
X141746200Y-104566823D01*
X141746200Y-104086823D02*
X142577737Y-104086823D01*
X142769737Y-104278823D02*
X142769737Y-104374823D01*
X142577737Y-103606823D02*
X141746200Y-103606823D01*
X142769718Y-105238823D02*
X142769718Y-105334823D01*
X143033400Y-98241200D02*
X142820600Y-98454000D01*
X150320600Y-94691200D02*
X150020600Y-94991200D01*
X141554200Y-102768400D02*
X141554200Y-102934823D01*
X141554200Y-108157600D02*
X140157200Y-109554600D01*
X142820600Y-100130400D02*
X141046200Y-101904800D01*
X142577718Y-105526823D02*
X141746200Y-105526823D01*
X142769718Y-106198823D02*
X142769718Y-106294823D01*
X149320600Y-95266935D02*
X149320600Y-98100800D01*
X141554200Y-107638823D02*
X141554200Y-107734823D01*
X142769737Y-107158823D02*
X142769737Y-107254823D01*
X141746200Y-105046823D02*
X142577718Y-105046823D01*
X142820600Y-98454000D02*
X142820600Y-100130400D01*
X141746200Y-106966823D02*
X142577737Y-106966823D01*
X141554200Y-105718823D02*
X141554200Y-105814823D01*
X141046200Y-102260400D02*
X141554200Y-102768400D01*
X141554200Y-107734823D02*
X141554200Y-107748811D01*
X149320600Y-98100800D02*
X149180200Y-98241200D01*
X141046200Y-101904800D02*
X141046200Y-102260400D01*
X149180200Y-98241200D02*
X143033400Y-98241200D01*
X142577737Y-107446823D02*
X141746200Y-107446823D01*
X142769737Y-103318823D02*
X142769737Y-103414823D01*
X141746200Y-103126823D02*
X142577737Y-103126823D01*
X141554200Y-107748811D02*
X141554200Y-108157600D01*
X142577718Y-106486823D02*
X141746200Y-106486823D01*
X141554200Y-104758823D02*
X141554200Y-104854823D01*
X142769737Y-107254823D02*
G75*
G02*
X142577737Y-107446837I-192037J23D01*
G01*
X141746200Y-107446823D02*
G75*
G03*
X141554223Y-107638823I0J-191977D01*
G01*
X141554200Y-104854823D02*
G75*
G03*
X141746200Y-105046800I192000J23D01*
G01*
X142577737Y-104086823D02*
G75*
G02*
X142769677Y-104278823I-37J-191977D01*
G01*
X142577737Y-106966823D02*
G75*
G02*
X142769677Y-107158823I-37J-191977D01*
G01*
X141746200Y-104566823D02*
G75*
G03*
X141554223Y-104758823I0J-191977D01*
G01*
X141554200Y-102934823D02*
G75*
G03*
X141746200Y-103126800I192000J23D01*
G01*
X142577737Y-103126823D02*
G75*
G02*
X142769677Y-103318823I-37J-191977D01*
G01*
X141746200Y-106486823D02*
G75*
G03*
X141554223Y-106678823I0J-191977D01*
G01*
X141746200Y-105526823D02*
G75*
G03*
X141554223Y-105718823I0J-191977D01*
G01*
X141746200Y-103606823D02*
G75*
G03*
X141554223Y-103798823I0J-191977D01*
G01*
X142769737Y-104374823D02*
G75*
G02*
X142577737Y-104566837I-192037J23D01*
G01*
X141554200Y-103894823D02*
G75*
G03*
X141746200Y-104086800I192000J23D01*
G01*
X142577718Y-106006823D02*
G75*
G02*
X142769677Y-106198823I-18J-191977D01*
G01*
X141554200Y-106774823D02*
G75*
G03*
X141746200Y-106966800I192000J23D01*
G01*
X142769737Y-103414823D02*
G75*
G02*
X142577737Y-103606837I-192037J23D01*
G01*
X142769718Y-105334823D02*
G75*
G02*
X142577718Y-105526818I-192018J23D01*
G01*
X141554200Y-105814823D02*
G75*
G03*
X141746200Y-106006800I192000J23D01*
G01*
X142577718Y-105046823D02*
G75*
G02*
X142769677Y-105238823I-18J-191977D01*
G01*
X142769718Y-106294823D02*
G75*
G02*
X142577718Y-106486818I-192018J23D01*
G01*
%TO.N,/MCU/FLASH_BK2_IO2*%
X140643000Y-95827600D02*
X140643000Y-96142825D01*
X140643000Y-96142825D02*
X140643000Y-99234600D01*
X144609229Y-92957200D02*
X144609229Y-93309038D01*
X147210600Y-93290170D02*
X147130600Y-93290170D01*
X143549155Y-93041200D02*
X141146335Y-93041200D01*
X146970600Y-93450170D02*
X146970600Y-93530170D01*
X140643000Y-94987600D02*
X140643000Y-95027600D01*
X140643000Y-99234600D02*
X138887200Y-100990400D01*
X147370600Y-95050170D02*
X147370600Y-95130170D01*
X140643000Y-94187600D02*
X140643000Y-94227600D01*
X148670600Y-96991200D02*
X149020600Y-96641200D01*
X140813000Y-95307600D02*
X140723000Y-95307600D01*
X147660600Y-94090170D02*
X147530600Y-94090170D01*
X144819229Y-92957200D02*
X144819229Y-92823371D01*
X147370600Y-95503800D02*
X147840700Y-95973900D01*
X148005800Y-97612200D02*
X148488400Y-97612200D01*
X140913000Y-94507600D02*
X140723000Y-94507600D01*
X140893000Y-93987600D02*
X140893000Y-94027600D01*
X147910600Y-94890170D02*
X147530600Y-94890170D01*
X144315229Y-92739359D02*
X144273229Y-92739359D01*
X147840700Y-95973900D02*
X147840700Y-97447100D01*
X148670600Y-97430000D02*
X148670600Y-96991200D01*
X140643000Y-95387600D02*
X140643000Y-95427600D01*
X138887200Y-100990400D02*
X138887200Y-102054600D01*
X143853229Y-93041200D02*
X143549155Y-93041200D01*
X144399229Y-93041200D02*
X144399229Y-92823359D01*
X140723000Y-95507600D02*
X140913000Y-95507600D01*
X145872200Y-90601800D02*
X145465800Y-91008200D01*
X144609229Y-92823371D02*
X144609229Y-92957200D01*
X144735229Y-92739371D02*
X144693229Y-92739371D01*
X144189229Y-93041200D02*
X144189229Y-93309046D01*
X144525229Y-93393038D02*
X144483229Y-93393038D01*
X147210600Y-93690170D02*
X147660600Y-93690170D01*
X148488400Y-97612200D02*
X148670600Y-97430000D01*
X147130600Y-93690170D02*
X147210600Y-93690170D01*
X147840700Y-97447100D02*
X148005800Y-97612200D01*
X140643000Y-95787600D02*
X140643000Y-95827600D01*
X147370600Y-93130170D02*
X147370600Y-91033400D01*
X147820600Y-93850170D02*
X147820600Y-93930170D01*
X140913000Y-95707600D02*
X140723000Y-95707600D01*
X147370600Y-95130170D02*
X147370600Y-95220276D01*
X140813000Y-94107600D02*
X140723000Y-94107600D01*
X140993000Y-95587600D02*
X140993000Y-95627600D01*
X148070600Y-94650170D02*
X148070600Y-94730170D01*
X147370600Y-95220276D02*
X147370600Y-95503800D01*
X147370600Y-94250170D02*
X147370600Y-94330170D01*
X147530600Y-94490170D02*
X147910600Y-94490170D01*
X144189229Y-92823359D02*
X144189229Y-93041200D01*
X140643000Y-94587600D02*
X140643000Y-94627600D01*
X144105229Y-93393046D02*
X144063229Y-93393046D01*
X140723000Y-95107600D02*
X140813000Y-95107600D01*
X140893000Y-95187600D02*
X140893000Y-95227600D01*
X140813000Y-94907600D02*
X140723000Y-94907600D01*
X140993000Y-94387600D02*
X140993000Y-94427600D01*
X146939000Y-90601800D02*
X145872200Y-90601800D01*
X140723000Y-94307600D02*
X140913000Y-94307600D01*
X140723000Y-93907600D02*
X140813000Y-93907600D01*
X145465800Y-92870265D02*
X145294865Y-93041200D01*
X141146335Y-93041200D02*
X140643000Y-93544535D01*
X145294865Y-93041200D02*
X144903229Y-93041200D01*
X143895229Y-93041200D02*
X143853229Y-93041200D01*
X140643000Y-93544535D02*
X140643000Y-93827600D01*
X144399229Y-93309038D02*
X144399229Y-93041200D01*
X140723000Y-94707600D02*
X140813000Y-94707600D01*
X147370600Y-91033400D02*
X146939000Y-90601800D01*
X140893000Y-94787600D02*
X140893000Y-94827600D01*
X143979229Y-93309046D02*
X143979229Y-93125200D01*
X145465800Y-91008200D02*
X145465800Y-92870265D01*
X140913000Y-94307600D02*
G75*
G02*
X140993000Y-94387600I0J-80000D01*
G01*
X140723000Y-94507600D02*
G75*
G03*
X140643000Y-94587600I0J-80000D01*
G01*
X147660600Y-93690170D02*
G75*
G02*
X147820630Y-93850170I0J-160030D01*
G01*
X140643000Y-95427600D02*
G75*
G03*
X140723000Y-95507600I80000J0D01*
G01*
X140893000Y-94027600D02*
G75*
G02*
X140813000Y-94107600I-80000J0D01*
G01*
X147910600Y-94490170D02*
G75*
G02*
X148070630Y-94650170I0J-160030D01*
G01*
X140893000Y-94827600D02*
G75*
G02*
X140813000Y-94907600I-80000J0D01*
G01*
X140993000Y-94427600D02*
G75*
G02*
X140913000Y-94507600I-80000J0D01*
G01*
X146970600Y-93530170D02*
G75*
G03*
X147130600Y-93690200I160000J-30D01*
G01*
X144189229Y-93309046D02*
G75*
G02*
X144105229Y-93393029I-84029J46D01*
G01*
X140813000Y-94707600D02*
G75*
G02*
X140893000Y-94787600I0J-80000D01*
G01*
X147370600Y-93130170D02*
G75*
G02*
X147210600Y-93290200I-160000J-30D01*
G01*
X140643000Y-94227600D02*
G75*
G03*
X140723000Y-94307600I80000J0D01*
G01*
X140813000Y-95107600D02*
G75*
G02*
X140893000Y-95187600I0J-80000D01*
G01*
X147530600Y-94090170D02*
G75*
G03*
X147370570Y-94250170I0J-160030D01*
G01*
X148070600Y-94730170D02*
G75*
G02*
X147910600Y-94890200I-160000J-30D01*
G01*
X140643000Y-95027600D02*
G75*
G03*
X140723000Y-95107600I80000J0D01*
G01*
X140723000Y-95307600D02*
G75*
G03*
X140643000Y-95387600I0J-80000D01*
G01*
X140723000Y-95707600D02*
G75*
G03*
X140643000Y-95787600I0J-80000D01*
G01*
X140813000Y-93907600D02*
G75*
G02*
X140893000Y-93987600I0J-80000D01*
G01*
X147130600Y-93290170D02*
G75*
G03*
X146970570Y-93450170I0J-160030D01*
G01*
X147820600Y-93930170D02*
G75*
G02*
X147660600Y-94090200I-160000J-30D01*
G01*
X147370600Y-94330170D02*
G75*
G03*
X147530600Y-94490200I160000J-30D01*
G01*
X140993000Y-95627600D02*
G75*
G02*
X140913000Y-95707600I-80000J0D01*
G01*
X143979229Y-93125200D02*
G75*
G03*
X143895229Y-93041171I-84029J0D01*
G01*
X147530600Y-94890170D02*
G75*
G03*
X147370570Y-95050170I0J-160030D01*
G01*
X140643000Y-94627600D02*
G75*
G03*
X140723000Y-94707600I80000J0D01*
G01*
X140723000Y-94907600D02*
G75*
G03*
X140643000Y-94987600I0J-80000D01*
G01*
X144483229Y-93393038D02*
G75*
G02*
X144399162Y-93309038I-29J84038D01*
G01*
X144903229Y-93041200D02*
G75*
G02*
X144819200Y-92957200I-29J84000D01*
G01*
X144273229Y-92739359D02*
G75*
G03*
X144189159Y-92823359I-29J-84041D01*
G01*
X144609229Y-93309038D02*
G75*
G02*
X144525229Y-93393029I-84029J38D01*
G01*
X144693229Y-92739371D02*
G75*
G03*
X144609171Y-92823371I-29J-84029D01*
G01*
X144063229Y-93393046D02*
G75*
G02*
X143979154Y-93309046I-29J84046D01*
G01*
X144399229Y-92823359D02*
G75*
G03*
X144315229Y-92739371I-84029J-41D01*
G01*
X140913000Y-95507600D02*
G75*
G02*
X140993000Y-95587600I0J-80000D01*
G01*
X144819229Y-92823371D02*
G75*
G03*
X144735229Y-92739371I-84029J-29D01*
G01*
X140723000Y-94107600D02*
G75*
G03*
X140643000Y-94187600I0J-80000D01*
G01*
X140643000Y-93827600D02*
G75*
G03*
X140723000Y-93907600I80000J0D01*
G01*
X140893000Y-95227600D02*
G75*
G02*
X140813000Y-95307600I-80000J0D01*
G01*
%TO.N,/MCU/FLASH_BK2_IO0*%
X146770600Y-92441200D02*
X146278600Y-92441200D01*
X139293600Y-102108000D02*
X137617200Y-103784400D01*
X136639200Y-104593522D02*
X137445200Y-104593522D01*
X137445200Y-104163522D02*
X136639200Y-104163522D01*
X136467200Y-107775522D02*
X136467200Y-107861522D01*
X136467200Y-106055522D02*
X136467200Y-106141522D01*
X145846800Y-93700600D02*
X143042600Y-93700600D01*
X136639200Y-108033522D02*
X137445200Y-108033522D01*
X137445200Y-107603522D02*
X136639200Y-107603522D01*
X137445200Y-105023522D02*
X136639200Y-105023522D01*
X147070600Y-92741200D02*
X146770600Y-92441200D01*
X136467200Y-105195522D02*
X136467200Y-105281522D01*
X146075400Y-93472000D02*
X145846800Y-93700600D01*
X137445200Y-105883522D02*
X136639200Y-105883522D01*
X137617200Y-108205522D02*
X137617200Y-108291522D01*
X137617200Y-103784400D02*
X137617200Y-103991522D01*
X136467200Y-104335522D02*
X136467200Y-104421522D01*
X137617200Y-107345522D02*
X137617200Y-107431522D01*
X142266400Y-96341200D02*
X141096335Y-96341200D01*
X136639200Y-107173522D02*
X137445200Y-107173522D01*
X143042600Y-93700600D02*
X142870600Y-93872600D01*
X142870600Y-93872600D02*
X142870600Y-95737000D01*
X137617200Y-108291522D02*
X137617200Y-108918780D01*
X146278600Y-92441200D02*
X146075400Y-92644400D01*
X137617200Y-104765522D02*
X137617200Y-104851522D01*
X136467200Y-106915522D02*
X136467200Y-107001522D01*
X137617200Y-106485522D02*
X137617200Y-106571522D01*
X146075400Y-92644400D02*
X146075400Y-93472000D01*
X137617200Y-105625522D02*
X137617200Y-105711522D01*
X137617200Y-108918780D02*
X137617200Y-109554600D01*
X136639200Y-106313522D02*
X137445200Y-106313522D01*
X139293600Y-100866842D02*
X139293600Y-102108000D01*
X136639200Y-105453522D02*
X137445200Y-105453522D01*
X142870600Y-95737000D02*
X142266400Y-96341200D01*
X140843000Y-96594535D02*
X140843000Y-99317442D01*
X137445200Y-106743522D02*
X136639200Y-106743522D01*
X141096335Y-96341200D02*
X140843000Y-96594535D01*
X140843000Y-99317442D02*
X139293600Y-100866842D01*
X136467200Y-107001522D02*
G75*
G03*
X136639200Y-107173500I172000J22D01*
G01*
X137617200Y-106571522D02*
G75*
G02*
X137445200Y-106743500I-172000J22D01*
G01*
X136639200Y-107603522D02*
G75*
G03*
X136467222Y-107775522I0J-171978D01*
G01*
X136639200Y-105023522D02*
G75*
G03*
X136467222Y-105195522I0J-171978D01*
G01*
X136639200Y-104163522D02*
G75*
G03*
X136467222Y-104335522I0J-171978D01*
G01*
X137617200Y-105711522D02*
G75*
G02*
X137445200Y-105883500I-172000J22D01*
G01*
X136467200Y-105281522D02*
G75*
G03*
X136639200Y-105453500I172000J22D01*
G01*
X137445200Y-104593522D02*
G75*
G02*
X137617178Y-104765522I0J-171978D01*
G01*
X136639200Y-106743522D02*
G75*
G03*
X136467222Y-106915522I0J-171978D01*
G01*
X137617200Y-104851522D02*
G75*
G02*
X137445200Y-105023500I-172000J22D01*
G01*
X136467200Y-106141522D02*
G75*
G03*
X136639200Y-106313500I172000J22D01*
G01*
X137617200Y-103991522D02*
G75*
G02*
X137445200Y-104163500I-172000J22D01*
G01*
X136639200Y-105883522D02*
G75*
G03*
X136467222Y-106055522I0J-171978D01*
G01*
X136467200Y-107861522D02*
G75*
G03*
X136639200Y-108033500I172000J22D01*
G01*
X137617200Y-107431522D02*
G75*
G02*
X137445200Y-107603500I-172000J22D01*
G01*
X137445200Y-107173522D02*
G75*
G02*
X137617178Y-107345522I0J-171978D01*
G01*
X137445200Y-105453522D02*
G75*
G02*
X137617178Y-105625522I0J-171978D01*
G01*
X136467200Y-104421522D02*
G75*
G03*
X136639200Y-104593500I172000J22D01*
G01*
X137445200Y-108033522D02*
G75*
G02*
X137617178Y-108205522I0J-171978D01*
G01*
X137445200Y-106313522D02*
G75*
G02*
X137617178Y-106485522I0J-171978D01*
G01*
%TO.N,PB7*%
X149978279Y-93698879D02*
X150953921Y-93698879D01*
X127619100Y-84350200D02*
X126975800Y-83706900D01*
X126975800Y-83706900D02*
X126975800Y-83071800D01*
X150953921Y-93698879D02*
X151653000Y-92999800D01*
X153024600Y-92999800D02*
X153549400Y-92475000D01*
X152330929Y-84350200D02*
X127619100Y-84350200D01*
X153549400Y-92475000D02*
X153549400Y-85568671D01*
X151653000Y-92999800D02*
X153024600Y-92999800D01*
X153549400Y-85568671D02*
X152330929Y-84350200D01*
X149670600Y-93391200D02*
X149978279Y-93698879D01*
%TO.N,PB5*%
X153749400Y-92732200D02*
X153749400Y-85485828D01*
X151145000Y-94041200D02*
X151364000Y-93822200D01*
X152413772Y-84150200D02*
X128727200Y-84150200D01*
X128727200Y-84150200D02*
X128245800Y-83668800D01*
X153749400Y-85485828D02*
X152413772Y-84150200D01*
X150320600Y-94041200D02*
X151145000Y-94041200D01*
X151364000Y-93822200D02*
X152659400Y-93822200D01*
X128245800Y-83668800D02*
X128245800Y-83071800D01*
X152659400Y-93822200D02*
X153749400Y-92732200D01*
%TO.N,PB8*%
X150728200Y-93391200D02*
X151719600Y-92399800D01*
X126337200Y-84736800D02*
X125310800Y-84736800D01*
X150320600Y-93391200D02*
X150728200Y-93391200D01*
X152786400Y-92399800D02*
X153349400Y-91836800D01*
X153349400Y-85651514D02*
X152248086Y-84550200D01*
X153349400Y-91836800D02*
X153349400Y-85651514D01*
X151719600Y-92399800D02*
X152786400Y-92399800D01*
X126523800Y-84550200D02*
X126337200Y-84736800D01*
X152248086Y-84550200D02*
X126523800Y-84550200D01*
%TO.N,PB9*%
X149670600Y-92741200D02*
X149970600Y-93041200D01*
X125905400Y-86006800D02*
X125310800Y-86006800D01*
X151826200Y-91759800D02*
X152626400Y-91759800D01*
X153149400Y-91236800D02*
X153149400Y-85734357D01*
X126365000Y-85547200D02*
X125905400Y-86006800D01*
X152165243Y-84750200D02*
X126606642Y-84750200D01*
X150544800Y-93041200D02*
X151826200Y-91759800D01*
X126606642Y-84750200D02*
X126365000Y-84991842D01*
X149970600Y-93041200D02*
X150544800Y-93041200D01*
X126365000Y-84991842D02*
X126365000Y-85547200D01*
X152626400Y-91759800D02*
X153149400Y-91236800D01*
X153149400Y-85734357D02*
X152165243Y-84750200D01*
%TO.N,PC7*%
X132688000Y-111836200D02*
X143150958Y-111836200D01*
X144091000Y-103686000D02*
X145135600Y-102641400D01*
X145135600Y-101176200D02*
X146420600Y-99891200D01*
X132055800Y-113071800D02*
X132055800Y-112468400D01*
X144091000Y-110896158D02*
X144091000Y-103686000D01*
X145135600Y-102641400D02*
X145135600Y-101176200D01*
X132055800Y-112468400D02*
X132688000Y-111836200D01*
X143150958Y-111836200D02*
X144091000Y-110896158D01*
%TO.N,PC6*%
X143891000Y-103301800D02*
X144424400Y-102768400D01*
X143891000Y-110813316D02*
X143891000Y-103301800D01*
X144424400Y-102768400D02*
X144424400Y-101237400D01*
X131572000Y-111633000D02*
X143071316Y-111633000D01*
X143071316Y-111633000D02*
X143891000Y-110813316D01*
X130785800Y-112419200D02*
X131572000Y-111633000D01*
X144424400Y-101237400D02*
X145770600Y-99891200D01*
X130785800Y-113071800D02*
X130785800Y-112419200D01*
%TO.N,PC8*%
X146720600Y-99766935D02*
X146720600Y-100142000D01*
X146420600Y-99466935D02*
X146720600Y-99766935D01*
X133325800Y-112419200D02*
X133325800Y-113071800D01*
X144291000Y-110979000D02*
X143230600Y-112039400D01*
X145846800Y-101015800D02*
X145846800Y-102590600D01*
X133705600Y-112039400D02*
X133325800Y-112419200D01*
X146420600Y-99241200D02*
X146420600Y-99466935D01*
X145846800Y-102590600D02*
X144291000Y-104146400D01*
X146720600Y-100142000D02*
X145846800Y-101015800D01*
X143230600Y-112039400D02*
X133705600Y-112039400D01*
X144291000Y-104146400D02*
X144291000Y-110979000D01*
%TD*%
M02*
