%TF.GenerationSoftware,KiCad,Pcbnew,8.0.1*%
%TF.CreationDate,2024-09-11T08:29:47+07:00*%
%TF.ProjectId,siplex-som-s16,7369706c-6578-42d7-936f-6d2d7331362e,rev?*%
%TF.SameCoordinates,Original*%
%TF.FileFunction,Legend,Top*%
%TF.FilePolarity,Positive*%
%FSLAX46Y46*%
G04 Gerber Fmt 4.6, Leading zero omitted, Abs format (unit mm)*
G04 Created by KiCad (PCBNEW 8.0.1) date 2024-09-11 08:29:47*
%MOMM*%
%LPD*%
G01*
G04 APERTURE LIST*
%ADD10C,0.120000*%
G04 APERTURE END LIST*
D10*
%TO.C,C36*%
X144869780Y-103477600D02*
X144588620Y-103477600D01*
X144869780Y-104497600D02*
X144588620Y-104497600D01*
%TO.C,U5*%
X136412200Y-101804600D02*
X136412200Y-109804600D01*
X142632200Y-101814600D02*
X142632200Y-109804600D01*
X142312200Y-101574600D02*
X141832200Y-101574600D01*
X141832200Y-101094600D01*
X142312200Y-101574600D01*
G36*
X142312200Y-101574600D02*
G01*
X141832200Y-101574600D01*
X141832200Y-101094600D01*
X142312200Y-101574600D01*
G37*
%TO.C,C1*%
X138995036Y-96820400D02*
X138779364Y-96820400D01*
X138995036Y-97540400D02*
X138779364Y-97540400D01*
%TO.C,C40*%
X141753000Y-88309564D02*
X141753000Y-88525236D01*
X142473000Y-88309564D02*
X142473000Y-88525236D01*
%TO.C,R6*%
X149556200Y-107568241D02*
X149556200Y-107260959D01*
X150316200Y-107568241D02*
X150316200Y-107260959D01*
%TO.C,U1*%
X140660600Y-90231200D02*
X149880600Y-90231200D01*
X140660600Y-100451200D02*
X140660600Y-90231200D01*
X150880600Y-91231200D02*
X150880600Y-100451200D01*
X150880600Y-100451200D02*
X140660600Y-100451200D01*
X151380600Y-90231200D02*
X150880600Y-90231200D01*
X150880600Y-89731200D01*
X151380600Y-90231200D01*
G36*
X151380600Y-90231200D02*
G01*
X150880600Y-90231200D01*
X150880600Y-89731200D01*
X151380600Y-90231200D01*
G37*
%TO.C,R8*%
X150521400Y-105383359D02*
X150521400Y-105690641D01*
X151281400Y-105383359D02*
X151281400Y-105690641D01*
%TO.C,C2*%
X146680600Y-102152564D02*
X146680600Y-102368236D01*
X147400600Y-102152564D02*
X147400600Y-102368236D01*
%TO.C,U3*%
X128919200Y-101804600D02*
X128919200Y-109804600D01*
X135139200Y-101814600D02*
X135139200Y-109804600D01*
X134819200Y-101574600D02*
X134339200Y-101574600D01*
X134339200Y-101094600D01*
X134819200Y-101574600D01*
G36*
X134819200Y-101574600D02*
G01*
X134339200Y-101574600D01*
X134339200Y-101094600D01*
X134819200Y-101574600D01*
G37*
%TO.C,J1*%
X127055800Y-88436800D02*
X127055800Y-90036800D01*
X127055800Y-94436800D02*
X127055800Y-96036800D01*
X127055800Y-100106800D02*
X127055800Y-101706800D01*
X127055800Y-106106800D02*
X127055800Y-107706800D01*
X132275800Y-84816800D02*
X130675800Y-84816800D01*
X132275800Y-111326800D02*
X130675800Y-111326800D01*
X138275800Y-84816800D02*
X136675800Y-84816800D01*
X138275800Y-111326800D02*
X136675800Y-111326800D01*
X143945800Y-84816800D02*
X142345800Y-84816800D01*
X143945800Y-111326800D02*
X142345800Y-111326800D01*
X149945800Y-84816800D02*
X148345800Y-84816800D01*
X149945800Y-111326800D02*
X148345800Y-111326800D01*
X153565800Y-88436800D02*
X153565800Y-90036800D01*
X153565800Y-94436800D02*
X153565800Y-96036800D01*
X153565800Y-100106800D02*
X153565800Y-101706800D01*
X153565800Y-106106800D02*
X153565800Y-107706800D01*
%TO.C,U2*%
X128884400Y-90231200D02*
X137104400Y-90231200D01*
X128884400Y-97451200D02*
X128884400Y-90231200D01*
X137104400Y-90231200D02*
X137104400Y-98451200D01*
X137104400Y-98451200D02*
X129884400Y-98451200D01*
X128884400Y-98951200D02*
X128384400Y-98451200D01*
X128884400Y-98451200D01*
X128884400Y-98951200D01*
G36*
X128884400Y-98951200D02*
G01*
X128384400Y-98451200D01*
X128884400Y-98451200D01*
X128884400Y-98951200D01*
G37*
%TO.C,Y2*%
X148435400Y-86803400D02*
X148435400Y-88403400D01*
X148435400Y-88403400D02*
X150835400Y-88403400D01*
X150835400Y-86803400D02*
X148435400Y-86803400D01*
%TO.C,L2*%
X143686600Y-107028822D02*
X143686600Y-106229578D01*
X144806600Y-107028822D02*
X144806600Y-106229578D01*
%TO.C,C44*%
X147592620Y-103488700D02*
X147873780Y-103488700D01*
X147592620Y-104508700D02*
X147873780Y-104508700D01*
%TO.C,R7*%
X149556200Y-105383359D02*
X149556200Y-105690641D01*
X150316200Y-105383359D02*
X150316200Y-105690641D01*
%TO.C,C34*%
X149336220Y-109076700D02*
X149617380Y-109076700D01*
X149336220Y-110096700D02*
X149617380Y-110096700D01*
%TO.C,C42*%
X146622380Y-109076700D02*
X146341220Y-109076700D01*
X146622380Y-110096700D02*
X146341220Y-110096700D01*
%TO.C,C10*%
X131157964Y-86025400D02*
X131373636Y-86025400D01*
X131157964Y-86745400D02*
X131373636Y-86745400D01*
%TO.C,Y1*%
X147441600Y-86078200D02*
X144741600Y-86078200D01*
X147441600Y-88378200D02*
X147441600Y-86078200D01*
%TO.C,C8*%
X139873400Y-88499836D02*
X139873400Y-88284164D01*
X140593400Y-88499836D02*
X140593400Y-88284164D01*
%TO.C,U7*%
X146191800Y-106787100D02*
X146191800Y-105987100D01*
X146191800Y-106787100D02*
X146191800Y-107587100D01*
X149311800Y-106787100D02*
X149311800Y-105987100D01*
X149311800Y-106787100D02*
X149311800Y-107587100D01*
X146241800Y-108087100D02*
X145911800Y-108327100D01*
X145911800Y-107847100D01*
X146241800Y-108087100D01*
G36*
X146241800Y-108087100D02*
G01*
X145911800Y-108327100D01*
X145911800Y-107847100D01*
X146241800Y-108087100D01*
G37*
%TO.C,C43*%
X145207400Y-106199264D02*
X145207400Y-106414936D01*
X145927400Y-106199264D02*
X145927400Y-106414936D01*
%TD*%
M02*
