M48
; DRILL file {KiCad 8.0.4} date 2024-10-13T16:20:35+0700
; FORMAT={-:-/ absolute / inch / decimal}
; #@! TF.CreationDate,2024-10-13T16:20:35+07:00
; #@! TF.GenerationSoftware,Kicad,Pcbnew,8.0.4
; #@! TF.FileFunction,Plated,1,8,PTH
FMAT,2
INCH
; #@! TA.AperFunction,Plated,PTH,ViaDrill
T1C0.0059
; #@! TA.AperFunction,Plated,PTH,ViaDrill
T2C0.0118
; #@! TA.AperFunction,Plated,PTH,ComponentDrill
T3C0.0256
%
G90
G05
T1
X4.96Y-4.425
X4.961Y-3.361
X4.961Y-3.411
X4.961Y-3.461
X4.961Y-3.511
X4.961Y-3.561
X4.961Y-3.611
X4.961Y-3.661
X4.961Y-3.711
X4.961Y-3.761
X4.961Y-3.811
X4.961Y-3.861
X4.961Y-3.911
X4.961Y-3.961
X4.961Y-4.011
X4.961Y-4.061
X4.961Y-4.111
X4.961Y-4.161
X4.961Y-4.211
X4.961Y-4.261
X4.961Y-4.311
X4.961Y-4.361
X4.973Y-3.31
X5.0027Y-4.1968
X5.007Y-3.744
X5.0124Y-4.2092
X5.017Y-3.72
X5.017Y-3.761
X5.023Y-4.221
X5.024Y-3.298
X5.024Y-4.425
X5.0332Y-4.233
X5.038Y-3.7318
X5.047Y-3.7675
X5.062Y-3.9603
X5.062Y-3.976
X5.074Y-3.298
X5.074Y-4.425
X5.0785Y-3.4764
X5.0785Y-3.5016
X5.11Y-3.4764
X5.11Y-3.5016
X5.11Y-3.6197
X5.11Y-3.7772
X5.11Y-3.8087
X5.11Y-3.8402
X5.123Y-4.3132
X5.1234Y-4.0176
X5.124Y-3.298
X5.124Y-4.425
X5.1258Y-3.9264
X5.1258Y-3.9516
X5.1415Y-3.4764
X5.1415Y-3.5016
X5.1415Y-3.5882
X5.1415Y-3.6197
X5.1415Y-3.6512
X5.1415Y-3.8087
X5.1415Y-3.8402
X5.173Y-4.0179
X5.173Y-4.3132
X5.173Y-3.5882
X5.173Y-3.6197
X5.173Y-3.7772
X5.173Y-3.8087
X5.173Y-3.8402
X5.174Y-3.298
X5.174Y-4.425
X5.1888Y-3.9264
X5.1888Y-3.9516
X5.2045Y-3.5882
X5.2045Y-3.6197
X5.2045Y-3.6512
X5.2045Y-3.8087
X5.2045Y-3.8402
X5.223Y-4.0179
X5.223Y-4.3132
X5.224Y-3.298
X5.224Y-4.425
X5.236Y-3.5882
X5.236Y-3.6197
X5.236Y-3.7772
X5.236Y-3.8087
X5.236Y-3.8402
X5.2517Y-3.4764
X5.2517Y-3.5016
X5.2675Y-3.5882
X5.2675Y-3.6197
X5.2675Y-3.6512
X5.2675Y-3.7772
X5.2675Y-3.8087
X5.2675Y-3.8402
X5.273Y-4.0179
X5.274Y-3.298
X5.274Y-4.425
X5.28Y-3.4764
X5.28Y-3.5016
X5.299Y-3.5882
X5.299Y-3.6197
X5.299Y-3.6512
X5.299Y-3.7772
X5.299Y-3.8087
X5.299Y-3.8402
X5.324Y-3.298
X5.324Y-4.425
X5.3305Y-3.5882
X5.3305Y-3.6197
X5.3305Y-3.6512
X5.3305Y-3.7772
X5.3305Y-3.8087
X5.3305Y-3.8402
X5.3398Y-4.0431
X5.3398Y-4.288
X5.3398Y-4.3132
X5.361Y-3.438
X5.362Y-3.6197
X5.362Y-3.6512
X5.362Y-3.7772
X5.362Y-3.8087
X5.362Y-3.8402
X5.374Y-3.298
X5.374Y-4.425
X5.3984Y-3.4181
X5.418Y-4.0179
X5.418Y-4.3132
X5.424Y-3.298
X5.424Y-4.425
X5.4308Y-3.3612
X5.4454Y-3.4027
X5.4491Y-3.826
X5.4555Y-3.3791
X5.461Y-3.738
X5.461Y-3.7664
X5.461Y-3.794
X5.4624Y-3.546
X5.4624Y-3.5745
X5.468Y-4.0179
X5.468Y-4.3132
X5.4713Y-3.3786
X5.474Y-3.298
X5.474Y-4.425
X5.4862Y-3.738
X5.4862Y-3.7664
X5.4862Y-3.794
X5.4869Y-3.826
X5.487Y-3.3786
X5.502Y-3.386
X5.518Y-4.0179
X5.518Y-4.3132
X5.521Y-3.4611
X5.524Y-3.298
X5.524Y-4.425
X5.558Y-3.4609
X5.5599Y-3.6
X5.5599Y-3.6256
X5.5599Y-3.6512
X5.5599Y-3.6768
X5.5599Y-3.7024
X5.5599Y-3.728
X5.5599Y-3.7536
X5.5599Y-3.7792
X5.5599Y-3.8048
X5.5599Y-3.8304
X5.5599Y-3.856
X5.5599Y-3.8815
X5.5599Y-3.9071
X5.5599Y-3.9327
X5.568Y-4.0179
X5.574Y-3.298
X5.574Y-4.425
X5.5855Y-3.6
X5.5855Y-3.6256
X5.5855Y-3.6512
X5.5855Y-3.6768
X5.5855Y-3.7024
X5.5855Y-3.728
X5.5855Y-3.7536
X5.5855Y-3.7792
X5.5855Y-3.8048
X5.5855Y-3.8304
X5.5855Y-3.856
X5.5855Y-3.8815
X5.5855Y-3.9071
X5.5855Y-3.9327
X5.595Y-3.4621
X5.595Y-3.4999
X5.611Y-3.5745
X5.611Y-3.6
X5.611Y-3.6256
X5.611Y-3.6512
X5.611Y-3.6768
X5.611Y-3.7024
X5.611Y-3.728
X5.611Y-3.8304
X5.611Y-3.856
X5.611Y-3.9327
X5.624Y-3.298
X5.624Y-4.425
X5.625Y-3.416
X5.627Y-3.4754
X5.627Y-3.5006
X5.6348Y-4.0431
X5.6348Y-4.288
X5.6348Y-4.3132
X5.6366Y-3.5745
X5.6366Y-3.6
X5.6366Y-3.6256
X5.6366Y-3.6512
X5.6366Y-3.6768
X5.6366Y-3.7024
X5.6366Y-3.728
X5.6366Y-3.7536
X5.6366Y-3.7792
X5.6366Y-3.8304
X5.6366Y-3.856
X5.6366Y-3.8815
X5.6366Y-3.9071
X5.6366Y-3.9327
X5.655Y-3.4756
X5.6622Y-3.5745
X5.6622Y-3.6
X5.6622Y-3.6256
X5.6622Y-3.6512
X5.6622Y-3.856
X5.6622Y-3.8815
X5.6622Y-3.9071
X5.6622Y-3.9327
X5.673Y-4.0054
X5.673Y-4.0306
X5.674Y-3.298
X5.674Y-4.425
X5.6826Y-3.4756
X5.6826Y-3.501
X5.6878Y-3.5745
X5.6878Y-3.6
X5.6878Y-3.6256
X5.6878Y-3.7024
X5.6878Y-3.728
X5.6878Y-3.7536
X5.6878Y-3.7792
X5.6878Y-3.8048
X5.6878Y-3.856
X5.6878Y-3.8815
X5.6878Y-3.9071
X5.6878Y-3.9327
X5.7006Y-4.0054
X5.7006Y-4.0306
X5.7115Y-3.4992
X5.7134Y-3.6
X5.7134Y-3.6256
X5.7134Y-3.6512
X5.7134Y-3.7024
X5.7134Y-3.728
X5.7134Y-3.7536
X5.7134Y-3.7792
X5.7134Y-3.8048
X5.7134Y-3.9071
X5.7134Y-3.9327
X5.724Y-3.298
X5.724Y-4.425
X5.729Y-4.0054
X5.729Y-4.0306
X5.739Y-3.6
X5.739Y-3.6256
X5.739Y-3.6512
X5.739Y-3.7024
X5.739Y-3.728
X5.739Y-3.7536
X5.739Y-3.7792
X5.739Y-3.8048
X5.739Y-3.856
X5.739Y-3.9071
X5.739Y-3.9327
X5.757Y-4.0054
X5.757Y-4.0306
X5.7646Y-3.6
X5.7646Y-3.6512
X5.7646Y-3.7024
X5.7646Y-3.728
X5.7646Y-3.7536
X5.7646Y-3.7792
X5.7646Y-3.8048
X5.7646Y-3.856
X5.7646Y-3.9071
X5.7646Y-3.9327
X5.774Y-3.298
X5.774Y-4.425
X5.789Y-4.0071
X5.789Y-4.0449
X5.7902Y-3.6
X5.7902Y-3.6512
X5.7902Y-3.7024
X5.7902Y-3.728
X5.7902Y-3.7536
X5.7902Y-3.7792
X5.7902Y-3.8048
X5.7902Y-3.856
X5.7902Y-3.9071
X5.7902Y-3.9327
X5.7918Y-3.4992
X5.8158Y-3.6
X5.8158Y-3.6256
X5.8158Y-3.856
X5.8158Y-3.8815
X5.8158Y-3.9071
X5.8158Y-3.9327
X5.8161Y-3.968
X5.822Y-3.474
X5.822Y-3.4992
X5.824Y-3.298
X5.824Y-4.425
X5.828Y-3.9808
X5.832Y-4.002
X5.8363Y-4.0313
X5.8414Y-3.6256
X5.8414Y-3.6512
X5.8414Y-3.6768
X5.8414Y-3.7024
X5.8414Y-3.728
X5.8414Y-3.7536
X5.8414Y-3.7792
X5.8414Y-3.8304
X5.8414Y-3.856
X5.8414Y-3.8815
X5.8414Y-3.9071
X5.8414Y-3.9327
X5.8425Y-3.9747
X5.8489Y-4.0019
X5.851Y-3.499
X5.86Y-4.026
X5.867Y-3.5745
X5.867Y-3.6
X5.867Y-3.6256
X5.867Y-3.6512
X5.867Y-3.7024
X5.867Y-3.8048
X5.867Y-3.8304
X5.867Y-3.856
X5.867Y-3.8815
X5.867Y-3.9071
X5.867Y-3.9327
X5.874Y-3.298
X5.874Y-4.425
X5.8777Y-4.0287
X5.8801Y-4.0531
X5.8925Y-3.5745
X5.8925Y-3.6
X5.8925Y-3.6256
X5.8925Y-3.6512
X5.8925Y-3.6768
X5.8925Y-3.7024
X5.8925Y-3.728
X5.8925Y-3.7536
X5.8925Y-3.7792
X5.8925Y-3.8048
X5.8925Y-3.8304
X5.8925Y-3.856
X5.8925Y-3.8815
X5.8925Y-3.9071
X5.8925Y-3.9327
X5.903Y-4.1349
X5.911Y-3.54
X5.911Y-4.069
X5.9181Y-3.6256
X5.9181Y-3.6512
X5.9181Y-3.6768
X5.9181Y-3.7024
X5.9181Y-3.728
X5.9181Y-3.7536
X5.9181Y-3.7792
X5.9181Y-3.8048
X5.9181Y-3.8304
X5.9181Y-3.856
X5.9181Y-3.8815
X5.9181Y-3.9071
X5.9181Y-3.9327
X5.924Y-3.298
X5.9275Y-3.5572
X5.9313Y-3.499
X5.941Y-4.1751
X5.961Y-3.4728
X5.961Y-3.498
X5.962Y-3.741
X5.968Y-3.5497
X5.974Y-3.298
X5.989Y-3.4728
X5.989Y-3.498
X5.989Y-3.5684
X5.989Y-3.5936
X5.989Y-3.6244
X5.989Y-3.6496
X5.989Y-3.6804
X5.989Y-3.7056
X5.989Y-3.7364
X5.989Y-3.7616
X5.989Y-3.792
X5.989Y-3.8172
X5.992Y-3.8756
X5.992Y-3.8914
X5.992Y-3.9071
X5.992Y-3.9312
X6.024Y-3.298
X6.087Y-3.297
X6.087Y-4.425
X6.088Y-3.361
X6.088Y-3.411
X6.088Y-3.461
X6.088Y-3.511
X6.088Y-3.561
X6.088Y-3.611
X6.088Y-3.661
X6.088Y-3.711
X6.088Y-3.761
X6.088Y-3.811
X6.088Y-3.861
X6.088Y-3.911
X6.088Y-3.961
X6.088Y-4.011
X6.088Y-4.061
X6.088Y-4.111
X6.088Y-4.161
X6.088Y-4.211
X6.088Y-4.261
X6.088Y-4.311
X6.088Y-4.361
T2
X5.015Y-3.998
X5.041Y-3.682
X5.052Y-3.847
X5.053Y-4.328
X5.073Y-3.424
X5.084Y-4.026
X5.1586Y-4.1262
X5.1586Y-4.1655
X5.1586Y-4.2049
X5.198Y-4.1262
X5.198Y-4.1655
X5.198Y-4.2049
X5.199Y-3.49
X5.21Y-4.269
X5.2374Y-4.1262
X5.2374Y-4.1655
X5.2374Y-4.2049
X5.4536Y-4.1262
X5.4536Y-4.1655
X5.4536Y-4.2049
X5.493Y-4.1262
X5.493Y-4.1655
X5.493Y-4.2049
X5.5324Y-4.1262
X5.5324Y-4.1655
X5.5324Y-4.2049
X5.554Y-3.428
X5.683Y-3.412
X5.718Y-4.13
X5.7365Y-4.3144
X5.744Y-4.13
X5.757Y-4.095
X5.7796Y-4.249
X5.784Y-4.095
X5.815Y-3.432
X5.889Y-3.4
X5.9154Y-4.3144
X5.943Y-4.043
X5.955Y-3.441
X5.964Y-4.223
X5.983Y-4.312
T3
X4.9335Y-3.3361
X4.9335Y-3.3861
X4.9335Y-3.4361
X4.9335Y-3.4861
X4.9335Y-3.5361
X4.9335Y-3.5861
X4.9335Y-3.6361
X4.9335Y-3.6861
X4.9335Y-3.7361
X4.9335Y-3.7861
X4.9335Y-3.8361
X4.9335Y-3.8861
X4.9335Y-3.9361
X4.9335Y-3.9861
X4.9335Y-4.0361
X4.9335Y-4.0861
X4.9335Y-4.1361
X4.9335Y-4.1861
X4.9335Y-4.2361
X4.9335Y-4.2861
X4.9335Y-4.3361
X4.9335Y-4.3861
X4.999Y-3.2705
X4.999Y-4.4516
X5.049Y-3.2705
X5.049Y-4.4516
X5.099Y-3.2705
X5.099Y-4.4516
X5.149Y-3.2705
X5.149Y-4.4516
X5.199Y-3.2705
X5.199Y-4.4516
X5.249Y-3.2705
X5.249Y-4.4516
X5.299Y-3.2705
X5.299Y-4.4516
X5.349Y-3.2705
X5.349Y-4.4516
X5.399Y-3.2705
X5.399Y-4.4516
X5.449Y-3.2705
X5.449Y-4.4516
X5.499Y-3.2705
X5.499Y-4.4516
X5.549Y-3.2705
X5.549Y-4.4516
X5.599Y-3.2705
X5.599Y-4.4516
X5.649Y-3.2705
X5.649Y-4.4516
X5.699Y-3.2705
X5.699Y-4.4516
X5.749Y-3.2705
X5.749Y-4.4516
X5.799Y-3.2705
X5.799Y-4.4516
X5.849Y-3.2705
X5.849Y-4.4516
X5.899Y-3.2705
X5.899Y-4.4516
X5.949Y-3.2705
X5.949Y-4.4516
X5.999Y-3.2705
X5.999Y-4.4516
X6.049Y-3.2705
X6.049Y-4.4516
X6.1146Y-3.3361
X6.1146Y-3.3861
X6.1146Y-3.4361
X6.1146Y-3.4861
X6.1146Y-3.5361
X6.1146Y-3.5861
X6.1146Y-3.6361
X6.1146Y-3.6861
X6.1146Y-3.7361
X6.1146Y-3.7861
X6.1146Y-3.8361
X6.1146Y-3.8861
X6.1146Y-3.9361
X6.1146Y-3.9861
X6.1146Y-4.0361
X6.1146Y-4.0861
X6.1146Y-4.1361
X6.1146Y-4.1861
X6.1146Y-4.2361
X6.1146Y-4.2861
X6.1146Y-4.3361
X6.1146Y-4.3861
M30
